G04 EAGLE Gerber RS-274X export*
G75*
%MOMM*%
%FSLAX34Y34*%
%LPD*%
%INBottom Silkscreen*%
%IPPOS*%
%AMOC8*
5,1,8,0,0,1.08239X$1,22.5*%
G01*
%ADD10C,8.980250*%
%ADD11C,0.101600*%
%ADD12C,0.076200*%
%ADD13C,0.152400*%
%ADD14C,0.127000*%
%ADD15C,0.000000*%


D10*
X812800Y88900D03*
X190500Y88900D03*
D11*
X17018Y60000D02*
X17018Y56388D01*
X25146Y56388D01*
X25146Y60000D01*
X21534Y59097D02*
X21534Y56388D01*
X22437Y63404D02*
X17018Y63404D01*
X22437Y63404D02*
X22437Y65662D01*
X22435Y65735D01*
X22429Y65808D01*
X22419Y65881D01*
X22405Y65953D01*
X22388Y66024D01*
X22366Y66095D01*
X22341Y66164D01*
X22312Y66231D01*
X22279Y66297D01*
X22243Y66361D01*
X22204Y66422D01*
X22161Y66482D01*
X22115Y66539D01*
X22066Y66594D01*
X22014Y66646D01*
X21959Y66695D01*
X21902Y66741D01*
X21842Y66783D01*
X21781Y66823D01*
X21717Y66859D01*
X21651Y66892D01*
X21584Y66921D01*
X21515Y66946D01*
X21445Y66968D01*
X21373Y66985D01*
X21301Y66999D01*
X21229Y67009D01*
X21155Y67015D01*
X21082Y67017D01*
X21082Y67016D02*
X17018Y67016D01*
X20179Y72340D02*
X20179Y74372D01*
X20178Y72340D02*
X20176Y72261D01*
X20170Y72183D01*
X20160Y72105D01*
X20147Y72027D01*
X20129Y71950D01*
X20108Y71874D01*
X20083Y71800D01*
X20054Y71726D01*
X20022Y71654D01*
X19986Y71584D01*
X19946Y71516D01*
X19903Y71450D01*
X19857Y71386D01*
X19808Y71324D01*
X19756Y71265D01*
X19701Y71209D01*
X19643Y71155D01*
X19583Y71105D01*
X19520Y71057D01*
X19455Y71013D01*
X19388Y70972D01*
X19319Y70934D01*
X19248Y70900D01*
X19175Y70869D01*
X19101Y70842D01*
X19026Y70819D01*
X18950Y70800D01*
X18872Y70784D01*
X18794Y70772D01*
X18716Y70764D01*
X18637Y70760D01*
X18559Y70760D01*
X18480Y70764D01*
X18402Y70772D01*
X18324Y70784D01*
X18246Y70800D01*
X18170Y70819D01*
X18095Y70842D01*
X18021Y70869D01*
X17948Y70900D01*
X17877Y70934D01*
X17808Y70972D01*
X17741Y71013D01*
X17676Y71057D01*
X17613Y71105D01*
X17553Y71155D01*
X17495Y71209D01*
X17440Y71265D01*
X17388Y71324D01*
X17339Y71386D01*
X17293Y71450D01*
X17250Y71516D01*
X17210Y71584D01*
X17174Y71654D01*
X17142Y71726D01*
X17113Y71800D01*
X17088Y71874D01*
X17067Y71950D01*
X17049Y72027D01*
X17036Y72105D01*
X17026Y72183D01*
X17020Y72261D01*
X17018Y72340D01*
X17018Y74372D01*
X21082Y74372D01*
X21082Y74373D02*
X21153Y74371D01*
X21224Y74366D01*
X21294Y74356D01*
X21364Y74343D01*
X21433Y74327D01*
X21501Y74307D01*
X21568Y74283D01*
X21633Y74256D01*
X21697Y74225D01*
X21760Y74191D01*
X21820Y74154D01*
X21878Y74114D01*
X21935Y74071D01*
X21989Y74025D01*
X22040Y73976D01*
X22089Y73925D01*
X22135Y73871D01*
X22178Y73814D01*
X22218Y73756D01*
X22255Y73695D01*
X22289Y73633D01*
X22320Y73569D01*
X22347Y73504D01*
X22371Y73437D01*
X22391Y73369D01*
X22407Y73300D01*
X22420Y73230D01*
X22430Y73160D01*
X22435Y73089D01*
X22437Y73018D01*
X22437Y71211D01*
X25146Y78542D02*
X17018Y78542D01*
X17018Y80800D01*
X17020Y80873D01*
X17026Y80946D01*
X17036Y81019D01*
X17050Y81091D01*
X17067Y81162D01*
X17089Y81233D01*
X17114Y81302D01*
X17143Y81369D01*
X17176Y81435D01*
X17212Y81499D01*
X17251Y81560D01*
X17294Y81620D01*
X17340Y81677D01*
X17389Y81732D01*
X17441Y81784D01*
X17496Y81833D01*
X17553Y81879D01*
X17613Y81922D01*
X17674Y81961D01*
X17738Y81997D01*
X17804Y82030D01*
X17871Y82059D01*
X17940Y82084D01*
X18010Y82106D01*
X18082Y82123D01*
X18154Y82137D01*
X18226Y82147D01*
X18300Y82153D01*
X18373Y82155D01*
X18373Y82154D02*
X21082Y82154D01*
X21082Y82155D02*
X21153Y82153D01*
X21224Y82148D01*
X21294Y82138D01*
X21364Y82125D01*
X21433Y82109D01*
X21501Y82089D01*
X21568Y82065D01*
X21633Y82038D01*
X21697Y82007D01*
X21760Y81973D01*
X21820Y81936D01*
X21878Y81896D01*
X21935Y81853D01*
X21989Y81807D01*
X22040Y81758D01*
X22089Y81707D01*
X22135Y81653D01*
X22178Y81596D01*
X22218Y81538D01*
X22255Y81477D01*
X22289Y81415D01*
X22320Y81351D01*
X22347Y81286D01*
X22371Y81219D01*
X22391Y81151D01*
X22407Y81082D01*
X22420Y81012D01*
X22430Y80942D01*
X22435Y80871D01*
X22437Y80800D01*
X22437Y78542D01*
X25146Y85699D02*
X18373Y85699D01*
X18302Y85701D01*
X18231Y85706D01*
X18161Y85716D01*
X18091Y85729D01*
X18022Y85745D01*
X17954Y85765D01*
X17887Y85789D01*
X17822Y85816D01*
X17758Y85847D01*
X17696Y85881D01*
X17635Y85918D01*
X17577Y85958D01*
X17520Y86001D01*
X17466Y86047D01*
X17415Y86096D01*
X17366Y86147D01*
X17320Y86201D01*
X17277Y86258D01*
X17237Y86316D01*
X17200Y86377D01*
X17166Y86439D01*
X17135Y86503D01*
X17108Y86568D01*
X17084Y86635D01*
X17064Y86703D01*
X17048Y86772D01*
X17035Y86842D01*
X17025Y86912D01*
X17020Y86983D01*
X17018Y87054D01*
X17018Y91367D02*
X17018Y93625D01*
X17018Y91367D02*
X17020Y91296D01*
X17025Y91225D01*
X17035Y91155D01*
X17048Y91085D01*
X17064Y91016D01*
X17084Y90948D01*
X17108Y90881D01*
X17135Y90816D01*
X17166Y90752D01*
X17200Y90690D01*
X17237Y90629D01*
X17277Y90571D01*
X17320Y90514D01*
X17366Y90460D01*
X17415Y90409D01*
X17466Y90360D01*
X17520Y90314D01*
X17577Y90271D01*
X17635Y90231D01*
X17696Y90194D01*
X17758Y90160D01*
X17822Y90129D01*
X17887Y90102D01*
X17954Y90078D01*
X18022Y90058D01*
X18091Y90042D01*
X18161Y90029D01*
X18231Y90019D01*
X18302Y90014D01*
X18373Y90012D01*
X18373Y90013D02*
X20630Y90013D01*
X20713Y90015D01*
X20797Y90021D01*
X20880Y90030D01*
X20962Y90044D01*
X21043Y90061D01*
X21124Y90082D01*
X21204Y90107D01*
X21282Y90135D01*
X21359Y90167D01*
X21435Y90202D01*
X21509Y90241D01*
X21581Y90284D01*
X21651Y90329D01*
X21718Y90378D01*
X21784Y90430D01*
X21847Y90484D01*
X21907Y90542D01*
X21965Y90602D01*
X22019Y90665D01*
X22071Y90731D01*
X22120Y90798D01*
X22165Y90868D01*
X22208Y90940D01*
X22247Y91014D01*
X22282Y91090D01*
X22314Y91167D01*
X22342Y91245D01*
X22367Y91325D01*
X22388Y91406D01*
X22405Y91487D01*
X22419Y91569D01*
X22428Y91652D01*
X22434Y91736D01*
X22436Y91819D01*
X22434Y91902D01*
X22428Y91986D01*
X22419Y92069D01*
X22405Y92151D01*
X22388Y92232D01*
X22367Y92313D01*
X22342Y92393D01*
X22314Y92471D01*
X22282Y92548D01*
X22247Y92624D01*
X22208Y92698D01*
X22165Y92770D01*
X22120Y92840D01*
X22071Y92907D01*
X22019Y92973D01*
X21965Y93036D01*
X21907Y93096D01*
X21847Y93154D01*
X21784Y93208D01*
X21718Y93260D01*
X21651Y93309D01*
X21581Y93354D01*
X21509Y93397D01*
X21435Y93436D01*
X21359Y93471D01*
X21282Y93503D01*
X21204Y93531D01*
X21124Y93556D01*
X21043Y93577D01*
X20962Y93594D01*
X20880Y93608D01*
X20797Y93617D01*
X20713Y93623D01*
X20630Y93625D01*
X19727Y93625D01*
X19727Y90013D01*
X17018Y101925D02*
X25146Y101925D01*
X17018Y101925D02*
X17018Y105537D01*
X17018Y109057D02*
X17018Y112670D01*
X17018Y109057D02*
X25146Y109057D01*
X25146Y112670D01*
X21534Y111767D02*
X21534Y109057D01*
X25146Y116170D02*
X17018Y116170D01*
X25146Y116170D02*
X25146Y118428D01*
X25144Y118521D01*
X25138Y118614D01*
X25129Y118707D01*
X25115Y118800D01*
X25098Y118891D01*
X25077Y118982D01*
X25052Y119072D01*
X25024Y119161D01*
X24992Y119249D01*
X24956Y119335D01*
X24917Y119420D01*
X24874Y119503D01*
X24828Y119584D01*
X24778Y119663D01*
X24726Y119740D01*
X24670Y119815D01*
X24611Y119887D01*
X24549Y119957D01*
X24485Y120025D01*
X24417Y120089D01*
X24347Y120151D01*
X24275Y120210D01*
X24200Y120266D01*
X24123Y120318D01*
X24044Y120368D01*
X23963Y120414D01*
X23880Y120457D01*
X23795Y120496D01*
X23709Y120532D01*
X23621Y120564D01*
X23532Y120592D01*
X23442Y120617D01*
X23351Y120638D01*
X23260Y120655D01*
X23167Y120669D01*
X23074Y120678D01*
X22981Y120684D01*
X22888Y120686D01*
X19276Y120686D01*
X19183Y120684D01*
X19090Y120678D01*
X18997Y120669D01*
X18904Y120655D01*
X18813Y120638D01*
X18722Y120617D01*
X18632Y120592D01*
X18543Y120564D01*
X18455Y120532D01*
X18369Y120496D01*
X18284Y120457D01*
X18201Y120414D01*
X18120Y120368D01*
X18041Y120318D01*
X17964Y120266D01*
X17889Y120210D01*
X17817Y120151D01*
X17747Y120089D01*
X17679Y120025D01*
X17615Y119957D01*
X17553Y119887D01*
X17494Y119815D01*
X17438Y119740D01*
X17386Y119663D01*
X17336Y119584D01*
X17290Y119503D01*
X17247Y119420D01*
X17208Y119335D01*
X17172Y119249D01*
X17140Y119161D01*
X17112Y119072D01*
X17087Y118982D01*
X17066Y118891D01*
X17049Y118800D01*
X17035Y118707D01*
X17026Y118614D01*
X17020Y118521D01*
X17018Y118428D01*
X17018Y116170D01*
D12*
X386831Y83866D02*
X386831Y76500D01*
X386831Y83866D02*
X384785Y83866D01*
X384696Y83864D01*
X384607Y83858D01*
X384518Y83848D01*
X384430Y83835D01*
X384342Y83818D01*
X384255Y83796D01*
X384170Y83771D01*
X384085Y83743D01*
X384002Y83710D01*
X383920Y83674D01*
X383840Y83635D01*
X383762Y83592D01*
X383686Y83546D01*
X383611Y83496D01*
X383539Y83443D01*
X383470Y83387D01*
X383403Y83328D01*
X383338Y83267D01*
X383277Y83202D01*
X383218Y83135D01*
X383162Y83066D01*
X383109Y82994D01*
X383059Y82919D01*
X383013Y82843D01*
X382970Y82765D01*
X382931Y82685D01*
X382895Y82603D01*
X382862Y82520D01*
X382834Y82435D01*
X382809Y82350D01*
X382787Y82263D01*
X382770Y82175D01*
X382757Y82087D01*
X382747Y81998D01*
X382741Y81909D01*
X382739Y81820D01*
X382741Y81731D01*
X382747Y81642D01*
X382757Y81553D01*
X382770Y81465D01*
X382787Y81377D01*
X382809Y81290D01*
X382834Y81205D01*
X382862Y81120D01*
X382895Y81037D01*
X382931Y80955D01*
X382970Y80875D01*
X383013Y80797D01*
X383059Y80721D01*
X383109Y80646D01*
X383162Y80574D01*
X383218Y80505D01*
X383277Y80438D01*
X383338Y80373D01*
X383403Y80312D01*
X383470Y80253D01*
X383539Y80197D01*
X383611Y80144D01*
X383686Y80094D01*
X383762Y80048D01*
X383840Y80005D01*
X383920Y79966D01*
X384002Y79930D01*
X384085Y79897D01*
X384170Y79869D01*
X384255Y79844D01*
X384342Y79822D01*
X384430Y79805D01*
X384518Y79792D01*
X384607Y79782D01*
X384696Y79776D01*
X384785Y79774D01*
X384785Y79773D02*
X386831Y79773D01*
X384376Y79773D02*
X382739Y76500D01*
X378418Y76500D02*
X376372Y76500D01*
X378418Y76499D02*
X378487Y76501D01*
X378555Y76507D01*
X378624Y76516D01*
X378691Y76530D01*
X378758Y76547D01*
X378824Y76568D01*
X378888Y76592D01*
X378951Y76621D01*
X379012Y76652D01*
X379071Y76687D01*
X379129Y76725D01*
X379184Y76767D01*
X379236Y76811D01*
X379286Y76859D01*
X379334Y76909D01*
X379378Y76961D01*
X379420Y77016D01*
X379458Y77074D01*
X379493Y77133D01*
X379524Y77194D01*
X379553Y77257D01*
X379577Y77321D01*
X379598Y77387D01*
X379615Y77454D01*
X379629Y77521D01*
X379638Y77590D01*
X379644Y77658D01*
X379646Y77727D01*
X379646Y79773D01*
X379644Y79852D01*
X379638Y79931D01*
X379629Y80010D01*
X379616Y80088D01*
X379598Y80165D01*
X379578Y80241D01*
X379553Y80316D01*
X379525Y80390D01*
X379494Y80463D01*
X379458Y80534D01*
X379420Y80603D01*
X379378Y80670D01*
X379333Y80735D01*
X379285Y80798D01*
X379234Y80859D01*
X379180Y80916D01*
X379124Y80972D01*
X379065Y81024D01*
X379003Y81074D01*
X378939Y81120D01*
X378873Y81164D01*
X378805Y81204D01*
X378735Y81240D01*
X378663Y81274D01*
X378589Y81304D01*
X378515Y81330D01*
X378439Y81353D01*
X378362Y81371D01*
X378285Y81387D01*
X378206Y81398D01*
X378128Y81406D01*
X378049Y81410D01*
X377969Y81410D01*
X377890Y81406D01*
X377812Y81398D01*
X377733Y81387D01*
X377656Y81371D01*
X377579Y81353D01*
X377503Y81330D01*
X377429Y81304D01*
X377355Y81274D01*
X377283Y81240D01*
X377213Y81204D01*
X377145Y81164D01*
X377079Y81120D01*
X377015Y81074D01*
X376953Y81024D01*
X376894Y80972D01*
X376838Y80916D01*
X376784Y80859D01*
X376733Y80798D01*
X376685Y80735D01*
X376640Y80670D01*
X376598Y80603D01*
X376560Y80534D01*
X376524Y80463D01*
X376493Y80390D01*
X376465Y80316D01*
X376440Y80241D01*
X376420Y80165D01*
X376402Y80088D01*
X376389Y80010D01*
X376380Y79931D01*
X376374Y79852D01*
X376372Y79773D01*
X376372Y78955D01*
X379646Y78955D01*
X373223Y77727D02*
X373223Y83866D01*
X373223Y77727D02*
X373221Y77658D01*
X373215Y77590D01*
X373206Y77521D01*
X373192Y77454D01*
X373175Y77387D01*
X373154Y77321D01*
X373130Y77257D01*
X373101Y77194D01*
X373070Y77133D01*
X373035Y77074D01*
X372997Y77016D01*
X372955Y76961D01*
X372911Y76909D01*
X372863Y76859D01*
X372813Y76811D01*
X372761Y76767D01*
X372706Y76726D01*
X372648Y76687D01*
X372589Y76652D01*
X372528Y76621D01*
X372465Y76592D01*
X372401Y76568D01*
X372335Y76547D01*
X372268Y76530D01*
X372201Y76516D01*
X372133Y76507D01*
X372064Y76501D01*
X371995Y76499D01*
X368013Y79364D02*
X366172Y79364D01*
X368013Y79364D02*
X368088Y79362D01*
X368163Y79356D01*
X368237Y79346D01*
X368311Y79333D01*
X368384Y79315D01*
X368456Y79294D01*
X368526Y79269D01*
X368595Y79240D01*
X368663Y79208D01*
X368729Y79172D01*
X368793Y79133D01*
X368855Y79091D01*
X368914Y79045D01*
X368971Y78996D01*
X369026Y78945D01*
X369077Y78890D01*
X369126Y78833D01*
X369172Y78774D01*
X369214Y78712D01*
X369253Y78648D01*
X369289Y78582D01*
X369321Y78514D01*
X369350Y78445D01*
X369375Y78375D01*
X369396Y78303D01*
X369414Y78230D01*
X369427Y78156D01*
X369437Y78082D01*
X369443Y78007D01*
X369445Y77932D01*
X369443Y77857D01*
X369437Y77782D01*
X369427Y77708D01*
X369414Y77634D01*
X369396Y77561D01*
X369375Y77489D01*
X369350Y77419D01*
X369321Y77350D01*
X369289Y77282D01*
X369253Y77216D01*
X369214Y77152D01*
X369172Y77090D01*
X369126Y77031D01*
X369077Y76974D01*
X369026Y76919D01*
X368971Y76868D01*
X368914Y76819D01*
X368855Y76773D01*
X368793Y76731D01*
X368729Y76692D01*
X368663Y76656D01*
X368595Y76624D01*
X368526Y76595D01*
X368456Y76570D01*
X368384Y76549D01*
X368311Y76531D01*
X368237Y76518D01*
X368163Y76508D01*
X368088Y76502D01*
X368013Y76500D01*
X366172Y76500D01*
X366172Y80183D01*
X366171Y80183D02*
X366173Y80252D01*
X366179Y80320D01*
X366188Y80389D01*
X366202Y80456D01*
X366219Y80523D01*
X366240Y80589D01*
X366264Y80653D01*
X366293Y80716D01*
X366324Y80777D01*
X366359Y80836D01*
X366397Y80894D01*
X366439Y80949D01*
X366483Y81001D01*
X366531Y81051D01*
X366581Y81099D01*
X366633Y81143D01*
X366688Y81185D01*
X366746Y81223D01*
X366805Y81258D01*
X366866Y81289D01*
X366929Y81318D01*
X366993Y81342D01*
X367059Y81363D01*
X367126Y81380D01*
X367193Y81394D01*
X367262Y81403D01*
X367330Y81409D01*
X367399Y81411D01*
X367399Y81410D02*
X369036Y81410D01*
X363065Y74044D02*
X362246Y74044D01*
X359791Y81410D01*
X363065Y81410D02*
X361428Y76500D01*
X396297Y66421D02*
X398752Y73787D01*
X393841Y73787D02*
X396297Y66421D01*
X391106Y68058D02*
X391106Y69695D01*
X391104Y69774D01*
X391098Y69853D01*
X391089Y69932D01*
X391076Y70010D01*
X391058Y70087D01*
X391038Y70163D01*
X391013Y70238D01*
X390985Y70312D01*
X390954Y70385D01*
X390918Y70456D01*
X390880Y70525D01*
X390838Y70592D01*
X390793Y70657D01*
X390745Y70720D01*
X390694Y70781D01*
X390640Y70838D01*
X390584Y70894D01*
X390525Y70946D01*
X390463Y70996D01*
X390399Y71042D01*
X390333Y71086D01*
X390265Y71126D01*
X390195Y71162D01*
X390123Y71196D01*
X390049Y71226D01*
X389975Y71252D01*
X389899Y71275D01*
X389822Y71293D01*
X389745Y71309D01*
X389666Y71320D01*
X389588Y71328D01*
X389509Y71332D01*
X389429Y71332D01*
X389350Y71328D01*
X389272Y71320D01*
X389193Y71309D01*
X389116Y71293D01*
X389039Y71275D01*
X388963Y71252D01*
X388889Y71226D01*
X388815Y71196D01*
X388743Y71162D01*
X388673Y71126D01*
X388605Y71086D01*
X388539Y71042D01*
X388475Y70996D01*
X388413Y70946D01*
X388354Y70894D01*
X388298Y70838D01*
X388244Y70781D01*
X388193Y70720D01*
X388145Y70657D01*
X388100Y70592D01*
X388058Y70525D01*
X388020Y70456D01*
X387984Y70385D01*
X387953Y70312D01*
X387925Y70238D01*
X387900Y70163D01*
X387880Y70087D01*
X387862Y70010D01*
X387849Y69932D01*
X387840Y69853D01*
X387834Y69774D01*
X387832Y69695D01*
X387832Y68058D01*
X387834Y67979D01*
X387840Y67900D01*
X387849Y67821D01*
X387862Y67743D01*
X387880Y67666D01*
X387900Y67590D01*
X387925Y67515D01*
X387953Y67441D01*
X387984Y67368D01*
X388020Y67297D01*
X388058Y67228D01*
X388100Y67161D01*
X388145Y67096D01*
X388193Y67033D01*
X388244Y66972D01*
X388298Y66915D01*
X388354Y66859D01*
X388413Y66807D01*
X388475Y66757D01*
X388539Y66711D01*
X388605Y66667D01*
X388673Y66627D01*
X388743Y66591D01*
X388815Y66557D01*
X388889Y66527D01*
X388963Y66501D01*
X389039Y66478D01*
X389116Y66460D01*
X389193Y66444D01*
X389272Y66433D01*
X389350Y66425D01*
X389429Y66421D01*
X389509Y66421D01*
X389588Y66425D01*
X389666Y66433D01*
X389745Y66444D01*
X389822Y66460D01*
X389899Y66478D01*
X389975Y66501D01*
X390049Y66527D01*
X390123Y66557D01*
X390195Y66591D01*
X390265Y66627D01*
X390333Y66667D01*
X390399Y66711D01*
X390463Y66757D01*
X390525Y66807D01*
X390584Y66859D01*
X390640Y66915D01*
X390694Y66972D01*
X390745Y67033D01*
X390793Y67096D01*
X390838Y67161D01*
X390880Y67228D01*
X390918Y67297D01*
X390954Y67368D01*
X390985Y67441D01*
X391013Y67515D01*
X391038Y67590D01*
X391058Y67666D01*
X391076Y67743D01*
X391089Y67821D01*
X391098Y67900D01*
X391104Y67979D01*
X391106Y68058D01*
X384683Y67649D02*
X384683Y73787D01*
X384684Y67649D02*
X384682Y67580D01*
X384676Y67512D01*
X384667Y67443D01*
X384653Y67376D01*
X384636Y67309D01*
X384615Y67243D01*
X384591Y67179D01*
X384562Y67116D01*
X384531Y67055D01*
X384496Y66996D01*
X384458Y66938D01*
X384416Y66883D01*
X384372Y66831D01*
X384324Y66781D01*
X384274Y66733D01*
X384222Y66689D01*
X384167Y66648D01*
X384109Y66609D01*
X384050Y66574D01*
X383989Y66543D01*
X383926Y66514D01*
X383862Y66490D01*
X383796Y66469D01*
X383729Y66452D01*
X383662Y66438D01*
X383594Y66429D01*
X383525Y66423D01*
X383456Y66421D01*
X381495Y71332D02*
X379040Y71332D01*
X380677Y73787D02*
X380677Y67649D01*
X380675Y67580D01*
X380669Y67512D01*
X380660Y67443D01*
X380646Y67376D01*
X380629Y67309D01*
X380608Y67243D01*
X380584Y67179D01*
X380555Y67116D01*
X380524Y67055D01*
X380489Y66996D01*
X380451Y66938D01*
X380409Y66883D01*
X380365Y66831D01*
X380317Y66781D01*
X380267Y66733D01*
X380215Y66689D01*
X380160Y66648D01*
X380102Y66609D01*
X380043Y66574D01*
X379982Y66543D01*
X379919Y66514D01*
X379855Y66490D01*
X379789Y66469D01*
X379722Y66452D01*
X379655Y66438D01*
X379587Y66429D01*
X379518Y66423D01*
X379449Y66421D01*
X379040Y66421D01*
X374841Y69286D02*
X372999Y69286D01*
X374841Y69285D02*
X374916Y69283D01*
X374991Y69277D01*
X375065Y69267D01*
X375139Y69254D01*
X375212Y69236D01*
X375284Y69215D01*
X375354Y69190D01*
X375423Y69161D01*
X375491Y69129D01*
X375557Y69093D01*
X375621Y69054D01*
X375683Y69012D01*
X375742Y68966D01*
X375799Y68917D01*
X375854Y68866D01*
X375905Y68811D01*
X375954Y68754D01*
X376000Y68695D01*
X376042Y68633D01*
X376081Y68569D01*
X376117Y68503D01*
X376149Y68435D01*
X376178Y68366D01*
X376203Y68296D01*
X376224Y68224D01*
X376242Y68151D01*
X376255Y68077D01*
X376265Y68003D01*
X376271Y67928D01*
X376273Y67853D01*
X376271Y67778D01*
X376265Y67703D01*
X376255Y67629D01*
X376242Y67555D01*
X376224Y67482D01*
X376203Y67410D01*
X376178Y67340D01*
X376149Y67271D01*
X376117Y67203D01*
X376081Y67137D01*
X376042Y67073D01*
X376000Y67011D01*
X375954Y66952D01*
X375905Y66895D01*
X375854Y66840D01*
X375799Y66789D01*
X375742Y66740D01*
X375683Y66694D01*
X375621Y66652D01*
X375557Y66613D01*
X375491Y66577D01*
X375423Y66545D01*
X375354Y66516D01*
X375284Y66491D01*
X375212Y66470D01*
X375139Y66452D01*
X375065Y66439D01*
X374991Y66429D01*
X374916Y66423D01*
X374841Y66421D01*
X372999Y66421D01*
X372999Y70104D01*
X373001Y70173D01*
X373007Y70241D01*
X373016Y70310D01*
X373030Y70377D01*
X373047Y70444D01*
X373068Y70510D01*
X373092Y70574D01*
X373121Y70637D01*
X373152Y70698D01*
X373187Y70757D01*
X373225Y70815D01*
X373267Y70870D01*
X373311Y70922D01*
X373359Y70972D01*
X373409Y71020D01*
X373461Y71064D01*
X373516Y71106D01*
X373574Y71144D01*
X373633Y71179D01*
X373694Y71210D01*
X373757Y71239D01*
X373821Y71263D01*
X373887Y71284D01*
X373954Y71301D01*
X374021Y71315D01*
X374090Y71324D01*
X374158Y71330D01*
X374227Y71332D01*
X375864Y71332D01*
X368462Y66421D02*
X366416Y66421D01*
X368462Y66421D02*
X368531Y66423D01*
X368599Y66429D01*
X368668Y66438D01*
X368735Y66452D01*
X368802Y66469D01*
X368868Y66490D01*
X368932Y66514D01*
X368995Y66543D01*
X369056Y66574D01*
X369115Y66609D01*
X369173Y66647D01*
X369228Y66689D01*
X369280Y66733D01*
X369330Y66781D01*
X369378Y66831D01*
X369422Y66883D01*
X369464Y66938D01*
X369502Y66996D01*
X369537Y67055D01*
X369568Y67116D01*
X369597Y67179D01*
X369621Y67243D01*
X369642Y67309D01*
X369659Y67376D01*
X369673Y67443D01*
X369682Y67512D01*
X369688Y67580D01*
X369690Y67649D01*
X369689Y67649D02*
X369689Y70104D01*
X369690Y70104D02*
X369688Y70173D01*
X369682Y70241D01*
X369673Y70310D01*
X369659Y70377D01*
X369642Y70444D01*
X369621Y70510D01*
X369597Y70574D01*
X369568Y70637D01*
X369537Y70698D01*
X369502Y70757D01*
X369464Y70815D01*
X369422Y70870D01*
X369378Y70922D01*
X369330Y70972D01*
X369280Y71020D01*
X369228Y71064D01*
X369173Y71106D01*
X369115Y71144D01*
X369056Y71179D01*
X368995Y71210D01*
X368932Y71239D01*
X368868Y71263D01*
X368802Y71284D01*
X368735Y71301D01*
X368668Y71315D01*
X368599Y71324D01*
X368531Y71330D01*
X368462Y71332D01*
X366416Y71332D01*
X366416Y65193D01*
X366415Y65193D02*
X366417Y65124D01*
X366423Y65056D01*
X366432Y64987D01*
X366446Y64920D01*
X366463Y64853D01*
X366484Y64787D01*
X366508Y64723D01*
X366537Y64660D01*
X366568Y64599D01*
X366603Y64540D01*
X366641Y64482D01*
X366683Y64427D01*
X366727Y64375D01*
X366775Y64325D01*
X366825Y64277D01*
X366877Y64233D01*
X366932Y64191D01*
X366990Y64153D01*
X367049Y64118D01*
X367110Y64087D01*
X367173Y64058D01*
X367237Y64034D01*
X367303Y64013D01*
X367370Y63996D01*
X367437Y63982D01*
X367506Y63973D01*
X367574Y63967D01*
X367643Y63965D01*
X367643Y63966D02*
X369280Y63966D01*
X361837Y66421D02*
X359791Y66421D01*
X361837Y66421D02*
X361906Y66423D01*
X361974Y66429D01*
X362043Y66438D01*
X362110Y66452D01*
X362177Y66469D01*
X362243Y66490D01*
X362307Y66514D01*
X362370Y66543D01*
X362431Y66574D01*
X362490Y66609D01*
X362548Y66647D01*
X362603Y66689D01*
X362655Y66733D01*
X362705Y66781D01*
X362753Y66831D01*
X362797Y66883D01*
X362839Y66938D01*
X362877Y66996D01*
X362912Y67055D01*
X362943Y67116D01*
X362972Y67179D01*
X362996Y67243D01*
X363017Y67309D01*
X363034Y67376D01*
X363048Y67443D01*
X363057Y67512D01*
X363063Y67580D01*
X363065Y67649D01*
X363065Y69695D01*
X363063Y69774D01*
X363057Y69853D01*
X363048Y69932D01*
X363035Y70010D01*
X363017Y70087D01*
X362997Y70163D01*
X362972Y70238D01*
X362944Y70312D01*
X362913Y70385D01*
X362877Y70456D01*
X362839Y70525D01*
X362797Y70592D01*
X362752Y70657D01*
X362704Y70720D01*
X362653Y70781D01*
X362599Y70838D01*
X362543Y70894D01*
X362484Y70946D01*
X362422Y70996D01*
X362358Y71042D01*
X362292Y71086D01*
X362224Y71126D01*
X362154Y71162D01*
X362082Y71196D01*
X362008Y71226D01*
X361934Y71252D01*
X361858Y71275D01*
X361781Y71293D01*
X361704Y71309D01*
X361625Y71320D01*
X361547Y71328D01*
X361468Y71332D01*
X361388Y71332D01*
X361309Y71328D01*
X361231Y71320D01*
X361152Y71309D01*
X361075Y71293D01*
X360998Y71275D01*
X360922Y71252D01*
X360848Y71226D01*
X360774Y71196D01*
X360702Y71162D01*
X360632Y71126D01*
X360564Y71086D01*
X360498Y71042D01*
X360434Y70996D01*
X360372Y70946D01*
X360313Y70894D01*
X360257Y70838D01*
X360203Y70781D01*
X360152Y70720D01*
X360104Y70657D01*
X360059Y70592D01*
X360017Y70525D01*
X359979Y70456D01*
X359943Y70385D01*
X359912Y70312D01*
X359884Y70238D01*
X359859Y70163D01*
X359839Y70087D01*
X359821Y70010D01*
X359808Y69932D01*
X359799Y69853D01*
X359793Y69774D01*
X359791Y69695D01*
X359791Y68876D01*
X363065Y68876D01*
D11*
X344029Y52176D02*
X344029Y46758D01*
X341320Y49467D02*
X346738Y49467D01*
X340868Y55987D02*
X340868Y58245D01*
X340870Y58338D01*
X340876Y58431D01*
X340885Y58524D01*
X340899Y58617D01*
X340916Y58708D01*
X340937Y58799D01*
X340962Y58889D01*
X340990Y58978D01*
X341022Y59066D01*
X341058Y59152D01*
X341097Y59237D01*
X341140Y59320D01*
X341186Y59401D01*
X341236Y59480D01*
X341288Y59557D01*
X341344Y59632D01*
X341403Y59704D01*
X341465Y59774D01*
X341529Y59842D01*
X341597Y59906D01*
X341667Y59968D01*
X341739Y60027D01*
X341814Y60083D01*
X341891Y60135D01*
X341970Y60185D01*
X342051Y60231D01*
X342134Y60274D01*
X342219Y60313D01*
X342305Y60349D01*
X342393Y60381D01*
X342482Y60409D01*
X342572Y60434D01*
X342663Y60455D01*
X342754Y60472D01*
X342847Y60486D01*
X342940Y60495D01*
X343033Y60501D01*
X343126Y60503D01*
X343219Y60501D01*
X343312Y60495D01*
X343405Y60486D01*
X343498Y60472D01*
X343589Y60455D01*
X343680Y60434D01*
X343770Y60409D01*
X343859Y60381D01*
X343947Y60349D01*
X344033Y60313D01*
X344118Y60274D01*
X344201Y60231D01*
X344282Y60185D01*
X344361Y60135D01*
X344438Y60083D01*
X344513Y60027D01*
X344585Y59968D01*
X344655Y59906D01*
X344723Y59842D01*
X344787Y59774D01*
X344849Y59704D01*
X344908Y59632D01*
X344964Y59557D01*
X345016Y59480D01*
X345066Y59401D01*
X345112Y59320D01*
X345155Y59237D01*
X345194Y59152D01*
X345230Y59066D01*
X345262Y58978D01*
X345290Y58889D01*
X345315Y58799D01*
X345336Y58708D01*
X345353Y58617D01*
X345367Y58524D01*
X345376Y58431D01*
X345382Y58338D01*
X345384Y58245D01*
X348996Y58697D02*
X348996Y55987D01*
X348996Y58697D02*
X348994Y58780D01*
X348988Y58864D01*
X348979Y58947D01*
X348965Y59029D01*
X348948Y59110D01*
X348927Y59191D01*
X348902Y59271D01*
X348874Y59349D01*
X348842Y59426D01*
X348807Y59502D01*
X348768Y59576D01*
X348725Y59648D01*
X348680Y59718D01*
X348631Y59785D01*
X348579Y59851D01*
X348525Y59914D01*
X348467Y59974D01*
X348407Y60032D01*
X348344Y60086D01*
X348278Y60138D01*
X348211Y60187D01*
X348141Y60232D01*
X348069Y60275D01*
X347995Y60314D01*
X347919Y60349D01*
X347842Y60381D01*
X347764Y60409D01*
X347684Y60434D01*
X347603Y60455D01*
X347522Y60472D01*
X347440Y60486D01*
X347357Y60495D01*
X347273Y60501D01*
X347190Y60503D01*
X347107Y60501D01*
X347023Y60495D01*
X346940Y60486D01*
X346858Y60472D01*
X346777Y60455D01*
X346696Y60434D01*
X346616Y60409D01*
X346538Y60381D01*
X346461Y60349D01*
X346385Y60314D01*
X346311Y60275D01*
X346239Y60232D01*
X346169Y60187D01*
X346102Y60138D01*
X346036Y60086D01*
X345973Y60032D01*
X345913Y59974D01*
X345855Y59914D01*
X345801Y59851D01*
X345749Y59785D01*
X345700Y59718D01*
X345655Y59648D01*
X345612Y59576D01*
X345573Y59502D01*
X345538Y59426D01*
X345506Y59349D01*
X345478Y59271D01*
X345453Y59191D01*
X345432Y59110D01*
X345415Y59029D01*
X345401Y58947D01*
X345392Y58864D01*
X345386Y58780D01*
X345384Y58697D01*
X345384Y56890D01*
X348996Y63765D02*
X340868Y66475D01*
X348996Y69184D01*
X340868Y72446D02*
X340868Y74704D01*
X340870Y74797D01*
X340876Y74890D01*
X340885Y74983D01*
X340899Y75076D01*
X340916Y75167D01*
X340937Y75258D01*
X340962Y75348D01*
X340990Y75437D01*
X341022Y75525D01*
X341058Y75611D01*
X341097Y75696D01*
X341140Y75779D01*
X341186Y75860D01*
X341236Y75939D01*
X341288Y76016D01*
X341344Y76091D01*
X341403Y76163D01*
X341465Y76233D01*
X341529Y76301D01*
X341597Y76365D01*
X341667Y76427D01*
X341739Y76486D01*
X341814Y76542D01*
X341891Y76594D01*
X341970Y76644D01*
X342051Y76690D01*
X342134Y76733D01*
X342219Y76772D01*
X342305Y76808D01*
X342393Y76840D01*
X342482Y76868D01*
X342572Y76893D01*
X342663Y76914D01*
X342754Y76931D01*
X342847Y76945D01*
X342940Y76954D01*
X343033Y76960D01*
X343126Y76962D01*
X343219Y76960D01*
X343312Y76954D01*
X343405Y76945D01*
X343498Y76931D01*
X343589Y76914D01*
X343680Y76893D01*
X343770Y76868D01*
X343859Y76840D01*
X343947Y76808D01*
X344033Y76772D01*
X344118Y76733D01*
X344201Y76690D01*
X344282Y76644D01*
X344361Y76594D01*
X344438Y76542D01*
X344513Y76486D01*
X344585Y76427D01*
X344655Y76365D01*
X344723Y76301D01*
X344787Y76233D01*
X344849Y76163D01*
X344908Y76091D01*
X344964Y76016D01*
X345016Y75939D01*
X345066Y75860D01*
X345112Y75779D01*
X345155Y75696D01*
X345194Y75611D01*
X345230Y75525D01*
X345262Y75437D01*
X345290Y75348D01*
X345315Y75258D01*
X345336Y75167D01*
X345353Y75076D01*
X345367Y74983D01*
X345376Y74890D01*
X345382Y74797D01*
X345384Y74704D01*
X348996Y75156D02*
X348996Y72446D01*
X348996Y75156D02*
X348994Y75239D01*
X348988Y75323D01*
X348979Y75406D01*
X348965Y75488D01*
X348948Y75569D01*
X348927Y75650D01*
X348902Y75730D01*
X348874Y75808D01*
X348842Y75885D01*
X348807Y75961D01*
X348768Y76035D01*
X348725Y76107D01*
X348680Y76177D01*
X348631Y76244D01*
X348579Y76310D01*
X348525Y76373D01*
X348467Y76433D01*
X348407Y76491D01*
X348344Y76545D01*
X348278Y76597D01*
X348211Y76646D01*
X348141Y76691D01*
X348069Y76734D01*
X347995Y76773D01*
X347919Y76808D01*
X347842Y76840D01*
X347764Y76868D01*
X347684Y76893D01*
X347603Y76914D01*
X347522Y76931D01*
X347440Y76945D01*
X347357Y76954D01*
X347273Y76960D01*
X347190Y76962D01*
X347107Y76960D01*
X347023Y76954D01*
X346940Y76945D01*
X346858Y76931D01*
X346777Y76914D01*
X346696Y76893D01*
X346616Y76868D01*
X346538Y76840D01*
X346461Y76808D01*
X346385Y76773D01*
X346311Y76734D01*
X346239Y76691D01*
X346169Y76646D01*
X346102Y76597D01*
X346036Y76545D01*
X345973Y76491D01*
X345913Y76433D01*
X345855Y76373D01*
X345801Y76310D01*
X345749Y76244D01*
X345700Y76177D01*
X345655Y76107D01*
X345612Y76035D01*
X345573Y75961D01*
X345538Y75885D01*
X345506Y75808D01*
X345478Y75730D01*
X345453Y75650D01*
X345432Y75569D01*
X345415Y75488D01*
X345401Y75406D01*
X345392Y75323D01*
X345386Y75239D01*
X345384Y75156D01*
X345384Y73350D01*
X314819Y59954D02*
X314819Y54536D01*
X312110Y57245D02*
X317528Y57245D01*
X311658Y63765D02*
X311658Y66475D01*
X311660Y66558D01*
X311666Y66642D01*
X311675Y66725D01*
X311689Y66807D01*
X311706Y66888D01*
X311727Y66969D01*
X311752Y67049D01*
X311780Y67127D01*
X311812Y67204D01*
X311847Y67280D01*
X311886Y67354D01*
X311929Y67426D01*
X311974Y67496D01*
X312023Y67563D01*
X312075Y67629D01*
X312129Y67692D01*
X312187Y67752D01*
X312247Y67810D01*
X312310Y67864D01*
X312376Y67916D01*
X312443Y67965D01*
X312513Y68011D01*
X312585Y68053D01*
X312659Y68092D01*
X312735Y68127D01*
X312812Y68159D01*
X312890Y68187D01*
X312970Y68212D01*
X313051Y68233D01*
X313132Y68250D01*
X313215Y68264D01*
X313297Y68273D01*
X313381Y68279D01*
X313464Y68281D01*
X314367Y68281D01*
X314450Y68279D01*
X314534Y68273D01*
X314617Y68264D01*
X314699Y68250D01*
X314780Y68233D01*
X314861Y68212D01*
X314941Y68187D01*
X315019Y68159D01*
X315096Y68127D01*
X315172Y68092D01*
X315246Y68053D01*
X315318Y68010D01*
X315388Y67965D01*
X315455Y67916D01*
X315521Y67864D01*
X315584Y67810D01*
X315644Y67752D01*
X315702Y67692D01*
X315756Y67629D01*
X315808Y67563D01*
X315857Y67496D01*
X315902Y67426D01*
X315945Y67354D01*
X315984Y67280D01*
X316019Y67204D01*
X316051Y67127D01*
X316079Y67049D01*
X316104Y66969D01*
X316125Y66888D01*
X316142Y66807D01*
X316156Y66725D01*
X316165Y66642D01*
X316171Y66558D01*
X316173Y66475D01*
X316174Y66475D02*
X316174Y63765D01*
X319786Y63765D01*
X319786Y68281D01*
X319786Y71543D02*
X311658Y74253D01*
X319786Y76962D01*
D13*
X308610Y78740D02*
X351790Y78740D01*
X308610Y99060D02*
X308510Y99058D01*
X308411Y99052D01*
X308311Y99042D01*
X308213Y99029D01*
X308114Y99011D01*
X308017Y98990D01*
X307921Y98965D01*
X307825Y98936D01*
X307731Y98903D01*
X307638Y98867D01*
X307547Y98827D01*
X307457Y98783D01*
X307369Y98736D01*
X307283Y98686D01*
X307199Y98632D01*
X307117Y98575D01*
X307038Y98515D01*
X306960Y98451D01*
X306886Y98385D01*
X306814Y98316D01*
X306745Y98244D01*
X306679Y98170D01*
X306615Y98092D01*
X306555Y98013D01*
X306498Y97931D01*
X306444Y97847D01*
X306394Y97761D01*
X306347Y97673D01*
X306303Y97583D01*
X306263Y97492D01*
X306227Y97399D01*
X306194Y97305D01*
X306165Y97209D01*
X306140Y97113D01*
X306119Y97016D01*
X306101Y96917D01*
X306088Y96819D01*
X306078Y96719D01*
X306072Y96620D01*
X306070Y96520D01*
X351790Y99060D02*
X351890Y99058D01*
X351989Y99052D01*
X352089Y99042D01*
X352187Y99029D01*
X352286Y99011D01*
X352383Y98990D01*
X352479Y98965D01*
X352575Y98936D01*
X352669Y98903D01*
X352762Y98867D01*
X352853Y98827D01*
X352943Y98783D01*
X353031Y98736D01*
X353117Y98686D01*
X353201Y98632D01*
X353283Y98575D01*
X353362Y98515D01*
X353440Y98451D01*
X353514Y98385D01*
X353586Y98316D01*
X353655Y98244D01*
X353721Y98170D01*
X353785Y98092D01*
X353845Y98013D01*
X353902Y97931D01*
X353956Y97847D01*
X354006Y97761D01*
X354053Y97673D01*
X354097Y97583D01*
X354137Y97492D01*
X354173Y97399D01*
X354206Y97305D01*
X354235Y97209D01*
X354260Y97113D01*
X354281Y97016D01*
X354299Y96917D01*
X354312Y96819D01*
X354322Y96719D01*
X354328Y96620D01*
X354330Y96520D01*
X354330Y81280D02*
X354328Y81180D01*
X354322Y81081D01*
X354312Y80981D01*
X354299Y80883D01*
X354281Y80784D01*
X354260Y80687D01*
X354235Y80591D01*
X354206Y80495D01*
X354173Y80401D01*
X354137Y80308D01*
X354097Y80217D01*
X354053Y80127D01*
X354006Y80039D01*
X353956Y79953D01*
X353902Y79869D01*
X353845Y79787D01*
X353785Y79708D01*
X353721Y79630D01*
X353655Y79556D01*
X353586Y79484D01*
X353514Y79415D01*
X353440Y79349D01*
X353362Y79285D01*
X353283Y79225D01*
X353201Y79168D01*
X353117Y79114D01*
X353031Y79064D01*
X352943Y79017D01*
X352853Y78973D01*
X352762Y78933D01*
X352669Y78897D01*
X352575Y78864D01*
X352479Y78835D01*
X352383Y78810D01*
X352286Y78789D01*
X352187Y78771D01*
X352089Y78758D01*
X351989Y78748D01*
X351890Y78742D01*
X351790Y78740D01*
X308610Y78740D02*
X308510Y78742D01*
X308411Y78748D01*
X308311Y78758D01*
X308213Y78771D01*
X308114Y78789D01*
X308017Y78810D01*
X307921Y78835D01*
X307825Y78864D01*
X307731Y78897D01*
X307638Y78933D01*
X307547Y78973D01*
X307457Y79017D01*
X307369Y79064D01*
X307283Y79114D01*
X307199Y79168D01*
X307117Y79225D01*
X307038Y79285D01*
X306960Y79349D01*
X306886Y79415D01*
X306814Y79484D01*
X306745Y79556D01*
X306679Y79630D01*
X306615Y79708D01*
X306555Y79787D01*
X306498Y79869D01*
X306444Y79953D01*
X306394Y80039D01*
X306347Y80127D01*
X306303Y80217D01*
X306263Y80308D01*
X306227Y80401D01*
X306194Y80495D01*
X306165Y80591D01*
X306140Y80687D01*
X306119Y80784D01*
X306101Y80883D01*
X306088Y80981D01*
X306078Y81081D01*
X306072Y81180D01*
X306070Y81280D01*
X306070Y96520D01*
X354330Y96520D02*
X354330Y81280D01*
X351790Y99060D02*
X308610Y99060D01*
D14*
X376555Y90805D02*
X376557Y90705D01*
X376563Y90606D01*
X376573Y90506D01*
X376586Y90408D01*
X376604Y90309D01*
X376625Y90212D01*
X376650Y90116D01*
X376679Y90020D01*
X376712Y89926D01*
X376748Y89833D01*
X376788Y89742D01*
X376832Y89652D01*
X376879Y89564D01*
X376929Y89478D01*
X376983Y89394D01*
X377040Y89312D01*
X377100Y89233D01*
X377164Y89155D01*
X377230Y89081D01*
X377299Y89009D01*
X377371Y88940D01*
X377445Y88874D01*
X377523Y88810D01*
X377602Y88750D01*
X377684Y88693D01*
X377768Y88639D01*
X377854Y88589D01*
X377942Y88542D01*
X378032Y88498D01*
X378123Y88458D01*
X378216Y88422D01*
X378310Y88389D01*
X378406Y88360D01*
X378502Y88335D01*
X378599Y88314D01*
X378698Y88296D01*
X378796Y88283D01*
X378896Y88273D01*
X378995Y88267D01*
X379095Y88265D01*
X379236Y88267D01*
X379377Y88272D01*
X379518Y88282D01*
X379659Y88295D01*
X379799Y88311D01*
X379939Y88332D01*
X380078Y88356D01*
X380217Y88384D01*
X380354Y88415D01*
X380491Y88450D01*
X380627Y88488D01*
X380762Y88530D01*
X380895Y88576D01*
X381028Y88625D01*
X381159Y88678D01*
X381288Y88734D01*
X381417Y88793D01*
X381543Y88856D01*
X381668Y88922D01*
X381791Y88991D01*
X381912Y89064D01*
X382031Y89140D01*
X382149Y89219D01*
X382264Y89300D01*
X382376Y89385D01*
X382487Y89473D01*
X382595Y89564D01*
X382701Y89657D01*
X382804Y89754D01*
X382905Y89853D01*
X382588Y97155D02*
X382586Y97255D01*
X382580Y97354D01*
X382570Y97454D01*
X382557Y97552D01*
X382539Y97651D01*
X382518Y97748D01*
X382493Y97844D01*
X382464Y97940D01*
X382431Y98034D01*
X382395Y98127D01*
X382355Y98218D01*
X382311Y98308D01*
X382264Y98396D01*
X382214Y98482D01*
X382160Y98566D01*
X382103Y98648D01*
X382043Y98727D01*
X381979Y98805D01*
X381913Y98879D01*
X381844Y98951D01*
X381772Y99020D01*
X381698Y99086D01*
X381620Y99150D01*
X381541Y99210D01*
X381459Y99267D01*
X381375Y99321D01*
X381289Y99371D01*
X381201Y99418D01*
X381111Y99462D01*
X381020Y99502D01*
X380927Y99538D01*
X380833Y99571D01*
X380737Y99600D01*
X380641Y99625D01*
X380544Y99646D01*
X380445Y99664D01*
X380347Y99677D01*
X380247Y99687D01*
X380148Y99693D01*
X380048Y99695D01*
X380048Y99696D02*
X379915Y99694D01*
X379782Y99689D01*
X379649Y99679D01*
X379516Y99666D01*
X379384Y99649D01*
X379252Y99629D01*
X379121Y99605D01*
X378991Y99577D01*
X378861Y99546D01*
X378733Y99511D01*
X378605Y99472D01*
X378479Y99430D01*
X378354Y99384D01*
X378230Y99335D01*
X378107Y99283D01*
X377986Y99227D01*
X377867Y99167D01*
X377749Y99105D01*
X377634Y99039D01*
X377520Y98970D01*
X377408Y98897D01*
X377298Y98822D01*
X377190Y98743D01*
X381318Y94932D02*
X381402Y94984D01*
X381485Y95039D01*
X381565Y95098D01*
X381643Y95159D01*
X381718Y95223D01*
X381791Y95291D01*
X381862Y95361D01*
X381929Y95433D01*
X381994Y95508D01*
X382056Y95586D01*
X382115Y95666D01*
X382171Y95748D01*
X382223Y95832D01*
X382272Y95918D01*
X382318Y96006D01*
X382361Y96096D01*
X382400Y96187D01*
X382435Y96280D01*
X382467Y96374D01*
X382495Y96469D01*
X382520Y96565D01*
X382540Y96662D01*
X382558Y96760D01*
X382571Y96858D01*
X382580Y96957D01*
X382586Y97056D01*
X382588Y97155D01*
X377825Y93028D02*
X377741Y92976D01*
X377658Y92921D01*
X377578Y92862D01*
X377500Y92801D01*
X377425Y92737D01*
X377352Y92669D01*
X377281Y92599D01*
X377214Y92527D01*
X377149Y92452D01*
X377087Y92374D01*
X377028Y92294D01*
X376972Y92212D01*
X376920Y92128D01*
X376871Y92042D01*
X376825Y91954D01*
X376782Y91864D01*
X376743Y91773D01*
X376708Y91680D01*
X376676Y91586D01*
X376648Y91491D01*
X376623Y91395D01*
X376603Y91298D01*
X376585Y91200D01*
X376572Y91102D01*
X376563Y91003D01*
X376557Y90904D01*
X376555Y90805D01*
X377825Y93028D02*
X381318Y94933D01*
X369264Y90805D02*
X369264Y99695D01*
X369264Y90805D02*
X369266Y90705D01*
X369272Y90606D01*
X369282Y90506D01*
X369295Y90408D01*
X369313Y90309D01*
X369334Y90212D01*
X369359Y90116D01*
X369388Y90020D01*
X369421Y89926D01*
X369457Y89833D01*
X369497Y89742D01*
X369541Y89652D01*
X369588Y89564D01*
X369638Y89478D01*
X369692Y89394D01*
X369749Y89312D01*
X369809Y89233D01*
X369873Y89155D01*
X369939Y89081D01*
X370008Y89009D01*
X370080Y88940D01*
X370154Y88874D01*
X370232Y88810D01*
X370311Y88750D01*
X370393Y88693D01*
X370477Y88639D01*
X370563Y88589D01*
X370651Y88542D01*
X370741Y88498D01*
X370832Y88458D01*
X370925Y88422D01*
X371019Y88389D01*
X371115Y88360D01*
X371211Y88335D01*
X371308Y88314D01*
X371407Y88296D01*
X371505Y88283D01*
X371605Y88273D01*
X371704Y88267D01*
X371804Y88265D01*
X373074Y88265D01*
X363855Y97155D02*
X360680Y99695D01*
X360680Y88265D01*
X363855Y88265D02*
X357505Y88265D01*
D15*
X331201Y89100D02*
X331134Y88900D01*
X331068Y89100D01*
X331009Y88978D02*
X330876Y88978D01*
X330745Y88900D02*
X330734Y88901D01*
X330723Y88906D01*
X330714Y88913D01*
X330707Y88922D01*
X330702Y88933D01*
X330701Y88944D01*
X330745Y88900D02*
X330763Y88902D01*
X330781Y88907D01*
X330797Y88916D01*
X330812Y88928D01*
X330806Y89056D02*
X330805Y89067D01*
X330800Y89078D01*
X330793Y89087D01*
X330784Y89094D01*
X330773Y89099D01*
X330762Y89100D01*
X330744Y89098D01*
X330727Y89092D01*
X330712Y89083D01*
X330784Y89017D02*
X330793Y89024D01*
X330800Y89034D01*
X330804Y89044D01*
X330806Y89056D01*
X330723Y88983D02*
X330714Y88976D01*
X330707Y88966D01*
X330703Y88956D01*
X330701Y88944D01*
X330723Y88983D02*
X330784Y89017D01*
X330606Y88900D02*
X330550Y88900D01*
X330606Y88900D02*
X330616Y88902D01*
X330625Y88906D01*
X330633Y88914D01*
X330637Y88923D01*
X330639Y88933D01*
X330639Y88989D01*
X330638Y88989D02*
X330636Y89001D01*
X330631Y89013D01*
X330623Y89022D01*
X330612Y89029D01*
X330600Y89033D01*
X330588Y89033D01*
X330576Y89029D01*
X330565Y89022D01*
X330557Y89013D01*
X330552Y89001D01*
X330550Y88989D01*
X330550Y88967D01*
X330639Y88967D01*
X330479Y88933D02*
X330479Y89100D01*
X330478Y88933D02*
X330476Y88923D01*
X330472Y88914D01*
X330464Y88906D01*
X330455Y88902D01*
X330445Y88900D01*
X330354Y88900D02*
X330298Y88900D01*
X330354Y88900D02*
X330364Y88902D01*
X330373Y88906D01*
X330381Y88914D01*
X330385Y88923D01*
X330387Y88933D01*
X330387Y88989D01*
X330386Y88989D02*
X330384Y89001D01*
X330379Y89013D01*
X330371Y89022D01*
X330360Y89029D01*
X330348Y89033D01*
X330336Y89033D01*
X330324Y89029D01*
X330313Y89022D01*
X330305Y89013D01*
X330300Y89001D01*
X330298Y88989D01*
X330298Y88967D01*
X330387Y88967D01*
X330197Y88900D02*
X330153Y88900D01*
X330197Y88900D02*
X330207Y88902D01*
X330216Y88906D01*
X330224Y88914D01*
X330228Y88923D01*
X330230Y88933D01*
X330231Y88933D02*
X330231Y89000D01*
X330230Y89000D02*
X330228Y89010D01*
X330224Y89019D01*
X330216Y89027D01*
X330207Y89031D01*
X330197Y89033D01*
X330153Y89033D01*
X330107Y89033D02*
X330040Y89033D01*
X330084Y89100D02*
X330084Y88933D01*
X330082Y88923D01*
X330078Y88914D01*
X330070Y88906D01*
X330061Y88902D01*
X330051Y88900D01*
X330040Y88900D01*
D13*
X27940Y101600D02*
X27940Y73660D01*
X48260Y101600D02*
X48258Y101700D01*
X48252Y101799D01*
X48242Y101899D01*
X48229Y101997D01*
X48211Y102096D01*
X48190Y102193D01*
X48165Y102289D01*
X48136Y102385D01*
X48103Y102479D01*
X48067Y102572D01*
X48027Y102663D01*
X47983Y102753D01*
X47936Y102841D01*
X47886Y102927D01*
X47832Y103011D01*
X47775Y103093D01*
X47715Y103172D01*
X47651Y103250D01*
X47585Y103324D01*
X47516Y103396D01*
X47444Y103465D01*
X47370Y103531D01*
X47292Y103595D01*
X47213Y103655D01*
X47131Y103712D01*
X47047Y103766D01*
X46961Y103816D01*
X46873Y103863D01*
X46783Y103907D01*
X46692Y103947D01*
X46599Y103983D01*
X46505Y104016D01*
X46409Y104045D01*
X46313Y104070D01*
X46216Y104091D01*
X46117Y104109D01*
X46019Y104122D01*
X45919Y104132D01*
X45820Y104138D01*
X45720Y104140D01*
X48260Y73660D02*
X48258Y73560D01*
X48252Y73461D01*
X48242Y73361D01*
X48229Y73263D01*
X48211Y73164D01*
X48190Y73067D01*
X48165Y72971D01*
X48136Y72875D01*
X48103Y72781D01*
X48067Y72688D01*
X48027Y72597D01*
X47983Y72507D01*
X47936Y72419D01*
X47886Y72333D01*
X47832Y72249D01*
X47775Y72167D01*
X47715Y72088D01*
X47651Y72010D01*
X47585Y71936D01*
X47516Y71864D01*
X47444Y71795D01*
X47370Y71729D01*
X47292Y71665D01*
X47213Y71605D01*
X47131Y71548D01*
X47047Y71494D01*
X46961Y71444D01*
X46873Y71397D01*
X46783Y71353D01*
X46692Y71313D01*
X46599Y71277D01*
X46505Y71244D01*
X46409Y71215D01*
X46313Y71190D01*
X46216Y71169D01*
X46117Y71151D01*
X46019Y71138D01*
X45919Y71128D01*
X45820Y71122D01*
X45720Y71120D01*
X30480Y71120D02*
X30380Y71122D01*
X30281Y71128D01*
X30181Y71138D01*
X30083Y71151D01*
X29984Y71169D01*
X29887Y71190D01*
X29791Y71215D01*
X29695Y71244D01*
X29601Y71277D01*
X29508Y71313D01*
X29417Y71353D01*
X29327Y71397D01*
X29239Y71444D01*
X29153Y71494D01*
X29069Y71548D01*
X28987Y71605D01*
X28908Y71665D01*
X28830Y71729D01*
X28756Y71795D01*
X28684Y71864D01*
X28615Y71936D01*
X28549Y72010D01*
X28485Y72088D01*
X28425Y72167D01*
X28368Y72249D01*
X28314Y72333D01*
X28264Y72419D01*
X28217Y72507D01*
X28173Y72597D01*
X28133Y72688D01*
X28097Y72781D01*
X28064Y72875D01*
X28035Y72971D01*
X28010Y73067D01*
X27989Y73164D01*
X27971Y73263D01*
X27958Y73361D01*
X27948Y73461D01*
X27942Y73560D01*
X27940Y73660D01*
X27940Y101600D02*
X27942Y101700D01*
X27948Y101799D01*
X27958Y101899D01*
X27971Y101997D01*
X27989Y102096D01*
X28010Y102193D01*
X28035Y102289D01*
X28064Y102385D01*
X28097Y102479D01*
X28133Y102572D01*
X28173Y102663D01*
X28217Y102753D01*
X28264Y102841D01*
X28314Y102927D01*
X28368Y103011D01*
X28425Y103093D01*
X28485Y103172D01*
X28549Y103250D01*
X28615Y103324D01*
X28684Y103396D01*
X28756Y103465D01*
X28830Y103531D01*
X28908Y103595D01*
X28987Y103655D01*
X29069Y103712D01*
X29153Y103766D01*
X29239Y103816D01*
X29327Y103863D01*
X29417Y103907D01*
X29508Y103947D01*
X29601Y103983D01*
X29695Y104016D01*
X29791Y104045D01*
X29887Y104070D01*
X29984Y104091D01*
X30083Y104109D01*
X30181Y104122D01*
X30281Y104132D01*
X30380Y104138D01*
X30480Y104140D01*
X45720Y104140D01*
X45720Y71120D02*
X30480Y71120D01*
X48260Y73660D02*
X48260Y101600D01*
D14*
X38735Y113665D02*
X38635Y113663D01*
X38536Y113657D01*
X38436Y113647D01*
X38338Y113634D01*
X38239Y113616D01*
X38142Y113595D01*
X38046Y113570D01*
X37950Y113541D01*
X37856Y113508D01*
X37763Y113472D01*
X37672Y113432D01*
X37582Y113388D01*
X37494Y113341D01*
X37408Y113291D01*
X37324Y113237D01*
X37242Y113180D01*
X37163Y113120D01*
X37085Y113056D01*
X37011Y112990D01*
X36939Y112921D01*
X36870Y112849D01*
X36804Y112775D01*
X36740Y112697D01*
X36680Y112618D01*
X36623Y112536D01*
X36569Y112452D01*
X36519Y112366D01*
X36472Y112278D01*
X36428Y112188D01*
X36388Y112097D01*
X36352Y112004D01*
X36319Y111910D01*
X36290Y111814D01*
X36265Y111718D01*
X36244Y111621D01*
X36226Y111522D01*
X36213Y111424D01*
X36203Y111324D01*
X36197Y111225D01*
X36195Y111125D01*
X36197Y110984D01*
X36202Y110843D01*
X36212Y110702D01*
X36225Y110561D01*
X36241Y110421D01*
X36262Y110281D01*
X36286Y110142D01*
X36314Y110003D01*
X36345Y109866D01*
X36380Y109729D01*
X36418Y109593D01*
X36460Y109458D01*
X36506Y109325D01*
X36555Y109192D01*
X36608Y109061D01*
X36664Y108932D01*
X36723Y108803D01*
X36786Y108677D01*
X36852Y108552D01*
X36921Y108429D01*
X36994Y108308D01*
X37070Y108189D01*
X37149Y108071D01*
X37230Y107956D01*
X37315Y107844D01*
X37403Y107733D01*
X37494Y107625D01*
X37587Y107519D01*
X37684Y107416D01*
X37783Y107315D01*
X45085Y107633D02*
X45185Y107635D01*
X45284Y107641D01*
X45384Y107651D01*
X45482Y107664D01*
X45581Y107682D01*
X45678Y107703D01*
X45774Y107728D01*
X45870Y107757D01*
X45964Y107790D01*
X46057Y107826D01*
X46148Y107866D01*
X46238Y107910D01*
X46326Y107957D01*
X46412Y108007D01*
X46496Y108061D01*
X46578Y108118D01*
X46657Y108178D01*
X46735Y108242D01*
X46809Y108308D01*
X46881Y108377D01*
X46950Y108449D01*
X47016Y108523D01*
X47080Y108601D01*
X47140Y108680D01*
X47197Y108762D01*
X47251Y108846D01*
X47301Y108932D01*
X47348Y109020D01*
X47392Y109110D01*
X47432Y109201D01*
X47468Y109294D01*
X47501Y109388D01*
X47530Y109484D01*
X47555Y109580D01*
X47576Y109677D01*
X47594Y109776D01*
X47607Y109874D01*
X47617Y109974D01*
X47623Y110073D01*
X47625Y110173D01*
X47626Y110173D02*
X47624Y110306D01*
X47619Y110439D01*
X47609Y110572D01*
X47596Y110705D01*
X47579Y110837D01*
X47559Y110969D01*
X47535Y111100D01*
X47507Y111230D01*
X47476Y111360D01*
X47441Y111488D01*
X47402Y111616D01*
X47360Y111742D01*
X47314Y111867D01*
X47265Y111991D01*
X47213Y112114D01*
X47157Y112235D01*
X47097Y112354D01*
X47035Y112472D01*
X46969Y112587D01*
X46900Y112701D01*
X46827Y112813D01*
X46752Y112923D01*
X46673Y113031D01*
X42862Y108902D02*
X42914Y108818D01*
X42969Y108735D01*
X43028Y108655D01*
X43089Y108577D01*
X43153Y108502D01*
X43221Y108429D01*
X43291Y108358D01*
X43363Y108291D01*
X43438Y108226D01*
X43516Y108164D01*
X43596Y108105D01*
X43678Y108049D01*
X43762Y107997D01*
X43848Y107948D01*
X43936Y107902D01*
X44026Y107859D01*
X44117Y107820D01*
X44210Y107785D01*
X44304Y107753D01*
X44399Y107725D01*
X44495Y107700D01*
X44592Y107680D01*
X44690Y107662D01*
X44788Y107649D01*
X44887Y107640D01*
X44986Y107634D01*
X45085Y107632D01*
X40958Y112395D02*
X40906Y112479D01*
X40851Y112562D01*
X40792Y112642D01*
X40731Y112720D01*
X40667Y112795D01*
X40599Y112868D01*
X40529Y112939D01*
X40457Y113006D01*
X40382Y113071D01*
X40304Y113133D01*
X40224Y113192D01*
X40142Y113248D01*
X40058Y113300D01*
X39972Y113349D01*
X39884Y113395D01*
X39794Y113438D01*
X39703Y113477D01*
X39610Y113512D01*
X39516Y113544D01*
X39421Y113572D01*
X39325Y113597D01*
X39228Y113617D01*
X39130Y113635D01*
X39032Y113648D01*
X38933Y113657D01*
X38834Y113663D01*
X38735Y113665D01*
X40958Y112395D02*
X42863Y108903D01*
X38735Y120956D02*
X47625Y120956D01*
X38735Y120956D02*
X38635Y120954D01*
X38536Y120948D01*
X38436Y120938D01*
X38338Y120925D01*
X38239Y120907D01*
X38142Y120886D01*
X38046Y120861D01*
X37950Y120832D01*
X37856Y120799D01*
X37763Y120763D01*
X37672Y120723D01*
X37582Y120679D01*
X37494Y120632D01*
X37408Y120582D01*
X37324Y120528D01*
X37242Y120471D01*
X37163Y120411D01*
X37085Y120347D01*
X37011Y120281D01*
X36939Y120212D01*
X36870Y120140D01*
X36804Y120066D01*
X36740Y119988D01*
X36680Y119909D01*
X36623Y119827D01*
X36569Y119743D01*
X36519Y119657D01*
X36472Y119569D01*
X36428Y119479D01*
X36388Y119388D01*
X36352Y119295D01*
X36319Y119201D01*
X36290Y119105D01*
X36265Y119009D01*
X36244Y118912D01*
X36226Y118813D01*
X36213Y118715D01*
X36203Y118615D01*
X36197Y118516D01*
X36195Y118416D01*
X36195Y117146D01*
X47626Y129857D02*
X47624Y129961D01*
X47618Y130066D01*
X47609Y130170D01*
X47596Y130273D01*
X47578Y130376D01*
X47558Y130478D01*
X47533Y130580D01*
X47505Y130680D01*
X47473Y130780D01*
X47437Y130878D01*
X47398Y130975D01*
X47356Y131070D01*
X47310Y131164D01*
X47260Y131256D01*
X47208Y131346D01*
X47152Y131434D01*
X47092Y131520D01*
X47030Y131604D01*
X46965Y131685D01*
X46897Y131764D01*
X46825Y131841D01*
X46752Y131914D01*
X46675Y131986D01*
X46596Y132054D01*
X46515Y132119D01*
X46431Y132181D01*
X46345Y132241D01*
X46257Y132297D01*
X46167Y132349D01*
X46075Y132399D01*
X45981Y132445D01*
X45886Y132487D01*
X45789Y132526D01*
X45691Y132562D01*
X45591Y132594D01*
X45491Y132622D01*
X45389Y132647D01*
X45287Y132667D01*
X45184Y132685D01*
X45081Y132698D01*
X44977Y132707D01*
X44872Y132713D01*
X44768Y132715D01*
X47625Y129857D02*
X47623Y129739D01*
X47617Y129620D01*
X47608Y129502D01*
X47595Y129385D01*
X47577Y129268D01*
X47557Y129151D01*
X47532Y129035D01*
X47504Y128920D01*
X47471Y128807D01*
X47436Y128694D01*
X47396Y128582D01*
X47354Y128472D01*
X47307Y128363D01*
X47257Y128255D01*
X47204Y128150D01*
X47147Y128046D01*
X47087Y127944D01*
X47024Y127844D01*
X46957Y127746D01*
X46888Y127650D01*
X46815Y127557D01*
X46739Y127466D01*
X46661Y127377D01*
X46579Y127291D01*
X46495Y127208D01*
X46409Y127127D01*
X46319Y127050D01*
X46228Y126975D01*
X46134Y126903D01*
X46037Y126834D01*
X45939Y126769D01*
X45838Y126706D01*
X45735Y126647D01*
X45631Y126591D01*
X45525Y126539D01*
X45417Y126490D01*
X45308Y126445D01*
X45197Y126403D01*
X45085Y126365D01*
X42546Y131763D02*
X42621Y131839D01*
X42700Y131914D01*
X42781Y131985D01*
X42865Y132054D01*
X42951Y132119D01*
X43039Y132181D01*
X43129Y132241D01*
X43221Y132297D01*
X43316Y132350D01*
X43412Y132399D01*
X43510Y132445D01*
X43609Y132488D01*
X43710Y132527D01*
X43812Y132562D01*
X43915Y132594D01*
X44019Y132622D01*
X44124Y132647D01*
X44231Y132668D01*
X44337Y132685D01*
X44444Y132698D01*
X44552Y132707D01*
X44660Y132713D01*
X44768Y132715D01*
X42545Y131762D02*
X36195Y126365D01*
X36195Y132715D01*
D15*
X38100Y91631D02*
X38300Y91631D01*
X38100Y91631D02*
X38100Y91720D01*
X38100Y91787D02*
X38100Y91876D01*
X38100Y91787D02*
X38300Y91787D01*
X38300Y91876D01*
X38211Y91854D02*
X38211Y91787D01*
X38300Y91943D02*
X38100Y91943D01*
X38300Y91943D02*
X38300Y91998D01*
X38299Y92010D01*
X38294Y92022D01*
X38288Y92033D01*
X38279Y92042D01*
X38268Y92048D01*
X38256Y92053D01*
X38244Y92054D01*
X38156Y92054D01*
X38144Y92053D01*
X38132Y92048D01*
X38121Y92042D01*
X38112Y92033D01*
X38106Y92022D01*
X38101Y92010D01*
X38100Y91998D01*
X38100Y91943D01*
X38100Y92231D02*
X38100Y92320D01*
X38100Y92231D02*
X38300Y92231D01*
X38300Y92320D01*
X38211Y92298D02*
X38211Y92231D01*
X38233Y92386D02*
X38100Y92386D01*
X38233Y92386D02*
X38233Y92441D01*
X38231Y92451D01*
X38227Y92460D01*
X38219Y92468D01*
X38210Y92472D01*
X38200Y92474D01*
X38200Y92475D02*
X38100Y92475D01*
X38178Y92586D02*
X38178Y92636D01*
X38178Y92586D02*
X38176Y92575D01*
X38172Y92565D01*
X38165Y92557D01*
X38155Y92551D01*
X38145Y92547D01*
X38133Y92547D01*
X38123Y92551D01*
X38113Y92557D01*
X38106Y92565D01*
X38102Y92575D01*
X38100Y92586D01*
X38100Y92636D01*
X38200Y92636D01*
X38210Y92634D01*
X38219Y92630D01*
X38227Y92622D01*
X38231Y92613D01*
X38233Y92603D01*
X38233Y92558D01*
X38300Y92716D02*
X38100Y92716D01*
X38100Y92772D01*
X38102Y92782D01*
X38106Y92791D01*
X38114Y92799D01*
X38123Y92803D01*
X38133Y92805D01*
X38200Y92805D01*
X38210Y92803D01*
X38219Y92799D01*
X38227Y92791D01*
X38231Y92782D01*
X38233Y92772D01*
X38233Y92716D01*
X38300Y92876D02*
X38133Y92876D01*
X38123Y92878D01*
X38114Y92882D01*
X38106Y92890D01*
X38102Y92899D01*
X38100Y92909D01*
X38100Y93001D02*
X38100Y93057D01*
X38100Y93001D02*
X38102Y92991D01*
X38106Y92982D01*
X38114Y92974D01*
X38123Y92970D01*
X38133Y92968D01*
X38189Y92968D01*
X38201Y92970D01*
X38213Y92975D01*
X38222Y92983D01*
X38229Y92994D01*
X38233Y93006D01*
X38233Y93018D01*
X38229Y93030D01*
X38222Y93041D01*
X38213Y93049D01*
X38201Y93054D01*
X38189Y93056D01*
X38189Y93057D02*
X38167Y93057D01*
X38167Y92968D01*
M02*
