G04 EAGLE Gerber RS-274X export*
G75*
%MOMM*%
%FSLAX34Y34*%
%LPD*%
%INBottom Copper*%
%IPPOS*%
%AMOC8*
5,1,8,0,0,1.08239X$1,22.5*%
G01*
%ADD10C,0.127000*%
%ADD11C,0.101600*%
%ADD12C,0.076200*%
%ADD13C,1.508000*%
%ADD14C,1.508000*%
%ADD15R,1.168400X1.600200*%
%ADD16R,1.600200X1.168400*%
%ADD17C,0.508000*%
%ADD18C,0.406400*%
%ADD19C,0.756400*%

G36*
X853458Y10164D02*
X853458Y10164D01*
X853490Y10162D01*
X855380Y10286D01*
X855403Y10292D01*
X855527Y10311D01*
X859178Y11289D01*
X859192Y11295D01*
X859207Y11297D01*
X859361Y11365D01*
X862634Y13255D01*
X862647Y13265D01*
X862661Y13271D01*
X862792Y13376D01*
X865464Y16048D01*
X865474Y16061D01*
X865486Y16071D01*
X865585Y16206D01*
X867475Y19479D01*
X867481Y19494D01*
X867490Y19506D01*
X867551Y19662D01*
X868529Y23313D01*
X868532Y23337D01*
X868554Y23460D01*
X868678Y25350D01*
X868676Y25369D01*
X868679Y25400D01*
X868679Y152400D01*
X868676Y152418D01*
X868678Y152450D01*
X868554Y154340D01*
X868548Y154363D01*
X868529Y154487D01*
X867551Y158138D01*
X867545Y158152D01*
X867543Y158167D01*
X867475Y158321D01*
X865585Y161594D01*
X865575Y161606D01*
X865569Y161621D01*
X865464Y161752D01*
X862792Y164424D01*
X862779Y164434D01*
X862769Y164446D01*
X862634Y164545D01*
X859361Y166435D01*
X859346Y166441D01*
X859334Y166450D01*
X859178Y166511D01*
X855527Y167489D01*
X855503Y167492D01*
X855380Y167514D01*
X853490Y167638D01*
X853471Y167636D01*
X853440Y167639D01*
X25400Y167639D01*
X25382Y167636D01*
X25350Y167638D01*
X23460Y167514D01*
X23437Y167508D01*
X23313Y167489D01*
X19662Y166511D01*
X19648Y166505D01*
X19633Y166503D01*
X19479Y166435D01*
X16206Y164545D01*
X16194Y164535D01*
X16179Y164529D01*
X16048Y164424D01*
X13376Y161752D01*
X13366Y161739D01*
X13354Y161729D01*
X13255Y161594D01*
X11365Y158321D01*
X11359Y158306D01*
X11350Y158294D01*
X11289Y158138D01*
X10311Y154487D01*
X10308Y154463D01*
X10286Y154340D01*
X10162Y152450D01*
X10164Y152431D01*
X10161Y152400D01*
X10161Y25400D01*
X10164Y25382D01*
X10162Y25350D01*
X10286Y23460D01*
X10292Y23437D01*
X10311Y23313D01*
X11289Y19662D01*
X11295Y19648D01*
X11297Y19633D01*
X11365Y19479D01*
X13255Y16206D01*
X13265Y16194D01*
X13271Y16179D01*
X13376Y16048D01*
X16048Y13376D01*
X16061Y13366D01*
X16071Y13354D01*
X16206Y13255D01*
X19479Y11365D01*
X19494Y11359D01*
X19506Y11350D01*
X19662Y11289D01*
X23313Y10311D01*
X23337Y10308D01*
X23460Y10286D01*
X25350Y10162D01*
X25369Y10164D01*
X25400Y10161D01*
X853440Y10161D01*
X853458Y10164D01*
G37*
%LPC*%
G36*
X277716Y27685D02*
X277716Y27685D01*
X256285Y49116D01*
X256285Y137701D01*
X256271Y137791D01*
X256263Y137882D01*
X256251Y137912D01*
X256246Y137944D01*
X256203Y138024D01*
X256167Y138108D01*
X256141Y138140D01*
X256130Y138161D01*
X256107Y138183D01*
X256062Y138239D01*
X239839Y154462D01*
X239765Y154515D01*
X239696Y154575D01*
X239666Y154587D01*
X239640Y154606D01*
X239553Y154633D01*
X239468Y154667D01*
X239427Y154671D01*
X239404Y154678D01*
X239372Y154677D01*
X239301Y154685D01*
X97249Y154685D01*
X97159Y154671D01*
X97068Y154663D01*
X97038Y154651D01*
X97006Y154646D01*
X96926Y154603D01*
X96842Y154567D01*
X96810Y154541D01*
X96789Y154530D01*
X96767Y154507D01*
X96711Y154462D01*
X80488Y138239D01*
X80435Y138165D01*
X80375Y138096D01*
X80363Y138066D01*
X80344Y138040D01*
X80317Y137953D01*
X80283Y137868D01*
X80279Y137827D01*
X80272Y137805D01*
X80273Y137772D01*
X80265Y137701D01*
X80265Y124126D01*
X80268Y124106D01*
X80266Y124087D01*
X80288Y123985D01*
X80304Y123883D01*
X80314Y123866D01*
X80318Y123846D01*
X80371Y123757D01*
X80420Y123666D01*
X80434Y123652D01*
X80444Y123635D01*
X80523Y123568D01*
X80598Y123496D01*
X80616Y123488D01*
X80631Y123475D01*
X80727Y123436D01*
X80821Y123393D01*
X80841Y123391D01*
X80859Y123383D01*
X81026Y123365D01*
X85543Y123365D01*
X88875Y121985D01*
X91425Y119435D01*
X92805Y116103D01*
X92805Y112497D01*
X91425Y109165D01*
X88875Y106615D01*
X85543Y105235D01*
X66857Y105235D01*
X63525Y106615D01*
X60975Y109165D01*
X59595Y112497D01*
X59595Y116103D01*
X60975Y119435D01*
X63525Y121985D01*
X66857Y123365D01*
X71374Y123365D01*
X71394Y123368D01*
X71413Y123366D01*
X71515Y123388D01*
X71617Y123404D01*
X71634Y123414D01*
X71654Y123418D01*
X71743Y123471D01*
X71834Y123520D01*
X71848Y123534D01*
X71865Y123544D01*
X71932Y123623D01*
X72004Y123698D01*
X72012Y123716D01*
X72025Y123731D01*
X72064Y123827D01*
X72107Y123921D01*
X72109Y123941D01*
X72117Y123959D01*
X72135Y124126D01*
X72135Y141384D01*
X74739Y143988D01*
X90962Y160211D01*
X93566Y162815D01*
X242984Y162815D01*
X264415Y141384D01*
X264415Y109949D01*
X264429Y109859D01*
X264437Y109768D01*
X264449Y109738D01*
X264454Y109706D01*
X264497Y109626D01*
X264533Y109542D01*
X264559Y109510D01*
X264570Y109489D01*
X264593Y109467D01*
X264638Y109411D01*
X280861Y93188D01*
X280935Y93135D01*
X281004Y93075D01*
X281034Y93063D01*
X281060Y93044D01*
X281147Y93017D01*
X281232Y92983D01*
X281273Y92979D01*
X281296Y92972D01*
X281328Y92973D01*
X281399Y92965D01*
X306832Y92965D01*
X306852Y92968D01*
X306871Y92966D01*
X306973Y92988D01*
X307075Y93004D01*
X307092Y93014D01*
X307112Y93018D01*
X307201Y93071D01*
X307292Y93120D01*
X307306Y93134D01*
X307323Y93144D01*
X307390Y93223D01*
X307462Y93298D01*
X307470Y93316D01*
X307483Y93331D01*
X307522Y93427D01*
X307565Y93521D01*
X307567Y93541D01*
X307575Y93559D01*
X307593Y93726D01*
X307593Y97533D01*
X308486Y98426D01*
X321434Y98426D01*
X322042Y97818D01*
X322058Y97806D01*
X322070Y97790D01*
X322158Y97734D01*
X322241Y97674D01*
X322260Y97668D01*
X322277Y97657D01*
X322378Y97632D01*
X322477Y97602D01*
X322496Y97602D01*
X322516Y97597D01*
X322619Y97605D01*
X322722Y97608D01*
X322741Y97615D01*
X322761Y97616D01*
X322856Y97657D01*
X322953Y97692D01*
X322969Y97705D01*
X322987Y97713D01*
X323118Y97818D01*
X323726Y98426D01*
X336674Y98426D01*
X337282Y97818D01*
X337298Y97806D01*
X337310Y97790D01*
X337398Y97734D01*
X337481Y97674D01*
X337500Y97668D01*
X337517Y97657D01*
X337618Y97632D01*
X337717Y97602D01*
X337736Y97602D01*
X337756Y97597D01*
X337859Y97605D01*
X337962Y97608D01*
X337981Y97615D01*
X338001Y97616D01*
X338096Y97657D01*
X338193Y97692D01*
X338209Y97705D01*
X338227Y97713D01*
X338358Y97818D01*
X338966Y98426D01*
X340614Y98426D01*
X340634Y98429D01*
X340653Y98427D01*
X340755Y98449D01*
X340857Y98465D01*
X340874Y98475D01*
X340894Y98479D01*
X340983Y98532D01*
X341074Y98581D01*
X341088Y98595D01*
X341105Y98605D01*
X341172Y98684D01*
X341244Y98759D01*
X341252Y98777D01*
X341265Y98792D01*
X341304Y98888D01*
X341347Y98982D01*
X341349Y99002D01*
X341357Y99020D01*
X341375Y99187D01*
X341375Y103124D01*
X341372Y103144D01*
X341374Y103163D01*
X341352Y103265D01*
X341336Y103367D01*
X341326Y103384D01*
X341322Y103404D01*
X341269Y103493D01*
X341220Y103584D01*
X341206Y103598D01*
X341196Y103615D01*
X341117Y103682D01*
X341042Y103754D01*
X341024Y103762D01*
X341009Y103775D01*
X340913Y103814D01*
X340819Y103857D01*
X340799Y103859D01*
X340781Y103867D01*
X340614Y103885D01*
X284066Y103885D01*
X275335Y112616D01*
X275335Y147734D01*
X284066Y156465D01*
X674784Y156465D01*
X677388Y153861D01*
X706311Y124938D01*
X715265Y115984D01*
X715265Y105077D01*
X715284Y104962D01*
X715301Y104846D01*
X715303Y104840D01*
X715304Y104834D01*
X715359Y104732D01*
X715412Y104626D01*
X715417Y104622D01*
X715420Y104616D01*
X715504Y104536D01*
X715588Y104454D01*
X715594Y104451D01*
X715598Y104447D01*
X715615Y104439D01*
X715735Y104373D01*
X716335Y104125D01*
X718885Y101575D01*
X720265Y98243D01*
X720265Y79557D01*
X718885Y76225D01*
X716335Y73675D01*
X713003Y72295D01*
X709397Y72295D01*
X706065Y73675D01*
X703515Y76225D01*
X702135Y79557D01*
X702135Y98243D01*
X703515Y101575D01*
X706065Y104125D01*
X706665Y104373D01*
X706765Y104435D01*
X706865Y104495D01*
X706869Y104500D01*
X706874Y104503D01*
X706949Y104593D01*
X707025Y104682D01*
X707027Y104688D01*
X707031Y104692D01*
X707073Y104801D01*
X707117Y104910D01*
X707118Y104917D01*
X707119Y104922D01*
X707120Y104940D01*
X707135Y105077D01*
X707135Y112301D01*
X707121Y112391D01*
X707113Y112482D01*
X707101Y112512D01*
X707096Y112544D01*
X707053Y112624D01*
X707017Y112708D01*
X706991Y112740D01*
X706980Y112761D01*
X706957Y112783D01*
X706912Y112839D01*
X700562Y119189D01*
X671639Y148112D01*
X671565Y148165D01*
X671496Y148225D01*
X671466Y148237D01*
X671440Y148256D01*
X671353Y148283D01*
X671268Y148317D01*
X671227Y148321D01*
X671205Y148328D01*
X671172Y148327D01*
X671101Y148335D01*
X287749Y148335D01*
X287659Y148321D01*
X287568Y148313D01*
X287538Y148301D01*
X287506Y148296D01*
X287426Y148253D01*
X287342Y148217D01*
X287310Y148191D01*
X287289Y148180D01*
X287267Y148157D01*
X287211Y148112D01*
X283688Y144589D01*
X283635Y144515D01*
X283575Y144446D01*
X283563Y144416D01*
X283544Y144390D01*
X283517Y144303D01*
X283483Y144218D01*
X283479Y144177D01*
X283472Y144154D01*
X283473Y144122D01*
X283465Y144051D01*
X283465Y116299D01*
X283479Y116209D01*
X283487Y116118D01*
X283499Y116088D01*
X283504Y116056D01*
X283547Y115976D01*
X283583Y115892D01*
X283609Y115860D01*
X283620Y115839D01*
X283643Y115817D01*
X283688Y115761D01*
X287211Y112238D01*
X287285Y112185D01*
X287354Y112125D01*
X287384Y112113D01*
X287410Y112094D01*
X287497Y112067D01*
X287582Y112033D01*
X287623Y112029D01*
X287646Y112022D01*
X287678Y112023D01*
X287749Y112015D01*
X344584Y112015D01*
X349505Y107094D01*
X349505Y99187D01*
X349508Y99167D01*
X349506Y99148D01*
X349528Y99046D01*
X349544Y98944D01*
X349554Y98927D01*
X349558Y98907D01*
X349611Y98818D01*
X349660Y98727D01*
X349674Y98713D01*
X349684Y98696D01*
X349763Y98629D01*
X349838Y98557D01*
X349856Y98549D01*
X349871Y98536D01*
X349967Y98497D01*
X350061Y98454D01*
X350081Y98452D01*
X350099Y98444D01*
X350266Y98426D01*
X351914Y98426D01*
X352807Y97533D01*
X352807Y80267D01*
X351914Y79374D01*
X338966Y79374D01*
X338358Y79982D01*
X338342Y79994D01*
X338330Y80010D01*
X338263Y80053D01*
X338225Y80085D01*
X338203Y80094D01*
X338159Y80126D01*
X338140Y80132D01*
X338123Y80143D01*
X338022Y80168D01*
X338011Y80171D01*
X337996Y80177D01*
X337989Y80178D01*
X337923Y80198D01*
X337904Y80198D01*
X337884Y80203D01*
X337781Y80195D01*
X337678Y80192D01*
X337659Y80185D01*
X337639Y80184D01*
X337578Y80158D01*
X337568Y80156D01*
X337542Y80142D01*
X337447Y80108D01*
X337431Y80095D01*
X337413Y80087D01*
X337364Y80048D01*
X337350Y80041D01*
X337336Y80026D01*
X337282Y79982D01*
X336674Y79374D01*
X335026Y79374D01*
X335006Y79371D01*
X334987Y79373D01*
X334885Y79351D01*
X334783Y79335D01*
X334766Y79325D01*
X334746Y79321D01*
X334657Y79268D01*
X334566Y79219D01*
X334552Y79205D01*
X334535Y79195D01*
X334468Y79116D01*
X334396Y79041D01*
X334388Y79023D01*
X334375Y79008D01*
X334336Y78912D01*
X334293Y78818D01*
X334291Y78798D01*
X334283Y78780D01*
X334265Y78613D01*
X334265Y61816D01*
X319184Y46735D01*
X313437Y46735D01*
X313322Y46716D01*
X313206Y46699D01*
X313200Y46697D01*
X313194Y46696D01*
X313092Y46641D01*
X312986Y46588D01*
X312982Y46583D01*
X312976Y46580D01*
X312896Y46496D01*
X312814Y46412D01*
X312811Y46406D01*
X312807Y46402D01*
X312799Y46385D01*
X312733Y46265D01*
X312485Y45665D01*
X309935Y43115D01*
X306603Y41735D01*
X302997Y41735D01*
X299665Y43115D01*
X297115Y45665D01*
X295735Y48997D01*
X295735Y52603D01*
X297115Y55935D01*
X299665Y58485D01*
X302997Y59865D01*
X306603Y59865D01*
X309935Y58485D01*
X312485Y55935D01*
X312733Y55335D01*
X312795Y55235D01*
X312855Y55135D01*
X312860Y55131D01*
X312863Y55126D01*
X312953Y55051D01*
X313042Y54975D01*
X313048Y54973D01*
X313052Y54969D01*
X313161Y54927D01*
X313270Y54883D01*
X313277Y54882D01*
X313282Y54881D01*
X313300Y54880D01*
X313437Y54865D01*
X315501Y54865D01*
X315591Y54879D01*
X315682Y54887D01*
X315712Y54899D01*
X315744Y54904D01*
X315824Y54947D01*
X315908Y54983D01*
X315940Y55009D01*
X315961Y55020D01*
X315983Y55043D01*
X316039Y55088D01*
X325912Y64961D01*
X325965Y65035D01*
X326025Y65104D01*
X326037Y65134D01*
X326056Y65160D01*
X326083Y65247D01*
X326117Y65332D01*
X326121Y65373D01*
X326128Y65396D01*
X326127Y65428D01*
X326135Y65499D01*
X326135Y78613D01*
X326132Y78633D01*
X326134Y78652D01*
X326112Y78754D01*
X326096Y78856D01*
X326086Y78873D01*
X326082Y78893D01*
X326029Y78982D01*
X325980Y79073D01*
X325966Y79087D01*
X325956Y79104D01*
X325877Y79171D01*
X325802Y79243D01*
X325784Y79251D01*
X325769Y79264D01*
X325673Y79303D01*
X325579Y79346D01*
X325559Y79348D01*
X325541Y79356D01*
X325374Y79374D01*
X323726Y79374D01*
X323118Y79982D01*
X323102Y79994D01*
X323090Y80010D01*
X323023Y80053D01*
X322985Y80085D01*
X322963Y80094D01*
X322919Y80126D01*
X322900Y80132D01*
X322883Y80143D01*
X322782Y80168D01*
X322771Y80171D01*
X322756Y80177D01*
X322749Y80178D01*
X322683Y80198D01*
X322664Y80198D01*
X322644Y80203D01*
X322541Y80195D01*
X322438Y80192D01*
X322419Y80185D01*
X322399Y80184D01*
X322338Y80158D01*
X322328Y80156D01*
X322302Y80142D01*
X322207Y80108D01*
X322191Y80095D01*
X322173Y80087D01*
X322124Y80048D01*
X322110Y80041D01*
X322096Y80026D01*
X322042Y79982D01*
X321434Y79374D01*
X308486Y79374D01*
X307593Y80267D01*
X307593Y84074D01*
X307590Y84094D01*
X307592Y84113D01*
X307570Y84215D01*
X307554Y84317D01*
X307544Y84334D01*
X307540Y84354D01*
X307487Y84443D01*
X307438Y84534D01*
X307424Y84548D01*
X307414Y84565D01*
X307335Y84632D01*
X307260Y84704D01*
X307242Y84712D01*
X307227Y84725D01*
X307131Y84764D01*
X307037Y84807D01*
X307017Y84809D01*
X306999Y84817D01*
X306832Y84835D01*
X277716Y84835D01*
X265714Y96837D01*
X265656Y96879D01*
X265604Y96929D01*
X265557Y96951D01*
X265515Y96981D01*
X265446Y97002D01*
X265381Y97032D01*
X265329Y97038D01*
X265279Y97053D01*
X265208Y97051D01*
X265137Y97059D01*
X265086Y97048D01*
X265034Y97047D01*
X264966Y97022D01*
X264896Y97007D01*
X264851Y96980D01*
X264803Y96962D01*
X264747Y96918D01*
X264685Y96881D01*
X264651Y96841D01*
X264611Y96809D01*
X264572Y96748D01*
X264525Y96694D01*
X264506Y96646D01*
X264478Y96602D01*
X264460Y96532D01*
X264433Y96466D01*
X264425Y96394D01*
X264417Y96363D01*
X264419Y96340D01*
X264415Y96299D01*
X264415Y52799D01*
X264429Y52709D01*
X264437Y52618D01*
X264449Y52588D01*
X264454Y52556D01*
X264475Y52518D01*
X264476Y52511D01*
X264496Y52479D01*
X264497Y52476D01*
X264533Y52392D01*
X264559Y52360D01*
X264570Y52339D01*
X264592Y52318D01*
X264602Y52300D01*
X264615Y52289D01*
X264638Y52261D01*
X280861Y36038D01*
X280935Y35985D01*
X281004Y35925D01*
X281034Y35913D01*
X281060Y35894D01*
X281147Y35867D01*
X281232Y35833D01*
X281273Y35829D01*
X281296Y35822D01*
X281328Y35823D01*
X281399Y35815D01*
X664751Y35815D01*
X664841Y35829D01*
X664932Y35837D01*
X664962Y35849D01*
X664994Y35854D01*
X665074Y35897D01*
X665158Y35933D01*
X665190Y35959D01*
X665211Y35970D01*
X665233Y35993D01*
X665289Y36038D01*
X681512Y52261D01*
X681555Y52321D01*
X681595Y52363D01*
X681602Y52378D01*
X681625Y52404D01*
X681637Y52434D01*
X681656Y52460D01*
X681683Y52547D01*
X681693Y52572D01*
X681699Y52586D01*
X681699Y52589D01*
X681717Y52632D01*
X681721Y52673D01*
X681728Y52696D01*
X681727Y52728D01*
X681735Y52799D01*
X681735Y72723D01*
X681716Y72838D01*
X681699Y72954D01*
X681697Y72960D01*
X681696Y72966D01*
X681641Y73068D01*
X681588Y73174D01*
X681583Y73178D01*
X681580Y73184D01*
X681496Y73264D01*
X681412Y73346D01*
X681406Y73349D01*
X681402Y73353D01*
X681385Y73361D01*
X681265Y73427D01*
X680665Y73675D01*
X678115Y76225D01*
X676735Y79557D01*
X676735Y98243D01*
X678115Y101575D01*
X680665Y104125D01*
X683997Y105505D01*
X687603Y105505D01*
X690935Y104125D01*
X693485Y101575D01*
X694865Y98243D01*
X694865Y79557D01*
X693485Y76225D01*
X690935Y73675D01*
X690335Y73427D01*
X690235Y73365D01*
X690135Y73305D01*
X690131Y73300D01*
X690126Y73297D01*
X690051Y73207D01*
X689975Y73118D01*
X689973Y73112D01*
X689969Y73108D01*
X689927Y72999D01*
X689883Y72890D01*
X689882Y72883D01*
X689881Y72878D01*
X689880Y72860D01*
X689865Y72723D01*
X689865Y49116D01*
X668434Y27685D01*
X277716Y27685D01*
G37*
%LPD*%
%LPC*%
G36*
X487266Y53085D02*
X487266Y53085D01*
X455739Y84612D01*
X455665Y84665D01*
X455596Y84725D01*
X455566Y84737D01*
X455540Y84756D01*
X455453Y84783D01*
X455368Y84817D01*
X455327Y84821D01*
X455304Y84828D01*
X455272Y84827D01*
X455201Y84835D01*
X423766Y84835D01*
X385889Y122712D01*
X385815Y122765D01*
X385746Y122825D01*
X385716Y122837D01*
X385690Y122856D01*
X385603Y122883D01*
X385518Y122917D01*
X385477Y122921D01*
X385454Y122928D01*
X385422Y122927D01*
X385351Y122935D01*
X364237Y122935D01*
X364122Y122916D01*
X364006Y122899D01*
X364000Y122897D01*
X363994Y122896D01*
X363892Y122841D01*
X363786Y122788D01*
X363782Y122783D01*
X363776Y122780D01*
X363696Y122696D01*
X363614Y122612D01*
X363611Y122606D01*
X363607Y122602D01*
X363599Y122585D01*
X363533Y122465D01*
X363285Y121865D01*
X360735Y119315D01*
X357403Y117935D01*
X353797Y117935D01*
X350465Y119315D01*
X347915Y121865D01*
X346535Y125197D01*
X346535Y128803D01*
X347915Y132135D01*
X350116Y134336D01*
X350158Y134394D01*
X350207Y134446D01*
X350229Y134493D01*
X350260Y134535D01*
X350281Y134604D01*
X350311Y134669D01*
X350317Y134721D01*
X350332Y134771D01*
X350330Y134842D01*
X350338Y134913D01*
X350327Y134964D01*
X350326Y135016D01*
X350301Y135084D01*
X350286Y135154D01*
X350259Y135199D01*
X350241Y135247D01*
X350196Y135303D01*
X350160Y135365D01*
X350120Y135399D01*
X350088Y135439D01*
X350027Y135478D01*
X349973Y135525D01*
X349925Y135544D01*
X349881Y135572D01*
X349811Y135590D01*
X349745Y135617D01*
X349673Y135625D01*
X349642Y135633D01*
X349619Y135631D01*
X349578Y135635D01*
X319499Y135635D01*
X319409Y135621D01*
X319318Y135613D01*
X319288Y135601D01*
X319256Y135596D01*
X319176Y135553D01*
X319092Y135517D01*
X319060Y135491D01*
X319039Y135480D01*
X319017Y135457D01*
X318961Y135412D01*
X313781Y130233D01*
X313713Y130137D01*
X313643Y130044D01*
X313641Y130038D01*
X313638Y130033D01*
X313603Y129921D01*
X313567Y129810D01*
X313567Y129804D01*
X313565Y129798D01*
X313568Y129681D01*
X313569Y129656D01*
X313567Y129638D01*
X313569Y129627D01*
X313569Y129564D01*
X313572Y129557D01*
X313572Y129552D01*
X313578Y129535D01*
X313616Y129403D01*
X313865Y128803D01*
X313865Y125197D01*
X312485Y121865D01*
X309935Y119315D01*
X306603Y117935D01*
X302997Y117935D01*
X299665Y119315D01*
X297115Y121865D01*
X295735Y125197D01*
X295735Y128803D01*
X297115Y132135D01*
X299665Y134685D01*
X302997Y136065D01*
X306603Y136065D01*
X307203Y135816D01*
X307268Y135801D01*
X307307Y135785D01*
X307354Y135780D01*
X307430Y135761D01*
X307437Y135761D01*
X307443Y135760D01*
X307559Y135771D01*
X307676Y135780D01*
X307681Y135782D01*
X307688Y135783D01*
X307738Y135805D01*
X307746Y135807D01*
X307774Y135822D01*
X307795Y135831D01*
X307902Y135876D01*
X307908Y135881D01*
X307912Y135883D01*
X307926Y135896D01*
X307949Y135914D01*
X307963Y135922D01*
X307979Y135938D01*
X308033Y135981D01*
X313212Y141161D01*
X315816Y143765D01*
X617634Y143765D01*
X648590Y112809D01*
X648590Y105077D01*
X648609Y104962D01*
X648626Y104846D01*
X648628Y104840D01*
X648629Y104834D01*
X648684Y104732D01*
X648737Y104626D01*
X648742Y104622D01*
X648745Y104616D01*
X648829Y104536D01*
X648913Y104454D01*
X648919Y104451D01*
X648923Y104447D01*
X648940Y104439D01*
X649060Y104373D01*
X649660Y104125D01*
X652210Y101575D01*
X653590Y98243D01*
X653590Y79557D01*
X652210Y76225D01*
X649660Y73675D01*
X646328Y72295D01*
X642722Y72295D01*
X639390Y73675D01*
X636840Y76225D01*
X635460Y79557D01*
X635460Y98243D01*
X636840Y101575D01*
X639390Y104125D01*
X639990Y104373D01*
X640090Y104435D01*
X640190Y104495D01*
X640194Y104500D01*
X640199Y104503D01*
X640274Y104593D01*
X640350Y104682D01*
X640352Y104688D01*
X640356Y104692D01*
X640398Y104801D01*
X640442Y104910D01*
X640443Y104917D01*
X640444Y104922D01*
X640445Y104940D01*
X640460Y105077D01*
X640460Y109126D01*
X640457Y109145D01*
X640459Y109163D01*
X640444Y109231D01*
X640438Y109307D01*
X640426Y109337D01*
X640421Y109369D01*
X640410Y109388D01*
X640407Y109403D01*
X640374Y109458D01*
X640342Y109533D01*
X640316Y109565D01*
X640305Y109586D01*
X640287Y109603D01*
X640281Y109614D01*
X640270Y109623D01*
X640237Y109664D01*
X614489Y135412D01*
X614415Y135465D01*
X614346Y135525D01*
X614316Y135537D01*
X614290Y135556D01*
X614203Y135583D01*
X614118Y135617D01*
X614077Y135621D01*
X614054Y135628D01*
X614022Y135627D01*
X613951Y135635D01*
X437822Y135635D01*
X437751Y135624D01*
X437680Y135622D01*
X437631Y135604D01*
X437579Y135596D01*
X437516Y135562D01*
X437449Y135537D01*
X437408Y135505D01*
X437362Y135480D01*
X437313Y135428D01*
X437257Y135384D01*
X437228Y135340D01*
X437193Y135302D01*
X437162Y135237D01*
X437124Y135177D01*
X437111Y135126D01*
X437089Y135079D01*
X437081Y135008D01*
X437063Y134938D01*
X437068Y134886D01*
X437062Y134835D01*
X437077Y134764D01*
X437083Y134693D01*
X437103Y134645D01*
X437114Y134594D01*
X437151Y134533D01*
X437179Y134467D01*
X437224Y134411D01*
X437240Y134383D01*
X437258Y134368D01*
X437284Y134336D01*
X439485Y132135D01*
X439733Y131535D01*
X439795Y131435D01*
X439855Y131335D01*
X439860Y131331D01*
X439863Y131326D01*
X439953Y131251D01*
X440042Y131175D01*
X440048Y131173D01*
X440052Y131169D01*
X440161Y131127D01*
X440270Y131083D01*
X440277Y131082D01*
X440282Y131081D01*
X440300Y131080D01*
X440437Y131065D01*
X606204Y131065D01*
X623190Y114079D01*
X623190Y105077D01*
X623209Y104962D01*
X623226Y104846D01*
X623228Y104840D01*
X623229Y104834D01*
X623284Y104732D01*
X623337Y104626D01*
X623342Y104622D01*
X623345Y104616D01*
X623429Y104536D01*
X623513Y104454D01*
X623519Y104451D01*
X623523Y104447D01*
X623540Y104439D01*
X623660Y104373D01*
X624260Y104125D01*
X626810Y101575D01*
X628190Y98243D01*
X628190Y79557D01*
X626810Y76225D01*
X624260Y73675D01*
X620928Y72295D01*
X617322Y72295D01*
X613990Y73675D01*
X611440Y76225D01*
X610060Y79557D01*
X610060Y98243D01*
X611440Y101575D01*
X613990Y104125D01*
X614590Y104373D01*
X614690Y104435D01*
X614790Y104495D01*
X614794Y104500D01*
X614799Y104503D01*
X614874Y104593D01*
X614950Y104682D01*
X614952Y104688D01*
X614956Y104692D01*
X614998Y104801D01*
X615042Y104910D01*
X615043Y104917D01*
X615044Y104922D01*
X615045Y104940D01*
X615060Y105077D01*
X615060Y110396D01*
X615046Y110486D01*
X615038Y110577D01*
X615026Y110607D01*
X615021Y110639D01*
X614978Y110719D01*
X614942Y110803D01*
X614916Y110835D01*
X614905Y110856D01*
X614882Y110878D01*
X614837Y110934D01*
X603059Y122712D01*
X602985Y122765D01*
X602916Y122825D01*
X602886Y122837D01*
X602860Y122856D01*
X602773Y122883D01*
X602688Y122917D01*
X602647Y122921D01*
X602624Y122928D01*
X602592Y122927D01*
X602521Y122935D01*
X500601Y122935D01*
X500530Y122924D01*
X500458Y122922D01*
X500410Y122904D01*
X500358Y122896D01*
X500295Y122862D01*
X500227Y122837D01*
X500187Y122805D01*
X500141Y122780D01*
X500091Y122728D01*
X500035Y122684D01*
X500007Y122640D01*
X499971Y122602D01*
X499941Y122537D01*
X499902Y122477D01*
X499890Y122426D01*
X499868Y122379D01*
X499860Y122308D01*
X499842Y122238D01*
X499846Y122186D01*
X499841Y122135D01*
X499856Y122064D01*
X499862Y121993D01*
X499882Y121945D01*
X499893Y121894D01*
X499930Y121833D01*
X499958Y121767D01*
X500003Y121711D01*
X500019Y121683D01*
X500037Y121668D01*
X500063Y121636D01*
X512065Y109634D01*
X512065Y105077D01*
X512084Y104962D01*
X512101Y104846D01*
X512103Y104840D01*
X512104Y104834D01*
X512159Y104732D01*
X512212Y104626D01*
X512217Y104622D01*
X512220Y104616D01*
X512304Y104536D01*
X512388Y104454D01*
X512394Y104451D01*
X512398Y104447D01*
X512415Y104439D01*
X512535Y104373D01*
X513135Y104125D01*
X515685Y101575D01*
X517065Y98243D01*
X517065Y79557D01*
X515685Y76225D01*
X513135Y73675D01*
X509803Y72295D01*
X506197Y72295D01*
X502865Y73675D01*
X500315Y76225D01*
X498935Y79557D01*
X498935Y98243D01*
X500315Y101575D01*
X502865Y104125D01*
X503465Y104373D01*
X503565Y104435D01*
X503665Y104495D01*
X503669Y104500D01*
X503674Y104503D01*
X503749Y104593D01*
X503825Y104682D01*
X503827Y104688D01*
X503831Y104692D01*
X503873Y104801D01*
X503917Y104910D01*
X503918Y104917D01*
X503919Y104922D01*
X503920Y104940D01*
X503935Y105077D01*
X503935Y105951D01*
X503921Y106041D01*
X503913Y106132D01*
X503901Y106162D01*
X503896Y106194D01*
X503853Y106274D01*
X503817Y106358D01*
X503791Y106390D01*
X503780Y106411D01*
X503757Y106433D01*
X503712Y106489D01*
X487489Y122712D01*
X487415Y122765D01*
X487346Y122825D01*
X487316Y122837D01*
X487290Y122856D01*
X487203Y122883D01*
X487118Y122917D01*
X487077Y122921D01*
X487054Y122928D01*
X487022Y122927D01*
X486951Y122935D01*
X440437Y122935D01*
X440322Y122916D01*
X440206Y122899D01*
X440200Y122897D01*
X440194Y122896D01*
X440092Y122841D01*
X439986Y122788D01*
X439982Y122783D01*
X439976Y122780D01*
X439896Y122696D01*
X439814Y122612D01*
X439811Y122606D01*
X439807Y122602D01*
X439799Y122585D01*
X439733Y122465D01*
X439485Y121865D01*
X436935Y119315D01*
X433603Y117935D01*
X429997Y117935D01*
X426665Y119315D01*
X424115Y121865D01*
X422735Y125197D01*
X422735Y128803D01*
X424115Y132135D01*
X426316Y134336D01*
X426358Y134394D01*
X426407Y134446D01*
X426429Y134493D01*
X426460Y134535D01*
X426481Y134604D01*
X426511Y134669D01*
X426517Y134721D01*
X426532Y134771D01*
X426530Y134842D01*
X426538Y134913D01*
X426527Y134964D01*
X426526Y135016D01*
X426501Y135084D01*
X426486Y135154D01*
X426459Y135199D01*
X426441Y135247D01*
X426396Y135303D01*
X426360Y135365D01*
X426320Y135399D01*
X426288Y135439D01*
X426227Y135478D01*
X426173Y135525D01*
X426125Y135544D01*
X426081Y135572D01*
X426011Y135590D01*
X425945Y135617D01*
X425873Y135625D01*
X425842Y135633D01*
X425819Y135631D01*
X425778Y135635D01*
X361622Y135635D01*
X361551Y135624D01*
X361480Y135622D01*
X361431Y135604D01*
X361379Y135596D01*
X361316Y135562D01*
X361249Y135537D01*
X361208Y135505D01*
X361162Y135480D01*
X361113Y135428D01*
X361057Y135384D01*
X361028Y135340D01*
X360993Y135302D01*
X360962Y135237D01*
X360924Y135177D01*
X360911Y135126D01*
X360889Y135079D01*
X360881Y135008D01*
X360863Y134938D01*
X360868Y134886D01*
X360862Y134835D01*
X360877Y134764D01*
X360883Y134693D01*
X360903Y134645D01*
X360914Y134594D01*
X360951Y134533D01*
X360979Y134467D01*
X361024Y134411D01*
X361040Y134383D01*
X361058Y134368D01*
X361084Y134336D01*
X363285Y132135D01*
X363533Y131535D01*
X363595Y131435D01*
X363655Y131335D01*
X363660Y131331D01*
X363663Y131326D01*
X363753Y131251D01*
X363842Y131175D01*
X363848Y131173D01*
X363852Y131169D01*
X363961Y131127D01*
X364070Y131083D01*
X364077Y131082D01*
X364082Y131081D01*
X364100Y131080D01*
X364237Y131065D01*
X389034Y131065D01*
X426911Y93188D01*
X426985Y93135D01*
X427054Y93075D01*
X427084Y93063D01*
X427110Y93044D01*
X427197Y93017D01*
X427282Y92983D01*
X427323Y92979D01*
X427346Y92972D01*
X427378Y92973D01*
X427449Y92965D01*
X458884Y92965D01*
X490411Y61438D01*
X490485Y61385D01*
X490554Y61325D01*
X490584Y61313D01*
X490610Y61294D01*
X490697Y61267D01*
X490782Y61233D01*
X490823Y61229D01*
X490846Y61222D01*
X490878Y61223D01*
X490949Y61215D01*
X525051Y61215D01*
X525141Y61229D01*
X525232Y61237D01*
X525262Y61249D01*
X525294Y61254D01*
X525374Y61297D01*
X525458Y61333D01*
X525490Y61359D01*
X525511Y61370D01*
X525533Y61393D01*
X525589Y61438D01*
X529112Y64961D01*
X529165Y65035D01*
X529225Y65104D01*
X529237Y65134D01*
X529256Y65160D01*
X529283Y65247D01*
X529317Y65332D01*
X529321Y65373D01*
X529328Y65396D01*
X529327Y65428D01*
X529335Y65499D01*
X529335Y72723D01*
X529316Y72838D01*
X529299Y72954D01*
X529297Y72960D01*
X529296Y72966D01*
X529241Y73068D01*
X529188Y73174D01*
X529183Y73178D01*
X529180Y73184D01*
X529096Y73264D01*
X529012Y73346D01*
X529006Y73349D01*
X529002Y73353D01*
X528985Y73361D01*
X528865Y73427D01*
X528265Y73675D01*
X525715Y76225D01*
X524335Y79557D01*
X524335Y98243D01*
X525715Y101575D01*
X528265Y104125D01*
X531597Y105505D01*
X535203Y105505D01*
X538535Y104125D01*
X541085Y101575D01*
X542465Y98243D01*
X542465Y79557D01*
X541085Y76225D01*
X538535Y73675D01*
X537935Y73427D01*
X537835Y73365D01*
X537735Y73305D01*
X537731Y73300D01*
X537726Y73297D01*
X537651Y73207D01*
X537575Y73118D01*
X537573Y73112D01*
X537569Y73108D01*
X537527Y72999D01*
X537483Y72890D01*
X537482Y72883D01*
X537481Y72878D01*
X537480Y72860D01*
X537465Y72723D01*
X537465Y61816D01*
X528734Y53085D01*
X487266Y53085D01*
G37*
%LPD*%
%LPC*%
G36*
X806079Y37845D02*
X806079Y37845D01*
X793094Y41325D01*
X781452Y48046D01*
X771946Y57552D01*
X765225Y69194D01*
X761745Y82179D01*
X761745Y95621D01*
X765225Y108606D01*
X771946Y120248D01*
X781452Y129754D01*
X793094Y136475D01*
X806079Y139955D01*
X819521Y139955D01*
X832506Y136475D01*
X844148Y129754D01*
X853654Y120248D01*
X860375Y108606D01*
X863855Y95621D01*
X863855Y82179D01*
X860375Y69194D01*
X853654Y57552D01*
X844148Y48046D01*
X832506Y41325D01*
X819521Y37845D01*
X806079Y37845D01*
G37*
%LPD*%
%LPC*%
G36*
X183779Y37845D02*
X183779Y37845D01*
X170794Y41325D01*
X159152Y48046D01*
X149646Y57552D01*
X142925Y69194D01*
X139445Y82179D01*
X139445Y95621D01*
X142925Y108606D01*
X149646Y120248D01*
X159152Y129754D01*
X170794Y136475D01*
X183779Y139955D01*
X197221Y139955D01*
X210206Y136475D01*
X221848Y129754D01*
X231354Y120248D01*
X238075Y108606D01*
X241555Y95621D01*
X241555Y82179D01*
X238075Y69194D01*
X231354Y57552D01*
X221848Y48046D01*
X210206Y41325D01*
X197221Y37845D01*
X183779Y37845D01*
G37*
%LPD*%
%LPC*%
G36*
X23202Y26443D02*
X23202Y26443D01*
X20093Y29552D01*
X20093Y33948D01*
X21620Y35475D01*
X21673Y35549D01*
X21733Y35619D01*
X21745Y35649D01*
X21764Y35675D01*
X21791Y35762D01*
X21825Y35847D01*
X21829Y35888D01*
X21836Y35910D01*
X21835Y35942D01*
X21843Y36013D01*
X21843Y43383D01*
X34320Y55860D01*
X34373Y55934D01*
X34433Y56004D01*
X34445Y56034D01*
X34464Y56060D01*
X34491Y56147D01*
X34525Y56232D01*
X34529Y56273D01*
X34536Y56295D01*
X34535Y56327D01*
X34543Y56399D01*
X34543Y71882D01*
X34540Y71902D01*
X34542Y71921D01*
X34520Y72023D01*
X34504Y72125D01*
X34494Y72142D01*
X34490Y72162D01*
X34437Y72251D01*
X34388Y72342D01*
X34374Y72356D01*
X34364Y72373D01*
X34285Y72440D01*
X34210Y72512D01*
X34192Y72520D01*
X34177Y72533D01*
X34081Y72572D01*
X33987Y72615D01*
X33967Y72617D01*
X33949Y72625D01*
X33782Y72643D01*
X29467Y72643D01*
X28574Y73536D01*
X28574Y86484D01*
X29182Y87092D01*
X29194Y87108D01*
X29210Y87120D01*
X29266Y87208D01*
X29326Y87291D01*
X29332Y87310D01*
X29343Y87327D01*
X29368Y87428D01*
X29398Y87527D01*
X29398Y87546D01*
X29403Y87566D01*
X29395Y87669D01*
X29392Y87772D01*
X29385Y87791D01*
X29384Y87811D01*
X29343Y87906D01*
X29308Y88003D01*
X29295Y88019D01*
X29287Y88037D01*
X29182Y88168D01*
X28574Y88776D01*
X28574Y101724D01*
X29467Y102617D01*
X46733Y102617D01*
X47626Y101724D01*
X47626Y99568D01*
X47629Y99548D01*
X47627Y99529D01*
X47649Y99427D01*
X47665Y99325D01*
X47675Y99308D01*
X47679Y99288D01*
X47732Y99199D01*
X47781Y99108D01*
X47795Y99094D01*
X47805Y99077D01*
X47884Y99010D01*
X47959Y98938D01*
X47977Y98930D01*
X47992Y98917D01*
X48088Y98878D01*
X48182Y98835D01*
X48202Y98833D01*
X48220Y98825D01*
X48387Y98807D01*
X52273Y98807D01*
X58400Y92680D01*
X58474Y92627D01*
X58544Y92567D01*
X58574Y92555D01*
X58600Y92536D01*
X58687Y92509D01*
X58772Y92475D01*
X58813Y92471D01*
X58835Y92464D01*
X58867Y92465D01*
X58939Y92457D01*
X59813Y92457D01*
X59928Y92476D01*
X60044Y92493D01*
X60050Y92495D01*
X60056Y92496D01*
X60158Y92551D01*
X60263Y92604D01*
X60268Y92609D01*
X60273Y92612D01*
X60353Y92696D01*
X60435Y92780D01*
X60439Y92786D01*
X60442Y92790D01*
X60450Y92807D01*
X60516Y92927D01*
X60975Y94035D01*
X63525Y96585D01*
X66857Y97965D01*
X85543Y97965D01*
X88875Y96585D01*
X91425Y94035D01*
X92805Y90703D01*
X92805Y87097D01*
X91425Y83765D01*
X88875Y81215D01*
X85543Y79835D01*
X66857Y79835D01*
X63525Y81215D01*
X60975Y83765D01*
X60516Y84873D01*
X60455Y84973D01*
X60395Y85073D01*
X60390Y85077D01*
X60387Y85082D01*
X60297Y85157D01*
X60208Y85233D01*
X60202Y85235D01*
X60197Y85239D01*
X60089Y85281D01*
X59980Y85325D01*
X59972Y85326D01*
X59968Y85327D01*
X59949Y85328D01*
X59813Y85343D01*
X55677Y85343D01*
X49550Y91470D01*
X49476Y91523D01*
X49406Y91583D01*
X49376Y91595D01*
X49350Y91614D01*
X49263Y91641D01*
X49178Y91675D01*
X49137Y91679D01*
X49115Y91686D01*
X49083Y91685D01*
X49011Y91693D01*
X48387Y91693D01*
X48367Y91690D01*
X48348Y91692D01*
X48246Y91670D01*
X48144Y91654D01*
X48127Y91644D01*
X48107Y91640D01*
X48018Y91587D01*
X47927Y91538D01*
X47913Y91524D01*
X47896Y91514D01*
X47829Y91435D01*
X47757Y91360D01*
X47749Y91342D01*
X47736Y91327D01*
X47697Y91231D01*
X47654Y91137D01*
X47652Y91117D01*
X47644Y91099D01*
X47626Y90932D01*
X47626Y88776D01*
X47018Y88168D01*
X47006Y88152D01*
X46990Y88140D01*
X46934Y88052D01*
X46874Y87969D01*
X46868Y87950D01*
X46857Y87933D01*
X46832Y87832D01*
X46802Y87733D01*
X46802Y87714D01*
X46797Y87694D01*
X46805Y87591D01*
X46808Y87488D01*
X46815Y87469D01*
X46816Y87449D01*
X46857Y87354D01*
X46892Y87257D01*
X46905Y87241D01*
X46913Y87223D01*
X47018Y87092D01*
X47626Y86484D01*
X47626Y73536D01*
X46733Y72643D01*
X42418Y72643D01*
X42398Y72640D01*
X42379Y72642D01*
X42277Y72620D01*
X42175Y72604D01*
X42158Y72594D01*
X42138Y72590D01*
X42049Y72537D01*
X41958Y72488D01*
X41944Y72474D01*
X41927Y72464D01*
X41860Y72385D01*
X41788Y72310D01*
X41780Y72292D01*
X41767Y72277D01*
X41728Y72181D01*
X41685Y72087D01*
X41683Y72067D01*
X41675Y72049D01*
X41657Y71882D01*
X41657Y53137D01*
X29180Y40660D01*
X29127Y40586D01*
X29067Y40516D01*
X29055Y40486D01*
X29036Y40460D01*
X29009Y40373D01*
X28975Y40288D01*
X28971Y40247D01*
X28964Y40225D01*
X28965Y40193D01*
X28957Y40121D01*
X28957Y36013D01*
X28958Y36006D01*
X28958Y36004D01*
X28960Y35993D01*
X28971Y35923D01*
X28979Y35832D01*
X28991Y35803D01*
X28996Y35771D01*
X29039Y35690D01*
X29075Y35606D01*
X29101Y35574D01*
X29112Y35553D01*
X29135Y35531D01*
X29180Y35475D01*
X30707Y33948D01*
X30707Y29552D01*
X27598Y26443D01*
X23202Y26443D01*
G37*
%LPD*%
%LPC*%
G36*
X800719Y18075D02*
X800719Y18075D01*
X800656Y18162D01*
X800600Y18218D01*
X800550Y18280D01*
X800513Y18304D01*
X800482Y18335D01*
X800410Y18370D01*
X800343Y18413D01*
X800300Y18423D01*
X800261Y18443D01*
X800182Y18453D01*
X800105Y18473D01*
X800061Y18469D01*
X800017Y18475D01*
X799939Y18460D01*
X799859Y18454D01*
X799819Y18436D01*
X799775Y18428D01*
X799706Y18388D01*
X799633Y18357D01*
X799587Y18321D01*
X799562Y18306D01*
X799543Y18285D01*
X799502Y18253D01*
X798775Y17525D01*
X795067Y17525D01*
X794981Y17589D01*
X794064Y18118D01*
X794023Y18133D01*
X793986Y18157D01*
X793909Y18177D01*
X793834Y18205D01*
X793790Y18206D01*
X793748Y18217D01*
X793668Y18211D01*
X793588Y18214D01*
X793546Y18201D01*
X793503Y18198D01*
X793429Y18167D01*
X793352Y18144D01*
X793317Y18119D01*
X793276Y18102D01*
X793162Y18010D01*
X793151Y18003D01*
X793149Y18000D01*
X793145Y17997D01*
X792674Y17525D01*
X790884Y17525D01*
X790352Y18057D01*
X790285Y18106D01*
X790222Y18162D01*
X790185Y18178D01*
X790153Y18201D01*
X790073Y18226D01*
X789996Y18258D01*
X789956Y18262D01*
X789918Y18273D01*
X789834Y18271D01*
X789751Y18278D01*
X789712Y18268D01*
X789672Y18267D01*
X789593Y18238D01*
X789512Y18218D01*
X789467Y18192D01*
X789441Y18183D01*
X789417Y18164D01*
X789367Y18135D01*
X788527Y17525D01*
X784783Y17525D01*
X784231Y18078D01*
X784150Y18135D01*
X784074Y18198D01*
X784051Y18207D01*
X784031Y18221D01*
X783937Y18250D01*
X783844Y18286D01*
X783819Y18287D01*
X783796Y18294D01*
X783697Y18291D01*
X783598Y18295D01*
X783568Y18288D01*
X783550Y18287D01*
X783519Y18276D01*
X783435Y18256D01*
X782818Y18034D01*
X781462Y17546D01*
X781232Y17543D01*
X780051Y17526D01*
X780022Y17526D01*
X778884Y17509D01*
X777114Y18940D01*
X776667Y21171D01*
X777362Y22454D01*
X777369Y22472D01*
X777379Y22488D01*
X777409Y22588D01*
X777443Y22687D01*
X777443Y22706D01*
X777448Y22724D01*
X777444Y22828D01*
X777445Y22933D01*
X777439Y22951D01*
X777439Y22970D01*
X777387Y23130D01*
X777083Y23805D01*
X777717Y25478D01*
X778533Y25845D01*
X779759Y26397D01*
X779893Y26399D01*
X781050Y26416D01*
X781051Y26416D01*
X781103Y26417D01*
X781103Y26416D01*
X782241Y26433D01*
X783386Y25508D01*
X783389Y25506D01*
X783391Y25503D01*
X783494Y25446D01*
X783600Y25386D01*
X783603Y25385D01*
X783606Y25384D01*
X783722Y25362D01*
X783841Y25339D01*
X783845Y25339D01*
X783848Y25339D01*
X783967Y25356D01*
X784085Y25371D01*
X784088Y25373D01*
X784091Y25373D01*
X784245Y25441D01*
X785826Y26353D01*
X785838Y26363D01*
X785853Y26370D01*
X785912Y26417D01*
X788668Y26417D01*
X788687Y26420D01*
X788707Y26418D01*
X788808Y26440D01*
X788910Y26456D01*
X788928Y26466D01*
X788947Y26470D01*
X789036Y26523D01*
X789128Y26572D01*
X789141Y26586D01*
X789159Y26596D01*
X789226Y26675D01*
X789297Y26750D01*
X789305Y26768D01*
X789318Y26783D01*
X789357Y26879D01*
X789401Y26973D01*
X789403Y26993D01*
X789410Y27011D01*
X789429Y27178D01*
X789429Y27438D01*
X790694Y28703D01*
X792864Y28703D01*
X794129Y27438D01*
X794129Y27178D01*
X794133Y27158D01*
X794130Y27139D01*
X794152Y27037D01*
X794169Y26935D01*
X794178Y26918D01*
X794183Y26898D01*
X794236Y26809D01*
X794284Y26718D01*
X794299Y26704D01*
X794309Y26687D01*
X794388Y26620D01*
X794463Y26548D01*
X794481Y26540D01*
X794496Y26527D01*
X794592Y26488D01*
X794686Y26445D01*
X794705Y26443D01*
X794724Y26435D01*
X794891Y26417D01*
X794959Y26417D01*
X794979Y26420D01*
X794999Y26418D01*
X795100Y26440D01*
X795202Y26456D01*
X795220Y26466D01*
X795239Y26470D01*
X795328Y26523D01*
X795420Y26572D01*
X795433Y26586D01*
X795450Y26596D01*
X795518Y26675D01*
X795589Y26750D01*
X795597Y26768D01*
X795610Y26783D01*
X795649Y26879D01*
X795693Y26973D01*
X795695Y26993D01*
X795702Y27011D01*
X795721Y27178D01*
X795721Y27438D01*
X796986Y28703D01*
X798775Y28703D01*
X800040Y27438D01*
X800040Y26694D01*
X800043Y26678D01*
X800041Y26662D01*
X800063Y26557D01*
X800080Y26451D01*
X800087Y26437D01*
X800091Y26421D01*
X800145Y26328D01*
X800195Y26234D01*
X800206Y26223D01*
X800215Y26209D01*
X800296Y26138D01*
X800373Y26064D01*
X800388Y26058D01*
X800400Y26047D01*
X800499Y26006D01*
X800596Y25961D01*
X800612Y25959D01*
X800627Y25953D01*
X800734Y25945D01*
X800841Y25934D01*
X800856Y25937D01*
X800872Y25936D01*
X801037Y25970D01*
X802996Y26606D01*
X804274Y26191D01*
X804290Y26188D01*
X804305Y26182D01*
X804411Y26170D01*
X804517Y26154D01*
X804533Y26156D01*
X804549Y26155D01*
X804654Y26177D01*
X804760Y26196D01*
X804774Y26204D01*
X804789Y26207D01*
X804881Y26262D01*
X804976Y26313D01*
X804987Y26325D01*
X805000Y26333D01*
X805070Y26414D01*
X805143Y26493D01*
X805150Y26508D01*
X805160Y26520D01*
X805200Y26620D01*
X805245Y26717D01*
X805246Y26733D01*
X805252Y26748D01*
X805271Y26915D01*
X805271Y27438D01*
X806536Y28703D01*
X812135Y28703D01*
X813400Y27438D01*
X813400Y25648D01*
X812111Y24359D01*
X812014Y24344D01*
X811996Y24334D01*
X811977Y24330D01*
X811888Y24277D01*
X811796Y24228D01*
X811783Y24214D01*
X811766Y24204D01*
X811698Y24125D01*
X811627Y24050D01*
X811619Y24032D01*
X811606Y24017D01*
X811567Y23921D01*
X811523Y23827D01*
X811521Y23807D01*
X811514Y23789D01*
X811495Y23622D01*
X811495Y18790D01*
X810230Y17525D01*
X808441Y17525D01*
X807004Y18962D01*
X806940Y19008D01*
X806881Y19062D01*
X806841Y19080D01*
X806805Y19105D01*
X806729Y19129D01*
X806656Y19161D01*
X806612Y19165D01*
X806570Y19178D01*
X806490Y19176D01*
X806411Y19183D01*
X806368Y19172D01*
X806324Y19171D01*
X806249Y19144D01*
X806172Y19125D01*
X806134Y19102D01*
X806093Y19087D01*
X806031Y19037D01*
X805963Y18995D01*
X805924Y18952D01*
X805901Y18933D01*
X805886Y18910D01*
X805850Y18871D01*
X805272Y18075D01*
X802996Y17336D01*
X800719Y18075D01*
G37*
%LPD*%
%LPC*%
G36*
X843858Y17523D02*
X843858Y17523D01*
X843836Y17521D01*
X843797Y17525D01*
X839210Y17525D01*
X838262Y18474D01*
X838196Y18521D01*
X838137Y18575D01*
X838097Y18592D01*
X838062Y18618D01*
X837985Y18641D01*
X837911Y18674D01*
X837868Y18677D01*
X837827Y18690D01*
X837746Y18688D01*
X837666Y18695D01*
X837624Y18685D01*
X837581Y18684D01*
X837505Y18656D01*
X837427Y18637D01*
X837377Y18609D01*
X837350Y18599D01*
X837328Y18582D01*
X837281Y18555D01*
X835839Y17525D01*
X833551Y17525D01*
X832147Y18528D01*
X832102Y18550D01*
X832063Y18580D01*
X831993Y18604D01*
X831927Y18637D01*
X831877Y18643D01*
X831830Y18659D01*
X831756Y18660D01*
X831683Y18669D01*
X831634Y18660D01*
X831584Y18660D01*
X831514Y18637D01*
X831441Y18623D01*
X831398Y18598D01*
X831351Y18582D01*
X831249Y18514D01*
X831227Y18501D01*
X831222Y18495D01*
X831212Y18489D01*
X830774Y18116D01*
X830759Y18099D01*
X830728Y18074D01*
X830144Y17490D01*
X830116Y17486D01*
X830062Y17457D01*
X830057Y17456D01*
X829228Y17523D01*
X829206Y17521D01*
X829167Y17525D01*
X824580Y17525D01*
X823631Y18474D01*
X823566Y18521D01*
X823506Y18575D01*
X823467Y18592D01*
X823431Y18618D01*
X823355Y18641D01*
X823281Y18674D01*
X823238Y18677D01*
X823196Y18690D01*
X823116Y18688D01*
X823036Y18695D01*
X822994Y18685D01*
X822950Y18684D01*
X822875Y18656D01*
X822797Y18637D01*
X822747Y18609D01*
X822719Y18599D01*
X822697Y18582D01*
X822650Y18555D01*
X821208Y17525D01*
X818921Y17525D01*
X817059Y18855D01*
X816746Y19767D01*
X816732Y19794D01*
X816711Y19853D01*
X816000Y21311D01*
X816000Y24917D01*
X816403Y25745D01*
X816417Y25789D01*
X816439Y25831D01*
X816468Y25961D01*
X816474Y25980D01*
X816474Y25986D01*
X816476Y25994D01*
X816493Y26147D01*
X816521Y26169D01*
X816526Y26175D01*
X816533Y26179D01*
X816607Y26265D01*
X816685Y26352D01*
X816689Y26359D01*
X816694Y26365D01*
X816765Y26517D01*
X817059Y27373D01*
X818921Y28703D01*
X821208Y28703D01*
X823177Y27297D01*
X823228Y27272D01*
X823273Y27238D01*
X823337Y27218D01*
X823397Y27188D01*
X823454Y27180D01*
X823508Y27163D01*
X823575Y27164D01*
X823641Y27155D01*
X823697Y27166D01*
X823754Y27167D01*
X823817Y27189D01*
X823883Y27202D01*
X823932Y27230D01*
X823985Y27249D01*
X824038Y27290D01*
X824097Y27323D01*
X824134Y27365D01*
X824179Y27400D01*
X824240Y27483D01*
X824261Y27506D01*
X824266Y27519D01*
X824278Y27536D01*
X824353Y27665D01*
X826151Y28703D01*
X828608Y28703D01*
X830613Y27244D01*
X830632Y27235D01*
X830648Y27221D01*
X830741Y27180D01*
X830833Y27133D01*
X830854Y27130D01*
X830873Y27122D01*
X830975Y27113D01*
X831077Y27099D01*
X831097Y27102D01*
X831118Y27101D01*
X831218Y27125D01*
X831318Y27143D01*
X831337Y27153D01*
X831357Y27158D01*
X831504Y27240D01*
X833551Y28703D01*
X835839Y28703D01*
X837807Y27297D01*
X837858Y27272D01*
X837904Y27238D01*
X837968Y27218D01*
X838028Y27188D01*
X838084Y27180D01*
X838138Y27163D01*
X838205Y27164D01*
X838272Y27155D01*
X838327Y27166D01*
X838384Y27167D01*
X838447Y27189D01*
X838513Y27202D01*
X838562Y27230D01*
X838616Y27249D01*
X838669Y27290D01*
X838727Y27323D01*
X838765Y27365D01*
X838809Y27400D01*
X838871Y27483D01*
X838891Y27506D01*
X838896Y27519D01*
X838909Y27536D01*
X838983Y27665D01*
X840781Y28703D01*
X843238Y28703D01*
X845533Y27034D01*
X845970Y25684D01*
X846254Y24807D01*
X846252Y24806D01*
X846204Y24733D01*
X846183Y24708D01*
X846173Y24686D01*
X846160Y24666D01*
X845431Y23240D01*
X845178Y23158D01*
X845137Y23137D01*
X845094Y23125D01*
X845029Y23081D01*
X844959Y23045D01*
X844927Y23013D01*
X844890Y22987D01*
X844842Y22925D01*
X844788Y22869D01*
X844768Y22828D01*
X844741Y22792D01*
X844715Y22718D01*
X844682Y22647D01*
X844676Y22602D01*
X844661Y22559D01*
X844661Y22480D01*
X844652Y22403D01*
X844661Y22358D01*
X844661Y22313D01*
X844685Y22239D01*
X844701Y22162D01*
X844724Y22123D01*
X844738Y22080D01*
X844816Y21964D01*
X844825Y21949D01*
X844828Y21946D01*
X844832Y21941D01*
X845484Y21174D01*
X845501Y21159D01*
X845526Y21129D01*
X846110Y20545D01*
X846114Y20516D01*
X846143Y20462D01*
X846144Y20458D01*
X846077Y19628D01*
X846079Y19606D01*
X846075Y19567D01*
X846075Y18741D01*
X846058Y18717D01*
X846040Y18659D01*
X846038Y18655D01*
X845404Y18116D01*
X845389Y18099D01*
X845359Y18074D01*
X844775Y17490D01*
X844746Y17486D01*
X844692Y17457D01*
X844688Y17456D01*
X843858Y17523D01*
G37*
%LPD*%
%LPC*%
G36*
X741290Y15239D02*
X741290Y15239D01*
X741204Y15303D01*
X739780Y16124D01*
X738959Y17547D01*
X738949Y17560D01*
X738943Y17574D01*
X738838Y17705D01*
X738768Y17775D01*
X738732Y17801D01*
X738702Y17833D01*
X738633Y17872D01*
X738568Y17919D01*
X738526Y17932D01*
X738488Y17953D01*
X738409Y17968D01*
X738333Y17991D01*
X738289Y17990D01*
X738246Y17998D01*
X738167Y17987D01*
X738087Y17985D01*
X738046Y17970D01*
X738002Y17964D01*
X737869Y17905D01*
X737856Y17901D01*
X737853Y17898D01*
X737849Y17896D01*
X737315Y17589D01*
X737303Y17578D01*
X737289Y17572D01*
X737230Y17525D01*
X733521Y17525D01*
X732953Y18093D01*
X732918Y18119D01*
X732888Y18151D01*
X732818Y18190D01*
X732753Y18237D01*
X732712Y18250D01*
X732673Y18271D01*
X732595Y18286D01*
X732518Y18309D01*
X732475Y18308D01*
X732431Y18316D01*
X732352Y18305D01*
X732273Y18303D01*
X732231Y18288D01*
X732188Y18282D01*
X732055Y18223D01*
X732042Y18218D01*
X732039Y18216D01*
X732034Y18214D01*
X730841Y17525D01*
X729061Y17525D01*
X727796Y18790D01*
X727796Y20580D01*
X728716Y21500D01*
X728769Y21574D01*
X728829Y21643D01*
X728841Y21673D01*
X728860Y21699D01*
X728887Y21786D01*
X728921Y21871D01*
X728925Y21912D01*
X728932Y21934D01*
X728931Y21967D01*
X728939Y22038D01*
X728939Y27438D01*
X730204Y28703D01*
X731994Y28703D01*
X733259Y27438D01*
X733259Y26783D01*
X733261Y26767D01*
X733259Y26751D01*
X733281Y26646D01*
X733298Y26540D01*
X733306Y26526D01*
X733309Y26510D01*
X733363Y26417D01*
X733413Y26323D01*
X733425Y26312D01*
X733433Y26298D01*
X733514Y26227D01*
X733592Y26153D01*
X733606Y26147D01*
X733618Y26136D01*
X733718Y26095D01*
X733815Y26050D01*
X733831Y26048D01*
X733846Y26042D01*
X733953Y26034D01*
X734059Y26023D01*
X734075Y26026D01*
X734091Y26025D01*
X734255Y26059D01*
X735940Y26606D01*
X738217Y25867D01*
X738279Y25780D01*
X738336Y25724D01*
X738385Y25662D01*
X738423Y25638D01*
X738454Y25607D01*
X738526Y25572D01*
X738592Y25529D01*
X738635Y25519D01*
X738675Y25499D01*
X738754Y25489D01*
X738831Y25469D01*
X738875Y25473D01*
X738919Y25467D01*
X738997Y25482D01*
X739076Y25488D01*
X739117Y25506D01*
X739160Y25514D01*
X739229Y25554D01*
X739302Y25585D01*
X739348Y25621D01*
X739374Y25636D01*
X739392Y25657D01*
X739433Y25689D01*
X740161Y26417D01*
X743869Y26417D01*
X743955Y26353D01*
X745465Y25482D01*
X745561Y25445D01*
X745655Y25404D01*
X745676Y25402D01*
X745695Y25395D01*
X745782Y25392D01*
X745835Y25386D01*
X745850Y25386D01*
X745852Y25386D01*
X745900Y25382D01*
X745920Y25387D01*
X745940Y25386D01*
X746040Y25415D01*
X746063Y25421D01*
X746092Y25425D01*
X746100Y25430D01*
X746140Y25439D01*
X746157Y25450D01*
X746176Y25456D01*
X746259Y25514D01*
X746310Y25541D01*
X746321Y25553D01*
X746348Y25570D01*
X746365Y25588D01*
X746378Y25597D01*
X746397Y25623D01*
X746461Y25694D01*
X746587Y25867D01*
X748863Y26606D01*
X750097Y26205D01*
X750182Y26192D01*
X750266Y26171D01*
X750303Y26174D01*
X750340Y26168D01*
X750425Y26183D01*
X750511Y26190D01*
X750546Y26204D01*
X750583Y26210D01*
X750659Y26252D01*
X750738Y26285D01*
X750766Y26310D01*
X750799Y26328D01*
X750858Y26391D01*
X750922Y26448D01*
X750948Y26489D01*
X750966Y26508D01*
X750979Y26536D01*
X751013Y26589D01*
X751873Y28309D01*
X753571Y28875D01*
X755350Y27985D01*
X755371Y27978D01*
X755390Y27966D01*
X755489Y27942D01*
X755585Y27912D01*
X755607Y27912D01*
X755629Y27907D01*
X755730Y27915D01*
X755831Y27918D01*
X755852Y27925D01*
X755874Y27927D01*
X756031Y27985D01*
X757811Y28875D01*
X759509Y28309D01*
X760309Y26709D01*
X758048Y19926D01*
X758042Y19889D01*
X758028Y19854D01*
X758022Y19768D01*
X758009Y19683D01*
X758015Y19646D01*
X758012Y19608D01*
X758029Y19532D01*
X757715Y18905D01*
X757706Y18874D01*
X757674Y18805D01*
X757454Y18144D01*
X757398Y18095D01*
X757328Y18045D01*
X757306Y18014D01*
X757278Y17989D01*
X757236Y17923D01*
X756571Y17702D01*
X756542Y17687D01*
X756471Y17660D01*
X755848Y17349D01*
X755774Y17354D01*
X755689Y17367D01*
X755652Y17361D01*
X755614Y17363D01*
X755538Y17347D01*
X754911Y17660D01*
X754880Y17670D01*
X754811Y17702D01*
X754150Y17922D01*
X754101Y17978D01*
X754050Y18048D01*
X754020Y18069D01*
X753995Y18098D01*
X753929Y18140D01*
X753708Y18805D01*
X753704Y18812D01*
X753703Y18814D01*
X753699Y18822D01*
X753692Y18834D01*
X753666Y18905D01*
X753442Y19353D01*
X753396Y19416D01*
X753358Y19485D01*
X753325Y19515D01*
X753298Y19552D01*
X753234Y19598D01*
X753176Y19650D01*
X753135Y19669D01*
X753098Y19695D01*
X753023Y19718D01*
X752951Y19749D01*
X752906Y19753D01*
X752863Y19767D01*
X752785Y19764D01*
X752706Y19771D01*
X752662Y19761D01*
X752617Y19760D01*
X752543Y19732D01*
X752467Y19714D01*
X752429Y19690D01*
X752386Y19674D01*
X752325Y19625D01*
X752259Y19584D01*
X752218Y19539D01*
X752195Y19520D01*
X752180Y19497D01*
X752146Y19460D01*
X751140Y18075D01*
X748863Y17336D01*
X746878Y17981D01*
X746863Y17983D01*
X746848Y17990D01*
X746742Y18002D01*
X746635Y18018D01*
X746620Y18015D01*
X746604Y18017D01*
X746499Y17994D01*
X746393Y17976D01*
X746379Y17968D01*
X746363Y17965D01*
X746271Y17910D01*
X746177Y17858D01*
X746166Y17847D01*
X746152Y17838D01*
X746083Y17757D01*
X746009Y17678D01*
X746003Y17664D01*
X745992Y17652D01*
X745952Y17552D01*
X745908Y17454D01*
X745906Y17438D01*
X745900Y17423D01*
X745882Y17257D01*
X745882Y16504D01*
X744617Y15239D01*
X741290Y15239D01*
G37*
%LPD*%
%LPC*%
G36*
X429997Y41735D02*
X429997Y41735D01*
X426665Y43115D01*
X424115Y45665D01*
X422735Y48997D01*
X422735Y52603D01*
X424115Y55935D01*
X426665Y58485D01*
X429997Y59865D01*
X433603Y59865D01*
X436935Y58485D01*
X439485Y55935D01*
X440865Y52603D01*
X440865Y48997D01*
X439485Y45665D01*
X436935Y43115D01*
X433603Y41735D01*
X429997Y41735D01*
G37*
%LPD*%
%LPC*%
G36*
X852378Y15683D02*
X852378Y15683D01*
X848605Y18425D01*
X847164Y22860D01*
X847562Y24084D01*
X847571Y24147D01*
X847591Y24208D01*
X847590Y24268D01*
X847599Y24328D01*
X847588Y24390D01*
X847588Y24398D01*
X847596Y24408D01*
X847671Y24494D01*
X847675Y24502D01*
X847680Y24508D01*
X847749Y24661D01*
X848605Y27296D01*
X852378Y30037D01*
X857042Y30037D01*
X860815Y27295D01*
X862256Y22860D01*
X860815Y18424D01*
X857042Y15683D01*
X852378Y15683D01*
G37*
%LPD*%
%LPC*%
G36*
X738123Y90423D02*
X738123Y90423D01*
X738123Y106405D01*
X738961Y106273D01*
X740470Y105782D01*
X741883Y105062D01*
X743167Y104129D01*
X744289Y103007D01*
X745222Y101723D01*
X745942Y100310D01*
X746433Y98801D01*
X746681Y97233D01*
X746681Y90423D01*
X738123Y90423D01*
G37*
%LPD*%
%LPC*%
G36*
X77723Y65023D02*
X77723Y65023D01*
X77723Y73581D01*
X84533Y73581D01*
X86101Y73333D01*
X87610Y72842D01*
X89023Y72122D01*
X90307Y71189D01*
X91429Y70067D01*
X92362Y68783D01*
X93082Y67370D01*
X93573Y65861D01*
X93705Y65023D01*
X77723Y65023D01*
G37*
%LPD*%
%LPC*%
G36*
X738123Y87377D02*
X738123Y87377D01*
X746681Y87377D01*
X746681Y80567D01*
X746433Y78999D01*
X745942Y77490D01*
X745222Y76077D01*
X744289Y74793D01*
X743167Y73671D01*
X741883Y72738D01*
X740470Y72018D01*
X738961Y71527D01*
X738123Y71395D01*
X738123Y87377D01*
G37*
%LPD*%
%LPC*%
G36*
X58695Y65023D02*
X58695Y65023D01*
X58827Y65861D01*
X59318Y67370D01*
X60038Y68783D01*
X60971Y70067D01*
X62093Y71189D01*
X63377Y72122D01*
X64790Y72842D01*
X66299Y73333D01*
X67867Y73581D01*
X74677Y73581D01*
X74677Y65023D01*
X58695Y65023D01*
G37*
%LPD*%
%LPC*%
G36*
X77723Y53419D02*
X77723Y53419D01*
X77723Y61977D01*
X93705Y61977D01*
X93573Y61139D01*
X93082Y59630D01*
X92362Y58217D01*
X91429Y56933D01*
X90307Y55811D01*
X89023Y54878D01*
X87610Y54158D01*
X86101Y53667D01*
X84533Y53419D01*
X77723Y53419D01*
G37*
%LPD*%
%LPC*%
G36*
X726519Y90423D02*
X726519Y90423D01*
X726519Y97233D01*
X726767Y98801D01*
X727258Y100310D01*
X727978Y101723D01*
X728911Y103007D01*
X730033Y104129D01*
X731317Y105062D01*
X732730Y105782D01*
X734239Y106273D01*
X735077Y106405D01*
X735077Y90423D01*
X726519Y90423D01*
G37*
%LPD*%
%LPC*%
G36*
X734239Y71527D02*
X734239Y71527D01*
X732730Y72018D01*
X731317Y72738D01*
X730033Y73671D01*
X728911Y74793D01*
X727978Y76077D01*
X727258Y77490D01*
X726767Y78999D01*
X726519Y80567D01*
X726519Y87377D01*
X735077Y87377D01*
X735077Y71395D01*
X734239Y71527D01*
G37*
%LPD*%
%LPC*%
G36*
X67867Y53419D02*
X67867Y53419D01*
X66299Y53667D01*
X64790Y54158D01*
X63377Y54878D01*
X62093Y55811D01*
X60971Y56933D01*
X60038Y58217D01*
X59318Y59630D01*
X58827Y61139D01*
X58695Y61977D01*
X74677Y61977D01*
X74677Y53419D01*
X67867Y53419D01*
G37*
%LPD*%
%LPC*%
G36*
X770819Y17743D02*
X770819Y17743D01*
X770467Y18270D01*
X770435Y18305D01*
X770411Y18344D01*
X770352Y18394D01*
X770299Y18450D01*
X770258Y18473D01*
X770222Y18503D01*
X770151Y18531D01*
X770083Y18567D01*
X770037Y18575D01*
X769993Y18592D01*
X769916Y18596D01*
X769841Y18609D01*
X769794Y18602D01*
X769748Y18605D01*
X769674Y18584D01*
X769598Y18572D01*
X769556Y18550D01*
X769511Y18538D01*
X769447Y18494D01*
X769379Y18459D01*
X769347Y18425D01*
X769308Y18399D01*
X769222Y18297D01*
X769208Y18282D01*
X769206Y18277D01*
X769200Y18270D01*
X768848Y17743D01*
X767094Y17392D01*
X766756Y17617D01*
X766693Y17646D01*
X766636Y17682D01*
X766582Y17696D01*
X766532Y17719D01*
X766464Y17726D01*
X766397Y17742D01*
X766342Y17738D01*
X766287Y17744D01*
X766220Y17729D01*
X766152Y17723D01*
X766101Y17702D01*
X766047Y17689D01*
X765989Y17654D01*
X765926Y17627D01*
X765865Y17578D01*
X765837Y17561D01*
X765823Y17545D01*
X765799Y17525D01*
X763628Y17525D01*
X762363Y18790D01*
X762363Y20961D01*
X763628Y22226D01*
X765864Y22226D01*
X765940Y22202D01*
X766028Y22168D01*
X766057Y22166D01*
X766085Y22158D01*
X766179Y22160D01*
X766274Y22156D01*
X766302Y22163D01*
X766331Y22164D01*
X766420Y22197D01*
X766511Y22222D01*
X766535Y22239D01*
X766562Y22249D01*
X766636Y22308D01*
X766714Y22361D01*
X766737Y22389D01*
X766754Y22402D01*
X766772Y22430D01*
X766822Y22490D01*
X766956Y22692D01*
X767004Y22797D01*
X767054Y22902D01*
X767055Y22909D01*
X767058Y22916D01*
X767070Y23032D01*
X767084Y23146D01*
X767082Y23153D01*
X767083Y23160D01*
X767057Y23274D01*
X767033Y23387D01*
X767030Y23395D01*
X767028Y23400D01*
X767018Y23417D01*
X766956Y23536D01*
X765254Y26089D01*
X765605Y27844D01*
X767094Y28836D01*
X768848Y28485D01*
X769200Y27958D01*
X769232Y27923D01*
X769256Y27884D01*
X769315Y27834D01*
X769368Y27778D01*
X769409Y27755D01*
X769445Y27725D01*
X769516Y27697D01*
X769584Y27661D01*
X769630Y27653D01*
X769674Y27636D01*
X769751Y27632D01*
X769827Y27619D01*
X769873Y27626D01*
X769919Y27623D01*
X769994Y27644D01*
X770070Y27656D01*
X770111Y27678D01*
X770156Y27690D01*
X770220Y27734D01*
X770288Y27769D01*
X770321Y27803D01*
X770359Y27829D01*
X770445Y27931D01*
X770459Y27946D01*
X770461Y27951D01*
X770467Y27958D01*
X770819Y28485D01*
X772573Y28836D01*
X774062Y27844D01*
X774413Y26089D01*
X772711Y23536D01*
X772663Y23431D01*
X772613Y23326D01*
X772612Y23319D01*
X772609Y23312D01*
X772597Y23197D01*
X772584Y23082D01*
X772585Y23075D01*
X772584Y23068D01*
X772610Y22955D01*
X772634Y22841D01*
X772638Y22833D01*
X772639Y22828D01*
X772649Y22811D01*
X772711Y22692D01*
X774413Y20139D01*
X774062Y18384D01*
X772573Y17392D01*
X770819Y17743D01*
G37*
%LPD*%
%LPC*%
G36*
X736599Y88899D02*
X736599Y88899D01*
X736599Y88901D01*
X736601Y88901D01*
X736601Y88899D01*
X736599Y88899D01*
G37*
%LPD*%
%LPC*%
G36*
X76199Y63499D02*
X76199Y63499D01*
X76199Y63501D01*
X76201Y63501D01*
X76201Y63499D01*
X76199Y63499D01*
G37*
%LPD*%
D10*
X841820Y26544D02*
X841738Y26542D01*
X841657Y26536D01*
X841576Y26527D01*
X841495Y26513D01*
X841416Y26496D01*
X841337Y26475D01*
X841259Y26450D01*
X841183Y26421D01*
X841108Y26389D01*
X841034Y26353D01*
X840963Y26314D01*
X840893Y26272D01*
X840825Y26226D01*
X840760Y26177D01*
X840697Y26125D01*
X840637Y26070D01*
X840579Y26012D01*
X840524Y25952D01*
X840472Y25889D01*
X840423Y25824D01*
X840377Y25756D01*
X840335Y25687D01*
X840296Y25615D01*
X840260Y25541D01*
X840228Y25466D01*
X840199Y25390D01*
X840174Y25312D01*
X840153Y25233D01*
X840136Y25154D01*
X840122Y25073D01*
X840113Y24992D01*
X840107Y24911D01*
X840105Y24829D01*
X841820Y26543D02*
X841912Y26541D01*
X842004Y26535D01*
X842096Y26526D01*
X842188Y26512D01*
X842278Y26495D01*
X842368Y26474D01*
X842457Y26449D01*
X842545Y26420D01*
X842632Y26388D01*
X842717Y26352D01*
X842800Y26313D01*
X842882Y26270D01*
X842962Y26224D01*
X843040Y26174D01*
X843116Y26122D01*
X843189Y26066D01*
X843260Y26007D01*
X843329Y25945D01*
X843395Y25880D01*
X843458Y25813D01*
X843518Y25743D01*
X843576Y25671D01*
X843630Y25596D01*
X843681Y25519D01*
X843729Y25440D01*
X843773Y25359D01*
X843814Y25276D01*
X843852Y25192D01*
X843886Y25106D01*
X843916Y25019D01*
X840677Y23495D02*
X840618Y23554D01*
X840562Y23615D01*
X840509Y23678D01*
X840458Y23744D01*
X840411Y23812D01*
X840367Y23882D01*
X840326Y23954D01*
X840288Y24028D01*
X840254Y24103D01*
X840223Y24180D01*
X840196Y24258D01*
X840172Y24338D01*
X840151Y24418D01*
X840135Y24499D01*
X840122Y24581D01*
X840112Y24663D01*
X840107Y24746D01*
X840105Y24829D01*
X840677Y23495D02*
X843915Y19685D01*
X840105Y19685D01*
X836600Y23114D02*
X836598Y23256D01*
X836593Y23399D01*
X836584Y23541D01*
X836571Y23683D01*
X836555Y23824D01*
X836536Y23965D01*
X836512Y24106D01*
X836486Y24246D01*
X836455Y24385D01*
X836421Y24523D01*
X836384Y24661D01*
X836344Y24797D01*
X836299Y24933D01*
X836252Y25067D01*
X836201Y25200D01*
X836147Y25332D01*
X836089Y25462D01*
X836028Y25591D01*
X836029Y25590D02*
X836003Y25659D01*
X835974Y25725D01*
X835942Y25791D01*
X835907Y25854D01*
X835868Y25916D01*
X835826Y25976D01*
X835781Y26033D01*
X835733Y26088D01*
X835682Y26140D01*
X835629Y26190D01*
X835573Y26236D01*
X835515Y26280D01*
X835454Y26321D01*
X835392Y26359D01*
X835328Y26393D01*
X835262Y26424D01*
X835194Y26452D01*
X835125Y26476D01*
X835055Y26496D01*
X834984Y26513D01*
X834913Y26526D01*
X834841Y26535D01*
X834768Y26541D01*
X834695Y26543D01*
X834622Y26541D01*
X834549Y26535D01*
X834477Y26526D01*
X834406Y26513D01*
X834335Y26496D01*
X834265Y26476D01*
X834196Y26452D01*
X834128Y26424D01*
X834062Y26393D01*
X833998Y26359D01*
X833936Y26321D01*
X833875Y26280D01*
X833817Y26236D01*
X833761Y26190D01*
X833708Y26140D01*
X833657Y26088D01*
X833609Y26033D01*
X833564Y25976D01*
X833522Y25916D01*
X833483Y25854D01*
X833448Y25791D01*
X833416Y25725D01*
X833387Y25659D01*
X833361Y25590D01*
X833361Y25591D02*
X833300Y25462D01*
X833242Y25332D01*
X833188Y25200D01*
X833137Y25067D01*
X833090Y24933D01*
X833045Y24797D01*
X833005Y24661D01*
X832968Y24523D01*
X832934Y24385D01*
X832903Y24246D01*
X832877Y24106D01*
X832853Y23965D01*
X832834Y23824D01*
X832818Y23683D01*
X832805Y23541D01*
X832796Y23399D01*
X832791Y23256D01*
X832789Y23114D01*
X836600Y23114D02*
X836598Y22972D01*
X836593Y22829D01*
X836584Y22687D01*
X836571Y22545D01*
X836555Y22404D01*
X836536Y22263D01*
X836512Y22122D01*
X836486Y21982D01*
X836455Y21843D01*
X836421Y21705D01*
X836384Y21567D01*
X836344Y21431D01*
X836299Y21295D01*
X836252Y21161D01*
X836201Y21028D01*
X836147Y20896D01*
X836089Y20766D01*
X836028Y20637D01*
X836029Y20638D02*
X836003Y20569D01*
X835974Y20503D01*
X835942Y20437D01*
X835907Y20374D01*
X835868Y20312D01*
X835826Y20252D01*
X835781Y20195D01*
X835733Y20140D01*
X835682Y20088D01*
X835629Y20038D01*
X835573Y19992D01*
X835515Y19948D01*
X835454Y19907D01*
X835392Y19869D01*
X835328Y19835D01*
X835262Y19804D01*
X835194Y19776D01*
X835125Y19752D01*
X835055Y19732D01*
X834984Y19715D01*
X834913Y19702D01*
X834841Y19693D01*
X834768Y19687D01*
X834695Y19685D01*
X833361Y20637D02*
X833300Y20766D01*
X833242Y20896D01*
X833188Y21028D01*
X833137Y21161D01*
X833090Y21295D01*
X833045Y21431D01*
X833005Y21567D01*
X832968Y21705D01*
X832934Y21843D01*
X832903Y21982D01*
X832877Y22122D01*
X832853Y22263D01*
X832834Y22404D01*
X832818Y22545D01*
X832805Y22687D01*
X832796Y22829D01*
X832791Y22972D01*
X832789Y23114D01*
X833361Y20638D02*
X833387Y20569D01*
X833416Y20503D01*
X833448Y20437D01*
X833483Y20374D01*
X833522Y20312D01*
X833564Y20252D01*
X833609Y20195D01*
X833657Y20140D01*
X833708Y20088D01*
X833761Y20038D01*
X833817Y19992D01*
X833875Y19948D01*
X833936Y19907D01*
X833998Y19869D01*
X834062Y19835D01*
X834128Y19804D01*
X834196Y19776D01*
X834265Y19752D01*
X834335Y19732D01*
X834406Y19715D01*
X834477Y19702D01*
X834549Y19693D01*
X834622Y19687D01*
X834695Y19685D01*
X836219Y21209D02*
X833171Y25019D01*
X827189Y26544D02*
X827107Y26542D01*
X827026Y26536D01*
X826945Y26527D01*
X826864Y26513D01*
X826785Y26496D01*
X826706Y26475D01*
X826628Y26450D01*
X826552Y26421D01*
X826477Y26389D01*
X826403Y26353D01*
X826332Y26314D01*
X826262Y26272D01*
X826194Y26226D01*
X826129Y26177D01*
X826066Y26125D01*
X826006Y26070D01*
X825948Y26012D01*
X825893Y25952D01*
X825841Y25889D01*
X825792Y25824D01*
X825746Y25756D01*
X825704Y25687D01*
X825665Y25615D01*
X825629Y25541D01*
X825597Y25466D01*
X825568Y25390D01*
X825543Y25312D01*
X825522Y25233D01*
X825505Y25154D01*
X825491Y25073D01*
X825482Y24992D01*
X825476Y24911D01*
X825474Y24829D01*
X827189Y26543D02*
X827281Y26541D01*
X827373Y26535D01*
X827465Y26526D01*
X827557Y26512D01*
X827647Y26495D01*
X827737Y26474D01*
X827826Y26449D01*
X827914Y26420D01*
X828001Y26388D01*
X828086Y26352D01*
X828169Y26313D01*
X828251Y26270D01*
X828331Y26224D01*
X828409Y26174D01*
X828485Y26122D01*
X828558Y26066D01*
X828629Y26007D01*
X828698Y25945D01*
X828764Y25880D01*
X828827Y25813D01*
X828887Y25743D01*
X828945Y25671D01*
X828999Y25596D01*
X829050Y25519D01*
X829098Y25440D01*
X829142Y25359D01*
X829183Y25276D01*
X829221Y25192D01*
X829255Y25106D01*
X829285Y25019D01*
X826046Y23495D02*
X825987Y23554D01*
X825931Y23615D01*
X825878Y23678D01*
X825827Y23744D01*
X825780Y23812D01*
X825736Y23882D01*
X825695Y23954D01*
X825657Y24028D01*
X825623Y24103D01*
X825592Y24180D01*
X825565Y24258D01*
X825541Y24338D01*
X825520Y24418D01*
X825504Y24499D01*
X825491Y24581D01*
X825481Y24663D01*
X825476Y24746D01*
X825474Y24829D01*
X826046Y23495D02*
X829285Y19685D01*
X825475Y19685D01*
X821970Y23114D02*
X821968Y23256D01*
X821963Y23399D01*
X821954Y23541D01*
X821941Y23683D01*
X821925Y23824D01*
X821906Y23965D01*
X821882Y24106D01*
X821856Y24246D01*
X821825Y24385D01*
X821791Y24523D01*
X821754Y24661D01*
X821714Y24797D01*
X821669Y24933D01*
X821622Y25067D01*
X821571Y25200D01*
X821517Y25332D01*
X821459Y25462D01*
X821398Y25591D01*
X821398Y25590D02*
X821372Y25659D01*
X821343Y25725D01*
X821311Y25791D01*
X821276Y25854D01*
X821237Y25916D01*
X821195Y25976D01*
X821150Y26033D01*
X821102Y26088D01*
X821051Y26140D01*
X820998Y26190D01*
X820942Y26236D01*
X820884Y26280D01*
X820823Y26321D01*
X820761Y26359D01*
X820697Y26393D01*
X820631Y26424D01*
X820563Y26452D01*
X820494Y26476D01*
X820424Y26496D01*
X820353Y26513D01*
X820282Y26526D01*
X820210Y26535D01*
X820137Y26541D01*
X820064Y26543D01*
X819991Y26541D01*
X819918Y26535D01*
X819846Y26526D01*
X819775Y26513D01*
X819704Y26496D01*
X819634Y26476D01*
X819565Y26452D01*
X819497Y26424D01*
X819431Y26393D01*
X819367Y26359D01*
X819305Y26321D01*
X819244Y26280D01*
X819186Y26236D01*
X819130Y26190D01*
X819077Y26140D01*
X819026Y26088D01*
X818978Y26033D01*
X818933Y25976D01*
X818891Y25916D01*
X818852Y25854D01*
X818817Y25791D01*
X818785Y25725D01*
X818756Y25659D01*
X818730Y25590D01*
X818731Y25591D02*
X818670Y25462D01*
X818612Y25332D01*
X818558Y25200D01*
X818507Y25067D01*
X818460Y24933D01*
X818415Y24797D01*
X818375Y24661D01*
X818338Y24523D01*
X818304Y24385D01*
X818273Y24246D01*
X818247Y24106D01*
X818223Y23965D01*
X818204Y23824D01*
X818188Y23683D01*
X818175Y23541D01*
X818166Y23399D01*
X818161Y23256D01*
X818159Y23114D01*
X821970Y23114D02*
X821968Y22972D01*
X821963Y22829D01*
X821954Y22687D01*
X821941Y22545D01*
X821925Y22404D01*
X821906Y22263D01*
X821882Y22122D01*
X821856Y21982D01*
X821825Y21843D01*
X821791Y21705D01*
X821754Y21567D01*
X821714Y21431D01*
X821669Y21295D01*
X821622Y21161D01*
X821571Y21028D01*
X821517Y20896D01*
X821459Y20766D01*
X821398Y20637D01*
X821398Y20638D02*
X821372Y20569D01*
X821343Y20503D01*
X821311Y20437D01*
X821276Y20374D01*
X821237Y20312D01*
X821195Y20252D01*
X821150Y20195D01*
X821102Y20140D01*
X821051Y20088D01*
X820998Y20038D01*
X820942Y19992D01*
X820884Y19948D01*
X820823Y19907D01*
X820761Y19869D01*
X820697Y19835D01*
X820631Y19804D01*
X820563Y19776D01*
X820494Y19752D01*
X820424Y19732D01*
X820353Y19715D01*
X820282Y19702D01*
X820210Y19693D01*
X820137Y19687D01*
X820064Y19685D01*
X818731Y20637D02*
X818670Y20766D01*
X818612Y20896D01*
X818558Y21028D01*
X818507Y21161D01*
X818460Y21295D01*
X818415Y21431D01*
X818375Y21567D01*
X818338Y21705D01*
X818304Y21843D01*
X818273Y21982D01*
X818247Y22122D01*
X818223Y22263D01*
X818204Y22404D01*
X818188Y22545D01*
X818175Y22687D01*
X818166Y22829D01*
X818161Y22972D01*
X818159Y23114D01*
X818730Y20638D02*
X818756Y20569D01*
X818785Y20503D01*
X818817Y20437D01*
X818852Y20374D01*
X818891Y20312D01*
X818933Y20252D01*
X818978Y20195D01*
X819026Y20140D01*
X819077Y20088D01*
X819130Y20038D01*
X819186Y19992D01*
X819244Y19948D01*
X819305Y19907D01*
X819367Y19869D01*
X819431Y19835D01*
X819497Y19804D01*
X819565Y19776D01*
X819634Y19752D01*
X819704Y19732D01*
X819775Y19715D01*
X819846Y19702D01*
X819918Y19693D01*
X819991Y19687D01*
X820064Y19685D01*
X821588Y21209D02*
X818540Y25019D01*
X809336Y26543D02*
X809336Y19685D01*
X811241Y26543D02*
X807431Y26543D01*
X804520Y22733D02*
X804520Y21209D01*
X804520Y22733D02*
X804518Y22810D01*
X804512Y22887D01*
X804502Y22964D01*
X804489Y23040D01*
X804471Y23115D01*
X804450Y23189D01*
X804425Y23262D01*
X804396Y23334D01*
X804364Y23404D01*
X804329Y23473D01*
X804289Y23539D01*
X804247Y23604D01*
X804201Y23666D01*
X804152Y23726D01*
X804101Y23783D01*
X804046Y23838D01*
X803989Y23889D01*
X803929Y23938D01*
X803867Y23984D01*
X803802Y24026D01*
X803736Y24066D01*
X803667Y24101D01*
X803597Y24133D01*
X803525Y24162D01*
X803452Y24187D01*
X803378Y24208D01*
X803303Y24226D01*
X803227Y24239D01*
X803150Y24249D01*
X803073Y24255D01*
X802996Y24257D01*
X802919Y24255D01*
X802842Y24249D01*
X802765Y24239D01*
X802689Y24226D01*
X802614Y24208D01*
X802540Y24187D01*
X802467Y24162D01*
X802395Y24133D01*
X802325Y24101D01*
X802256Y24066D01*
X802190Y24026D01*
X802125Y23984D01*
X802063Y23938D01*
X802003Y23889D01*
X801946Y23838D01*
X801891Y23783D01*
X801840Y23726D01*
X801791Y23666D01*
X801745Y23604D01*
X801703Y23539D01*
X801663Y23473D01*
X801628Y23404D01*
X801596Y23334D01*
X801567Y23262D01*
X801542Y23189D01*
X801521Y23115D01*
X801503Y23040D01*
X801490Y22964D01*
X801480Y22887D01*
X801474Y22810D01*
X801472Y22733D01*
X801472Y21209D01*
X801474Y21132D01*
X801480Y21055D01*
X801490Y20978D01*
X801503Y20902D01*
X801521Y20827D01*
X801542Y20753D01*
X801567Y20680D01*
X801596Y20608D01*
X801628Y20538D01*
X801663Y20469D01*
X801703Y20403D01*
X801745Y20338D01*
X801791Y20276D01*
X801840Y20216D01*
X801891Y20159D01*
X801946Y20104D01*
X802003Y20053D01*
X802063Y20004D01*
X802125Y19958D01*
X802190Y19916D01*
X802256Y19876D01*
X802325Y19841D01*
X802395Y19809D01*
X802467Y19780D01*
X802540Y19755D01*
X802614Y19734D01*
X802689Y19716D01*
X802765Y19703D01*
X802842Y19693D01*
X802919Y19687D01*
X802996Y19685D01*
X803073Y19687D01*
X803150Y19693D01*
X803227Y19703D01*
X803303Y19716D01*
X803378Y19734D01*
X803452Y19755D01*
X803525Y19780D01*
X803597Y19809D01*
X803667Y19841D01*
X803736Y19876D01*
X803802Y19916D01*
X803867Y19958D01*
X803929Y20004D01*
X803989Y20053D01*
X804046Y20104D01*
X804101Y20159D01*
X804152Y20216D01*
X804201Y20276D01*
X804247Y20338D01*
X804289Y20403D01*
X804329Y20469D01*
X804364Y20538D01*
X804396Y20608D01*
X804425Y20680D01*
X804450Y20753D01*
X804471Y20827D01*
X804489Y20902D01*
X804502Y20978D01*
X804512Y21055D01*
X804518Y21132D01*
X804520Y21209D01*
X797880Y19685D02*
X797880Y26543D01*
X797880Y19685D02*
X795975Y19685D01*
X795909Y19687D01*
X795842Y19693D01*
X795777Y19702D01*
X795711Y19716D01*
X795647Y19733D01*
X795584Y19754D01*
X795522Y19778D01*
X795462Y19807D01*
X795404Y19838D01*
X795347Y19873D01*
X795292Y19911D01*
X795240Y19952D01*
X795191Y19997D01*
X795144Y20044D01*
X795099Y20093D01*
X795058Y20145D01*
X795020Y20200D01*
X794985Y20257D01*
X794954Y20315D01*
X794925Y20375D01*
X794901Y20437D01*
X794880Y20500D01*
X794863Y20564D01*
X794849Y20630D01*
X794840Y20695D01*
X794834Y20762D01*
X794832Y20828D01*
X794832Y23114D01*
X794834Y23180D01*
X794840Y23247D01*
X794849Y23312D01*
X794863Y23378D01*
X794880Y23442D01*
X794901Y23505D01*
X794925Y23567D01*
X794954Y23627D01*
X794985Y23686D01*
X795020Y23742D01*
X795058Y23797D01*
X795099Y23849D01*
X795144Y23898D01*
X795191Y23945D01*
X795240Y23990D01*
X795292Y24031D01*
X795347Y24069D01*
X795404Y24104D01*
X795462Y24135D01*
X795522Y24164D01*
X795584Y24188D01*
X795647Y24209D01*
X795711Y24226D01*
X795777Y24240D01*
X795842Y24249D01*
X795909Y24255D01*
X795975Y24257D01*
X797880Y24257D01*
X791779Y24257D02*
X791779Y19685D01*
X791970Y26162D02*
X791970Y26543D01*
X791589Y26543D01*
X791589Y26162D01*
X791970Y26162D01*
X787392Y22352D02*
X785678Y22352D01*
X787392Y22353D02*
X787464Y22351D01*
X787536Y22345D01*
X787608Y22335D01*
X787679Y22322D01*
X787749Y22304D01*
X787818Y22283D01*
X787886Y22258D01*
X787952Y22230D01*
X788017Y22198D01*
X788080Y22162D01*
X788141Y22123D01*
X788199Y22081D01*
X788256Y22036D01*
X788309Y21987D01*
X788360Y21936D01*
X788409Y21883D01*
X788454Y21826D01*
X788496Y21768D01*
X788535Y21707D01*
X788571Y21644D01*
X788603Y21579D01*
X788631Y21513D01*
X788656Y21445D01*
X788677Y21376D01*
X788695Y21306D01*
X788708Y21235D01*
X788718Y21163D01*
X788724Y21091D01*
X788726Y21019D01*
X788724Y20947D01*
X788718Y20875D01*
X788708Y20803D01*
X788695Y20732D01*
X788677Y20662D01*
X788656Y20593D01*
X788631Y20525D01*
X788603Y20459D01*
X788571Y20394D01*
X788535Y20331D01*
X788496Y20270D01*
X788454Y20212D01*
X788409Y20155D01*
X788360Y20102D01*
X788309Y20051D01*
X788256Y20002D01*
X788199Y19957D01*
X788141Y19915D01*
X788080Y19876D01*
X788017Y19840D01*
X787952Y19808D01*
X787886Y19780D01*
X787818Y19755D01*
X787749Y19734D01*
X787679Y19716D01*
X787608Y19703D01*
X787536Y19693D01*
X787464Y19687D01*
X787392Y19685D01*
X785678Y19685D01*
X785678Y23114D01*
X785680Y23180D01*
X785686Y23247D01*
X785695Y23312D01*
X785709Y23378D01*
X785726Y23442D01*
X785747Y23505D01*
X785771Y23567D01*
X785800Y23627D01*
X785831Y23686D01*
X785866Y23742D01*
X785904Y23797D01*
X785945Y23849D01*
X785990Y23898D01*
X786037Y23945D01*
X786086Y23990D01*
X786138Y24031D01*
X786193Y24069D01*
X786250Y24104D01*
X786308Y24135D01*
X786368Y24164D01*
X786430Y24188D01*
X786493Y24209D01*
X786557Y24226D01*
X786623Y24240D01*
X786688Y24249D01*
X786755Y24255D01*
X786821Y24257D01*
X788345Y24257D01*
X781515Y22352D02*
X779610Y21590D01*
X781515Y22352D02*
X781572Y22377D01*
X781627Y22405D01*
X781681Y22437D01*
X781732Y22472D01*
X781781Y22511D01*
X781828Y22552D01*
X781872Y22596D01*
X781913Y22643D01*
X781951Y22693D01*
X781985Y22745D01*
X782017Y22798D01*
X782045Y22854D01*
X782069Y22911D01*
X782090Y22970D01*
X782107Y23030D01*
X782120Y23091D01*
X782129Y23153D01*
X782135Y23215D01*
X782136Y23277D01*
X782133Y23339D01*
X782127Y23401D01*
X782117Y23463D01*
X782103Y23523D01*
X782085Y23583D01*
X782063Y23642D01*
X782038Y23698D01*
X782009Y23754D01*
X781977Y23807D01*
X781941Y23858D01*
X781902Y23907D01*
X781861Y23953D01*
X781816Y23997D01*
X781769Y24038D01*
X781719Y24075D01*
X781667Y24110D01*
X781613Y24141D01*
X781557Y24168D01*
X781500Y24192D01*
X781441Y24213D01*
X781381Y24229D01*
X781320Y24242D01*
X781258Y24251D01*
X781196Y24256D01*
X781134Y24257D01*
X781008Y24253D01*
X780882Y24246D01*
X780756Y24235D01*
X780630Y24220D01*
X780505Y24202D01*
X780381Y24180D01*
X780257Y24154D01*
X780134Y24125D01*
X780012Y24092D01*
X779891Y24056D01*
X779772Y24016D01*
X779653Y23972D01*
X779536Y23926D01*
X779420Y23876D01*
X779610Y21590D02*
X779553Y21565D01*
X779498Y21537D01*
X779444Y21505D01*
X779393Y21470D01*
X779344Y21431D01*
X779297Y21390D01*
X779253Y21346D01*
X779212Y21299D01*
X779174Y21249D01*
X779140Y21197D01*
X779108Y21144D01*
X779080Y21088D01*
X779056Y21031D01*
X779035Y20972D01*
X779018Y20912D01*
X779005Y20851D01*
X778996Y20789D01*
X778990Y20727D01*
X778989Y20665D01*
X778992Y20603D01*
X778998Y20541D01*
X779008Y20479D01*
X779022Y20419D01*
X779040Y20359D01*
X779062Y20300D01*
X779087Y20244D01*
X779116Y20188D01*
X779148Y20135D01*
X779184Y20084D01*
X779223Y20035D01*
X779264Y19989D01*
X779309Y19945D01*
X779356Y19904D01*
X779406Y19867D01*
X779458Y19832D01*
X779512Y19801D01*
X779568Y19774D01*
X779625Y19750D01*
X779684Y19729D01*
X779744Y19713D01*
X779805Y19700D01*
X779867Y19691D01*
X779929Y19686D01*
X779991Y19685D01*
X780144Y19689D01*
X780297Y19696D01*
X780449Y19707D01*
X780601Y19722D01*
X780753Y19741D01*
X780904Y19763D01*
X781055Y19788D01*
X781205Y19817D01*
X781354Y19850D01*
X781503Y19886D01*
X781650Y19926D01*
X781797Y19969D01*
X781943Y20016D01*
X782087Y20066D01*
X772120Y19685D02*
X767548Y26543D01*
X772120Y26543D02*
X767548Y19685D01*
X764903Y19685D02*
X764903Y20066D01*
X764522Y20066D01*
X764522Y19685D01*
X764903Y19685D01*
X755691Y19685D02*
X757977Y26543D01*
X753405Y26543D02*
X755691Y19685D01*
X750387Y21209D02*
X750387Y22733D01*
X750385Y22810D01*
X750379Y22887D01*
X750369Y22964D01*
X750356Y23040D01*
X750338Y23115D01*
X750317Y23189D01*
X750292Y23262D01*
X750263Y23334D01*
X750231Y23404D01*
X750196Y23473D01*
X750156Y23539D01*
X750114Y23604D01*
X750068Y23666D01*
X750019Y23726D01*
X749968Y23783D01*
X749913Y23838D01*
X749856Y23889D01*
X749796Y23938D01*
X749734Y23984D01*
X749669Y24026D01*
X749603Y24066D01*
X749534Y24101D01*
X749464Y24133D01*
X749392Y24162D01*
X749319Y24187D01*
X749245Y24208D01*
X749170Y24226D01*
X749094Y24239D01*
X749017Y24249D01*
X748940Y24255D01*
X748863Y24257D01*
X748786Y24255D01*
X748709Y24249D01*
X748632Y24239D01*
X748556Y24226D01*
X748481Y24208D01*
X748407Y24187D01*
X748334Y24162D01*
X748262Y24133D01*
X748192Y24101D01*
X748123Y24066D01*
X748057Y24026D01*
X747992Y23984D01*
X747930Y23938D01*
X747870Y23889D01*
X747813Y23838D01*
X747758Y23783D01*
X747707Y23726D01*
X747658Y23666D01*
X747612Y23604D01*
X747570Y23539D01*
X747530Y23473D01*
X747495Y23404D01*
X747463Y23334D01*
X747434Y23262D01*
X747409Y23189D01*
X747388Y23115D01*
X747370Y23040D01*
X747357Y22964D01*
X747347Y22887D01*
X747341Y22810D01*
X747339Y22733D01*
X747339Y21209D01*
X747341Y21132D01*
X747347Y21055D01*
X747357Y20978D01*
X747370Y20902D01*
X747388Y20827D01*
X747409Y20753D01*
X747434Y20680D01*
X747463Y20608D01*
X747495Y20538D01*
X747530Y20469D01*
X747570Y20403D01*
X747612Y20338D01*
X747658Y20276D01*
X747707Y20216D01*
X747758Y20159D01*
X747813Y20104D01*
X747870Y20053D01*
X747930Y20004D01*
X747992Y19958D01*
X748057Y19916D01*
X748123Y19876D01*
X748192Y19841D01*
X748262Y19809D01*
X748334Y19780D01*
X748407Y19755D01*
X748481Y19734D01*
X748556Y19716D01*
X748632Y19703D01*
X748709Y19693D01*
X748786Y19687D01*
X748863Y19685D01*
X748940Y19687D01*
X749017Y19693D01*
X749094Y19703D01*
X749170Y19716D01*
X749245Y19734D01*
X749319Y19755D01*
X749392Y19780D01*
X749464Y19809D01*
X749534Y19841D01*
X749603Y19876D01*
X749669Y19916D01*
X749734Y19958D01*
X749796Y20004D01*
X749856Y20053D01*
X749913Y20104D01*
X749968Y20159D01*
X750019Y20216D01*
X750068Y20276D01*
X750114Y20338D01*
X750156Y20403D01*
X750196Y20469D01*
X750231Y20538D01*
X750263Y20608D01*
X750292Y20680D01*
X750317Y20753D01*
X750338Y20827D01*
X750356Y20902D01*
X750369Y20978D01*
X750379Y21055D01*
X750385Y21132D01*
X750387Y21209D01*
X742960Y19685D02*
X741055Y19685D01*
X742960Y19685D02*
X743026Y19687D01*
X743093Y19693D01*
X743158Y19702D01*
X743224Y19716D01*
X743288Y19733D01*
X743351Y19754D01*
X743413Y19778D01*
X743473Y19807D01*
X743532Y19838D01*
X743588Y19873D01*
X743643Y19911D01*
X743695Y19952D01*
X743744Y19997D01*
X743791Y20044D01*
X743836Y20093D01*
X743877Y20145D01*
X743915Y20200D01*
X743950Y20257D01*
X743981Y20315D01*
X744010Y20375D01*
X744034Y20437D01*
X744055Y20500D01*
X744072Y20564D01*
X744086Y20630D01*
X744095Y20695D01*
X744101Y20762D01*
X744103Y20828D01*
X744103Y23114D01*
X744101Y23180D01*
X744095Y23247D01*
X744086Y23312D01*
X744072Y23378D01*
X744055Y23442D01*
X744034Y23505D01*
X744010Y23567D01*
X743981Y23627D01*
X743950Y23686D01*
X743915Y23742D01*
X743877Y23797D01*
X743836Y23849D01*
X743791Y23898D01*
X743744Y23945D01*
X743695Y23990D01*
X743643Y24031D01*
X743588Y24069D01*
X743532Y24104D01*
X743473Y24135D01*
X743413Y24164D01*
X743351Y24188D01*
X743288Y24209D01*
X743224Y24226D01*
X743158Y24240D01*
X743093Y24249D01*
X743026Y24255D01*
X742960Y24257D01*
X741055Y24257D01*
X741055Y18542D01*
X741057Y18476D01*
X741063Y18409D01*
X741072Y18344D01*
X741086Y18278D01*
X741103Y18214D01*
X741124Y18151D01*
X741148Y18089D01*
X741177Y18029D01*
X741208Y17971D01*
X741243Y17914D01*
X741281Y17859D01*
X741322Y17807D01*
X741367Y17758D01*
X741414Y17711D01*
X741463Y17666D01*
X741515Y17625D01*
X741570Y17587D01*
X741627Y17552D01*
X741685Y17521D01*
X741745Y17492D01*
X741807Y17468D01*
X741870Y17447D01*
X741934Y17430D01*
X742000Y17416D01*
X742065Y17407D01*
X742132Y17401D01*
X742198Y17399D01*
X743722Y17399D01*
X736321Y19685D02*
X734416Y19685D01*
X736321Y19685D02*
X736387Y19687D01*
X736454Y19693D01*
X736519Y19702D01*
X736585Y19716D01*
X736649Y19733D01*
X736712Y19754D01*
X736774Y19778D01*
X736834Y19807D01*
X736893Y19838D01*
X736949Y19873D01*
X737004Y19911D01*
X737056Y19952D01*
X737105Y19997D01*
X737152Y20044D01*
X737197Y20093D01*
X737238Y20145D01*
X737276Y20200D01*
X737311Y20257D01*
X737342Y20315D01*
X737371Y20375D01*
X737395Y20437D01*
X737416Y20500D01*
X737433Y20564D01*
X737447Y20630D01*
X737456Y20695D01*
X737462Y20762D01*
X737464Y20828D01*
X737464Y22733D01*
X737462Y22810D01*
X737456Y22887D01*
X737446Y22964D01*
X737433Y23040D01*
X737415Y23115D01*
X737394Y23189D01*
X737369Y23262D01*
X737340Y23334D01*
X737308Y23404D01*
X737273Y23473D01*
X737233Y23539D01*
X737191Y23604D01*
X737145Y23666D01*
X737096Y23726D01*
X737045Y23783D01*
X736990Y23838D01*
X736933Y23889D01*
X736873Y23938D01*
X736811Y23984D01*
X736746Y24026D01*
X736680Y24066D01*
X736611Y24101D01*
X736541Y24133D01*
X736469Y24162D01*
X736396Y24187D01*
X736322Y24208D01*
X736247Y24226D01*
X736171Y24239D01*
X736094Y24249D01*
X736017Y24255D01*
X735940Y24257D01*
X735863Y24255D01*
X735786Y24249D01*
X735709Y24239D01*
X735633Y24226D01*
X735558Y24208D01*
X735484Y24187D01*
X735411Y24162D01*
X735339Y24133D01*
X735269Y24101D01*
X735200Y24066D01*
X735134Y24026D01*
X735069Y23984D01*
X735007Y23938D01*
X734947Y23889D01*
X734890Y23838D01*
X734835Y23783D01*
X734784Y23726D01*
X734735Y23666D01*
X734689Y23604D01*
X734647Y23539D01*
X734607Y23473D01*
X734572Y23404D01*
X734540Y23334D01*
X734511Y23262D01*
X734486Y23189D01*
X734465Y23115D01*
X734447Y23040D01*
X734434Y22964D01*
X734424Y22887D01*
X734418Y22810D01*
X734416Y22733D01*
X734416Y21971D01*
X737464Y21971D01*
X731099Y20828D02*
X731099Y26543D01*
X731099Y20828D02*
X731097Y20762D01*
X731091Y20695D01*
X731082Y20630D01*
X731068Y20564D01*
X731051Y20500D01*
X731030Y20437D01*
X731006Y20375D01*
X730977Y20315D01*
X730946Y20257D01*
X730911Y20200D01*
X730873Y20145D01*
X730832Y20093D01*
X730787Y20044D01*
X730740Y19997D01*
X730691Y19952D01*
X730639Y19911D01*
X730584Y19873D01*
X730528Y19838D01*
X730469Y19807D01*
X730409Y19778D01*
X730347Y19754D01*
X730284Y19733D01*
X730220Y19716D01*
X730154Y19702D01*
X730089Y19693D01*
X730022Y19687D01*
X729956Y19685D01*
D11*
X853609Y20828D02*
X854964Y20828D01*
X855025Y20830D01*
X855086Y20835D01*
X855147Y20845D01*
X855207Y20858D01*
X855266Y20874D01*
X855324Y20894D01*
X855381Y20918D01*
X855436Y20944D01*
X855490Y20975D01*
X855541Y21008D01*
X855591Y21044D01*
X855638Y21084D01*
X855682Y21126D01*
X855724Y21170D01*
X855764Y21217D01*
X855800Y21267D01*
X855833Y21318D01*
X855864Y21372D01*
X855890Y21427D01*
X855914Y21484D01*
X855934Y21542D01*
X855950Y21601D01*
X855963Y21661D01*
X855973Y21722D01*
X855978Y21783D01*
X855980Y21844D01*
X855980Y23876D01*
X855978Y23937D01*
X855973Y23998D01*
X855963Y24059D01*
X855950Y24119D01*
X855934Y24178D01*
X855914Y24236D01*
X855890Y24293D01*
X855864Y24348D01*
X855833Y24402D01*
X855800Y24453D01*
X855764Y24503D01*
X855724Y24550D01*
X855682Y24594D01*
X855638Y24636D01*
X855591Y24676D01*
X855541Y24712D01*
X855490Y24745D01*
X855436Y24776D01*
X855381Y24802D01*
X855324Y24826D01*
X855266Y24846D01*
X855207Y24862D01*
X855147Y24875D01*
X855086Y24885D01*
X855025Y24890D01*
X854964Y24892D01*
X853609Y24892D01*
D12*
X849030Y22860D02*
X849032Y23011D01*
X849038Y23161D01*
X849048Y23311D01*
X849062Y23461D01*
X849080Y23611D01*
X849102Y23760D01*
X849128Y23908D01*
X849157Y24056D01*
X849191Y24202D01*
X849228Y24348D01*
X849270Y24493D01*
X849315Y24637D01*
X849364Y24779D01*
X849417Y24920D01*
X849473Y25060D01*
X849533Y25198D01*
X849597Y25334D01*
X849665Y25469D01*
X849735Y25602D01*
X849810Y25733D01*
X849888Y25861D01*
X849969Y25988D01*
X850054Y26113D01*
X850141Y26235D01*
X850233Y26355D01*
X850327Y26472D01*
X850424Y26587D01*
X850524Y26700D01*
X850628Y26809D01*
X850734Y26916D01*
X850843Y27020D01*
X850954Y27121D01*
X851069Y27219D01*
X851185Y27314D01*
X851305Y27406D01*
X851426Y27495D01*
X851550Y27580D01*
X851677Y27662D01*
X851805Y27741D01*
X851935Y27816D01*
X852068Y27888D01*
X852202Y27956D01*
X852338Y28021D01*
X852476Y28082D01*
X852615Y28139D01*
X852756Y28193D01*
X852898Y28243D01*
X853041Y28289D01*
X853185Y28332D01*
X853331Y28370D01*
X853478Y28405D01*
X853625Y28435D01*
X853773Y28462D01*
X853922Y28485D01*
X854071Y28504D01*
X854221Y28519D01*
X854371Y28530D01*
X854522Y28537D01*
X854672Y28540D01*
X854823Y28539D01*
X854973Y28534D01*
X855124Y28525D01*
X855274Y28512D01*
X855423Y28495D01*
X855573Y28474D01*
X855721Y28449D01*
X855869Y28421D01*
X856016Y28388D01*
X856162Y28351D01*
X856307Y28311D01*
X856451Y28267D01*
X856594Y28219D01*
X856735Y28167D01*
X856875Y28111D01*
X857013Y28052D01*
X857150Y27989D01*
X857285Y27923D01*
X857419Y27853D01*
X857550Y27779D01*
X857679Y27702D01*
X857807Y27622D01*
X857932Y27538D01*
X858055Y27451D01*
X858175Y27361D01*
X858293Y27267D01*
X858409Y27171D01*
X858522Y27071D01*
X858632Y26968D01*
X858740Y26863D01*
X858844Y26755D01*
X858946Y26644D01*
X859045Y26530D01*
X859141Y26414D01*
X859233Y26295D01*
X859323Y26174D01*
X859409Y26051D01*
X859492Y25925D01*
X859572Y25797D01*
X859648Y25667D01*
X859720Y25535D01*
X859790Y25402D01*
X859855Y25266D01*
X859917Y25129D01*
X859975Y24990D01*
X860030Y24850D01*
X860081Y24708D01*
X860128Y24565D01*
X860171Y24421D01*
X860211Y24275D01*
X860246Y24129D01*
X860278Y23982D01*
X860306Y23834D01*
X860330Y23685D01*
X860350Y23536D01*
X860366Y23386D01*
X860378Y23236D01*
X860386Y23086D01*
X860390Y22935D01*
X860390Y22785D01*
X860386Y22634D01*
X860378Y22484D01*
X860366Y22334D01*
X860350Y22184D01*
X860330Y22035D01*
X860306Y21886D01*
X860278Y21738D01*
X860246Y21591D01*
X860211Y21445D01*
X860171Y21299D01*
X860128Y21155D01*
X860081Y21012D01*
X860030Y20870D01*
X859975Y20730D01*
X859917Y20591D01*
X859855Y20454D01*
X859790Y20318D01*
X859720Y20185D01*
X859648Y20053D01*
X859572Y19923D01*
X859492Y19795D01*
X859409Y19669D01*
X859323Y19546D01*
X859233Y19425D01*
X859141Y19306D01*
X859045Y19190D01*
X858946Y19076D01*
X858844Y18965D01*
X858740Y18857D01*
X858632Y18752D01*
X858522Y18649D01*
X858409Y18549D01*
X858293Y18453D01*
X858175Y18359D01*
X858055Y18269D01*
X857932Y18182D01*
X857807Y18098D01*
X857679Y18018D01*
X857550Y17941D01*
X857419Y17867D01*
X857285Y17797D01*
X857150Y17731D01*
X857013Y17668D01*
X856875Y17609D01*
X856735Y17553D01*
X856594Y17501D01*
X856451Y17453D01*
X856307Y17409D01*
X856162Y17369D01*
X856016Y17332D01*
X855869Y17299D01*
X855721Y17271D01*
X855573Y17246D01*
X855423Y17225D01*
X855274Y17208D01*
X855124Y17195D01*
X854973Y17186D01*
X854823Y17181D01*
X854672Y17180D01*
X854522Y17183D01*
X854371Y17190D01*
X854221Y17201D01*
X854071Y17216D01*
X853922Y17235D01*
X853773Y17258D01*
X853625Y17285D01*
X853478Y17315D01*
X853331Y17350D01*
X853185Y17388D01*
X853041Y17431D01*
X852898Y17477D01*
X852756Y17527D01*
X852615Y17581D01*
X852476Y17638D01*
X852338Y17699D01*
X852202Y17764D01*
X852068Y17832D01*
X851935Y17904D01*
X851805Y17979D01*
X851677Y18058D01*
X851550Y18140D01*
X851426Y18225D01*
X851305Y18314D01*
X851185Y18406D01*
X851069Y18501D01*
X850954Y18599D01*
X850843Y18700D01*
X850734Y18804D01*
X850628Y18911D01*
X850524Y19020D01*
X850424Y19133D01*
X850327Y19248D01*
X850233Y19365D01*
X850141Y19485D01*
X850054Y19607D01*
X849969Y19732D01*
X849888Y19859D01*
X849810Y19987D01*
X849735Y20118D01*
X849665Y20251D01*
X849597Y20386D01*
X849533Y20522D01*
X849473Y20660D01*
X849417Y20800D01*
X849364Y20941D01*
X849315Y21083D01*
X849270Y21227D01*
X849228Y21372D01*
X849191Y21518D01*
X849157Y21664D01*
X849128Y21812D01*
X849102Y21960D01*
X849080Y22109D01*
X849062Y22259D01*
X849048Y22409D01*
X849038Y22559D01*
X849032Y22709D01*
X849030Y22860D01*
D13*
X304800Y50800D03*
X431800Y50800D03*
X431800Y127000D03*
X355600Y127000D03*
X304800Y127000D03*
D14*
X83740Y63500D02*
X68660Y63500D01*
X68660Y88900D02*
X83740Y88900D01*
X83740Y114300D02*
X68660Y114300D01*
X619125Y96440D02*
X619125Y81360D01*
X644525Y81360D02*
X644525Y96440D01*
X508000Y96440D02*
X508000Y81360D01*
X533400Y81360D02*
X533400Y96440D01*
X685800Y96440D02*
X685800Y81360D01*
X711200Y81360D02*
X711200Y96440D01*
X736600Y96440D02*
X736600Y81360D01*
D15*
X345440Y88900D03*
X330200Y88900D03*
X314960Y88900D03*
D16*
X38100Y80010D03*
X38100Y95250D03*
D17*
X76200Y63500D02*
X107950Y31750D01*
X692150Y12700D02*
X730250Y50800D01*
X736600Y57150D02*
X736600Y88900D01*
X736600Y57150D02*
X730250Y50800D01*
X692150Y12700D02*
X260350Y12700D01*
X241300Y31750D01*
X107950Y31750D01*
X673100Y152400D02*
X704850Y120650D01*
X711200Y114300D01*
X711200Y88900D01*
X279400Y114300D02*
X279400Y146050D01*
X285750Y152400D01*
X673100Y152400D01*
X345440Y105410D02*
X345440Y88900D01*
X345440Y105410D02*
X342900Y107950D01*
X285750Y107950D02*
X279400Y114300D01*
X285750Y107950D02*
X342900Y107950D01*
X431800Y127000D02*
X482600Y127000D01*
X488950Y127000D01*
X508000Y107950D02*
X508000Y88900D01*
X508000Y107950D02*
X488950Y127000D01*
X604520Y127000D01*
X619125Y112395D02*
X619125Y88900D01*
X619125Y112395D02*
X604520Y127000D01*
X317500Y139700D02*
X304800Y127000D01*
X615950Y139700D02*
X644525Y111125D01*
X644525Y88900D01*
X615950Y139700D02*
X317500Y139700D01*
X355600Y127000D02*
X387350Y127000D01*
X425450Y88900D02*
X457200Y88900D01*
X488950Y57150D01*
X527050Y57150D01*
X533400Y63500D01*
X533400Y88900D01*
X425450Y88900D02*
X387350Y127000D01*
X76200Y114300D02*
X76200Y139700D01*
X241300Y158750D02*
X260350Y139700D01*
X260350Y50800D02*
X279400Y31750D01*
X666750Y31750D01*
X685800Y50800D01*
X685800Y88900D01*
X95250Y158750D02*
X76200Y139700D01*
X95250Y158750D02*
X241300Y158750D01*
X260350Y139700D02*
X260350Y107950D01*
X260350Y50800D01*
X279400Y88900D02*
X314960Y88900D01*
X279400Y88900D02*
X260350Y107950D01*
D18*
X50800Y95250D02*
X38100Y95250D01*
X50800Y95250D02*
X57150Y88900D01*
X76200Y88900D01*
D17*
X330200Y88900D02*
X330200Y63500D01*
X317500Y50800D01*
X304800Y50800D01*
D18*
X330200Y88900D02*
X342900Y88900D01*
D19*
X25400Y31750D03*
D18*
X38100Y54610D02*
X38100Y80010D01*
X38100Y54610D02*
X25400Y41910D01*
X25400Y31750D01*
M02*
