G04 EAGLE Gerber RS-274X export*
G75*
%MOMM*%
%FSLAX34Y34*%
%LPD*%
%INMechanical*%
%IPPOS*%
%AMOC8*
5,1,8,0,0,1.08239X$1,22.5*%
G01*
%ADD10C,0.000000*%
%ADD11C,0.254000*%


D10*
X25400Y0D02*
X853440Y0D01*
X878840Y25400D02*
X878840Y152400D01*
X853440Y177800D02*
X25400Y177800D01*
X164973Y88900D02*
X164981Y89526D01*
X165004Y90153D01*
X165042Y90778D01*
X165096Y91402D01*
X165165Y92025D01*
X165249Y92646D01*
X165349Y93264D01*
X165463Y93880D01*
X165593Y94493D01*
X165738Y95103D01*
X165898Y95708D01*
X166072Y96310D01*
X166261Y96907D01*
X166465Y97500D01*
X166683Y98087D01*
X166916Y98669D01*
X167163Y99245D01*
X167424Y99814D01*
X167699Y100377D01*
X167987Y100933D01*
X168289Y101482D01*
X168605Y102024D01*
X168933Y102557D01*
X169275Y103082D01*
X169630Y103599D01*
X169997Y104106D01*
X170376Y104605D01*
X170767Y105094D01*
X171171Y105574D01*
X171586Y106043D01*
X172012Y106502D01*
X172450Y106950D01*
X172898Y107388D01*
X173357Y107814D01*
X173826Y108229D01*
X174306Y108633D01*
X174795Y109024D01*
X175294Y109403D01*
X175801Y109770D01*
X176318Y110125D01*
X176843Y110467D01*
X177376Y110795D01*
X177918Y111111D01*
X178467Y111413D01*
X179023Y111701D01*
X179586Y111976D01*
X180155Y112237D01*
X180731Y112484D01*
X181313Y112717D01*
X181900Y112935D01*
X182493Y113139D01*
X183090Y113328D01*
X183692Y113502D01*
X184297Y113662D01*
X184907Y113807D01*
X185520Y113937D01*
X186136Y114051D01*
X186754Y114151D01*
X187375Y114235D01*
X187998Y114304D01*
X188622Y114358D01*
X189247Y114396D01*
X189874Y114419D01*
X190500Y114427D01*
X191126Y114419D01*
X191753Y114396D01*
X192378Y114358D01*
X193002Y114304D01*
X193625Y114235D01*
X194246Y114151D01*
X194864Y114051D01*
X195480Y113937D01*
X196093Y113807D01*
X196703Y113662D01*
X197308Y113502D01*
X197910Y113328D01*
X198507Y113139D01*
X199100Y112935D01*
X199687Y112717D01*
X200269Y112484D01*
X200845Y112237D01*
X201414Y111976D01*
X201977Y111701D01*
X202533Y111413D01*
X203082Y111111D01*
X203624Y110795D01*
X204157Y110467D01*
X204682Y110125D01*
X205199Y109770D01*
X205706Y109403D01*
X206205Y109024D01*
X206694Y108633D01*
X207174Y108229D01*
X207643Y107814D01*
X208102Y107388D01*
X208550Y106950D01*
X208988Y106502D01*
X209414Y106043D01*
X209829Y105574D01*
X210233Y105094D01*
X210624Y104605D01*
X211003Y104106D01*
X211370Y103599D01*
X211725Y103082D01*
X212067Y102557D01*
X212395Y102024D01*
X212711Y101482D01*
X213013Y100933D01*
X213301Y100377D01*
X213576Y99814D01*
X213837Y99245D01*
X214084Y98669D01*
X214317Y98087D01*
X214535Y97500D01*
X214739Y96907D01*
X214928Y96310D01*
X215102Y95708D01*
X215262Y95103D01*
X215407Y94493D01*
X215537Y93880D01*
X215651Y93264D01*
X215751Y92646D01*
X215835Y92025D01*
X215904Y91402D01*
X215958Y90778D01*
X215996Y90153D01*
X216019Y89526D01*
X216027Y88900D01*
X216019Y88274D01*
X215996Y87647D01*
X215958Y87022D01*
X215904Y86398D01*
X215835Y85775D01*
X215751Y85154D01*
X215651Y84536D01*
X215537Y83920D01*
X215407Y83307D01*
X215262Y82697D01*
X215102Y82092D01*
X214928Y81490D01*
X214739Y80893D01*
X214535Y80300D01*
X214317Y79713D01*
X214084Y79131D01*
X213837Y78555D01*
X213576Y77986D01*
X213301Y77423D01*
X213013Y76867D01*
X212711Y76318D01*
X212395Y75776D01*
X212067Y75243D01*
X211725Y74718D01*
X211370Y74201D01*
X211003Y73694D01*
X210624Y73195D01*
X210233Y72706D01*
X209829Y72226D01*
X209414Y71757D01*
X208988Y71298D01*
X208550Y70850D01*
X208102Y70412D01*
X207643Y69986D01*
X207174Y69571D01*
X206694Y69167D01*
X206205Y68776D01*
X205706Y68397D01*
X205199Y68030D01*
X204682Y67675D01*
X204157Y67333D01*
X203624Y67005D01*
X203082Y66689D01*
X202533Y66387D01*
X201977Y66099D01*
X201414Y65824D01*
X200845Y65563D01*
X200269Y65316D01*
X199687Y65083D01*
X199100Y64865D01*
X198507Y64661D01*
X197910Y64472D01*
X197308Y64298D01*
X196703Y64138D01*
X196093Y63993D01*
X195480Y63863D01*
X194864Y63749D01*
X194246Y63649D01*
X193625Y63565D01*
X193002Y63496D01*
X192378Y63442D01*
X191753Y63404D01*
X191126Y63381D01*
X190500Y63373D01*
X189874Y63381D01*
X189247Y63404D01*
X188622Y63442D01*
X187998Y63496D01*
X187375Y63565D01*
X186754Y63649D01*
X186136Y63749D01*
X185520Y63863D01*
X184907Y63993D01*
X184297Y64138D01*
X183692Y64298D01*
X183090Y64472D01*
X182493Y64661D01*
X181900Y64865D01*
X181313Y65083D01*
X180731Y65316D01*
X180155Y65563D01*
X179586Y65824D01*
X179023Y66099D01*
X178467Y66387D01*
X177918Y66689D01*
X177376Y67005D01*
X176843Y67333D01*
X176318Y67675D01*
X175801Y68030D01*
X175294Y68397D01*
X174795Y68776D01*
X174306Y69167D01*
X173826Y69571D01*
X173357Y69986D01*
X172898Y70412D01*
X172450Y70850D01*
X172012Y71298D01*
X171586Y71757D01*
X171171Y72226D01*
X170767Y72706D01*
X170376Y73195D01*
X169997Y73694D01*
X169630Y74201D01*
X169275Y74718D01*
X168933Y75243D01*
X168605Y75776D01*
X168289Y76318D01*
X167987Y76867D01*
X167699Y77423D01*
X167424Y77986D01*
X167163Y78555D01*
X166916Y79131D01*
X166683Y79713D01*
X166465Y80300D01*
X166261Y80893D01*
X166072Y81490D01*
X165898Y82092D01*
X165738Y82697D01*
X165593Y83307D01*
X165463Y83920D01*
X165349Y84536D01*
X165249Y85154D01*
X165165Y85775D01*
X165096Y86398D01*
X165042Y87022D01*
X165004Y87647D01*
X164981Y88274D01*
X164973Y88900D01*
X787273Y88900D02*
X787281Y89526D01*
X787304Y90153D01*
X787342Y90778D01*
X787396Y91402D01*
X787465Y92025D01*
X787549Y92646D01*
X787649Y93264D01*
X787763Y93880D01*
X787893Y94493D01*
X788038Y95103D01*
X788198Y95708D01*
X788372Y96310D01*
X788561Y96907D01*
X788765Y97500D01*
X788983Y98087D01*
X789216Y98669D01*
X789463Y99245D01*
X789724Y99814D01*
X789999Y100377D01*
X790287Y100933D01*
X790589Y101482D01*
X790905Y102024D01*
X791233Y102557D01*
X791575Y103082D01*
X791930Y103599D01*
X792297Y104106D01*
X792676Y104605D01*
X793067Y105094D01*
X793471Y105574D01*
X793886Y106043D01*
X794312Y106502D01*
X794750Y106950D01*
X795198Y107388D01*
X795657Y107814D01*
X796126Y108229D01*
X796606Y108633D01*
X797095Y109024D01*
X797594Y109403D01*
X798101Y109770D01*
X798618Y110125D01*
X799143Y110467D01*
X799676Y110795D01*
X800218Y111111D01*
X800767Y111413D01*
X801323Y111701D01*
X801886Y111976D01*
X802455Y112237D01*
X803031Y112484D01*
X803613Y112717D01*
X804200Y112935D01*
X804793Y113139D01*
X805390Y113328D01*
X805992Y113502D01*
X806597Y113662D01*
X807207Y113807D01*
X807820Y113937D01*
X808436Y114051D01*
X809054Y114151D01*
X809675Y114235D01*
X810298Y114304D01*
X810922Y114358D01*
X811547Y114396D01*
X812174Y114419D01*
X812800Y114427D01*
X813426Y114419D01*
X814053Y114396D01*
X814678Y114358D01*
X815302Y114304D01*
X815925Y114235D01*
X816546Y114151D01*
X817164Y114051D01*
X817780Y113937D01*
X818393Y113807D01*
X819003Y113662D01*
X819608Y113502D01*
X820210Y113328D01*
X820807Y113139D01*
X821400Y112935D01*
X821987Y112717D01*
X822569Y112484D01*
X823145Y112237D01*
X823714Y111976D01*
X824277Y111701D01*
X824833Y111413D01*
X825382Y111111D01*
X825924Y110795D01*
X826457Y110467D01*
X826982Y110125D01*
X827499Y109770D01*
X828006Y109403D01*
X828505Y109024D01*
X828994Y108633D01*
X829474Y108229D01*
X829943Y107814D01*
X830402Y107388D01*
X830850Y106950D01*
X831288Y106502D01*
X831714Y106043D01*
X832129Y105574D01*
X832533Y105094D01*
X832924Y104605D01*
X833303Y104106D01*
X833670Y103599D01*
X834025Y103082D01*
X834367Y102557D01*
X834695Y102024D01*
X835011Y101482D01*
X835313Y100933D01*
X835601Y100377D01*
X835876Y99814D01*
X836137Y99245D01*
X836384Y98669D01*
X836617Y98087D01*
X836835Y97500D01*
X837039Y96907D01*
X837228Y96310D01*
X837402Y95708D01*
X837562Y95103D01*
X837707Y94493D01*
X837837Y93880D01*
X837951Y93264D01*
X838051Y92646D01*
X838135Y92025D01*
X838204Y91402D01*
X838258Y90778D01*
X838296Y90153D01*
X838319Y89526D01*
X838327Y88900D01*
X838319Y88274D01*
X838296Y87647D01*
X838258Y87022D01*
X838204Y86398D01*
X838135Y85775D01*
X838051Y85154D01*
X837951Y84536D01*
X837837Y83920D01*
X837707Y83307D01*
X837562Y82697D01*
X837402Y82092D01*
X837228Y81490D01*
X837039Y80893D01*
X836835Y80300D01*
X836617Y79713D01*
X836384Y79131D01*
X836137Y78555D01*
X835876Y77986D01*
X835601Y77423D01*
X835313Y76867D01*
X835011Y76318D01*
X834695Y75776D01*
X834367Y75243D01*
X834025Y74718D01*
X833670Y74201D01*
X833303Y73694D01*
X832924Y73195D01*
X832533Y72706D01*
X832129Y72226D01*
X831714Y71757D01*
X831288Y71298D01*
X830850Y70850D01*
X830402Y70412D01*
X829943Y69986D01*
X829474Y69571D01*
X828994Y69167D01*
X828505Y68776D01*
X828006Y68397D01*
X827499Y68030D01*
X826982Y67675D01*
X826457Y67333D01*
X825924Y67005D01*
X825382Y66689D01*
X824833Y66387D01*
X824277Y66099D01*
X823714Y65824D01*
X823145Y65563D01*
X822569Y65316D01*
X821987Y65083D01*
X821400Y64865D01*
X820807Y64661D01*
X820210Y64472D01*
X819608Y64298D01*
X819003Y64138D01*
X818393Y63993D01*
X817780Y63863D01*
X817164Y63749D01*
X816546Y63649D01*
X815925Y63565D01*
X815302Y63496D01*
X814678Y63442D01*
X814053Y63404D01*
X813426Y63381D01*
X812800Y63373D01*
X812174Y63381D01*
X811547Y63404D01*
X810922Y63442D01*
X810298Y63496D01*
X809675Y63565D01*
X809054Y63649D01*
X808436Y63749D01*
X807820Y63863D01*
X807207Y63993D01*
X806597Y64138D01*
X805992Y64298D01*
X805390Y64472D01*
X804793Y64661D01*
X804200Y64865D01*
X803613Y65083D01*
X803031Y65316D01*
X802455Y65563D01*
X801886Y65824D01*
X801323Y66099D01*
X800767Y66387D01*
X800218Y66689D01*
X799676Y67005D01*
X799143Y67333D01*
X798618Y67675D01*
X798101Y68030D01*
X797594Y68397D01*
X797095Y68776D01*
X796606Y69167D01*
X796126Y69571D01*
X795657Y69986D01*
X795198Y70412D01*
X794750Y70850D01*
X794312Y71298D01*
X793886Y71757D01*
X793471Y72226D01*
X793067Y72706D01*
X792676Y73195D01*
X792297Y73694D01*
X791930Y74201D01*
X791575Y74718D01*
X791233Y75243D01*
X790905Y75776D01*
X790589Y76318D01*
X790287Y76867D01*
X789999Y77423D01*
X789724Y77986D01*
X789463Y78555D01*
X789216Y79131D01*
X788983Y79713D01*
X788765Y80300D01*
X788561Y80893D01*
X788372Y81490D01*
X788198Y82092D01*
X788038Y82697D01*
X787893Y83307D01*
X787763Y83920D01*
X787649Y84536D01*
X787549Y85154D01*
X787465Y85775D01*
X787396Y86398D01*
X787342Y87022D01*
X787304Y87647D01*
X787281Y88274D01*
X787273Y88900D01*
X0Y152400D02*
X0Y25400D01*
X853440Y177800D02*
X854054Y177793D01*
X854667Y177770D01*
X855280Y177733D01*
X855891Y177681D01*
X856502Y177615D01*
X857110Y177533D01*
X857716Y177437D01*
X858320Y177327D01*
X858921Y177202D01*
X859519Y177062D01*
X860113Y176908D01*
X860703Y176739D01*
X861289Y176557D01*
X861870Y176360D01*
X862447Y176149D01*
X863018Y175925D01*
X863584Y175687D01*
X864144Y175435D01*
X864697Y175169D01*
X865244Y174891D01*
X865784Y174599D01*
X866317Y174294D01*
X866842Y173976D01*
X867360Y173646D01*
X867869Y173304D01*
X868370Y172949D01*
X868862Y172582D01*
X869345Y172204D01*
X869819Y171814D01*
X870283Y171412D01*
X870738Y171000D01*
X871182Y170576D01*
X871616Y170142D01*
X872040Y169698D01*
X872452Y169243D01*
X872854Y168779D01*
X873244Y168305D01*
X873622Y167822D01*
X873989Y167330D01*
X874344Y166829D01*
X874686Y166320D01*
X875016Y165802D01*
X875334Y165277D01*
X875639Y164744D01*
X875931Y164204D01*
X876209Y163657D01*
X876475Y163104D01*
X876727Y162544D01*
X876965Y161978D01*
X877189Y161407D01*
X877400Y160830D01*
X877597Y160249D01*
X877779Y159663D01*
X877948Y159073D01*
X878102Y158479D01*
X878242Y157881D01*
X878367Y157280D01*
X878477Y156676D01*
X878573Y156070D01*
X878655Y155462D01*
X878721Y154851D01*
X878773Y154240D01*
X878810Y153627D01*
X878833Y153014D01*
X878840Y152400D01*
X25400Y177800D02*
X24786Y177793D01*
X24173Y177770D01*
X23560Y177733D01*
X22949Y177681D01*
X22338Y177615D01*
X21730Y177533D01*
X21124Y177437D01*
X20520Y177327D01*
X19919Y177202D01*
X19321Y177062D01*
X18727Y176908D01*
X18137Y176739D01*
X17551Y176557D01*
X16970Y176360D01*
X16393Y176149D01*
X15822Y175925D01*
X15256Y175687D01*
X14696Y175435D01*
X14143Y175169D01*
X13596Y174891D01*
X13056Y174599D01*
X12523Y174294D01*
X11998Y173976D01*
X11480Y173646D01*
X10971Y173304D01*
X10470Y172949D01*
X9978Y172582D01*
X9495Y172204D01*
X9021Y171814D01*
X8557Y171412D01*
X8102Y171000D01*
X7658Y170576D01*
X7224Y170142D01*
X6800Y169698D01*
X6388Y169243D01*
X5986Y168779D01*
X5596Y168305D01*
X5218Y167822D01*
X4851Y167330D01*
X4496Y166829D01*
X4154Y166320D01*
X3824Y165802D01*
X3506Y165277D01*
X3201Y164744D01*
X2909Y164204D01*
X2631Y163657D01*
X2365Y163104D01*
X2113Y162544D01*
X1875Y161978D01*
X1651Y161407D01*
X1440Y160830D01*
X1243Y160249D01*
X1061Y159663D01*
X892Y159073D01*
X738Y158479D01*
X598Y157881D01*
X473Y157280D01*
X363Y156676D01*
X267Y156070D01*
X185Y155462D01*
X119Y154851D01*
X67Y154240D01*
X30Y153627D01*
X7Y153014D01*
X0Y152400D01*
X0Y25400D02*
X7Y24786D01*
X30Y24173D01*
X67Y23560D01*
X119Y22949D01*
X185Y22338D01*
X267Y21730D01*
X363Y21124D01*
X473Y20520D01*
X598Y19919D01*
X738Y19321D01*
X892Y18727D01*
X1061Y18137D01*
X1243Y17551D01*
X1440Y16970D01*
X1651Y16393D01*
X1875Y15822D01*
X2113Y15256D01*
X2365Y14696D01*
X2631Y14143D01*
X2909Y13596D01*
X3201Y13056D01*
X3506Y12523D01*
X3824Y11998D01*
X4154Y11480D01*
X4496Y10971D01*
X4851Y10470D01*
X5218Y9978D01*
X5596Y9495D01*
X5986Y9021D01*
X6388Y8557D01*
X6800Y8102D01*
X7224Y7658D01*
X7658Y7224D01*
X8102Y6800D01*
X8557Y6388D01*
X9021Y5986D01*
X9495Y5596D01*
X9978Y5218D01*
X10470Y4851D01*
X10971Y4496D01*
X11480Y4154D01*
X11998Y3824D01*
X12523Y3506D01*
X13056Y3201D01*
X13596Y2909D01*
X14143Y2631D01*
X14696Y2365D01*
X15256Y2113D01*
X15822Y1875D01*
X16393Y1651D01*
X16970Y1440D01*
X17551Y1243D01*
X18137Y1061D01*
X18727Y892D01*
X19321Y738D01*
X19919Y598D01*
X20520Y473D01*
X21124Y363D01*
X21730Y267D01*
X22338Y185D01*
X22949Y119D01*
X23560Y67D01*
X24173Y30D01*
X24786Y7D01*
X25400Y0D01*
X853440Y0D02*
X854054Y7D01*
X854667Y30D01*
X855280Y67D01*
X855891Y119D01*
X856502Y185D01*
X857110Y267D01*
X857716Y363D01*
X858320Y473D01*
X858921Y598D01*
X859519Y738D01*
X860113Y892D01*
X860703Y1061D01*
X861289Y1243D01*
X861870Y1440D01*
X862447Y1651D01*
X863018Y1875D01*
X863584Y2113D01*
X864144Y2365D01*
X864697Y2631D01*
X865244Y2909D01*
X865784Y3201D01*
X866317Y3506D01*
X866842Y3824D01*
X867360Y4154D01*
X867869Y4496D01*
X868370Y4851D01*
X868862Y5218D01*
X869345Y5596D01*
X869819Y5986D01*
X870283Y6388D01*
X870738Y6800D01*
X871182Y7224D01*
X871616Y7658D01*
X872040Y8102D01*
X872452Y8557D01*
X872854Y9021D01*
X873244Y9495D01*
X873622Y9978D01*
X873989Y10470D01*
X874344Y10971D01*
X874686Y11480D01*
X875016Y11998D01*
X875334Y12523D01*
X875639Y13056D01*
X875931Y13596D01*
X876209Y14143D01*
X876475Y14696D01*
X876727Y15256D01*
X876965Y15822D01*
X877189Y16393D01*
X877400Y16970D01*
X877597Y17551D01*
X877779Y18137D01*
X877948Y18727D01*
X878102Y19321D01*
X878242Y19919D01*
X878367Y20520D01*
X878477Y21124D01*
X878573Y21730D01*
X878655Y22338D01*
X878721Y22949D01*
X878773Y23560D01*
X878810Y24173D01*
X878833Y24786D01*
X878840Y25400D01*
D11*
X0Y25400D02*
X97Y23186D01*
X386Y20989D01*
X865Y18826D01*
X1532Y16713D01*
X2380Y14666D01*
X3403Y12700D01*
X4594Y10831D01*
X5942Y9073D01*
X7440Y7440D01*
X9073Y5942D01*
X10831Y4594D01*
X12700Y3403D01*
X14666Y2380D01*
X16713Y1532D01*
X18826Y865D01*
X20989Y386D01*
X23186Y97D01*
X25400Y0D01*
X853440Y0D01*
X855654Y97D01*
X857851Y386D01*
X860014Y865D01*
X862127Y1532D01*
X864175Y2380D01*
X866140Y3403D01*
X868009Y4594D01*
X869767Y5942D01*
X871401Y7440D01*
X872898Y9073D01*
X874246Y10831D01*
X875437Y12700D01*
X876460Y14666D01*
X877308Y16713D01*
X877975Y18826D01*
X878454Y20989D01*
X878743Y23186D01*
X878840Y25400D01*
X878840Y152400D01*
X878743Y154614D01*
X878454Y156811D01*
X877975Y158974D01*
X877308Y161087D01*
X876460Y163135D01*
X875437Y165100D01*
X874246Y166969D01*
X872898Y168727D01*
X871401Y170361D01*
X869767Y171858D01*
X868009Y173206D01*
X866140Y174397D01*
X864175Y175420D01*
X862127Y176268D01*
X860014Y176935D01*
X857851Y177414D01*
X855654Y177703D01*
X853440Y177800D01*
X25400Y177800D01*
X23186Y177703D01*
X20989Y177414D01*
X18826Y176935D01*
X16713Y176268D01*
X14666Y175420D01*
X12700Y174397D01*
X10831Y173206D01*
X9073Y171858D01*
X7440Y170361D01*
X5942Y168727D01*
X4594Y166969D01*
X3403Y165100D01*
X2380Y163135D01*
X1532Y161087D01*
X865Y158974D01*
X386Y156811D01*
X97Y154614D01*
X0Y152400D01*
X0Y25400D01*
X216027Y88232D02*
X215957Y86897D01*
X215817Y85567D01*
X215608Y84246D01*
X215330Y82939D01*
X214984Y81647D01*
X214571Y80376D01*
X214092Y79128D01*
X213548Y77907D01*
X212941Y76715D01*
X212273Y75558D01*
X211545Y74436D01*
X210759Y73355D01*
X209918Y72316D01*
X209023Y71322D01*
X208078Y70377D01*
X207084Y69482D01*
X206045Y68641D01*
X204964Y67855D01*
X203842Y67127D01*
X202685Y66459D01*
X201493Y65852D01*
X200272Y65308D01*
X199024Y64829D01*
X197753Y64416D01*
X196461Y64070D01*
X195154Y63792D01*
X193833Y63583D01*
X192504Y63443D01*
X191168Y63373D01*
X189832Y63373D01*
X188497Y63443D01*
X187167Y63583D01*
X185846Y63792D01*
X184539Y64070D01*
X183247Y64416D01*
X181976Y64829D01*
X180728Y65308D01*
X179507Y65852D01*
X178315Y66459D01*
X177158Y67127D01*
X176036Y67855D01*
X174955Y68641D01*
X173916Y69482D01*
X172922Y70377D01*
X171977Y71322D01*
X171082Y72316D01*
X170241Y73355D01*
X169455Y74436D01*
X168727Y75558D01*
X168059Y76715D01*
X167452Y77907D01*
X166908Y79128D01*
X166429Y80376D01*
X166016Y81647D01*
X165670Y82939D01*
X165392Y84246D01*
X165183Y85567D01*
X165043Y86897D01*
X164973Y88232D01*
X164973Y89568D01*
X165043Y90904D01*
X165183Y92233D01*
X165392Y93554D01*
X165670Y94861D01*
X166016Y96153D01*
X166429Y97424D01*
X166908Y98672D01*
X167452Y99893D01*
X168059Y101085D01*
X168727Y102242D01*
X169455Y103364D01*
X170241Y104445D01*
X171082Y105484D01*
X171977Y106478D01*
X172922Y107423D01*
X173916Y108318D01*
X174955Y109159D01*
X176036Y109945D01*
X177158Y110673D01*
X178315Y111341D01*
X179507Y111948D01*
X180728Y112492D01*
X181976Y112971D01*
X183247Y113384D01*
X184539Y113730D01*
X185846Y114008D01*
X187167Y114217D01*
X188497Y114357D01*
X189832Y114427D01*
X191168Y114427D01*
X192504Y114357D01*
X193833Y114217D01*
X195154Y114008D01*
X196461Y113730D01*
X197753Y113384D01*
X199024Y112971D01*
X200272Y112492D01*
X201493Y111948D01*
X202685Y111341D01*
X203842Y110673D01*
X204964Y109945D01*
X206045Y109159D01*
X207084Y108318D01*
X208078Y107423D01*
X209023Y106478D01*
X209918Y105484D01*
X210759Y104445D01*
X211545Y103364D01*
X212273Y102242D01*
X212941Y101085D01*
X213548Y99893D01*
X214092Y98672D01*
X214571Y97424D01*
X214984Y96153D01*
X215330Y94861D01*
X215608Y93554D01*
X215817Y92233D01*
X215957Y90904D01*
X216027Y89568D01*
X216027Y88232D01*
X838327Y88232D02*
X838257Y86897D01*
X838117Y85567D01*
X837908Y84246D01*
X837630Y82939D01*
X837284Y81647D01*
X836871Y80376D01*
X836392Y79128D01*
X835848Y77907D01*
X835241Y76715D01*
X834573Y75558D01*
X833845Y74436D01*
X833059Y73355D01*
X832218Y72316D01*
X831323Y71322D01*
X830378Y70377D01*
X829384Y69482D01*
X828345Y68641D01*
X827264Y67855D01*
X826142Y67127D01*
X824985Y66459D01*
X823793Y65852D01*
X822572Y65308D01*
X821324Y64829D01*
X820053Y64416D01*
X818761Y64070D01*
X817454Y63792D01*
X816133Y63583D01*
X814804Y63443D01*
X813468Y63373D01*
X812132Y63373D01*
X810797Y63443D01*
X809467Y63583D01*
X808146Y63792D01*
X806839Y64070D01*
X805547Y64416D01*
X804276Y64829D01*
X803028Y65308D01*
X801807Y65852D01*
X800615Y66459D01*
X799458Y67127D01*
X798336Y67855D01*
X797255Y68641D01*
X796216Y69482D01*
X795222Y70377D01*
X794277Y71322D01*
X793382Y72316D01*
X792541Y73355D01*
X791755Y74436D01*
X791027Y75558D01*
X790359Y76715D01*
X789752Y77907D01*
X789208Y79128D01*
X788729Y80376D01*
X788316Y81647D01*
X787970Y82939D01*
X787692Y84246D01*
X787483Y85567D01*
X787343Y86897D01*
X787273Y88232D01*
X787273Y89568D01*
X787343Y90904D01*
X787483Y92233D01*
X787692Y93554D01*
X787970Y94861D01*
X788316Y96153D01*
X788729Y97424D01*
X789208Y98672D01*
X789752Y99893D01*
X790359Y101085D01*
X791027Y102242D01*
X791755Y103364D01*
X792541Y104445D01*
X793382Y105484D01*
X794277Y106478D01*
X795222Y107423D01*
X796216Y108318D01*
X797255Y109159D01*
X798336Y109945D01*
X799458Y110673D01*
X800615Y111341D01*
X801807Y111948D01*
X803028Y112492D01*
X804276Y112971D01*
X805547Y113384D01*
X806839Y113730D01*
X808146Y114008D01*
X809467Y114217D01*
X810797Y114357D01*
X812132Y114427D01*
X813468Y114427D01*
X814804Y114357D01*
X816133Y114217D01*
X817454Y114008D01*
X818761Y113730D01*
X820053Y113384D01*
X821324Y112971D01*
X822572Y112492D01*
X823793Y111948D01*
X824985Y111341D01*
X826142Y110673D01*
X827264Y109945D01*
X828345Y109159D01*
X829384Y108318D01*
X830378Y107423D01*
X831323Y106478D01*
X832218Y105484D01*
X833059Y104445D01*
X833845Y103364D01*
X834573Y102242D01*
X835241Y101085D01*
X835848Y99893D01*
X836392Y98672D01*
X836871Y97424D01*
X837284Y96153D01*
X837630Y94861D01*
X837908Y93554D01*
X838117Y92233D01*
X838257Y90904D01*
X838327Y89568D01*
X838327Y88232D01*
M02*
