G04 EAGLE Gerber RS-274X export*
G75*
%MOMM*%
%FSLAX34Y34*%
%LPD*%
%INTop Copper*%
%IPPOS*%
%AMOC8*
5,1,8,0,0,1.08239X$1,22.5*%
G01*
%ADD10R,1.550000X2.350000*%
%ADD11C,1.508000*%
%ADD12R,0.800000X0.800000*%
%ADD13R,0.600000X1.250000*%
%ADD14R,1.500000X1.300000*%
%ADD15C,1.508000*%
%ADD16C,0.406400*%
%ADD17C,0.508000*%

G36*
X853458Y10164D02*
X853458Y10164D01*
X853490Y10162D01*
X855380Y10286D01*
X855403Y10292D01*
X855527Y10311D01*
X859178Y11289D01*
X859192Y11295D01*
X859207Y11297D01*
X859361Y11365D01*
X862634Y13255D01*
X862647Y13265D01*
X862661Y13271D01*
X862792Y13376D01*
X865464Y16048D01*
X865474Y16061D01*
X865486Y16071D01*
X865585Y16206D01*
X867475Y19479D01*
X867481Y19494D01*
X867490Y19506D01*
X867551Y19662D01*
X868529Y23313D01*
X868532Y23337D01*
X868554Y23460D01*
X868678Y25350D01*
X868676Y25369D01*
X868679Y25400D01*
X868679Y152400D01*
X868676Y152418D01*
X868678Y152450D01*
X868554Y154340D01*
X868548Y154363D01*
X868529Y154487D01*
X867551Y158138D01*
X867545Y158152D01*
X867543Y158167D01*
X867475Y158321D01*
X865585Y161594D01*
X865575Y161606D01*
X865569Y161621D01*
X865464Y161752D01*
X862792Y164424D01*
X862779Y164434D01*
X862769Y164446D01*
X862634Y164545D01*
X859361Y166435D01*
X859346Y166441D01*
X859334Y166450D01*
X859178Y166511D01*
X855527Y167489D01*
X855503Y167492D01*
X855380Y167514D01*
X853490Y167638D01*
X853471Y167636D01*
X853440Y167639D01*
X25400Y167639D01*
X25382Y167636D01*
X25350Y167638D01*
X23460Y167514D01*
X23437Y167508D01*
X23313Y167489D01*
X19662Y166511D01*
X19648Y166505D01*
X19633Y166503D01*
X19479Y166435D01*
X16206Y164545D01*
X16194Y164535D01*
X16179Y164529D01*
X16048Y164424D01*
X13376Y161752D01*
X13366Y161739D01*
X13354Y161729D01*
X13255Y161594D01*
X11365Y158321D01*
X11359Y158306D01*
X11350Y158294D01*
X11289Y158138D01*
X10311Y154487D01*
X10308Y154463D01*
X10286Y154340D01*
X10162Y152450D01*
X10164Y152431D01*
X10161Y152400D01*
X10161Y25400D01*
X10164Y25382D01*
X10162Y25350D01*
X10286Y23460D01*
X10292Y23437D01*
X10311Y23313D01*
X11289Y19662D01*
X11295Y19648D01*
X11297Y19633D01*
X11365Y19479D01*
X13255Y16206D01*
X13265Y16194D01*
X13271Y16179D01*
X13376Y16048D01*
X16048Y13376D01*
X16061Y13366D01*
X16071Y13354D01*
X16206Y13255D01*
X19479Y11365D01*
X19494Y11359D01*
X19506Y11350D01*
X19662Y11289D01*
X23313Y10311D01*
X23337Y10308D01*
X23460Y10286D01*
X25350Y10162D01*
X25369Y10164D01*
X25400Y10161D01*
X853440Y10161D01*
X853458Y10164D01*
G37*
%LPC*%
G36*
X183779Y37845D02*
X183779Y37845D01*
X170794Y41325D01*
X159152Y48046D01*
X149646Y57552D01*
X142925Y69194D01*
X139445Y82179D01*
X139445Y95621D01*
X142925Y108606D01*
X149646Y120248D01*
X159152Y129754D01*
X170794Y136475D01*
X183779Y139955D01*
X197221Y139955D01*
X210206Y136475D01*
X221848Y129754D01*
X231354Y120248D01*
X238075Y108606D01*
X241555Y95621D01*
X241555Y82179D01*
X238075Y69194D01*
X231354Y57552D01*
X221848Y48046D01*
X210206Y41325D01*
X197221Y37845D01*
X183779Y37845D01*
G37*
%LPD*%
%LPC*%
G36*
X806079Y37845D02*
X806079Y37845D01*
X793094Y41325D01*
X781452Y48046D01*
X771946Y57552D01*
X765225Y69194D01*
X761745Y82179D01*
X761745Y95621D01*
X765225Y108606D01*
X771946Y120248D01*
X781452Y129754D01*
X793094Y136475D01*
X806079Y139955D01*
X819521Y139955D01*
X832506Y136475D01*
X844148Y129754D01*
X853654Y120248D01*
X860375Y108606D01*
X863855Y95621D01*
X863855Y82179D01*
X860375Y69194D01*
X853654Y57552D01*
X844148Y48046D01*
X832506Y41325D01*
X819521Y37845D01*
X806079Y37845D01*
G37*
%LPD*%
%LPC*%
G36*
X35266Y27685D02*
X35266Y27685D01*
X21335Y41616D01*
X21335Y49714D01*
X21332Y49734D01*
X21334Y49753D01*
X21312Y49855D01*
X21296Y49957D01*
X21286Y49974D01*
X21282Y49994D01*
X21229Y50083D01*
X21180Y50174D01*
X21166Y50188D01*
X21156Y50205D01*
X21077Y50272D01*
X21002Y50344D01*
X20984Y50352D01*
X20969Y50365D01*
X20873Y50404D01*
X20812Y50432D01*
X19875Y51368D01*
X19875Y60632D01*
X20768Y61525D01*
X30032Y61525D01*
X30925Y60632D01*
X30925Y51368D01*
X29994Y50437D01*
X29983Y50436D01*
X29966Y50426D01*
X29946Y50422D01*
X29857Y50369D01*
X29766Y50320D01*
X29752Y50306D01*
X29735Y50296D01*
X29668Y50217D01*
X29596Y50142D01*
X29588Y50124D01*
X29575Y50109D01*
X29536Y50013D01*
X29493Y49919D01*
X29491Y49899D01*
X29483Y49881D01*
X29465Y49714D01*
X29465Y45299D01*
X29479Y45209D01*
X29487Y45118D01*
X29499Y45088D01*
X29504Y45056D01*
X29547Y44976D01*
X29583Y44892D01*
X29609Y44860D01*
X29620Y44839D01*
X29643Y44817D01*
X29688Y44761D01*
X38411Y36038D01*
X38485Y35985D01*
X38554Y35925D01*
X38584Y35913D01*
X38610Y35894D01*
X38697Y35867D01*
X38782Y35833D01*
X38823Y35829D01*
X38846Y35822D01*
X38878Y35823D01*
X38949Y35815D01*
X410751Y35815D01*
X410841Y35829D01*
X410932Y35837D01*
X410962Y35849D01*
X410994Y35854D01*
X411074Y35897D01*
X411158Y35933D01*
X411190Y35959D01*
X411211Y35970D01*
X411233Y35993D01*
X411289Y36038D01*
X422819Y47567D01*
X422887Y47663D01*
X422957Y47756D01*
X422959Y47762D01*
X422962Y47767D01*
X422997Y47879D01*
X423033Y47990D01*
X423033Y47996D01*
X423035Y48002D01*
X423032Y48119D01*
X423031Y48236D01*
X423028Y48243D01*
X423028Y48248D01*
X423022Y48265D01*
X422984Y48397D01*
X422735Y48997D01*
X422735Y52603D01*
X424115Y55935D01*
X426665Y58485D01*
X429997Y59865D01*
X433603Y59865D01*
X436935Y58485D01*
X439485Y55935D01*
X439733Y55335D01*
X439795Y55235D01*
X439855Y55135D01*
X439860Y55131D01*
X439863Y55126D01*
X439953Y55051D01*
X440042Y54975D01*
X440048Y54973D01*
X440052Y54969D01*
X440161Y54927D01*
X440270Y54883D01*
X440277Y54882D01*
X440282Y54881D01*
X440300Y54880D01*
X440437Y54865D01*
X459864Y54865D01*
X459884Y54868D01*
X459903Y54866D01*
X460005Y54888D01*
X460107Y54904D01*
X460124Y54914D01*
X460144Y54918D01*
X460233Y54971D01*
X460324Y55020D01*
X460338Y55034D01*
X460355Y55044D01*
X460422Y55123D01*
X460494Y55198D01*
X460502Y55216D01*
X460515Y55231D01*
X460554Y55327D01*
X460597Y55421D01*
X460599Y55441D01*
X460607Y55459D01*
X460625Y55626D01*
X460625Y79782D01*
X461518Y80675D01*
X478282Y80675D01*
X479175Y79782D01*
X479175Y55018D01*
X479016Y54859D01*
X479004Y54843D01*
X478988Y54831D01*
X478932Y54743D01*
X478872Y54660D01*
X478866Y54641D01*
X478855Y54624D01*
X478830Y54523D01*
X478800Y54425D01*
X478800Y54405D01*
X478795Y54385D01*
X478803Y54287D01*
X478801Y54274D01*
X478804Y54263D01*
X478806Y54179D01*
X478813Y54160D01*
X478814Y54140D01*
X478847Y54063D01*
X478854Y54033D01*
X478868Y54010D01*
X478891Y53948D01*
X478903Y53932D01*
X478911Y53914D01*
X478968Y53842D01*
X478980Y53822D01*
X478993Y53811D01*
X479016Y53783D01*
X487871Y44928D01*
X487945Y44875D01*
X488014Y44815D01*
X488044Y44803D01*
X488070Y44784D01*
X488157Y44757D01*
X488242Y44723D01*
X488283Y44719D01*
X488305Y44712D01*
X488338Y44713D01*
X488409Y44705D01*
X568231Y44705D01*
X568321Y44719D01*
X568412Y44727D01*
X568442Y44739D01*
X568474Y44744D01*
X568554Y44787D01*
X568638Y44823D01*
X568670Y44849D01*
X568691Y44860D01*
X568713Y44883D01*
X568769Y44928D01*
X572292Y48451D01*
X572335Y48510D01*
X572379Y48556D01*
X572387Y48573D01*
X572405Y48594D01*
X572417Y48624D01*
X572436Y48650D01*
X572462Y48734D01*
X572483Y48779D01*
X572484Y48790D01*
X572497Y48822D01*
X572501Y48863D01*
X572508Y48886D01*
X572507Y48918D01*
X572515Y48989D01*
X572515Y49153D01*
X572501Y49243D01*
X572493Y49334D01*
X572481Y49364D01*
X572476Y49396D01*
X572433Y49477D01*
X572397Y49560D01*
X572371Y49593D01*
X572360Y49613D01*
X572337Y49635D01*
X572292Y49691D01*
X572055Y49928D01*
X572055Y63692D01*
X572948Y64585D01*
X580212Y64585D01*
X581105Y63692D01*
X581105Y49928D01*
X580868Y49691D01*
X580815Y49617D01*
X580755Y49548D01*
X580743Y49518D01*
X580724Y49492D01*
X580697Y49405D01*
X580663Y49320D01*
X580659Y49279D01*
X580652Y49257D01*
X580653Y49224D01*
X580645Y49153D01*
X580645Y45306D01*
X571914Y36575D01*
X484726Y36575D01*
X482122Y39179D01*
X470438Y50863D01*
X470422Y50875D01*
X470410Y50891D01*
X470322Y50947D01*
X470239Y51007D01*
X470220Y51013D01*
X470203Y51024D01*
X470102Y51049D01*
X470003Y51079D01*
X469984Y51079D01*
X469964Y51084D01*
X469861Y51076D01*
X469758Y51073D01*
X469739Y51066D01*
X469719Y51064D01*
X469624Y51024D01*
X469527Y50988D01*
X469511Y50976D01*
X469493Y50968D01*
X469362Y50863D01*
X465234Y46735D01*
X440437Y46735D01*
X440322Y46716D01*
X440206Y46699D01*
X440200Y46697D01*
X440194Y46696D01*
X440092Y46641D01*
X439986Y46588D01*
X439982Y46583D01*
X439976Y46580D01*
X439896Y46496D01*
X439814Y46412D01*
X439811Y46406D01*
X439807Y46402D01*
X439799Y46385D01*
X439733Y46265D01*
X439485Y45665D01*
X436935Y43115D01*
X433603Y41735D01*
X429997Y41735D01*
X429397Y41984D01*
X429283Y42011D01*
X429170Y42039D01*
X429163Y42039D01*
X429157Y42040D01*
X429041Y42029D01*
X428924Y42020D01*
X428919Y42018D01*
X428912Y42017D01*
X428805Y41969D01*
X428698Y41924D01*
X428692Y41919D01*
X428688Y41917D01*
X428674Y41904D01*
X428567Y41819D01*
X417038Y30289D01*
X414434Y27685D01*
X35266Y27685D01*
G37*
%LPD*%
%LPC*%
G36*
X66857Y79835D02*
X66857Y79835D01*
X63525Y81215D01*
X60975Y83765D01*
X59595Y87097D01*
X59595Y90703D01*
X60975Y94035D01*
X63525Y96585D01*
X66857Y97965D01*
X85543Y97965D01*
X88875Y96585D01*
X91425Y94035D01*
X91673Y93435D01*
X91735Y93335D01*
X91795Y93235D01*
X91800Y93231D01*
X91803Y93226D01*
X91893Y93151D01*
X91982Y93075D01*
X91988Y93073D01*
X91992Y93069D01*
X92101Y93027D01*
X92210Y92983D01*
X92217Y92982D01*
X92222Y92981D01*
X92240Y92980D01*
X92377Y92965D01*
X93251Y92965D01*
X93341Y92979D01*
X93432Y92987D01*
X93462Y92999D01*
X93494Y93004D01*
X93574Y93047D01*
X93658Y93083D01*
X93690Y93109D01*
X93711Y93120D01*
X93733Y93143D01*
X93789Y93188D01*
X97312Y96711D01*
X97365Y96785D01*
X97425Y96854D01*
X97437Y96884D01*
X97456Y96910D01*
X97483Y96997D01*
X97517Y97082D01*
X97521Y97123D01*
X97528Y97146D01*
X97527Y97178D01*
X97535Y97249D01*
X97535Y141384D01*
X120236Y164085D01*
X546514Y164085D01*
X573025Y137574D01*
X573025Y133856D01*
X573028Y133836D01*
X573026Y133817D01*
X573048Y133715D01*
X573064Y133613D01*
X573074Y133596D01*
X573078Y133576D01*
X573131Y133487D01*
X573180Y133396D01*
X573194Y133382D01*
X573204Y133365D01*
X573283Y133298D01*
X573358Y133226D01*
X573376Y133218D01*
X573391Y133205D01*
X573487Y133166D01*
X573581Y133123D01*
X573601Y133121D01*
X573619Y133113D01*
X573786Y133095D01*
X577092Y133095D01*
X577985Y132202D01*
X577985Y117938D01*
X577092Y117045D01*
X560828Y117045D01*
X559935Y117938D01*
X559935Y132202D01*
X560828Y133095D01*
X564134Y133095D01*
X564154Y133098D01*
X564173Y133096D01*
X564275Y133118D01*
X564377Y133134D01*
X564394Y133144D01*
X564414Y133148D01*
X564503Y133201D01*
X564594Y133250D01*
X564608Y133264D01*
X564625Y133274D01*
X564692Y133353D01*
X564764Y133428D01*
X564772Y133446D01*
X564785Y133461D01*
X564824Y133557D01*
X564867Y133651D01*
X564869Y133671D01*
X564877Y133689D01*
X564892Y133823D01*
X564893Y133827D01*
X564892Y133830D01*
X564895Y133856D01*
X564895Y133891D01*
X564881Y133981D01*
X564873Y134072D01*
X564861Y134102D01*
X564856Y134134D01*
X564813Y134214D01*
X564777Y134298D01*
X564751Y134330D01*
X564740Y134351D01*
X564717Y134373D01*
X564672Y134429D01*
X543369Y155732D01*
X543295Y155785D01*
X543226Y155845D01*
X543196Y155857D01*
X543170Y155876D01*
X543083Y155903D01*
X542998Y155937D01*
X542957Y155941D01*
X542934Y155948D01*
X542902Y155947D01*
X542831Y155955D01*
X123919Y155955D01*
X123829Y155941D01*
X123738Y155933D01*
X123708Y155921D01*
X123676Y155916D01*
X123596Y155873D01*
X123512Y155837D01*
X123480Y155811D01*
X123459Y155800D01*
X123437Y155777D01*
X123381Y155732D01*
X105888Y138239D01*
X105835Y138165D01*
X105775Y138096D01*
X105763Y138066D01*
X105744Y138040D01*
X105717Y137953D01*
X105683Y137868D01*
X105679Y137827D01*
X105672Y137804D01*
X105673Y137772D01*
X105665Y137701D01*
X105665Y93566D01*
X96934Y84835D01*
X92377Y84835D01*
X92262Y84816D01*
X92146Y84799D01*
X92140Y84797D01*
X92134Y84796D01*
X92032Y84741D01*
X91926Y84688D01*
X91922Y84683D01*
X91916Y84680D01*
X91836Y84596D01*
X91754Y84512D01*
X91751Y84506D01*
X91747Y84502D01*
X91739Y84485D01*
X91673Y84365D01*
X91425Y83765D01*
X88875Y81215D01*
X85543Y79835D01*
X66857Y79835D01*
G37*
%LPD*%
%LPC*%
G36*
X302997Y41735D02*
X302997Y41735D01*
X299665Y43115D01*
X297115Y45665D01*
X295735Y48997D01*
X295735Y52603D01*
X297115Y55935D01*
X299665Y58485D01*
X302997Y59865D01*
X306603Y59865D01*
X307203Y59616D01*
X307317Y59589D01*
X307430Y59561D01*
X307437Y59561D01*
X307443Y59560D01*
X307559Y59571D01*
X307676Y59580D01*
X307681Y59582D01*
X307688Y59583D01*
X307795Y59631D01*
X307902Y59676D01*
X307908Y59681D01*
X307912Y59683D01*
X307926Y59696D01*
X308033Y59781D01*
X338612Y90361D01*
X341216Y92965D01*
X423451Y92965D01*
X423541Y92979D01*
X423632Y92987D01*
X423662Y92999D01*
X423694Y93004D01*
X423774Y93047D01*
X423858Y93083D01*
X423890Y93109D01*
X423911Y93120D01*
X423933Y93143D01*
X423989Y93188D01*
X455516Y124715D01*
X471584Y124715D01*
X472401Y123898D01*
X472475Y123845D01*
X472544Y123785D01*
X472574Y123773D01*
X472600Y123754D01*
X472687Y123727D01*
X472772Y123693D01*
X472813Y123689D01*
X472836Y123682D01*
X472868Y123683D01*
X472939Y123675D01*
X478282Y123675D01*
X479175Y122782D01*
X479175Y98018D01*
X478282Y97125D01*
X461518Y97125D01*
X460625Y98018D01*
X460625Y115824D01*
X460622Y115844D01*
X460624Y115863D01*
X460602Y115965D01*
X460586Y116067D01*
X460576Y116084D01*
X460572Y116104D01*
X460519Y116193D01*
X460470Y116284D01*
X460456Y116298D01*
X460446Y116315D01*
X460367Y116382D01*
X460292Y116454D01*
X460274Y116462D01*
X460259Y116475D01*
X460163Y116514D01*
X460069Y116557D01*
X460049Y116559D01*
X460031Y116567D01*
X459864Y116585D01*
X459199Y116585D01*
X459109Y116571D01*
X459018Y116563D01*
X458988Y116551D01*
X458956Y116546D01*
X458876Y116503D01*
X458792Y116467D01*
X458760Y116441D01*
X458739Y116430D01*
X458717Y116407D01*
X458661Y116362D01*
X427134Y84835D01*
X344899Y84835D01*
X344809Y84821D01*
X344718Y84813D01*
X344688Y84801D01*
X344656Y84796D01*
X344576Y84753D01*
X344492Y84717D01*
X344460Y84691D01*
X344439Y84680D01*
X344417Y84657D01*
X344361Y84612D01*
X313781Y54033D01*
X313713Y53938D01*
X313643Y53844D01*
X313641Y53838D01*
X313638Y53833D01*
X313603Y53722D01*
X313567Y53610D01*
X313567Y53604D01*
X313565Y53598D01*
X313568Y53481D01*
X313569Y53364D01*
X313572Y53357D01*
X313572Y53352D01*
X313578Y53335D01*
X313616Y53203D01*
X313865Y52603D01*
X313865Y48997D01*
X312485Y45665D01*
X309935Y43115D01*
X306603Y41735D01*
X302997Y41735D01*
G37*
%LPD*%
%LPC*%
G36*
X582498Y70035D02*
X582498Y70035D01*
X581605Y70928D01*
X581605Y84692D01*
X581842Y84929D01*
X581896Y85003D01*
X581955Y85072D01*
X581967Y85102D01*
X581986Y85128D01*
X582013Y85215D01*
X582047Y85300D01*
X582051Y85341D01*
X582058Y85363D01*
X582057Y85396D01*
X582065Y85467D01*
X582065Y86901D01*
X582051Y86991D01*
X582043Y87082D01*
X582031Y87112D01*
X582026Y87144D01*
X581983Y87224D01*
X581947Y87308D01*
X581921Y87340D01*
X581910Y87361D01*
X581887Y87383D01*
X581842Y87439D01*
X571459Y97822D01*
X571385Y97875D01*
X571316Y97935D01*
X571286Y97947D01*
X571260Y97966D01*
X571173Y97993D01*
X571088Y98027D01*
X571047Y98031D01*
X571024Y98038D01*
X570992Y98037D01*
X570921Y98045D01*
X560828Y98045D01*
X559935Y98938D01*
X559935Y113202D01*
X560828Y114095D01*
X577092Y114095D01*
X577985Y113202D01*
X577985Y103109D01*
X577999Y103019D01*
X578007Y102928D01*
X578019Y102898D01*
X578024Y102866D01*
X578067Y102786D01*
X578103Y102702D01*
X578129Y102670D01*
X578140Y102649D01*
X578163Y102627D01*
X578208Y102571D01*
X590195Y90584D01*
X590195Y85467D01*
X590209Y85377D01*
X590217Y85286D01*
X590229Y85256D01*
X590234Y85224D01*
X590277Y85144D01*
X590313Y85060D01*
X590339Y85027D01*
X590350Y85007D01*
X590373Y84985D01*
X590418Y84929D01*
X590655Y84692D01*
X590655Y70928D01*
X589762Y70035D01*
X582498Y70035D01*
G37*
%LPD*%
%LPC*%
G36*
X617322Y72295D02*
X617322Y72295D01*
X613990Y73675D01*
X611440Y76225D01*
X610060Y79557D01*
X610060Y98243D01*
X611440Y101575D01*
X613990Y104125D01*
X617322Y105505D01*
X620928Y105505D01*
X624260Y104125D01*
X626810Y101575D01*
X628190Y98243D01*
X628190Y79557D01*
X626810Y76225D01*
X624260Y73675D01*
X620928Y72295D01*
X617322Y72295D01*
G37*
%LPD*%
%LPC*%
G36*
X683997Y72295D02*
X683997Y72295D01*
X680665Y73675D01*
X678115Y76225D01*
X676735Y79557D01*
X676735Y98243D01*
X678115Y101575D01*
X680665Y104125D01*
X683997Y105505D01*
X687603Y105505D01*
X690935Y104125D01*
X693485Y101575D01*
X694865Y98243D01*
X694865Y79557D01*
X693485Y76225D01*
X690935Y73675D01*
X687603Y72295D01*
X683997Y72295D01*
G37*
%LPD*%
%LPC*%
G36*
X709397Y72295D02*
X709397Y72295D01*
X706065Y73675D01*
X703515Y76225D01*
X702135Y79557D01*
X702135Y98243D01*
X703515Y101575D01*
X706065Y104125D01*
X709397Y105505D01*
X713003Y105505D01*
X716335Y104125D01*
X718885Y101575D01*
X720265Y98243D01*
X720265Y79557D01*
X718885Y76225D01*
X716335Y73675D01*
X713003Y72295D01*
X709397Y72295D01*
G37*
%LPD*%
%LPC*%
G36*
X506197Y72295D02*
X506197Y72295D01*
X502865Y73675D01*
X500315Y76225D01*
X498935Y79557D01*
X498935Y98243D01*
X500315Y101575D01*
X502865Y104125D01*
X506197Y105505D01*
X509803Y105505D01*
X513135Y104125D01*
X515685Y101575D01*
X517065Y98243D01*
X517065Y79557D01*
X515685Y76225D01*
X513135Y73675D01*
X509803Y72295D01*
X506197Y72295D01*
G37*
%LPD*%
%LPC*%
G36*
X642722Y72295D02*
X642722Y72295D01*
X639390Y73675D01*
X636840Y76225D01*
X635460Y79557D01*
X635460Y98243D01*
X636840Y101575D01*
X639390Y104125D01*
X642722Y105505D01*
X646328Y105505D01*
X649660Y104125D01*
X652210Y101575D01*
X653590Y98243D01*
X653590Y79557D01*
X652210Y76225D01*
X649660Y73675D01*
X646328Y72295D01*
X642722Y72295D01*
G37*
%LPD*%
%LPC*%
G36*
X531597Y72295D02*
X531597Y72295D01*
X528265Y73675D01*
X525715Y76225D01*
X524335Y79557D01*
X524335Y98243D01*
X525715Y101575D01*
X528265Y104125D01*
X531597Y105505D01*
X535203Y105505D01*
X538535Y104125D01*
X541085Y101575D01*
X542465Y98243D01*
X542465Y79557D01*
X541085Y76225D01*
X538535Y73675D01*
X535203Y72295D01*
X531597Y72295D01*
G37*
%LPD*%
%LPC*%
G36*
X66857Y105235D02*
X66857Y105235D01*
X63525Y106615D01*
X60975Y109165D01*
X59595Y112497D01*
X59595Y116103D01*
X60975Y119435D01*
X63525Y121985D01*
X66857Y123365D01*
X85543Y123365D01*
X88875Y121985D01*
X91425Y119435D01*
X92805Y116103D01*
X92805Y112497D01*
X91425Y109165D01*
X88875Y106615D01*
X85543Y105235D01*
X66857Y105235D01*
G37*
%LPD*%
%LPC*%
G36*
X20768Y65475D02*
X20768Y65475D01*
X19875Y66368D01*
X19875Y75632D01*
X20768Y76525D01*
X21082Y76525D01*
X21102Y76528D01*
X21121Y76526D01*
X21223Y76548D01*
X21325Y76564D01*
X21342Y76574D01*
X21362Y76578D01*
X21451Y76631D01*
X21542Y76680D01*
X21556Y76694D01*
X21573Y76704D01*
X21640Y76783D01*
X21712Y76858D01*
X21720Y76876D01*
X21733Y76891D01*
X21772Y76987D01*
X21815Y77081D01*
X21817Y77101D01*
X21825Y77119D01*
X21843Y77286D01*
X21843Y83314D01*
X21840Y83334D01*
X21842Y83353D01*
X21820Y83455D01*
X21804Y83557D01*
X21794Y83574D01*
X21790Y83594D01*
X21737Y83683D01*
X21688Y83774D01*
X21674Y83788D01*
X21664Y83805D01*
X21585Y83872D01*
X21510Y83944D01*
X21492Y83952D01*
X21477Y83965D01*
X21381Y84004D01*
X21287Y84047D01*
X21267Y84049D01*
X21249Y84057D01*
X21082Y84075D01*
X17268Y84075D01*
X16375Y84968D01*
X16375Y99232D01*
X17268Y100125D01*
X33532Y100125D01*
X34425Y99232D01*
X34425Y84968D01*
X33532Y84075D01*
X29718Y84075D01*
X29698Y84072D01*
X29679Y84074D01*
X29577Y84052D01*
X29475Y84036D01*
X29458Y84026D01*
X29438Y84022D01*
X29349Y83969D01*
X29258Y83920D01*
X29244Y83906D01*
X29227Y83896D01*
X29160Y83817D01*
X29088Y83742D01*
X29080Y83724D01*
X29067Y83709D01*
X29028Y83613D01*
X28985Y83519D01*
X28983Y83499D01*
X28975Y83481D01*
X28957Y83314D01*
X28957Y77286D01*
X28960Y77266D01*
X28958Y77247D01*
X28980Y77145D01*
X28996Y77043D01*
X29006Y77026D01*
X29010Y77006D01*
X29063Y76917D01*
X29112Y76826D01*
X29126Y76812D01*
X29136Y76795D01*
X29215Y76728D01*
X29290Y76656D01*
X29308Y76648D01*
X29323Y76635D01*
X29419Y76596D01*
X29513Y76553D01*
X29533Y76551D01*
X29551Y76543D01*
X29718Y76525D01*
X30032Y76525D01*
X30925Y75632D01*
X30925Y66368D01*
X30032Y65475D01*
X20768Y65475D01*
G37*
%LPD*%
%LPC*%
G36*
X302997Y117935D02*
X302997Y117935D01*
X299665Y119315D01*
X297115Y121865D01*
X295735Y125197D01*
X295735Y128803D01*
X297115Y132135D01*
X299665Y134685D01*
X302997Y136065D01*
X306603Y136065D01*
X309935Y134685D01*
X312485Y132135D01*
X313865Y128803D01*
X313865Y125197D01*
X312485Y121865D01*
X309935Y119315D01*
X306603Y117935D01*
X302997Y117935D01*
G37*
%LPD*%
%LPC*%
G36*
X429997Y117935D02*
X429997Y117935D01*
X426665Y119315D01*
X424115Y121865D01*
X422735Y125197D01*
X422735Y128803D01*
X424115Y132135D01*
X426665Y134685D01*
X429997Y136065D01*
X433603Y136065D01*
X436935Y134685D01*
X439485Y132135D01*
X440865Y128803D01*
X440865Y125197D01*
X439485Y121865D01*
X436935Y119315D01*
X433603Y117935D01*
X429997Y117935D01*
G37*
%LPD*%
%LPC*%
G36*
X353797Y117935D02*
X353797Y117935D01*
X350465Y119315D01*
X347915Y121865D01*
X346535Y125197D01*
X346535Y128803D01*
X347915Y132135D01*
X350465Y134685D01*
X353797Y136065D01*
X357403Y136065D01*
X360735Y134685D01*
X363285Y132135D01*
X364665Y128803D01*
X364665Y125197D01*
X363285Y121865D01*
X360735Y119315D01*
X357403Y117935D01*
X353797Y117935D01*
G37*
%LPD*%
%LPC*%
G36*
X738123Y90423D02*
X738123Y90423D01*
X738123Y106405D01*
X738961Y106273D01*
X740470Y105782D01*
X741883Y105062D01*
X743167Y104129D01*
X744289Y103007D01*
X745222Y101723D01*
X745942Y100310D01*
X746433Y98801D01*
X746681Y97233D01*
X746681Y90423D01*
X738123Y90423D01*
G37*
%LPD*%
%LPC*%
G36*
X77723Y65023D02*
X77723Y65023D01*
X77723Y73581D01*
X84533Y73581D01*
X86101Y73333D01*
X87610Y72842D01*
X89023Y72122D01*
X90307Y71189D01*
X91429Y70067D01*
X92362Y68783D01*
X93082Y67370D01*
X93573Y65861D01*
X93705Y65023D01*
X77723Y65023D01*
G37*
%LPD*%
%LPC*%
G36*
X58695Y65023D02*
X58695Y65023D01*
X58827Y65861D01*
X59318Y67370D01*
X60038Y68783D01*
X60971Y70067D01*
X62093Y71189D01*
X63377Y72122D01*
X64790Y72842D01*
X66299Y73333D01*
X67867Y73581D01*
X74677Y73581D01*
X74677Y65023D01*
X58695Y65023D01*
G37*
%LPD*%
%LPC*%
G36*
X738123Y87377D02*
X738123Y87377D01*
X746681Y87377D01*
X746681Y80567D01*
X746433Y78999D01*
X745942Y77490D01*
X745222Y76077D01*
X744289Y74793D01*
X743167Y73671D01*
X741883Y72738D01*
X740470Y72018D01*
X738961Y71527D01*
X738123Y71395D01*
X738123Y87377D01*
G37*
%LPD*%
%LPC*%
G36*
X77723Y53419D02*
X77723Y53419D01*
X77723Y61977D01*
X93705Y61977D01*
X93573Y61139D01*
X93082Y59630D01*
X92362Y58217D01*
X91429Y56933D01*
X90307Y55811D01*
X89023Y54878D01*
X87610Y54158D01*
X86101Y53667D01*
X84533Y53419D01*
X77723Y53419D01*
G37*
%LPD*%
%LPC*%
G36*
X726519Y90423D02*
X726519Y90423D01*
X726519Y97233D01*
X726767Y98801D01*
X727258Y100310D01*
X727978Y101723D01*
X728911Y103007D01*
X730033Y104129D01*
X731317Y105062D01*
X732730Y105782D01*
X734239Y106273D01*
X735077Y106405D01*
X735077Y90423D01*
X726519Y90423D01*
G37*
%LPD*%
%LPC*%
G36*
X67867Y53419D02*
X67867Y53419D01*
X66299Y53667D01*
X64790Y54158D01*
X63377Y54878D01*
X62093Y55811D01*
X60971Y56933D01*
X60038Y58217D01*
X59318Y59630D01*
X58827Y61139D01*
X58695Y61977D01*
X74677Y61977D01*
X74677Y53419D01*
X67867Y53419D01*
G37*
%LPD*%
%LPC*%
G36*
X734239Y71527D02*
X734239Y71527D01*
X732730Y72018D01*
X731317Y72738D01*
X730033Y73671D01*
X728911Y74793D01*
X727978Y76077D01*
X727258Y77490D01*
X726767Y78999D01*
X726519Y80567D01*
X726519Y87377D01*
X735077Y87377D01*
X735077Y71395D01*
X734239Y71527D01*
G37*
%LPD*%
%LPC*%
G36*
X26923Y112623D02*
X26923Y112623D01*
X26923Y120141D01*
X33234Y120141D01*
X33881Y119968D01*
X34460Y119633D01*
X34933Y119160D01*
X35268Y118581D01*
X35441Y117934D01*
X35441Y112623D01*
X26923Y112623D01*
G37*
%LPD*%
%LPC*%
G36*
X15359Y112623D02*
X15359Y112623D01*
X15359Y117934D01*
X15532Y118581D01*
X15867Y119160D01*
X16340Y119633D01*
X16919Y119968D01*
X17566Y120141D01*
X23877Y120141D01*
X23877Y112623D01*
X15359Y112623D01*
G37*
%LPD*%
%LPC*%
G36*
X26923Y102059D02*
X26923Y102059D01*
X26923Y109577D01*
X35441Y109577D01*
X35441Y104266D01*
X35268Y103619D01*
X34933Y103040D01*
X34460Y102567D01*
X33881Y102232D01*
X33234Y102059D01*
X26923Y102059D01*
G37*
%LPD*%
%LPC*%
G36*
X17566Y102059D02*
X17566Y102059D01*
X16919Y102232D01*
X16340Y102567D01*
X15867Y103040D01*
X15532Y103619D01*
X15359Y104266D01*
X15359Y109577D01*
X23877Y109577D01*
X23877Y102059D01*
X17566Y102059D01*
G37*
%LPD*%
%LPC*%
G36*
X568529Y79309D02*
X568529Y79309D01*
X568529Y86601D01*
X570364Y86601D01*
X571011Y86428D01*
X571590Y86093D01*
X572063Y85620D01*
X572398Y85041D01*
X572571Y84394D01*
X572571Y79309D01*
X568529Y79309D01*
G37*
%LPD*%
%LPC*%
G36*
X568529Y76311D02*
X568529Y76311D01*
X572571Y76311D01*
X572571Y71226D01*
X572398Y70579D01*
X572063Y70000D01*
X571590Y69527D01*
X571011Y69192D01*
X570364Y69019D01*
X568529Y69019D01*
X568529Y76311D01*
G37*
%LPD*%
%LPC*%
G36*
X561489Y79309D02*
X561489Y79309D01*
X561489Y84394D01*
X561662Y85041D01*
X561997Y85620D01*
X562470Y86093D01*
X563049Y86428D01*
X563696Y86601D01*
X565531Y86601D01*
X565531Y79309D01*
X561489Y79309D01*
G37*
%LPD*%
%LPC*%
G36*
X563696Y69019D02*
X563696Y69019D01*
X563049Y69192D01*
X562470Y69527D01*
X561997Y70000D01*
X561662Y70579D01*
X561489Y71226D01*
X561489Y76311D01*
X565531Y76311D01*
X565531Y69019D01*
X563696Y69019D01*
G37*
%LPD*%
%LPC*%
G36*
X736599Y88899D02*
X736599Y88899D01*
X736599Y88901D01*
X736601Y88901D01*
X736601Y88899D01*
X736599Y88899D01*
G37*
%LPD*%
%LPC*%
G36*
X76199Y63499D02*
X76199Y63499D01*
X76199Y63501D01*
X76201Y63501D01*
X76201Y63499D01*
X76199Y63499D01*
G37*
%LPD*%
%LPC*%
G36*
X25399Y111099D02*
X25399Y111099D01*
X25399Y111101D01*
X25401Y111101D01*
X25401Y111099D01*
X25399Y111099D01*
G37*
%LPD*%
D10*
X469900Y110400D03*
X469900Y67400D03*
D11*
X304800Y50800D03*
X431800Y50800D03*
X431800Y127000D03*
X355600Y127000D03*
X304800Y127000D03*
D12*
X25400Y71000D03*
X25400Y56000D03*
D13*
X586130Y77810D03*
X567030Y77810D03*
X576580Y56810D03*
D14*
X568960Y125070D03*
X568960Y106070D03*
X25400Y111100D03*
X25400Y92100D03*
D15*
X68660Y63500D02*
X83740Y63500D01*
X83740Y88900D02*
X68660Y88900D01*
X68660Y114300D02*
X83740Y114300D01*
X619125Y96440D02*
X619125Y81360D01*
X644525Y81360D02*
X644525Y96440D01*
X508000Y96440D02*
X508000Y81360D01*
X533400Y81360D02*
X533400Y96440D01*
X685800Y96440D02*
X685800Y81360D01*
X711200Y81360D02*
X711200Y96440D01*
X736600Y96440D02*
X736600Y81360D01*
D16*
X76200Y63500D02*
X54610Y63500D01*
X52705Y65405D01*
X49530Y68580D01*
X25400Y111100D02*
X25400Y119380D01*
X27940Y121920D01*
X38100Y121920D01*
X49530Y110490D01*
X49530Y68580D01*
D17*
X567030Y77810D02*
X567030Y78130D01*
X549910Y123190D02*
X527050Y146050D01*
X147320Y146050D01*
X128270Y127000D01*
X128270Y81280D02*
X121920Y74930D01*
X106680Y74930D01*
X95250Y63500D01*
X76200Y63500D01*
X549910Y95250D02*
X567030Y78130D01*
X549910Y95250D02*
X549910Y123190D01*
X128270Y127000D02*
X128270Y81280D01*
X304800Y50800D02*
X342900Y88900D01*
X425450Y88900D01*
X457200Y120650D01*
X469900Y120650D01*
X469900Y110400D01*
X568960Y125070D02*
X568960Y135890D01*
X544830Y160020D01*
X95250Y88900D02*
X76200Y88900D01*
X95250Y88900D02*
X101600Y95250D01*
X101600Y139700D02*
X121920Y160020D01*
X101600Y139700D02*
X101600Y95250D01*
X121920Y160020D02*
X544830Y160020D01*
X568960Y106070D02*
X586130Y88900D01*
X586130Y77810D01*
X36950Y31750D02*
X25400Y43300D01*
X25400Y56000D01*
X412750Y31750D02*
X431800Y50800D01*
X412750Y31750D02*
X36950Y31750D01*
X431800Y50800D02*
X463550Y50800D01*
X469900Y57150D01*
X469900Y67400D01*
X469900Y57150D01*
X570230Y40640D02*
X576580Y46990D01*
X576580Y56810D01*
X486410Y40640D02*
X469900Y57150D01*
X486410Y40640D02*
X570230Y40640D01*
D16*
X25400Y71000D02*
X25400Y92100D01*
M02*
