M48
;GenerationSoftware,Autodesk,EAGLE,9.6.2*%
;CreationDate,2020-12-11T06:33:34Z*%
FMAT,2
ICI,OFF
METRIC,TZ,000.000
T4C0.350
T3C1.000
T2C5.105
%
G90
M71
T2
X19050Y9843
X81280Y9843
T3
X30480Y12700
X73660Y12065
X71120Y12065
X68580Y12065
X53340Y12065
X50800Y12065
X64452Y12065
X61912Y12065
X7620Y12700
X7620Y10160
X7620Y7620
X35560Y12700
X43180Y12700
X43180Y5080
X30480Y5080
T4
X33020Y3398
X43220Y10236
X57150Y8276
X54292Y5715
M30