G04 EAGLE Gerber RS-274X export*
G75*
%MOMM*%
%FSLAX34Y34*%
%LPD*%
%INMechanical*%
%IPPOS*%
%AMOC8*
5,1,8,0,0,1.08239X$1,22.5*%
G01*
%ADD10C,0.000000*%
%ADD11C,0.254000*%


D10*
X25400Y0D02*
X853440Y0D01*
X878840Y25400D02*
X878840Y171450D01*
X853440Y196850D02*
X25400Y196850D01*
X164973Y98425D02*
X164981Y99051D01*
X165004Y99678D01*
X165042Y100303D01*
X165096Y100927D01*
X165165Y101550D01*
X165249Y102171D01*
X165349Y102789D01*
X165463Y103405D01*
X165593Y104018D01*
X165738Y104628D01*
X165898Y105233D01*
X166072Y105835D01*
X166261Y106432D01*
X166465Y107025D01*
X166683Y107612D01*
X166916Y108194D01*
X167163Y108770D01*
X167424Y109339D01*
X167699Y109902D01*
X167987Y110458D01*
X168289Y111007D01*
X168605Y111549D01*
X168933Y112082D01*
X169275Y112607D01*
X169630Y113124D01*
X169997Y113631D01*
X170376Y114130D01*
X170767Y114619D01*
X171171Y115099D01*
X171586Y115568D01*
X172012Y116027D01*
X172450Y116475D01*
X172898Y116913D01*
X173357Y117339D01*
X173826Y117754D01*
X174306Y118158D01*
X174795Y118549D01*
X175294Y118928D01*
X175801Y119295D01*
X176318Y119650D01*
X176843Y119992D01*
X177376Y120320D01*
X177918Y120636D01*
X178467Y120938D01*
X179023Y121226D01*
X179586Y121501D01*
X180155Y121762D01*
X180731Y122009D01*
X181313Y122242D01*
X181900Y122460D01*
X182493Y122664D01*
X183090Y122853D01*
X183692Y123027D01*
X184297Y123187D01*
X184907Y123332D01*
X185520Y123462D01*
X186136Y123576D01*
X186754Y123676D01*
X187375Y123760D01*
X187998Y123829D01*
X188622Y123883D01*
X189247Y123921D01*
X189874Y123944D01*
X190500Y123952D01*
X191126Y123944D01*
X191753Y123921D01*
X192378Y123883D01*
X193002Y123829D01*
X193625Y123760D01*
X194246Y123676D01*
X194864Y123576D01*
X195480Y123462D01*
X196093Y123332D01*
X196703Y123187D01*
X197308Y123027D01*
X197910Y122853D01*
X198507Y122664D01*
X199100Y122460D01*
X199687Y122242D01*
X200269Y122009D01*
X200845Y121762D01*
X201414Y121501D01*
X201977Y121226D01*
X202533Y120938D01*
X203082Y120636D01*
X203624Y120320D01*
X204157Y119992D01*
X204682Y119650D01*
X205199Y119295D01*
X205706Y118928D01*
X206205Y118549D01*
X206694Y118158D01*
X207174Y117754D01*
X207643Y117339D01*
X208102Y116913D01*
X208550Y116475D01*
X208988Y116027D01*
X209414Y115568D01*
X209829Y115099D01*
X210233Y114619D01*
X210624Y114130D01*
X211003Y113631D01*
X211370Y113124D01*
X211725Y112607D01*
X212067Y112082D01*
X212395Y111549D01*
X212711Y111007D01*
X213013Y110458D01*
X213301Y109902D01*
X213576Y109339D01*
X213837Y108770D01*
X214084Y108194D01*
X214317Y107612D01*
X214535Y107025D01*
X214739Y106432D01*
X214928Y105835D01*
X215102Y105233D01*
X215262Y104628D01*
X215407Y104018D01*
X215537Y103405D01*
X215651Y102789D01*
X215751Y102171D01*
X215835Y101550D01*
X215904Y100927D01*
X215958Y100303D01*
X215996Y99678D01*
X216019Y99051D01*
X216027Y98425D01*
X216019Y97799D01*
X215996Y97172D01*
X215958Y96547D01*
X215904Y95923D01*
X215835Y95300D01*
X215751Y94679D01*
X215651Y94061D01*
X215537Y93445D01*
X215407Y92832D01*
X215262Y92222D01*
X215102Y91617D01*
X214928Y91015D01*
X214739Y90418D01*
X214535Y89825D01*
X214317Y89238D01*
X214084Y88656D01*
X213837Y88080D01*
X213576Y87511D01*
X213301Y86948D01*
X213013Y86392D01*
X212711Y85843D01*
X212395Y85301D01*
X212067Y84768D01*
X211725Y84243D01*
X211370Y83726D01*
X211003Y83219D01*
X210624Y82720D01*
X210233Y82231D01*
X209829Y81751D01*
X209414Y81282D01*
X208988Y80823D01*
X208550Y80375D01*
X208102Y79937D01*
X207643Y79511D01*
X207174Y79096D01*
X206694Y78692D01*
X206205Y78301D01*
X205706Y77922D01*
X205199Y77555D01*
X204682Y77200D01*
X204157Y76858D01*
X203624Y76530D01*
X203082Y76214D01*
X202533Y75912D01*
X201977Y75624D01*
X201414Y75349D01*
X200845Y75088D01*
X200269Y74841D01*
X199687Y74608D01*
X199100Y74390D01*
X198507Y74186D01*
X197910Y73997D01*
X197308Y73823D01*
X196703Y73663D01*
X196093Y73518D01*
X195480Y73388D01*
X194864Y73274D01*
X194246Y73174D01*
X193625Y73090D01*
X193002Y73021D01*
X192378Y72967D01*
X191753Y72929D01*
X191126Y72906D01*
X190500Y72898D01*
X189874Y72906D01*
X189247Y72929D01*
X188622Y72967D01*
X187998Y73021D01*
X187375Y73090D01*
X186754Y73174D01*
X186136Y73274D01*
X185520Y73388D01*
X184907Y73518D01*
X184297Y73663D01*
X183692Y73823D01*
X183090Y73997D01*
X182493Y74186D01*
X181900Y74390D01*
X181313Y74608D01*
X180731Y74841D01*
X180155Y75088D01*
X179586Y75349D01*
X179023Y75624D01*
X178467Y75912D01*
X177918Y76214D01*
X177376Y76530D01*
X176843Y76858D01*
X176318Y77200D01*
X175801Y77555D01*
X175294Y77922D01*
X174795Y78301D01*
X174306Y78692D01*
X173826Y79096D01*
X173357Y79511D01*
X172898Y79937D01*
X172450Y80375D01*
X172012Y80823D01*
X171586Y81282D01*
X171171Y81751D01*
X170767Y82231D01*
X170376Y82720D01*
X169997Y83219D01*
X169630Y83726D01*
X169275Y84243D01*
X168933Y84768D01*
X168605Y85301D01*
X168289Y85843D01*
X167987Y86392D01*
X167699Y86948D01*
X167424Y87511D01*
X167163Y88080D01*
X166916Y88656D01*
X166683Y89238D01*
X166465Y89825D01*
X166261Y90418D01*
X166072Y91015D01*
X165898Y91617D01*
X165738Y92222D01*
X165593Y92832D01*
X165463Y93445D01*
X165349Y94061D01*
X165249Y94679D01*
X165165Y95300D01*
X165096Y95923D01*
X165042Y96547D01*
X165004Y97172D01*
X164981Y97799D01*
X164973Y98425D01*
X787273Y98425D02*
X787281Y99051D01*
X787304Y99678D01*
X787342Y100303D01*
X787396Y100927D01*
X787465Y101550D01*
X787549Y102171D01*
X787649Y102789D01*
X787763Y103405D01*
X787893Y104018D01*
X788038Y104628D01*
X788198Y105233D01*
X788372Y105835D01*
X788561Y106432D01*
X788765Y107025D01*
X788983Y107612D01*
X789216Y108194D01*
X789463Y108770D01*
X789724Y109339D01*
X789999Y109902D01*
X790287Y110458D01*
X790589Y111007D01*
X790905Y111549D01*
X791233Y112082D01*
X791575Y112607D01*
X791930Y113124D01*
X792297Y113631D01*
X792676Y114130D01*
X793067Y114619D01*
X793471Y115099D01*
X793886Y115568D01*
X794312Y116027D01*
X794750Y116475D01*
X795198Y116913D01*
X795657Y117339D01*
X796126Y117754D01*
X796606Y118158D01*
X797095Y118549D01*
X797594Y118928D01*
X798101Y119295D01*
X798618Y119650D01*
X799143Y119992D01*
X799676Y120320D01*
X800218Y120636D01*
X800767Y120938D01*
X801323Y121226D01*
X801886Y121501D01*
X802455Y121762D01*
X803031Y122009D01*
X803613Y122242D01*
X804200Y122460D01*
X804793Y122664D01*
X805390Y122853D01*
X805992Y123027D01*
X806597Y123187D01*
X807207Y123332D01*
X807820Y123462D01*
X808436Y123576D01*
X809054Y123676D01*
X809675Y123760D01*
X810298Y123829D01*
X810922Y123883D01*
X811547Y123921D01*
X812174Y123944D01*
X812800Y123952D01*
X813426Y123944D01*
X814053Y123921D01*
X814678Y123883D01*
X815302Y123829D01*
X815925Y123760D01*
X816546Y123676D01*
X817164Y123576D01*
X817780Y123462D01*
X818393Y123332D01*
X819003Y123187D01*
X819608Y123027D01*
X820210Y122853D01*
X820807Y122664D01*
X821400Y122460D01*
X821987Y122242D01*
X822569Y122009D01*
X823145Y121762D01*
X823714Y121501D01*
X824277Y121226D01*
X824833Y120938D01*
X825382Y120636D01*
X825924Y120320D01*
X826457Y119992D01*
X826982Y119650D01*
X827499Y119295D01*
X828006Y118928D01*
X828505Y118549D01*
X828994Y118158D01*
X829474Y117754D01*
X829943Y117339D01*
X830402Y116913D01*
X830850Y116475D01*
X831288Y116027D01*
X831714Y115568D01*
X832129Y115099D01*
X832533Y114619D01*
X832924Y114130D01*
X833303Y113631D01*
X833670Y113124D01*
X834025Y112607D01*
X834367Y112082D01*
X834695Y111549D01*
X835011Y111007D01*
X835313Y110458D01*
X835601Y109902D01*
X835876Y109339D01*
X836137Y108770D01*
X836384Y108194D01*
X836617Y107612D01*
X836835Y107025D01*
X837039Y106432D01*
X837228Y105835D01*
X837402Y105233D01*
X837562Y104628D01*
X837707Y104018D01*
X837837Y103405D01*
X837951Y102789D01*
X838051Y102171D01*
X838135Y101550D01*
X838204Y100927D01*
X838258Y100303D01*
X838296Y99678D01*
X838319Y99051D01*
X838327Y98425D01*
X838319Y97799D01*
X838296Y97172D01*
X838258Y96547D01*
X838204Y95923D01*
X838135Y95300D01*
X838051Y94679D01*
X837951Y94061D01*
X837837Y93445D01*
X837707Y92832D01*
X837562Y92222D01*
X837402Y91617D01*
X837228Y91015D01*
X837039Y90418D01*
X836835Y89825D01*
X836617Y89238D01*
X836384Y88656D01*
X836137Y88080D01*
X835876Y87511D01*
X835601Y86948D01*
X835313Y86392D01*
X835011Y85843D01*
X834695Y85301D01*
X834367Y84768D01*
X834025Y84243D01*
X833670Y83726D01*
X833303Y83219D01*
X832924Y82720D01*
X832533Y82231D01*
X832129Y81751D01*
X831714Y81282D01*
X831288Y80823D01*
X830850Y80375D01*
X830402Y79937D01*
X829943Y79511D01*
X829474Y79096D01*
X828994Y78692D01*
X828505Y78301D01*
X828006Y77922D01*
X827499Y77555D01*
X826982Y77200D01*
X826457Y76858D01*
X825924Y76530D01*
X825382Y76214D01*
X824833Y75912D01*
X824277Y75624D01*
X823714Y75349D01*
X823145Y75088D01*
X822569Y74841D01*
X821987Y74608D01*
X821400Y74390D01*
X820807Y74186D01*
X820210Y73997D01*
X819608Y73823D01*
X819003Y73663D01*
X818393Y73518D01*
X817780Y73388D01*
X817164Y73274D01*
X816546Y73174D01*
X815925Y73090D01*
X815302Y73021D01*
X814678Y72967D01*
X814053Y72929D01*
X813426Y72906D01*
X812800Y72898D01*
X812174Y72906D01*
X811547Y72929D01*
X810922Y72967D01*
X810298Y73021D01*
X809675Y73090D01*
X809054Y73174D01*
X808436Y73274D01*
X807820Y73388D01*
X807207Y73518D01*
X806597Y73663D01*
X805992Y73823D01*
X805390Y73997D01*
X804793Y74186D01*
X804200Y74390D01*
X803613Y74608D01*
X803031Y74841D01*
X802455Y75088D01*
X801886Y75349D01*
X801323Y75624D01*
X800767Y75912D01*
X800218Y76214D01*
X799676Y76530D01*
X799143Y76858D01*
X798618Y77200D01*
X798101Y77555D01*
X797594Y77922D01*
X797095Y78301D01*
X796606Y78692D01*
X796126Y79096D01*
X795657Y79511D01*
X795198Y79937D01*
X794750Y80375D01*
X794312Y80823D01*
X793886Y81282D01*
X793471Y81751D01*
X793067Y82231D01*
X792676Y82720D01*
X792297Y83219D01*
X791930Y83726D01*
X791575Y84243D01*
X791233Y84768D01*
X790905Y85301D01*
X790589Y85843D01*
X790287Y86392D01*
X789999Y86948D01*
X789724Y87511D01*
X789463Y88080D01*
X789216Y88656D01*
X788983Y89238D01*
X788765Y89825D01*
X788561Y90418D01*
X788372Y91015D01*
X788198Y91617D01*
X788038Y92222D01*
X787893Y92832D01*
X787763Y93445D01*
X787649Y94061D01*
X787549Y94679D01*
X787465Y95300D01*
X787396Y95923D01*
X787342Y96547D01*
X787304Y97172D01*
X787281Y97799D01*
X787273Y98425D01*
X0Y171450D02*
X0Y25400D01*
X853440Y196850D02*
X854054Y196843D01*
X854667Y196820D01*
X855280Y196783D01*
X855891Y196731D01*
X856502Y196665D01*
X857110Y196583D01*
X857716Y196487D01*
X858320Y196377D01*
X858921Y196252D01*
X859519Y196112D01*
X860113Y195958D01*
X860703Y195789D01*
X861289Y195607D01*
X861870Y195410D01*
X862447Y195199D01*
X863018Y194975D01*
X863584Y194737D01*
X864144Y194485D01*
X864697Y194219D01*
X865244Y193941D01*
X865784Y193649D01*
X866317Y193344D01*
X866842Y193026D01*
X867360Y192696D01*
X867869Y192354D01*
X868370Y191999D01*
X868862Y191632D01*
X869345Y191254D01*
X869819Y190864D01*
X870283Y190462D01*
X870738Y190050D01*
X871182Y189626D01*
X871616Y189192D01*
X872040Y188748D01*
X872452Y188293D01*
X872854Y187829D01*
X873244Y187355D01*
X873622Y186872D01*
X873989Y186380D01*
X874344Y185879D01*
X874686Y185370D01*
X875016Y184852D01*
X875334Y184327D01*
X875639Y183794D01*
X875931Y183254D01*
X876209Y182707D01*
X876475Y182154D01*
X876727Y181594D01*
X876965Y181028D01*
X877189Y180457D01*
X877400Y179880D01*
X877597Y179299D01*
X877779Y178713D01*
X877948Y178123D01*
X878102Y177529D01*
X878242Y176931D01*
X878367Y176330D01*
X878477Y175726D01*
X878573Y175120D01*
X878655Y174512D01*
X878721Y173901D01*
X878773Y173290D01*
X878810Y172677D01*
X878833Y172064D01*
X878840Y171450D01*
X25400Y196850D02*
X24786Y196843D01*
X24173Y196820D01*
X23560Y196783D01*
X22949Y196731D01*
X22338Y196665D01*
X21730Y196583D01*
X21124Y196487D01*
X20520Y196377D01*
X19919Y196252D01*
X19321Y196112D01*
X18727Y195958D01*
X18137Y195789D01*
X17551Y195607D01*
X16970Y195410D01*
X16393Y195199D01*
X15822Y194975D01*
X15256Y194737D01*
X14696Y194485D01*
X14143Y194219D01*
X13596Y193941D01*
X13056Y193649D01*
X12523Y193344D01*
X11998Y193026D01*
X11480Y192696D01*
X10971Y192354D01*
X10470Y191999D01*
X9978Y191632D01*
X9495Y191254D01*
X9021Y190864D01*
X8557Y190462D01*
X8102Y190050D01*
X7658Y189626D01*
X7224Y189192D01*
X6800Y188748D01*
X6388Y188293D01*
X5986Y187829D01*
X5596Y187355D01*
X5218Y186872D01*
X4851Y186380D01*
X4496Y185879D01*
X4154Y185370D01*
X3824Y184852D01*
X3506Y184327D01*
X3201Y183794D01*
X2909Y183254D01*
X2631Y182707D01*
X2365Y182154D01*
X2113Y181594D01*
X1875Y181028D01*
X1651Y180457D01*
X1440Y179880D01*
X1243Y179299D01*
X1061Y178713D01*
X892Y178123D01*
X738Y177529D01*
X598Y176931D01*
X473Y176330D01*
X363Y175726D01*
X267Y175120D01*
X185Y174512D01*
X119Y173901D01*
X67Y173290D01*
X30Y172677D01*
X7Y172064D01*
X0Y171450D01*
X0Y25400D02*
X7Y24786D01*
X30Y24173D01*
X67Y23560D01*
X119Y22949D01*
X185Y22338D01*
X267Y21730D01*
X363Y21124D01*
X473Y20520D01*
X598Y19919D01*
X738Y19321D01*
X892Y18727D01*
X1061Y18137D01*
X1243Y17551D01*
X1440Y16970D01*
X1651Y16393D01*
X1875Y15822D01*
X2113Y15256D01*
X2365Y14696D01*
X2631Y14143D01*
X2909Y13596D01*
X3201Y13056D01*
X3506Y12523D01*
X3824Y11998D01*
X4154Y11480D01*
X4496Y10971D01*
X4851Y10470D01*
X5218Y9978D01*
X5596Y9495D01*
X5986Y9021D01*
X6388Y8557D01*
X6800Y8102D01*
X7224Y7658D01*
X7658Y7224D01*
X8102Y6800D01*
X8557Y6388D01*
X9021Y5986D01*
X9495Y5596D01*
X9978Y5218D01*
X10470Y4851D01*
X10971Y4496D01*
X11480Y4154D01*
X11998Y3824D01*
X12523Y3506D01*
X13056Y3201D01*
X13596Y2909D01*
X14143Y2631D01*
X14696Y2365D01*
X15256Y2113D01*
X15822Y1875D01*
X16393Y1651D01*
X16970Y1440D01*
X17551Y1243D01*
X18137Y1061D01*
X18727Y892D01*
X19321Y738D01*
X19919Y598D01*
X20520Y473D01*
X21124Y363D01*
X21730Y267D01*
X22338Y185D01*
X22949Y119D01*
X23560Y67D01*
X24173Y30D01*
X24786Y7D01*
X25400Y0D01*
X853440Y0D02*
X854054Y7D01*
X854667Y30D01*
X855280Y67D01*
X855891Y119D01*
X856502Y185D01*
X857110Y267D01*
X857716Y363D01*
X858320Y473D01*
X858921Y598D01*
X859519Y738D01*
X860113Y892D01*
X860703Y1061D01*
X861289Y1243D01*
X861870Y1440D01*
X862447Y1651D01*
X863018Y1875D01*
X863584Y2113D01*
X864144Y2365D01*
X864697Y2631D01*
X865244Y2909D01*
X865784Y3201D01*
X866317Y3506D01*
X866842Y3824D01*
X867360Y4154D01*
X867869Y4496D01*
X868370Y4851D01*
X868862Y5218D01*
X869345Y5596D01*
X869819Y5986D01*
X870283Y6388D01*
X870738Y6800D01*
X871182Y7224D01*
X871616Y7658D01*
X872040Y8102D01*
X872452Y8557D01*
X872854Y9021D01*
X873244Y9495D01*
X873622Y9978D01*
X873989Y10470D01*
X874344Y10971D01*
X874686Y11480D01*
X875016Y11998D01*
X875334Y12523D01*
X875639Y13056D01*
X875931Y13596D01*
X876209Y14143D01*
X876475Y14696D01*
X876727Y15256D01*
X876965Y15822D01*
X877189Y16393D01*
X877400Y16970D01*
X877597Y17551D01*
X877779Y18137D01*
X877948Y18727D01*
X878102Y19321D01*
X878242Y19919D01*
X878367Y20520D01*
X878477Y21124D01*
X878573Y21730D01*
X878655Y22338D01*
X878721Y22949D01*
X878773Y23560D01*
X878810Y24173D01*
X878833Y24786D01*
X878840Y25400D01*
D11*
X0Y25400D02*
X97Y23186D01*
X386Y20989D01*
X865Y18826D01*
X1532Y16713D01*
X2380Y14666D01*
X3403Y12700D01*
X4594Y10831D01*
X5942Y9073D01*
X7440Y7440D01*
X9073Y5942D01*
X10831Y4594D01*
X12700Y3403D01*
X14666Y2380D01*
X16713Y1532D01*
X18826Y865D01*
X20989Y386D01*
X23186Y97D01*
X25400Y0D01*
X853440Y0D01*
X855654Y97D01*
X857851Y386D01*
X860014Y865D01*
X862127Y1532D01*
X864175Y2380D01*
X866140Y3403D01*
X868009Y4594D01*
X869767Y5942D01*
X871401Y7440D01*
X872898Y9073D01*
X874246Y10831D01*
X875437Y12700D01*
X876460Y14666D01*
X877308Y16713D01*
X877975Y18826D01*
X878454Y20989D01*
X878743Y23186D01*
X878840Y25400D01*
X878840Y171450D01*
X878743Y173664D01*
X878454Y175861D01*
X877975Y178024D01*
X877308Y180137D01*
X876460Y182185D01*
X875437Y184150D01*
X874246Y186019D01*
X872898Y187777D01*
X871401Y189411D01*
X869767Y190908D01*
X868009Y192256D01*
X866140Y193447D01*
X864175Y194470D01*
X862127Y195318D01*
X860014Y195985D01*
X857851Y196464D01*
X855654Y196753D01*
X853440Y196850D01*
X25400Y196850D01*
X23186Y196753D01*
X20989Y196464D01*
X18826Y195985D01*
X16713Y195318D01*
X14666Y194470D01*
X12700Y193447D01*
X10831Y192256D01*
X9073Y190908D01*
X7440Y189411D01*
X5942Y187777D01*
X4594Y186019D01*
X3403Y184150D01*
X2380Y182185D01*
X1532Y180137D01*
X865Y178024D01*
X386Y175861D01*
X97Y173664D01*
X0Y171450D01*
X0Y25400D01*
X216027Y97757D02*
X215957Y96422D01*
X215817Y95092D01*
X215608Y93771D01*
X215330Y92464D01*
X214984Y91172D01*
X214571Y89901D01*
X214092Y88653D01*
X213548Y87432D01*
X212941Y86240D01*
X212273Y85083D01*
X211545Y83961D01*
X210759Y82880D01*
X209918Y81841D01*
X209023Y80847D01*
X208078Y79902D01*
X207084Y79007D01*
X206045Y78166D01*
X204964Y77380D01*
X203842Y76652D01*
X202685Y75984D01*
X201493Y75377D01*
X200272Y74833D01*
X199024Y74354D01*
X197753Y73941D01*
X196461Y73595D01*
X195154Y73317D01*
X193833Y73108D01*
X192504Y72968D01*
X191168Y72898D01*
X189832Y72898D01*
X188497Y72968D01*
X187167Y73108D01*
X185846Y73317D01*
X184539Y73595D01*
X183247Y73941D01*
X181976Y74354D01*
X180728Y74833D01*
X179507Y75377D01*
X178315Y75984D01*
X177158Y76652D01*
X176036Y77380D01*
X174955Y78166D01*
X173916Y79007D01*
X172922Y79902D01*
X171977Y80847D01*
X171082Y81841D01*
X170241Y82880D01*
X169455Y83961D01*
X168727Y85083D01*
X168059Y86240D01*
X167452Y87432D01*
X166908Y88653D01*
X166429Y89901D01*
X166016Y91172D01*
X165670Y92464D01*
X165392Y93771D01*
X165183Y95092D01*
X165043Y96422D01*
X164973Y97757D01*
X164973Y99093D01*
X165043Y100429D01*
X165183Y101758D01*
X165392Y103079D01*
X165670Y104386D01*
X166016Y105678D01*
X166429Y106949D01*
X166908Y108197D01*
X167452Y109418D01*
X168059Y110610D01*
X168727Y111767D01*
X169455Y112889D01*
X170241Y113970D01*
X171082Y115009D01*
X171977Y116003D01*
X172922Y116948D01*
X173916Y117843D01*
X174955Y118684D01*
X176036Y119470D01*
X177158Y120198D01*
X178315Y120866D01*
X179507Y121473D01*
X180728Y122017D01*
X181976Y122496D01*
X183247Y122909D01*
X184539Y123255D01*
X185846Y123533D01*
X187167Y123742D01*
X188497Y123882D01*
X189832Y123952D01*
X191168Y123952D01*
X192504Y123882D01*
X193833Y123742D01*
X195154Y123533D01*
X196461Y123255D01*
X197753Y122909D01*
X199024Y122496D01*
X200272Y122017D01*
X201493Y121473D01*
X202685Y120866D01*
X203842Y120198D01*
X204964Y119470D01*
X206045Y118684D01*
X207084Y117843D01*
X208078Y116948D01*
X209023Y116003D01*
X209918Y115009D01*
X210759Y113970D01*
X211545Y112889D01*
X212273Y111767D01*
X212941Y110610D01*
X213548Y109418D01*
X214092Y108197D01*
X214571Y106949D01*
X214984Y105678D01*
X215330Y104386D01*
X215608Y103079D01*
X215817Y101758D01*
X215957Y100429D01*
X216027Y99093D01*
X216027Y97757D01*
X838327Y97757D02*
X838257Y96422D01*
X838117Y95092D01*
X837908Y93771D01*
X837630Y92464D01*
X837284Y91172D01*
X836871Y89901D01*
X836392Y88653D01*
X835848Y87432D01*
X835241Y86240D01*
X834573Y85083D01*
X833845Y83961D01*
X833059Y82880D01*
X832218Y81841D01*
X831323Y80847D01*
X830378Y79902D01*
X829384Y79007D01*
X828345Y78166D01*
X827264Y77380D01*
X826142Y76652D01*
X824985Y75984D01*
X823793Y75377D01*
X822572Y74833D01*
X821324Y74354D01*
X820053Y73941D01*
X818761Y73595D01*
X817454Y73317D01*
X816133Y73108D01*
X814804Y72968D01*
X813468Y72898D01*
X812132Y72898D01*
X810797Y72968D01*
X809467Y73108D01*
X808146Y73317D01*
X806839Y73595D01*
X805547Y73941D01*
X804276Y74354D01*
X803028Y74833D01*
X801807Y75377D01*
X800615Y75984D01*
X799458Y76652D01*
X798336Y77380D01*
X797255Y78166D01*
X796216Y79007D01*
X795222Y79902D01*
X794277Y80847D01*
X793382Y81841D01*
X792541Y82880D01*
X791755Y83961D01*
X791027Y85083D01*
X790359Y86240D01*
X789752Y87432D01*
X789208Y88653D01*
X788729Y89901D01*
X788316Y91172D01*
X787970Y92464D01*
X787692Y93771D01*
X787483Y95092D01*
X787343Y96422D01*
X787273Y97757D01*
X787273Y99093D01*
X787343Y100429D01*
X787483Y101758D01*
X787692Y103079D01*
X787970Y104386D01*
X788316Y105678D01*
X788729Y106949D01*
X789208Y108197D01*
X789752Y109418D01*
X790359Y110610D01*
X791027Y111767D01*
X791755Y112889D01*
X792541Y113970D01*
X793382Y115009D01*
X794277Y116003D01*
X795222Y116948D01*
X796216Y117843D01*
X797255Y118684D01*
X798336Y119470D01*
X799458Y120198D01*
X800615Y120866D01*
X801807Y121473D01*
X803028Y122017D01*
X804276Y122496D01*
X805547Y122909D01*
X806839Y123255D01*
X808146Y123533D01*
X809467Y123742D01*
X810797Y123882D01*
X812132Y123952D01*
X813468Y123952D01*
X814804Y123882D01*
X816133Y123742D01*
X817454Y123533D01*
X818761Y123255D01*
X820053Y122909D01*
X821324Y122496D01*
X822572Y122017D01*
X823793Y121473D01*
X824985Y120866D01*
X826142Y120198D01*
X827264Y119470D01*
X828345Y118684D01*
X829384Y117843D01*
X830378Y116948D01*
X831323Y116003D01*
X832218Y115009D01*
X833059Y113970D01*
X833845Y112889D01*
X834573Y111767D01*
X835241Y110610D01*
X835848Y109418D01*
X836392Y108197D01*
X836871Y106949D01*
X837284Y105678D01*
X837630Y104386D01*
X837908Y103079D01*
X838117Y101758D01*
X838257Y100429D01*
X838327Y99093D01*
X838327Y97757D01*
M02*
