G04 EAGLE Gerber RS-274X export*
G75*
%MOMM*%
%FSLAX34Y34*%
%LPD*%
%INTop Copper*%
%IPPOS*%
%AMOC8*
5,1,8,0,0,1.08239X$1,22.5*%
G01*
%ADD10R,1.550000X2.350000*%
%ADD11C,1.508000*%
%ADD12R,0.800000X0.800000*%
%ADD13R,1.300000X1.500000*%
%ADD14R,1.500000X1.300000*%
%ADD15C,1.508000*%
%ADD16R,0.690000X0.990000*%
%ADD17R,1.125000X0.500000*%
%ADD18R,1.250000X0.600000*%
%ADD19R,0.600000X1.250000*%
%ADD20C,0.304800*%
%ADD21C,0.756400*%

G36*
X540534Y10164D02*
X540534Y10164D01*
X540553Y10162D01*
X540655Y10184D01*
X540757Y10200D01*
X540774Y10210D01*
X540794Y10214D01*
X540883Y10267D01*
X540974Y10316D01*
X540988Y10330D01*
X541005Y10340D01*
X541072Y10419D01*
X541144Y10494D01*
X541152Y10512D01*
X541165Y10527D01*
X541204Y10623D01*
X541247Y10717D01*
X541249Y10737D01*
X541257Y10755D01*
X541275Y10922D01*
X541275Y15240D01*
X541272Y15260D01*
X541274Y15279D01*
X541252Y15381D01*
X541236Y15483D01*
X541226Y15500D01*
X541222Y15520D01*
X541169Y15609D01*
X541120Y15700D01*
X541106Y15714D01*
X541096Y15731D01*
X541017Y15798D01*
X540942Y15870D01*
X540924Y15878D01*
X540909Y15891D01*
X540813Y15930D01*
X540719Y15973D01*
X540699Y15975D01*
X540681Y15983D01*
X540514Y16001D01*
X534486Y16001D01*
X534466Y15998D01*
X534447Y16000D01*
X534345Y15978D01*
X534243Y15962D01*
X534226Y15952D01*
X534206Y15948D01*
X534117Y15895D01*
X534026Y15846D01*
X534012Y15832D01*
X533995Y15822D01*
X533928Y15743D01*
X533856Y15668D01*
X533848Y15650D01*
X533835Y15635D01*
X533796Y15539D01*
X533753Y15445D01*
X533751Y15425D01*
X533743Y15407D01*
X533725Y15240D01*
X533725Y14418D01*
X532832Y13525D01*
X523568Y13525D01*
X522675Y14418D01*
X522675Y23682D01*
X523568Y24575D01*
X532832Y24575D01*
X533725Y23682D01*
X533725Y22860D01*
X533728Y22840D01*
X533726Y22821D01*
X533748Y22719D01*
X533764Y22617D01*
X533774Y22600D01*
X533778Y22580D01*
X533831Y22491D01*
X533880Y22400D01*
X533894Y22386D01*
X533904Y22369D01*
X533983Y22302D01*
X534058Y22230D01*
X534076Y22222D01*
X534091Y22209D01*
X534187Y22170D01*
X534281Y22127D01*
X534301Y22125D01*
X534319Y22117D01*
X534486Y22099D01*
X540514Y22099D01*
X540534Y22102D01*
X540553Y22100D01*
X540655Y22122D01*
X540757Y22138D01*
X540774Y22148D01*
X540794Y22152D01*
X540883Y22205D01*
X540974Y22254D01*
X540988Y22268D01*
X541005Y22278D01*
X541072Y22357D01*
X541144Y22432D01*
X541152Y22450D01*
X541165Y22465D01*
X541204Y22561D01*
X541247Y22655D01*
X541249Y22675D01*
X541257Y22693D01*
X541275Y22860D01*
X541275Y27182D01*
X542168Y28075D01*
X556432Y28075D01*
X557325Y27182D01*
X557325Y10922D01*
X557328Y10902D01*
X557326Y10883D01*
X557348Y10781D01*
X557364Y10679D01*
X557374Y10662D01*
X557378Y10642D01*
X557431Y10553D01*
X557480Y10462D01*
X557494Y10448D01*
X557504Y10431D01*
X557583Y10364D01*
X557658Y10292D01*
X557676Y10284D01*
X557691Y10271D01*
X557787Y10232D01*
X557881Y10189D01*
X557901Y10187D01*
X557919Y10179D01*
X558086Y10161D01*
X559514Y10161D01*
X559534Y10164D01*
X559553Y10162D01*
X559655Y10184D01*
X559757Y10200D01*
X559774Y10210D01*
X559794Y10214D01*
X559883Y10267D01*
X559974Y10316D01*
X559988Y10330D01*
X560005Y10340D01*
X560072Y10419D01*
X560144Y10494D01*
X560152Y10512D01*
X560165Y10527D01*
X560204Y10623D01*
X560247Y10717D01*
X560249Y10737D01*
X560257Y10755D01*
X560275Y10922D01*
X560275Y27182D01*
X561168Y28075D01*
X561677Y28075D01*
X561748Y28086D01*
X561819Y28088D01*
X561868Y28106D01*
X561920Y28114D01*
X561983Y28148D01*
X562050Y28173D01*
X562091Y28205D01*
X562137Y28230D01*
X562186Y28282D01*
X562242Y28326D01*
X562271Y28370D01*
X562306Y28408D01*
X562337Y28473D01*
X562375Y28533D01*
X562388Y28584D01*
X562410Y28631D01*
X562418Y28702D01*
X562435Y28772D01*
X562431Y28824D01*
X562437Y28875D01*
X562422Y28946D01*
X562416Y29017D01*
X562396Y29065D01*
X562385Y29116D01*
X562348Y29177D01*
X562320Y29243D01*
X562275Y29299D01*
X562259Y29327D01*
X562241Y29342D01*
X562215Y29374D01*
X558951Y32638D01*
X558951Y34664D01*
X558948Y34684D01*
X558950Y34703D01*
X558928Y34805D01*
X558912Y34907D01*
X558902Y34924D01*
X558898Y34944D01*
X558845Y35033D01*
X558796Y35124D01*
X558782Y35138D01*
X558772Y35155D01*
X558693Y35222D01*
X558618Y35294D01*
X558600Y35302D01*
X558585Y35315D01*
X558489Y35354D01*
X558395Y35397D01*
X558375Y35399D01*
X558357Y35407D01*
X558190Y35425D01*
X554868Y35425D01*
X553975Y36318D01*
X553975Y41473D01*
X553961Y41563D01*
X553953Y41654D01*
X553941Y41684D01*
X553936Y41716D01*
X553893Y41796D01*
X553857Y41880D01*
X553831Y41912D01*
X553820Y41933D01*
X553797Y41955D01*
X553752Y42011D01*
X544143Y51620D01*
X544069Y51673D01*
X544000Y51733D01*
X543970Y51745D01*
X543943Y51764D01*
X543856Y51791D01*
X543772Y51825D01*
X543731Y51829D01*
X543708Y51836D01*
X543676Y51835D01*
X543605Y51843D01*
X540727Y51843D01*
X537618Y54952D01*
X537618Y59348D01*
X540727Y62457D01*
X543605Y62457D01*
X543695Y62471D01*
X543786Y62479D01*
X543816Y62491D01*
X543848Y62496D01*
X543928Y62539D01*
X544012Y62575D01*
X544044Y62601D01*
X544065Y62612D01*
X544087Y62635D01*
X544143Y62680D01*
X545879Y64416D01*
X545932Y64490D01*
X545992Y64559D01*
X546004Y64589D01*
X546023Y64616D01*
X546050Y64703D01*
X546084Y64787D01*
X546088Y64828D01*
X546095Y64851D01*
X546094Y64883D01*
X546102Y64954D01*
X546102Y96813D01*
X551063Y101774D01*
X557352Y101774D01*
X557442Y101788D01*
X557533Y101796D01*
X557563Y101808D01*
X557595Y101813D01*
X557675Y101856D01*
X557760Y101892D01*
X557792Y101918D01*
X557812Y101929D01*
X557834Y101952D01*
X557890Y101997D01*
X557918Y102025D01*
X566082Y102025D01*
X566975Y101132D01*
X566975Y89968D01*
X566082Y89075D01*
X557918Y89075D01*
X557025Y89968D01*
X557025Y94915D01*
X557022Y94935D01*
X557024Y94954D01*
X557002Y95056D01*
X556986Y95158D01*
X556976Y95175D01*
X556972Y95195D01*
X556919Y95284D01*
X556870Y95375D01*
X556856Y95389D01*
X556846Y95406D01*
X556767Y95473D01*
X556692Y95545D01*
X556674Y95553D01*
X556659Y95566D01*
X556563Y95605D01*
X556469Y95648D01*
X556449Y95650D01*
X556431Y95658D01*
X556264Y95676D01*
X553904Y95676D01*
X553814Y95662D01*
X553723Y95654D01*
X553693Y95642D01*
X553661Y95637D01*
X553581Y95594D01*
X553497Y95558D01*
X553465Y95532D01*
X553444Y95521D01*
X553422Y95498D01*
X553366Y95453D01*
X552423Y94510D01*
X552370Y94436D01*
X552310Y94367D01*
X552298Y94337D01*
X552279Y94310D01*
X552252Y94223D01*
X552218Y94139D01*
X552214Y94098D01*
X552207Y94075D01*
X552208Y94043D01*
X552200Y93972D01*
X552200Y62113D01*
X548455Y58368D01*
X548402Y58294D01*
X548342Y58225D01*
X548330Y58195D01*
X548311Y58168D01*
X548284Y58081D01*
X548250Y57997D01*
X548246Y57956D01*
X548239Y57933D01*
X548240Y57901D01*
X548232Y57830D01*
X548232Y56470D01*
X548246Y56380D01*
X548254Y56289D01*
X548266Y56259D01*
X548271Y56227D01*
X548314Y56147D01*
X548350Y56063D01*
X548376Y56031D01*
X548387Y56010D01*
X548410Y55988D01*
X548455Y55932D01*
X552676Y51711D01*
X552734Y51669D01*
X552786Y51620D01*
X552833Y51598D01*
X552875Y51567D01*
X552944Y51546D01*
X553009Y51516D01*
X553061Y51510D01*
X553111Y51495D01*
X553182Y51497D01*
X553253Y51489D01*
X553304Y51500D01*
X553356Y51501D01*
X553424Y51526D01*
X553494Y51541D01*
X553539Y51568D01*
X553587Y51586D01*
X553643Y51631D01*
X553705Y51667D01*
X553739Y51707D01*
X553779Y51739D01*
X553818Y51800D01*
X553865Y51854D01*
X553884Y51903D01*
X553912Y51946D01*
X553930Y52016D01*
X553957Y52082D01*
X553965Y52154D01*
X553973Y52185D01*
X553971Y52208D01*
X553975Y52249D01*
X553975Y52582D01*
X554868Y53475D01*
X569132Y53475D01*
X570025Y52582D01*
X570025Y36318D01*
X569132Y35425D01*
X566625Y35425D01*
X566554Y35414D01*
X566483Y35412D01*
X566434Y35394D01*
X566382Y35386D01*
X566319Y35352D01*
X566252Y35327D01*
X566211Y35295D01*
X566165Y35270D01*
X566116Y35218D01*
X566060Y35174D01*
X566031Y35130D01*
X565996Y35092D01*
X565965Y35027D01*
X565927Y34967D01*
X565914Y34916D01*
X565892Y34869D01*
X565884Y34798D01*
X565867Y34728D01*
X565871Y34676D01*
X565865Y34625D01*
X565880Y34554D01*
X565886Y34483D01*
X565906Y34435D01*
X565917Y34384D01*
X565954Y34323D01*
X565982Y34257D01*
X566027Y34201D01*
X566043Y34173D01*
X566061Y34158D01*
X566087Y34126D01*
X571349Y28864D01*
X571349Y28836D01*
X571352Y28816D01*
X571350Y28797D01*
X571372Y28695D01*
X571388Y28593D01*
X571398Y28576D01*
X571402Y28556D01*
X571455Y28467D01*
X571504Y28376D01*
X571518Y28362D01*
X571528Y28345D01*
X571607Y28278D01*
X571682Y28206D01*
X571700Y28198D01*
X571715Y28185D01*
X571811Y28146D01*
X571905Y28103D01*
X571925Y28101D01*
X571943Y28093D01*
X572110Y28075D01*
X575432Y28075D01*
X576325Y27182D01*
X576325Y10922D01*
X576328Y10902D01*
X576326Y10883D01*
X576348Y10781D01*
X576364Y10679D01*
X576374Y10662D01*
X576378Y10642D01*
X576431Y10553D01*
X576480Y10462D01*
X576494Y10448D01*
X576504Y10431D01*
X576583Y10364D01*
X576658Y10292D01*
X576676Y10284D01*
X576691Y10271D01*
X576787Y10232D01*
X576881Y10189D01*
X576901Y10187D01*
X576919Y10179D01*
X577086Y10161D01*
X654814Y10161D01*
X654834Y10164D01*
X654853Y10162D01*
X654955Y10184D01*
X655057Y10200D01*
X655074Y10210D01*
X655094Y10214D01*
X655183Y10267D01*
X655274Y10316D01*
X655288Y10330D01*
X655305Y10340D01*
X655372Y10419D01*
X655444Y10494D01*
X655452Y10512D01*
X655465Y10527D01*
X655504Y10623D01*
X655547Y10717D01*
X655549Y10737D01*
X655557Y10755D01*
X655575Y10922D01*
X655575Y15240D01*
X655572Y15260D01*
X655574Y15279D01*
X655552Y15381D01*
X655536Y15483D01*
X655526Y15500D01*
X655522Y15520D01*
X655469Y15609D01*
X655420Y15700D01*
X655406Y15714D01*
X655396Y15731D01*
X655317Y15798D01*
X655242Y15870D01*
X655224Y15878D01*
X655209Y15891D01*
X655113Y15930D01*
X655019Y15973D01*
X654999Y15975D01*
X654981Y15983D01*
X654814Y16001D01*
X648786Y16001D01*
X648766Y15998D01*
X648747Y16000D01*
X648645Y15978D01*
X648543Y15962D01*
X648526Y15952D01*
X648506Y15948D01*
X648417Y15895D01*
X648326Y15846D01*
X648312Y15832D01*
X648295Y15822D01*
X648228Y15743D01*
X648156Y15668D01*
X648148Y15650D01*
X648135Y15635D01*
X648096Y15539D01*
X648053Y15445D01*
X648051Y15425D01*
X648043Y15407D01*
X648025Y15240D01*
X648025Y14418D01*
X647132Y13525D01*
X637868Y13525D01*
X636975Y14418D01*
X636975Y23682D01*
X637868Y24575D01*
X647132Y24575D01*
X648025Y23682D01*
X648025Y22860D01*
X648028Y22840D01*
X648026Y22821D01*
X648048Y22719D01*
X648064Y22617D01*
X648074Y22600D01*
X648078Y22580D01*
X648131Y22491D01*
X648180Y22400D01*
X648194Y22386D01*
X648204Y22369D01*
X648283Y22302D01*
X648358Y22230D01*
X648376Y22222D01*
X648391Y22209D01*
X648487Y22170D01*
X648581Y22127D01*
X648601Y22125D01*
X648619Y22117D01*
X648786Y22099D01*
X654814Y22099D01*
X654834Y22102D01*
X654853Y22100D01*
X654955Y22122D01*
X655057Y22138D01*
X655074Y22148D01*
X655094Y22152D01*
X655183Y22205D01*
X655274Y22254D01*
X655288Y22268D01*
X655305Y22278D01*
X655372Y22357D01*
X655444Y22432D01*
X655452Y22450D01*
X655465Y22465D01*
X655504Y22561D01*
X655547Y22655D01*
X655549Y22675D01*
X655557Y22693D01*
X655575Y22860D01*
X655575Y27182D01*
X656468Y28075D01*
X670732Y28075D01*
X671625Y27182D01*
X671625Y10922D01*
X671628Y10902D01*
X671626Y10883D01*
X671648Y10781D01*
X671664Y10679D01*
X671674Y10662D01*
X671678Y10642D01*
X671731Y10553D01*
X671780Y10462D01*
X671794Y10448D01*
X671804Y10431D01*
X671883Y10364D01*
X671958Y10292D01*
X671976Y10284D01*
X671991Y10271D01*
X672087Y10232D01*
X672181Y10189D01*
X672201Y10187D01*
X672219Y10179D01*
X672386Y10161D01*
X673814Y10161D01*
X673834Y10164D01*
X673853Y10162D01*
X673955Y10184D01*
X674057Y10200D01*
X674074Y10210D01*
X674094Y10214D01*
X674183Y10267D01*
X674274Y10316D01*
X674288Y10330D01*
X674305Y10340D01*
X674372Y10419D01*
X674444Y10494D01*
X674452Y10512D01*
X674465Y10527D01*
X674504Y10623D01*
X674547Y10717D01*
X674549Y10737D01*
X674557Y10755D01*
X674575Y10922D01*
X674575Y27182D01*
X675468Y28075D01*
X678790Y28075D01*
X678810Y28078D01*
X678829Y28076D01*
X678931Y28098D01*
X679033Y28114D01*
X679050Y28124D01*
X679070Y28128D01*
X679159Y28181D01*
X679250Y28230D01*
X679264Y28244D01*
X679281Y28254D01*
X679348Y28333D01*
X679420Y28408D01*
X679428Y28426D01*
X679441Y28441D01*
X679480Y28537D01*
X679523Y28631D01*
X679525Y28651D01*
X679533Y28669D01*
X679551Y28836D01*
X679551Y39338D01*
X681560Y41347D01*
X688878Y48665D01*
X688931Y48739D01*
X688991Y48808D01*
X689003Y48838D01*
X689022Y48865D01*
X689049Y48952D01*
X689083Y49036D01*
X689087Y49077D01*
X689094Y49100D01*
X689093Y49132D01*
X689101Y49203D01*
X689101Y83813D01*
X691110Y85822D01*
X707928Y102640D01*
X707981Y102714D01*
X708041Y102783D01*
X708053Y102813D01*
X708072Y102840D01*
X708099Y102927D01*
X708133Y103011D01*
X708137Y103052D01*
X708144Y103075D01*
X708143Y103107D01*
X708151Y103178D01*
X708151Y104053D01*
X708132Y104167D01*
X708115Y104284D01*
X708113Y104289D01*
X708112Y104295D01*
X708057Y104398D01*
X708004Y104503D01*
X707999Y104507D01*
X707996Y104513D01*
X707912Y104593D01*
X707828Y104675D01*
X707822Y104679D01*
X707818Y104682D01*
X707801Y104690D01*
X707681Y104756D01*
X706065Y105425D01*
X703515Y107975D01*
X702135Y111307D01*
X702135Y129993D01*
X703515Y133325D01*
X706065Y135875D01*
X709397Y137255D01*
X713003Y137255D01*
X716335Y135875D01*
X718885Y133325D01*
X720265Y129993D01*
X720265Y111307D01*
X718885Y107975D01*
X716335Y105425D01*
X714719Y104756D01*
X714619Y104694D01*
X714519Y104634D01*
X714515Y104630D01*
X714510Y104626D01*
X714435Y104536D01*
X714359Y104447D01*
X714357Y104442D01*
X714353Y104437D01*
X714311Y104328D01*
X714267Y104219D01*
X714266Y104212D01*
X714265Y104207D01*
X714264Y104189D01*
X714249Y104053D01*
X714249Y100337D01*
X712240Y98328D01*
X695422Y81510D01*
X695369Y81436D01*
X695309Y81367D01*
X695297Y81337D01*
X695278Y81310D01*
X695251Y81223D01*
X695217Y81139D01*
X695213Y81098D01*
X695206Y81075D01*
X695207Y81043D01*
X695199Y80972D01*
X695199Y46362D01*
X693190Y44353D01*
X685872Y37035D01*
X685819Y36961D01*
X685759Y36892D01*
X685747Y36862D01*
X685728Y36835D01*
X685701Y36748D01*
X685667Y36664D01*
X685663Y36623D01*
X685656Y36600D01*
X685657Y36568D01*
X685649Y36497D01*
X685649Y28836D01*
X685652Y28816D01*
X685650Y28797D01*
X685672Y28695D01*
X685688Y28593D01*
X685698Y28576D01*
X685702Y28556D01*
X685755Y28467D01*
X685804Y28376D01*
X685818Y28362D01*
X685828Y28345D01*
X685907Y28278D01*
X685982Y28206D01*
X686000Y28198D01*
X686015Y28185D01*
X686111Y28146D01*
X686205Y28103D01*
X686225Y28101D01*
X686243Y28093D01*
X686410Y28075D01*
X689732Y28075D01*
X690625Y27182D01*
X690625Y10922D01*
X690628Y10902D01*
X690626Y10883D01*
X690648Y10781D01*
X690664Y10679D01*
X690674Y10662D01*
X690678Y10642D01*
X690731Y10553D01*
X690780Y10462D01*
X690794Y10448D01*
X690804Y10431D01*
X690883Y10364D01*
X690958Y10292D01*
X690976Y10284D01*
X690991Y10271D01*
X691087Y10232D01*
X691181Y10189D01*
X691201Y10187D01*
X691219Y10179D01*
X691386Y10161D01*
X853440Y10161D01*
X853458Y10164D01*
X853490Y10162D01*
X855380Y10286D01*
X855403Y10292D01*
X855527Y10311D01*
X859178Y11289D01*
X859192Y11295D01*
X859207Y11297D01*
X859361Y11365D01*
X862634Y13255D01*
X862647Y13265D01*
X862661Y13271D01*
X862792Y13376D01*
X865464Y16048D01*
X865474Y16061D01*
X865486Y16071D01*
X865585Y16206D01*
X867475Y19479D01*
X867481Y19494D01*
X867490Y19506D01*
X867551Y19662D01*
X868529Y23313D01*
X868532Y23337D01*
X868554Y23460D01*
X868678Y25350D01*
X868676Y25369D01*
X868679Y25400D01*
X868679Y171450D01*
X868676Y171468D01*
X868678Y171500D01*
X868554Y173390D01*
X868548Y173413D01*
X868529Y173537D01*
X867551Y177188D01*
X867545Y177202D01*
X867543Y177217D01*
X867475Y177371D01*
X865585Y180644D01*
X865575Y180656D01*
X865569Y180671D01*
X865464Y180802D01*
X862792Y183474D01*
X862779Y183484D01*
X862769Y183496D01*
X862634Y183595D01*
X859361Y185485D01*
X859346Y185491D01*
X859334Y185500D01*
X859178Y185561D01*
X855527Y186539D01*
X855503Y186542D01*
X855380Y186564D01*
X853490Y186688D01*
X853471Y186686D01*
X853440Y186689D01*
X25400Y186689D01*
X25382Y186686D01*
X25350Y186688D01*
X23460Y186564D01*
X23437Y186558D01*
X23313Y186539D01*
X19662Y185561D01*
X19648Y185555D01*
X19633Y185553D01*
X19479Y185485D01*
X16206Y183595D01*
X16194Y183585D01*
X16179Y183579D01*
X16048Y183474D01*
X13376Y180802D01*
X13366Y180789D01*
X13354Y180779D01*
X13255Y180644D01*
X11365Y177371D01*
X11359Y177356D01*
X11350Y177344D01*
X11289Y177188D01*
X10311Y173537D01*
X10308Y173513D01*
X10286Y173390D01*
X10162Y171500D01*
X10164Y171481D01*
X10161Y171450D01*
X10161Y157286D01*
X10172Y157215D01*
X10174Y157144D01*
X10192Y157095D01*
X10200Y157043D01*
X10234Y156980D01*
X10259Y156913D01*
X10291Y156872D01*
X10316Y156826D01*
X10368Y156777D01*
X10412Y156721D01*
X10456Y156692D01*
X10494Y156657D01*
X10559Y156626D01*
X10619Y156588D01*
X10670Y156575D01*
X10717Y156553D01*
X10788Y156545D01*
X10858Y156528D01*
X10910Y156532D01*
X10961Y156526D01*
X11032Y156541D01*
X11103Y156547D01*
X11151Y156567D01*
X11202Y156578D01*
X11263Y156615D01*
X11329Y156643D01*
X11385Y156688D01*
X11413Y156704D01*
X11428Y156722D01*
X11460Y156748D01*
X19602Y164890D01*
X19655Y164964D01*
X19715Y165033D01*
X19727Y165063D01*
X19746Y165090D01*
X19773Y165177D01*
X19807Y165261D01*
X19811Y165302D01*
X19818Y165325D01*
X19817Y165357D01*
X19825Y165428D01*
X19825Y168732D01*
X20718Y169625D01*
X34482Y169625D01*
X35375Y168732D01*
X35375Y161468D01*
X34482Y160575D01*
X24226Y160575D01*
X24136Y160561D01*
X24045Y160553D01*
X24015Y160541D01*
X23983Y160536D01*
X23903Y160493D01*
X23819Y160457D01*
X23787Y160431D01*
X23766Y160420D01*
X23744Y160397D01*
X23688Y160352D01*
X15582Y152246D01*
X15529Y152172D01*
X15469Y152103D01*
X15457Y152073D01*
X15438Y152046D01*
X15411Y151959D01*
X15377Y151875D01*
X15373Y151834D01*
X15366Y151811D01*
X15367Y151779D01*
X15359Y151708D01*
X15359Y110163D01*
X15370Y110092D01*
X15372Y110020D01*
X15390Y109971D01*
X15398Y109920D01*
X15432Y109857D01*
X15457Y109789D01*
X15489Y109749D01*
X15514Y109703D01*
X15566Y109653D01*
X15610Y109597D01*
X15654Y109569D01*
X15692Y109533D01*
X15757Y109503D01*
X15817Y109464D01*
X15868Y109452D01*
X15915Y109430D01*
X15986Y109422D01*
X16056Y109404D01*
X16108Y109408D01*
X16159Y109403D01*
X16230Y109418D01*
X16301Y109423D01*
X16349Y109444D01*
X16400Y109455D01*
X16461Y109492D01*
X16527Y109520D01*
X16583Y109565D01*
X16611Y109581D01*
X16626Y109599D01*
X16658Y109625D01*
X17268Y110235D01*
X28798Y110235D01*
X28888Y110249D01*
X28979Y110257D01*
X29009Y110269D01*
X29041Y110274D01*
X29121Y110317D01*
X29205Y110353D01*
X29237Y110379D01*
X29258Y110390D01*
X29280Y110413D01*
X29336Y110458D01*
X29877Y110999D01*
X39363Y110999D01*
X44324Y106038D01*
X44324Y39678D01*
X44338Y39588D01*
X44346Y39497D01*
X44358Y39467D01*
X44363Y39435D01*
X44406Y39355D01*
X44442Y39271D01*
X44468Y39239D01*
X44479Y39218D01*
X44502Y39196D01*
X44547Y39140D01*
X46435Y37252D01*
X46509Y37199D01*
X46578Y37139D01*
X46608Y37127D01*
X46635Y37108D01*
X46722Y37081D01*
X46806Y37047D01*
X46847Y37043D01*
X46870Y37036D01*
X46902Y37037D01*
X46973Y37029D01*
X325429Y37029D01*
X325519Y37043D01*
X325610Y37051D01*
X325639Y37063D01*
X325671Y37068D01*
X325752Y37111D01*
X325836Y37147D01*
X325868Y37173D01*
X325889Y37184D01*
X325911Y37207D01*
X325967Y37252D01*
X328002Y39287D01*
X332398Y39287D01*
X335507Y36178D01*
X335507Y31782D01*
X332398Y28673D01*
X328002Y28673D01*
X325967Y30708D01*
X325893Y30761D01*
X325823Y30821D01*
X325793Y30833D01*
X325767Y30852D01*
X325680Y30879D01*
X325595Y30913D01*
X325554Y30917D01*
X325532Y30924D01*
X325500Y30923D01*
X325429Y30931D01*
X44132Y30931D01*
X38226Y36837D01*
X38226Y103197D01*
X38212Y103287D01*
X38204Y103378D01*
X38192Y103408D01*
X38187Y103440D01*
X38144Y103520D01*
X38108Y103604D01*
X38082Y103636D01*
X38071Y103657D01*
X38048Y103679D01*
X38003Y103735D01*
X37060Y104678D01*
X36986Y104731D01*
X36917Y104791D01*
X36887Y104803D01*
X36860Y104822D01*
X36773Y104849D01*
X36689Y104883D01*
X36648Y104887D01*
X36625Y104894D01*
X36593Y104893D01*
X36522Y104901D01*
X35186Y104901D01*
X35166Y104898D01*
X35147Y104900D01*
X35045Y104878D01*
X34943Y104862D01*
X34926Y104852D01*
X34906Y104848D01*
X34817Y104795D01*
X34726Y104746D01*
X34712Y104732D01*
X34695Y104722D01*
X34628Y104643D01*
X34556Y104568D01*
X34548Y104550D01*
X34535Y104535D01*
X34496Y104439D01*
X34453Y104345D01*
X34451Y104325D01*
X34443Y104307D01*
X34425Y104140D01*
X34425Y95078D01*
X33532Y94185D01*
X17268Y94185D01*
X16658Y94795D01*
X16600Y94837D01*
X16548Y94887D01*
X16501Y94909D01*
X16459Y94939D01*
X16390Y94960D01*
X16325Y94990D01*
X16273Y94996D01*
X16223Y95011D01*
X16152Y95009D01*
X16081Y95017D01*
X16030Y95006D01*
X15978Y95005D01*
X15910Y94980D01*
X15840Y94965D01*
X15795Y94938D01*
X15747Y94921D01*
X15691Y94876D01*
X15629Y94839D01*
X15595Y94799D01*
X15555Y94767D01*
X15516Y94707D01*
X15469Y94652D01*
X15450Y94604D01*
X15422Y94560D01*
X15404Y94490D01*
X15377Y94424D01*
X15369Y94353D01*
X15361Y94321D01*
X15363Y94298D01*
X15359Y94257D01*
X15359Y91163D01*
X15370Y91092D01*
X15372Y91020D01*
X15390Y90971D01*
X15398Y90920D01*
X15432Y90857D01*
X15457Y90789D01*
X15489Y90749D01*
X15514Y90703D01*
X15566Y90653D01*
X15610Y90597D01*
X15654Y90569D01*
X15692Y90533D01*
X15757Y90503D01*
X15817Y90464D01*
X15868Y90452D01*
X15915Y90430D01*
X15986Y90422D01*
X16056Y90404D01*
X16108Y90408D01*
X16159Y90403D01*
X16230Y90418D01*
X16301Y90423D01*
X16349Y90444D01*
X16400Y90455D01*
X16461Y90492D01*
X16527Y90520D01*
X16583Y90565D01*
X16611Y90581D01*
X16626Y90599D01*
X16658Y90625D01*
X17268Y91235D01*
X33532Y91235D01*
X34425Y90342D01*
X34425Y76078D01*
X33532Y75185D01*
X29210Y75185D01*
X29190Y75182D01*
X29171Y75184D01*
X29069Y75162D01*
X28967Y75146D01*
X28950Y75136D01*
X28930Y75132D01*
X28841Y75079D01*
X28750Y75030D01*
X28736Y75016D01*
X28719Y75006D01*
X28652Y74927D01*
X28580Y74852D01*
X28572Y74834D01*
X28559Y74819D01*
X28520Y74723D01*
X28477Y74629D01*
X28475Y74609D01*
X28467Y74591D01*
X28449Y74424D01*
X28449Y67126D01*
X28452Y67106D01*
X28450Y67087D01*
X28472Y66985D01*
X28488Y66883D01*
X28498Y66866D01*
X28502Y66846D01*
X28555Y66757D01*
X28604Y66666D01*
X28618Y66652D01*
X28628Y66635D01*
X28707Y66568D01*
X28782Y66496D01*
X28800Y66488D01*
X28815Y66475D01*
X28911Y66436D01*
X29005Y66393D01*
X29025Y66391D01*
X29043Y66383D01*
X29210Y66365D01*
X30032Y66365D01*
X30925Y65472D01*
X30925Y56208D01*
X30032Y55315D01*
X20768Y55315D01*
X19875Y56208D01*
X19875Y65472D01*
X20768Y66365D01*
X21590Y66365D01*
X21610Y66368D01*
X21629Y66366D01*
X21731Y66388D01*
X21833Y66404D01*
X21850Y66414D01*
X21870Y66418D01*
X21959Y66471D01*
X22050Y66520D01*
X22064Y66534D01*
X22081Y66544D01*
X22148Y66623D01*
X22220Y66698D01*
X22228Y66716D01*
X22241Y66731D01*
X22280Y66827D01*
X22323Y66921D01*
X22325Y66941D01*
X22333Y66959D01*
X22351Y67126D01*
X22351Y74424D01*
X22348Y74444D01*
X22350Y74463D01*
X22328Y74565D01*
X22312Y74667D01*
X22302Y74684D01*
X22298Y74704D01*
X22245Y74793D01*
X22196Y74884D01*
X22182Y74898D01*
X22172Y74915D01*
X22093Y74982D01*
X22018Y75054D01*
X22000Y75062D01*
X21985Y75075D01*
X21889Y75114D01*
X21795Y75157D01*
X21775Y75159D01*
X21757Y75167D01*
X21590Y75185D01*
X17268Y75185D01*
X16658Y75795D01*
X16600Y75837D01*
X16548Y75887D01*
X16501Y75909D01*
X16459Y75939D01*
X16390Y75960D01*
X16325Y75990D01*
X16273Y75996D01*
X16223Y76011D01*
X16152Y76009D01*
X16081Y76017D01*
X16030Y76006D01*
X15978Y76005D01*
X15910Y75980D01*
X15840Y75965D01*
X15795Y75938D01*
X15747Y75921D01*
X15691Y75876D01*
X15629Y75839D01*
X15595Y75799D01*
X15555Y75767D01*
X15516Y75707D01*
X15469Y75652D01*
X15450Y75604D01*
X15422Y75560D01*
X15404Y75490D01*
X15377Y75424D01*
X15369Y75353D01*
X15361Y75321D01*
X15363Y75298D01*
X15359Y75257D01*
X15359Y41973D01*
X15373Y41883D01*
X15381Y41792D01*
X15393Y41762D01*
X15398Y41730D01*
X15441Y41650D01*
X15477Y41566D01*
X15503Y41534D01*
X15514Y41513D01*
X15537Y41491D01*
X15582Y41435D01*
X16280Y40737D01*
X16354Y40684D01*
X16423Y40624D01*
X16453Y40612D01*
X16480Y40593D01*
X16567Y40566D01*
X16651Y40532D01*
X16692Y40528D01*
X16715Y40521D01*
X16747Y40522D01*
X16818Y40514D01*
X19114Y40514D01*
X19134Y40517D01*
X19153Y40515D01*
X19255Y40537D01*
X19357Y40553D01*
X19374Y40563D01*
X19394Y40567D01*
X19483Y40620D01*
X19574Y40669D01*
X19588Y40683D01*
X19605Y40693D01*
X19672Y40772D01*
X19744Y40847D01*
X19752Y40865D01*
X19765Y40880D01*
X19804Y40976D01*
X19847Y41070D01*
X19849Y41090D01*
X19857Y41108D01*
X19875Y41275D01*
X19875Y50472D01*
X20768Y51365D01*
X30032Y51365D01*
X30925Y50472D01*
X30925Y41208D01*
X30032Y40315D01*
X29210Y40315D01*
X29190Y40312D01*
X29171Y40314D01*
X29069Y40292D01*
X28967Y40276D01*
X28950Y40266D01*
X28930Y40262D01*
X28841Y40209D01*
X28750Y40160D01*
X28736Y40146D01*
X28719Y40136D01*
X28652Y40057D01*
X28580Y39982D01*
X28572Y39964D01*
X28559Y39949D01*
X28520Y39853D01*
X28477Y39759D01*
X28475Y39739D01*
X28467Y39721D01*
X28449Y39554D01*
X28449Y38227D01*
X24638Y34416D01*
X13977Y34416D01*
X11968Y36425D01*
X11460Y36933D01*
X11402Y36975D01*
X11350Y37024D01*
X11303Y37046D01*
X11261Y37077D01*
X11192Y37098D01*
X11127Y37128D01*
X11075Y37134D01*
X11025Y37149D01*
X10954Y37147D01*
X10883Y37155D01*
X10832Y37144D01*
X10780Y37143D01*
X10712Y37118D01*
X10642Y37103D01*
X10598Y37076D01*
X10549Y37058D01*
X10493Y37013D01*
X10431Y36977D01*
X10397Y36937D01*
X10357Y36905D01*
X10318Y36844D01*
X10271Y36790D01*
X10252Y36741D01*
X10224Y36698D01*
X10206Y36628D01*
X10179Y36562D01*
X10171Y36490D01*
X10163Y36459D01*
X10165Y36436D01*
X10161Y36395D01*
X10161Y25400D01*
X10164Y25382D01*
X10162Y25350D01*
X10286Y23460D01*
X10292Y23437D01*
X10311Y23313D01*
X11289Y19662D01*
X11295Y19648D01*
X11297Y19633D01*
X11365Y19479D01*
X13255Y16206D01*
X13265Y16194D01*
X13271Y16179D01*
X13376Y16048D01*
X16048Y13376D01*
X16061Y13366D01*
X16071Y13354D01*
X16206Y13255D01*
X19479Y11365D01*
X19494Y11359D01*
X19506Y11350D01*
X19662Y11289D01*
X23313Y10311D01*
X23337Y10308D01*
X23460Y10286D01*
X25350Y10162D01*
X25369Y10164D01*
X25400Y10161D01*
X540514Y10161D01*
X540534Y10164D01*
G37*
%LPC*%
G36*
X453788Y35505D02*
X453788Y35505D01*
X452860Y36433D01*
X452856Y36463D01*
X452846Y36480D01*
X452842Y36500D01*
X452789Y36589D01*
X452740Y36680D01*
X452726Y36694D01*
X452716Y36711D01*
X452637Y36778D01*
X452562Y36850D01*
X452544Y36858D01*
X452529Y36871D01*
X452433Y36910D01*
X452339Y36953D01*
X452319Y36955D01*
X452301Y36963D01*
X452134Y36981D01*
X425926Y36981D01*
X417758Y45149D01*
X417758Y56322D01*
X453735Y92299D01*
X477334Y92299D01*
X477424Y92313D01*
X477515Y92321D01*
X477545Y92333D01*
X477577Y92338D01*
X477657Y92381D01*
X477741Y92417D01*
X477773Y92443D01*
X477794Y92454D01*
X477816Y92477D01*
X477872Y92522D01*
X483778Y98428D01*
X483831Y98502D01*
X483891Y98571D01*
X483903Y98601D01*
X483922Y98628D01*
X483949Y98715D01*
X483983Y98799D01*
X483987Y98840D01*
X483994Y98863D01*
X483993Y98895D01*
X484001Y98966D01*
X484001Y146424D01*
X483998Y146444D01*
X484000Y146463D01*
X483978Y146565D01*
X483962Y146667D01*
X483952Y146684D01*
X483948Y146704D01*
X483895Y146793D01*
X483846Y146884D01*
X483832Y146898D01*
X483822Y146915D01*
X483743Y146982D01*
X483668Y147054D01*
X483650Y147062D01*
X483635Y147075D01*
X483539Y147114D01*
X483445Y147157D01*
X483425Y147159D01*
X483407Y147167D01*
X483240Y147185D01*
X471633Y147185D01*
X470740Y148078D01*
X470740Y159608D01*
X470726Y159698D01*
X470718Y159789D01*
X470706Y159819D01*
X470701Y159851D01*
X470658Y159931D01*
X470622Y160015D01*
X470596Y160047D01*
X470585Y160068D01*
X470562Y160090D01*
X470517Y160146D01*
X469089Y161574D01*
X469031Y161616D01*
X468979Y161665D01*
X468932Y161687D01*
X468890Y161718D01*
X468821Y161739D01*
X468756Y161769D01*
X468704Y161775D01*
X468654Y161790D01*
X468583Y161788D01*
X468512Y161796D01*
X468461Y161785D01*
X468409Y161784D01*
X468341Y161759D01*
X468271Y161744D01*
X468226Y161717D01*
X468178Y161699D01*
X468122Y161654D01*
X468060Y161618D01*
X468026Y161578D01*
X467986Y161546D01*
X467947Y161485D01*
X467900Y161431D01*
X467881Y161382D01*
X467853Y161339D01*
X467835Y161269D01*
X467808Y161203D01*
X467800Y161131D01*
X467792Y161100D01*
X467794Y161077D01*
X467790Y161036D01*
X467790Y148078D01*
X466897Y147185D01*
X452633Y147185D01*
X451740Y148078D01*
X451740Y151765D01*
X451738Y151780D01*
X451739Y151793D01*
X451738Y151797D01*
X451739Y151804D01*
X451717Y151906D01*
X451701Y152008D01*
X451691Y152025D01*
X451687Y152045D01*
X451634Y152134D01*
X451585Y152225D01*
X451571Y152239D01*
X451561Y152256D01*
X451482Y152323D01*
X451407Y152395D01*
X451389Y152403D01*
X451374Y152416D01*
X451278Y152455D01*
X451184Y152498D01*
X451164Y152500D01*
X451146Y152508D01*
X450979Y152526D01*
X411153Y152526D01*
X411063Y152512D01*
X410972Y152504D01*
X410942Y152492D01*
X410910Y152487D01*
X410830Y152444D01*
X410746Y152408D01*
X410714Y152382D01*
X410693Y152371D01*
X410682Y152360D01*
X410681Y152360D01*
X410668Y152346D01*
X410615Y152303D01*
X406497Y148185D01*
X406444Y148111D01*
X406384Y148042D01*
X406372Y148012D01*
X406353Y147985D01*
X406326Y147898D01*
X406292Y147814D01*
X406288Y147773D01*
X406281Y147750D01*
X406282Y147718D01*
X406274Y147647D01*
X406274Y112703D01*
X406288Y112613D01*
X406296Y112522D01*
X406308Y112492D01*
X406313Y112460D01*
X406356Y112380D01*
X406392Y112296D01*
X406418Y112264D01*
X406429Y112243D01*
X406452Y112221D01*
X406497Y112165D01*
X413033Y105629D01*
X413107Y105576D01*
X413176Y105516D01*
X413206Y105504D01*
X413233Y105485D01*
X413320Y105458D01*
X413404Y105424D01*
X413445Y105420D01*
X413468Y105413D01*
X413500Y105414D01*
X413571Y105406D01*
X427424Y105406D01*
X427514Y105420D01*
X427605Y105428D01*
X427634Y105440D01*
X427666Y105445D01*
X427747Y105488D01*
X427831Y105524D01*
X427863Y105550D01*
X427884Y105561D01*
X427906Y105584D01*
X427962Y105629D01*
X429997Y107664D01*
X434393Y107664D01*
X437502Y104555D01*
X437502Y100159D01*
X434393Y97050D01*
X429997Y97050D01*
X427962Y99085D01*
X427888Y99138D01*
X427818Y99198D01*
X427788Y99210D01*
X427762Y99229D01*
X427675Y99256D01*
X427590Y99290D01*
X427549Y99294D01*
X427527Y99301D01*
X427495Y99300D01*
X427424Y99308D01*
X410730Y99308D01*
X400176Y109862D01*
X400176Y150488D01*
X404726Y155037D01*
X404737Y155053D01*
X404753Y155066D01*
X404783Y155112D01*
X404801Y155131D01*
X404815Y155161D01*
X404869Y155237D01*
X404875Y155256D01*
X404886Y155273D01*
X404911Y155373D01*
X404942Y155472D01*
X404941Y155492D01*
X404946Y155511D01*
X404938Y155614D01*
X404935Y155718D01*
X404928Y155737D01*
X404927Y155757D01*
X404886Y155851D01*
X404851Y155949D01*
X404838Y155965D01*
X404830Y155983D01*
X404726Y156114D01*
X402186Y158653D01*
X402112Y158706D01*
X402043Y158766D01*
X402013Y158778D01*
X401986Y158797D01*
X401899Y158824D01*
X401815Y158858D01*
X401774Y158862D01*
X401751Y158869D01*
X401719Y158868D01*
X401648Y158876D01*
X117593Y158876D01*
X117503Y158862D01*
X117412Y158854D01*
X117382Y158842D01*
X117350Y158837D01*
X117269Y158794D01*
X117186Y158758D01*
X117153Y158732D01*
X117133Y158721D01*
X117111Y158698D01*
X117055Y158653D01*
X116302Y157900D01*
X103788Y157900D01*
X102895Y158793D01*
X102895Y165057D01*
X103788Y165950D01*
X116302Y165950D01*
X117055Y165197D01*
X117129Y165144D01*
X117198Y165084D01*
X117228Y165072D01*
X117254Y165053D01*
X117341Y165026D01*
X117426Y164992D01*
X117467Y164988D01*
X117489Y164981D01*
X117522Y164982D01*
X117593Y164974D01*
X404489Y164974D01*
X410616Y158847D01*
X410690Y158794D01*
X410759Y158734D01*
X410789Y158722D01*
X410816Y158703D01*
X410903Y158676D01*
X410987Y158642D01*
X411028Y158638D01*
X411051Y158631D01*
X411083Y158632D01*
X411154Y158624D01*
X448003Y158624D01*
X448093Y158638D01*
X448184Y158646D01*
X448214Y158658D01*
X448246Y158663D01*
X448326Y158706D01*
X448410Y158742D01*
X448442Y158768D01*
X448463Y158779D01*
X448485Y158802D01*
X448541Y158847D01*
X448953Y159259D01*
X450979Y159259D01*
X450999Y159262D01*
X451018Y159260D01*
X451120Y159282D01*
X451222Y159298D01*
X451239Y159308D01*
X451259Y159312D01*
X451348Y159365D01*
X451439Y159414D01*
X451453Y159428D01*
X451470Y159438D01*
X451537Y159517D01*
X451609Y159592D01*
X451617Y159610D01*
X451630Y159625D01*
X451669Y159721D01*
X451712Y159815D01*
X451714Y159835D01*
X451722Y159853D01*
X451740Y160020D01*
X451740Y164342D01*
X452633Y165235D01*
X463591Y165235D01*
X463662Y165246D01*
X463733Y165248D01*
X463782Y165266D01*
X463834Y165274D01*
X463897Y165308D01*
X463964Y165333D01*
X464005Y165365D01*
X464051Y165390D01*
X464100Y165442D01*
X464156Y165486D01*
X464185Y165530D01*
X464220Y165568D01*
X464251Y165633D01*
X464289Y165693D01*
X464302Y165744D01*
X464324Y165791D01*
X464332Y165862D01*
X464349Y165932D01*
X464345Y165984D01*
X464351Y166035D01*
X464336Y166106D01*
X464330Y166177D01*
X464310Y166225D01*
X464299Y166276D01*
X464262Y166337D01*
X464234Y166403D01*
X464189Y166459D01*
X464173Y166487D01*
X464155Y166502D01*
X464129Y166534D01*
X456740Y173923D01*
X456666Y173976D01*
X456597Y174036D01*
X456567Y174048D01*
X456540Y174067D01*
X456453Y174094D01*
X456369Y174128D01*
X456328Y174132D01*
X456305Y174139D01*
X456273Y174138D01*
X456202Y174146D01*
X78474Y174146D01*
X78384Y174132D01*
X78293Y174124D01*
X78263Y174112D01*
X78231Y174107D01*
X78151Y174064D01*
X78067Y174028D01*
X78035Y174002D01*
X78014Y173991D01*
X77992Y173968D01*
X77936Y173923D01*
X56598Y152585D01*
X56545Y152511D01*
X56485Y152442D01*
X56473Y152412D01*
X56454Y152385D01*
X56427Y152298D01*
X56393Y152214D01*
X56389Y152173D01*
X56382Y152150D01*
X56383Y152118D01*
X56375Y152047D01*
X56375Y151918D01*
X55482Y151025D01*
X41718Y151025D01*
X40825Y151918D01*
X40825Y159182D01*
X41718Y160075D01*
X55149Y160075D01*
X55239Y160089D01*
X55330Y160097D01*
X55360Y160109D01*
X55392Y160114D01*
X55472Y160157D01*
X55556Y160193D01*
X55588Y160219D01*
X55609Y160230D01*
X55631Y160253D01*
X55687Y160298D01*
X75633Y180244D01*
X459043Y180244D01*
X473829Y165458D01*
X473903Y165405D01*
X473972Y165345D01*
X474002Y165333D01*
X474029Y165314D01*
X474116Y165287D01*
X474200Y165253D01*
X474241Y165249D01*
X474264Y165242D01*
X474296Y165243D01*
X474367Y165235D01*
X485897Y165235D01*
X486790Y164342D01*
X486790Y154963D01*
X486804Y154873D01*
X486812Y154782D01*
X486824Y154752D01*
X486829Y154720D01*
X486872Y154640D01*
X486908Y154556D01*
X486934Y154524D01*
X486945Y154503D01*
X486968Y154481D01*
X487013Y154425D01*
X490099Y151339D01*
X490099Y96125D01*
X480175Y86201D01*
X456576Y86201D01*
X456486Y86187D01*
X456395Y86179D01*
X456365Y86167D01*
X456333Y86162D01*
X456253Y86119D01*
X456169Y86083D01*
X456137Y86057D01*
X456116Y86046D01*
X456094Y86023D01*
X456038Y85978D01*
X431224Y61164D01*
X431182Y61106D01*
X431133Y61054D01*
X431111Y61007D01*
X431080Y60965D01*
X431059Y60896D01*
X431029Y60831D01*
X431023Y60779D01*
X431008Y60729D01*
X431010Y60658D01*
X431002Y60587D01*
X431013Y60536D01*
X431014Y60484D01*
X431039Y60416D01*
X431054Y60346D01*
X431081Y60301D01*
X431099Y60253D01*
X431144Y60197D01*
X431180Y60135D01*
X431220Y60101D01*
X431252Y60061D01*
X431313Y60022D01*
X431367Y59975D01*
X431416Y59956D01*
X431459Y59928D01*
X431529Y59910D01*
X431595Y59883D01*
X431667Y59875D01*
X431698Y59867D01*
X431721Y59869D01*
X431762Y59865D01*
X433603Y59865D01*
X436935Y58485D01*
X439485Y55935D01*
X440154Y54319D01*
X440216Y54219D01*
X440276Y54119D01*
X440280Y54115D01*
X440284Y54110D01*
X440374Y54035D01*
X440463Y53959D01*
X440468Y53957D01*
X440473Y53953D01*
X440582Y53911D01*
X440691Y53867D01*
X440698Y53866D01*
X440703Y53865D01*
X440721Y53864D01*
X440857Y53849D01*
X440923Y53849D01*
X441013Y53863D01*
X441104Y53871D01*
X441134Y53883D01*
X441166Y53888D01*
X441246Y53931D01*
X441330Y53967D01*
X441362Y53993D01*
X441383Y54004D01*
X441405Y54027D01*
X441461Y54072D01*
X457838Y70449D01*
X459864Y70449D01*
X459884Y70452D01*
X459903Y70450D01*
X460005Y70472D01*
X460107Y70488D01*
X460124Y70498D01*
X460144Y70502D01*
X460233Y70555D01*
X460324Y70604D01*
X460338Y70618D01*
X460355Y70628D01*
X460422Y70707D01*
X460494Y70782D01*
X460502Y70800D01*
X460515Y70815D01*
X460554Y70911D01*
X460597Y71005D01*
X460599Y71025D01*
X460607Y71043D01*
X460625Y71210D01*
X460625Y79782D01*
X461518Y80675D01*
X478282Y80675D01*
X479175Y79782D01*
X479175Y71210D01*
X479178Y71190D01*
X479176Y71171D01*
X479198Y71069D01*
X479214Y70967D01*
X479224Y70950D01*
X479228Y70930D01*
X479281Y70841D01*
X479330Y70750D01*
X479344Y70736D01*
X479354Y70719D01*
X479433Y70652D01*
X479508Y70580D01*
X479526Y70572D01*
X479541Y70559D01*
X479637Y70520D01*
X479731Y70477D01*
X479751Y70475D01*
X479769Y70467D01*
X479936Y70449D01*
X507696Y70449D01*
X507786Y70463D01*
X507877Y70471D01*
X507907Y70483D01*
X507939Y70488D01*
X508019Y70531D01*
X508103Y70567D01*
X508135Y70593D01*
X508156Y70604D01*
X508178Y70627D01*
X508234Y70672D01*
X517428Y79866D01*
X517481Y79940D01*
X517541Y80009D01*
X517553Y80039D01*
X517572Y80066D01*
X517599Y80153D01*
X517633Y80237D01*
X517637Y80278D01*
X517644Y80301D01*
X517643Y80333D01*
X517651Y80404D01*
X517651Y108896D01*
X517636Y108992D01*
X517626Y109089D01*
X517616Y109113D01*
X517612Y109139D01*
X517566Y109225D01*
X517526Y109314D01*
X517509Y109333D01*
X517496Y109356D01*
X517426Y109423D01*
X517360Y109495D01*
X517337Y109507D01*
X517318Y109525D01*
X517230Y109566D01*
X517144Y109613D01*
X517119Y109618D01*
X517095Y109629D01*
X516998Y109640D01*
X516902Y109657D01*
X516876Y109653D01*
X516851Y109656D01*
X516755Y109635D01*
X516659Y109621D01*
X516636Y109609D01*
X516610Y109604D01*
X516527Y109554D01*
X516440Y109510D01*
X516421Y109491D01*
X516399Y109478D01*
X516336Y109404D01*
X516268Y109334D01*
X516252Y109306D01*
X516239Y109291D01*
X516227Y109260D01*
X516187Y109187D01*
X515685Y107975D01*
X513135Y105425D01*
X509803Y104045D01*
X506197Y104045D01*
X502865Y105425D01*
X500315Y107975D01*
X498935Y111307D01*
X498935Y129993D01*
X500315Y133325D01*
X502865Y135875D01*
X506197Y137255D01*
X509803Y137255D01*
X513135Y135875D01*
X515685Y133325D01*
X516187Y132113D01*
X516238Y132030D01*
X516284Y131944D01*
X516302Y131926D01*
X516316Y131904D01*
X516392Y131841D01*
X516462Y131775D01*
X516486Y131764D01*
X516506Y131747D01*
X516597Y131712D01*
X516685Y131671D01*
X516711Y131668D01*
X516735Y131659D01*
X516833Y131655D01*
X516929Y131644D01*
X516955Y131649D01*
X516981Y131648D01*
X517075Y131675D01*
X517170Y131696D01*
X517192Y131710D01*
X517217Y131717D01*
X517297Y131772D01*
X517381Y131822D01*
X517398Y131842D01*
X517419Y131857D01*
X517478Y131935D01*
X517541Y132009D01*
X517551Y132034D01*
X517566Y132054D01*
X517596Y132147D01*
X517633Y132237D01*
X517636Y132263D01*
X543996Y158624D01*
X552464Y158624D01*
X552484Y158627D01*
X552503Y158625D01*
X552605Y158647D01*
X552707Y158663D01*
X552724Y158673D01*
X552744Y158677D01*
X552833Y158730D01*
X552924Y158779D01*
X552938Y158793D01*
X552955Y158803D01*
X553022Y158882D01*
X553094Y158957D01*
X553102Y158975D01*
X553115Y158990D01*
X553153Y159086D01*
X553196Y159177D01*
X554118Y160100D01*
X567882Y160100D01*
X568775Y159207D01*
X568775Y151943D01*
X567882Y151050D01*
X554118Y151050D01*
X553190Y151978D01*
X553186Y152008D01*
X553176Y152025D01*
X553172Y152045D01*
X553119Y152134D01*
X553070Y152225D01*
X553056Y152239D01*
X553046Y152256D01*
X552967Y152323D01*
X552892Y152395D01*
X552874Y152403D01*
X552859Y152416D01*
X552763Y152455D01*
X552669Y152498D01*
X552649Y152500D01*
X552631Y152508D01*
X552464Y152526D01*
X546837Y152526D01*
X546747Y152512D01*
X546656Y152504D01*
X546626Y152492D01*
X546594Y152487D01*
X546514Y152444D01*
X546430Y152408D01*
X546398Y152382D01*
X546377Y152371D01*
X546366Y152360D01*
X546365Y152360D01*
X546352Y152346D01*
X546299Y152303D01*
X532550Y138554D01*
X532508Y138496D01*
X532459Y138444D01*
X532437Y138397D01*
X532406Y138355D01*
X532385Y138286D01*
X532355Y138221D01*
X532349Y138169D01*
X532334Y138119D01*
X532336Y138048D01*
X532328Y137977D01*
X532339Y137926D01*
X532340Y137874D01*
X532365Y137806D01*
X532380Y137736D01*
X532407Y137691D01*
X532425Y137643D01*
X532470Y137587D01*
X532506Y137525D01*
X532546Y137491D01*
X532578Y137451D01*
X532639Y137412D01*
X532693Y137365D01*
X532742Y137346D01*
X532785Y137318D01*
X532855Y137300D01*
X532921Y137273D01*
X532993Y137265D01*
X533024Y137257D01*
X533047Y137259D01*
X533088Y137255D01*
X535203Y137255D01*
X538535Y135875D01*
X541085Y133325D01*
X542465Y129993D01*
X542465Y111307D01*
X541085Y107975D01*
X538535Y105425D01*
X535203Y104045D01*
X531597Y104045D01*
X528265Y105425D01*
X525715Y107975D01*
X525213Y109187D01*
X525162Y109270D01*
X525116Y109356D01*
X525098Y109374D01*
X525084Y109396D01*
X525008Y109459D01*
X524938Y109525D01*
X524914Y109536D01*
X524894Y109553D01*
X524803Y109588D01*
X524715Y109629D01*
X524689Y109632D01*
X524665Y109641D01*
X524567Y109645D01*
X524471Y109656D01*
X524445Y109651D01*
X524419Y109652D01*
X524325Y109625D01*
X524230Y109604D01*
X524208Y109590D01*
X524183Y109583D01*
X524103Y109528D01*
X524019Y109478D01*
X524002Y109458D01*
X523981Y109443D01*
X523922Y109365D01*
X523859Y109291D01*
X523849Y109266D01*
X523834Y109246D01*
X523804Y109153D01*
X523767Y109063D01*
X523764Y109030D01*
X523758Y109012D01*
X523758Y108979D01*
X523749Y108896D01*
X523749Y77563D01*
X510537Y64351D01*
X479936Y64351D01*
X479916Y64348D01*
X479897Y64350D01*
X479795Y64328D01*
X479693Y64312D01*
X479676Y64302D01*
X479656Y64298D01*
X479567Y64245D01*
X479476Y64196D01*
X479462Y64182D01*
X479445Y64172D01*
X479378Y64093D01*
X479306Y64018D01*
X479298Y64000D01*
X479285Y63985D01*
X479246Y63889D01*
X479203Y63795D01*
X479201Y63775D01*
X479193Y63757D01*
X479175Y63590D01*
X479175Y55018D01*
X478282Y54125D01*
X461518Y54125D01*
X460625Y55018D01*
X460625Y62775D01*
X460614Y62846D01*
X460612Y62917D01*
X460594Y62966D01*
X460586Y63018D01*
X460552Y63081D01*
X460527Y63148D01*
X460495Y63189D01*
X460470Y63235D01*
X460418Y63284D01*
X460374Y63340D01*
X460330Y63369D01*
X460292Y63404D01*
X460227Y63435D01*
X460167Y63473D01*
X460116Y63486D01*
X460069Y63508D01*
X459998Y63516D01*
X459928Y63533D01*
X459876Y63529D01*
X459825Y63535D01*
X459754Y63520D01*
X459683Y63514D01*
X459635Y63494D01*
X459584Y63483D01*
X459523Y63446D01*
X459457Y63418D01*
X459401Y63373D01*
X459373Y63357D01*
X459358Y63339D01*
X459326Y63313D01*
X445773Y49760D01*
X443764Y47751D01*
X440857Y47751D01*
X440743Y47732D01*
X440626Y47715D01*
X440621Y47713D01*
X440615Y47712D01*
X440512Y47657D01*
X440407Y47604D01*
X440403Y47599D01*
X440397Y47596D01*
X440317Y47512D01*
X440235Y47428D01*
X440231Y47422D01*
X440228Y47418D01*
X440220Y47401D01*
X440154Y47281D01*
X439485Y45665D01*
X438198Y44378D01*
X438156Y44320D01*
X438107Y44268D01*
X438085Y44221D01*
X438054Y44179D01*
X438033Y44110D01*
X438003Y44045D01*
X437997Y43993D01*
X437982Y43943D01*
X437984Y43872D01*
X437976Y43801D01*
X437987Y43750D01*
X437988Y43698D01*
X438013Y43630D01*
X438028Y43560D01*
X438055Y43515D01*
X438073Y43467D01*
X438118Y43411D01*
X438154Y43349D01*
X438194Y43315D01*
X438226Y43275D01*
X438287Y43236D01*
X438341Y43189D01*
X438389Y43170D01*
X438433Y43142D01*
X438503Y43124D01*
X438569Y43097D01*
X438641Y43089D01*
X438672Y43081D01*
X438695Y43083D01*
X438736Y43079D01*
X452134Y43079D01*
X452154Y43082D01*
X452173Y43080D01*
X452275Y43102D01*
X452377Y43118D01*
X452394Y43128D01*
X452414Y43132D01*
X452503Y43185D01*
X452594Y43234D01*
X452608Y43248D01*
X452625Y43258D01*
X452692Y43337D01*
X452764Y43412D01*
X452772Y43430D01*
X452785Y43445D01*
X452824Y43541D01*
X452866Y43632D01*
X453788Y44555D01*
X467552Y44555D01*
X468445Y43662D01*
X468445Y36398D01*
X467552Y35505D01*
X453788Y35505D01*
G37*
%LPD*%
%LPC*%
G36*
X183779Y47370D02*
X183779Y47370D01*
X170794Y50850D01*
X159152Y57571D01*
X149646Y67077D01*
X142925Y78719D01*
X139445Y91704D01*
X139445Y105146D01*
X142925Y118131D01*
X149646Y129773D01*
X159152Y139279D01*
X170794Y146000D01*
X183779Y149480D01*
X197221Y149480D01*
X210206Y146000D01*
X221848Y139279D01*
X231354Y129773D01*
X238075Y118131D01*
X241555Y105146D01*
X241555Y91704D01*
X238075Y78719D01*
X231354Y67077D01*
X221848Y57571D01*
X210206Y50850D01*
X197221Y47370D01*
X183779Y47370D01*
G37*
%LPD*%
%LPC*%
G36*
X806079Y47370D02*
X806079Y47370D01*
X793094Y50850D01*
X781452Y57571D01*
X771946Y67077D01*
X765225Y78719D01*
X761745Y91704D01*
X761745Y105146D01*
X765225Y118131D01*
X771946Y129773D01*
X781452Y139279D01*
X793094Y146000D01*
X806079Y149480D01*
X819521Y149480D01*
X832506Y146000D01*
X844148Y139279D01*
X853654Y129773D01*
X860375Y118131D01*
X863855Y105146D01*
X863855Y91704D01*
X860375Y78719D01*
X853654Y67077D01*
X844148Y57571D01*
X832506Y50850D01*
X819521Y47370D01*
X806079Y47370D01*
G37*
%LPD*%
%LPC*%
G36*
X675843Y53525D02*
X675843Y53525D01*
X674950Y54418D01*
X674950Y68182D01*
X675878Y69110D01*
X675908Y69114D01*
X675925Y69124D01*
X675945Y69128D01*
X676034Y69181D01*
X676125Y69230D01*
X676139Y69244D01*
X676156Y69254D01*
X676223Y69333D01*
X676295Y69408D01*
X676303Y69426D01*
X676316Y69441D01*
X676355Y69537D01*
X676398Y69631D01*
X676400Y69651D01*
X676408Y69669D01*
X676426Y69836D01*
X676426Y81947D01*
X676412Y82037D01*
X676404Y82128D01*
X676392Y82158D01*
X676387Y82190D01*
X676344Y82270D01*
X676308Y82354D01*
X676282Y82386D01*
X676271Y82407D01*
X676248Y82429D01*
X676203Y82485D01*
X671296Y87392D01*
X671222Y87445D01*
X671153Y87505D01*
X671123Y87517D01*
X671096Y87536D01*
X671009Y87563D01*
X670925Y87597D01*
X670884Y87601D01*
X670861Y87608D01*
X670829Y87607D01*
X670758Y87615D01*
X621812Y87615D01*
X589689Y119738D01*
X589631Y119780D01*
X589579Y119829D01*
X589532Y119851D01*
X589490Y119882D01*
X589421Y119903D01*
X589356Y119933D01*
X589304Y119939D01*
X589254Y119954D01*
X589183Y119952D01*
X589112Y119960D01*
X589061Y119949D01*
X589009Y119948D01*
X588941Y119923D01*
X588871Y119908D01*
X588826Y119881D01*
X588778Y119863D01*
X588722Y119818D01*
X588660Y119782D01*
X588626Y119742D01*
X588586Y119710D01*
X588547Y119649D01*
X588500Y119595D01*
X588481Y119546D01*
X588453Y119503D01*
X588435Y119433D01*
X588408Y119367D01*
X588400Y119295D01*
X588392Y119264D01*
X588394Y119241D01*
X588390Y119200D01*
X588390Y115693D01*
X587497Y114800D01*
X573233Y114800D01*
X572340Y115693D01*
X572340Y131957D01*
X573233Y132850D01*
X576555Y132850D01*
X576575Y132853D01*
X576594Y132851D01*
X576696Y132873D01*
X576798Y132889D01*
X576815Y132899D01*
X576835Y132903D01*
X576924Y132956D01*
X577015Y133005D01*
X577029Y133019D01*
X577046Y133029D01*
X577113Y133108D01*
X577185Y133183D01*
X577193Y133201D01*
X577206Y133216D01*
X577245Y133312D01*
X577288Y133406D01*
X577290Y133426D01*
X577298Y133444D01*
X577316Y133611D01*
X577316Y139604D01*
X577913Y140201D01*
X577955Y140259D01*
X578004Y140311D01*
X578026Y140358D01*
X578057Y140400D01*
X578078Y140469D01*
X578108Y140534D01*
X578114Y140586D01*
X578129Y140636D01*
X578127Y140707D01*
X578135Y140778D01*
X578124Y140829D01*
X578123Y140881D01*
X578098Y140949D01*
X578083Y141019D01*
X578056Y141064D01*
X578038Y141112D01*
X577993Y141168D01*
X577957Y141230D01*
X577917Y141264D01*
X577885Y141304D01*
X577824Y141343D01*
X577770Y141390D01*
X577721Y141409D01*
X577678Y141437D01*
X577608Y141455D01*
X577542Y141482D01*
X577470Y141490D01*
X577439Y141498D01*
X577416Y141496D01*
X577375Y141500D01*
X575118Y141500D01*
X574225Y142393D01*
X574225Y149657D01*
X575118Y150550D01*
X588882Y150550D01*
X589775Y149657D01*
X589775Y142393D01*
X588882Y141500D01*
X585810Y141500D01*
X585790Y141497D01*
X585771Y141499D01*
X585669Y141477D01*
X585567Y141461D01*
X585550Y141451D01*
X585530Y141447D01*
X585441Y141394D01*
X585350Y141345D01*
X585336Y141331D01*
X585319Y141321D01*
X585252Y141242D01*
X585180Y141167D01*
X585172Y141149D01*
X585159Y141134D01*
X585120Y141038D01*
X585077Y140944D01*
X585075Y140924D01*
X585067Y140906D01*
X585049Y140739D01*
X585049Y138713D01*
X583637Y137301D01*
X583584Y137227D01*
X583524Y137158D01*
X583512Y137128D01*
X583493Y137101D01*
X583466Y137014D01*
X583432Y136930D01*
X583428Y136889D01*
X583421Y136866D01*
X583422Y136834D01*
X583414Y136763D01*
X583414Y133611D01*
X583417Y133591D01*
X583415Y133572D01*
X583437Y133470D01*
X583453Y133368D01*
X583463Y133351D01*
X583467Y133331D01*
X583520Y133242D01*
X583569Y133151D01*
X583583Y133137D01*
X583593Y133120D01*
X583672Y133053D01*
X583747Y132981D01*
X583765Y132973D01*
X583780Y132960D01*
X583876Y132921D01*
X583970Y132878D01*
X583990Y132876D01*
X584008Y132868D01*
X584175Y132850D01*
X587497Y132850D01*
X588390Y131957D01*
X588390Y127635D01*
X588393Y127615D01*
X588391Y127596D01*
X588413Y127494D01*
X588429Y127392D01*
X588439Y127375D01*
X588443Y127355D01*
X588496Y127266D01*
X588545Y127175D01*
X588559Y127161D01*
X588569Y127144D01*
X588648Y127077D01*
X588723Y127005D01*
X588741Y126997D01*
X588756Y126984D01*
X588852Y126945D01*
X588946Y126902D01*
X588966Y126900D01*
X588984Y126892D01*
X589151Y126874D01*
X591177Y126874D01*
X593186Y124865D01*
X609699Y108351D01*
X609778Y108294D01*
X609853Y108232D01*
X609878Y108223D01*
X609899Y108208D01*
X609992Y108179D01*
X610083Y108144D01*
X610109Y108143D01*
X610134Y108135D01*
X610232Y108138D01*
X610329Y108134D01*
X610354Y108141D01*
X610380Y108142D01*
X610472Y108175D01*
X610565Y108202D01*
X610586Y108217D01*
X610611Y108226D01*
X610687Y108287D01*
X610767Y108343D01*
X610783Y108364D01*
X610803Y108380D01*
X610856Y108462D01*
X610914Y108540D01*
X610922Y108565D01*
X610936Y108587D01*
X610960Y108681D01*
X610990Y108774D01*
X610990Y108800D01*
X610996Y108825D01*
X610989Y108922D01*
X610988Y109020D01*
X610979Y109051D01*
X610977Y109071D01*
X610964Y109101D01*
X610941Y109181D01*
X610060Y111307D01*
X610060Y129993D01*
X611440Y133325D01*
X613990Y135875D01*
X617322Y137255D01*
X620928Y137255D01*
X624260Y135875D01*
X626810Y133325D01*
X628190Y129993D01*
X628190Y111307D01*
X626810Y107975D01*
X624260Y105425D01*
X620928Y104045D01*
X617322Y104045D01*
X615196Y104926D01*
X615101Y104948D01*
X615008Y104977D01*
X614982Y104976D01*
X614956Y104982D01*
X614860Y104973D01*
X614762Y104970D01*
X614738Y104961D01*
X614711Y104959D01*
X614622Y104919D01*
X614531Y104886D01*
X614511Y104870D01*
X614487Y104859D01*
X614415Y104793D01*
X614339Y104732D01*
X614325Y104710D01*
X614306Y104693D01*
X614259Y104607D01*
X614206Y104525D01*
X614200Y104500D01*
X614187Y104477D01*
X614170Y104381D01*
X614146Y104287D01*
X614148Y104261D01*
X614143Y104235D01*
X614158Y104138D01*
X614165Y104042D01*
X614175Y104018D01*
X614179Y103992D01*
X614223Y103905D01*
X614261Y103815D01*
X614282Y103790D01*
X614291Y103772D01*
X614314Y103749D01*
X614366Y103684D01*
X624115Y93936D01*
X624189Y93883D01*
X624258Y93823D01*
X624288Y93811D01*
X624315Y93792D01*
X624402Y93765D01*
X624486Y93731D01*
X624527Y93727D01*
X624550Y93720D01*
X624582Y93721D01*
X624653Y93713D01*
X673599Y93713D01*
X682524Y84788D01*
X682524Y69836D01*
X682527Y69816D01*
X682525Y69797D01*
X682547Y69695D01*
X682563Y69593D01*
X682573Y69576D01*
X682577Y69556D01*
X682630Y69467D01*
X682679Y69376D01*
X682693Y69362D01*
X682703Y69345D01*
X682782Y69278D01*
X682857Y69206D01*
X682875Y69198D01*
X682890Y69185D01*
X682986Y69146D01*
X683077Y69104D01*
X684000Y68182D01*
X684000Y54418D01*
X683107Y53525D01*
X675843Y53525D01*
G37*
%LPD*%
%LPC*%
G36*
X302997Y41735D02*
X302997Y41735D01*
X299665Y43115D01*
X297115Y45665D01*
X295735Y48997D01*
X295735Y52603D01*
X297115Y55935D01*
X299665Y58485D01*
X302997Y59865D01*
X306603Y59865D01*
X309935Y58485D01*
X312485Y55935D01*
X313154Y54319D01*
X313216Y54219D01*
X313276Y54119D01*
X313280Y54115D01*
X313284Y54110D01*
X313374Y54035D01*
X313463Y53959D01*
X313468Y53957D01*
X313473Y53953D01*
X313582Y53911D01*
X313691Y53867D01*
X313698Y53866D01*
X313703Y53865D01*
X313721Y53864D01*
X313857Y53849D01*
X401421Y53849D01*
X401511Y53863D01*
X401602Y53871D01*
X401632Y53883D01*
X401664Y53888D01*
X401744Y53931D01*
X401828Y53967D01*
X401860Y53993D01*
X401881Y54004D01*
X401903Y54027D01*
X401959Y54072D01*
X460402Y112515D01*
X460455Y112589D01*
X460515Y112658D01*
X460527Y112688D01*
X460546Y112715D01*
X460573Y112802D01*
X460607Y112886D01*
X460611Y112927D01*
X460618Y112950D01*
X460617Y112982D01*
X460625Y113053D01*
X460625Y122782D01*
X461518Y123675D01*
X478282Y123675D01*
X479175Y122782D01*
X479175Y98018D01*
X478282Y97125D01*
X461518Y97125D01*
X460625Y98018D01*
X460625Y102277D01*
X460622Y102295D01*
X460624Y102311D01*
X460613Y102362D01*
X460612Y102419D01*
X460594Y102468D01*
X460586Y102520D01*
X460574Y102541D01*
X460572Y102552D01*
X460550Y102589D01*
X460527Y102650D01*
X460495Y102691D01*
X460470Y102737D01*
X460449Y102757D01*
X460446Y102763D01*
X460419Y102786D01*
X460418Y102786D01*
X460374Y102842D01*
X460330Y102871D01*
X460292Y102906D01*
X460261Y102921D01*
X460259Y102923D01*
X460242Y102930D01*
X460227Y102937D01*
X460167Y102975D01*
X460116Y102988D01*
X460069Y103010D01*
X460032Y103014D01*
X460031Y103015D01*
X459994Y103019D01*
X459928Y103035D01*
X459879Y103032D01*
X459864Y103033D01*
X459860Y103033D01*
X459825Y103037D01*
X459754Y103022D01*
X459683Y103016D01*
X459638Y102997D01*
X459616Y102993D01*
X459611Y102991D01*
X459584Y102985D01*
X459523Y102948D01*
X459457Y102920D01*
X459416Y102887D01*
X459399Y102878D01*
X459390Y102869D01*
X459373Y102859D01*
X459358Y102841D01*
X459326Y102815D01*
X404262Y47751D01*
X313857Y47751D01*
X313743Y47732D01*
X313626Y47715D01*
X313621Y47713D01*
X313615Y47712D01*
X313512Y47657D01*
X313407Y47604D01*
X313403Y47599D01*
X313397Y47596D01*
X313317Y47512D01*
X313235Y47428D01*
X313231Y47422D01*
X313228Y47418D01*
X313220Y47401D01*
X313154Y47281D01*
X312485Y45665D01*
X309935Y43115D01*
X306603Y41735D01*
X302997Y41735D01*
G37*
%LPD*%
%LPC*%
G36*
X66857Y92535D02*
X66857Y92535D01*
X63525Y93915D01*
X60975Y96465D01*
X59595Y99797D01*
X59595Y103403D01*
X60975Y106735D01*
X63525Y109285D01*
X66857Y110665D01*
X85543Y110665D01*
X88875Y109285D01*
X91425Y106735D01*
X92094Y105119D01*
X92156Y105019D01*
X92216Y104919D01*
X92220Y104915D01*
X92224Y104910D01*
X92314Y104835D01*
X92403Y104759D01*
X92408Y104757D01*
X92413Y104753D01*
X92522Y104711D01*
X92631Y104667D01*
X92638Y104666D01*
X92643Y104665D01*
X92661Y104664D01*
X92797Y104649D01*
X94200Y104649D01*
X94290Y104663D01*
X94381Y104671D01*
X94411Y104683D01*
X94443Y104688D01*
X94523Y104731D01*
X94607Y104767D01*
X94639Y104793D01*
X94660Y104804D01*
X94682Y104827D01*
X94738Y104872D01*
X97564Y107698D01*
X97617Y107772D01*
X97677Y107841D01*
X97689Y107871D01*
X97708Y107898D01*
X97735Y107985D01*
X97769Y108069D01*
X97773Y108110D01*
X97780Y108133D01*
X97779Y108165D01*
X97787Y108236D01*
X97787Y134417D01*
X97773Y134507D01*
X97765Y134598D01*
X97753Y134628D01*
X97748Y134660D01*
X97705Y134740D01*
X97669Y134824D01*
X97643Y134856D01*
X97632Y134877D01*
X97609Y134899D01*
X97564Y134955D01*
X83756Y148763D01*
X83756Y157139D01*
X83753Y157159D01*
X83755Y157178D01*
X83733Y157280D01*
X83717Y157382D01*
X83707Y157399D01*
X83703Y157419D01*
X83650Y157508D01*
X83601Y157599D01*
X83587Y157613D01*
X83577Y157630D01*
X83498Y157697D01*
X83423Y157769D01*
X83405Y157777D01*
X83390Y157790D01*
X83294Y157829D01*
X83200Y157872D01*
X83180Y157874D01*
X83162Y157882D01*
X82995Y157900D01*
X80548Y157900D01*
X79655Y158793D01*
X79655Y165057D01*
X80548Y165950D01*
X93062Y165950D01*
X93955Y165057D01*
X93955Y158793D01*
X93062Y157900D01*
X90615Y157900D01*
X90595Y157897D01*
X90576Y157899D01*
X90474Y157877D01*
X90372Y157861D01*
X90355Y157851D01*
X90335Y157847D01*
X90246Y157794D01*
X90155Y157745D01*
X90141Y157731D01*
X90124Y157721D01*
X90057Y157642D01*
X89985Y157567D01*
X89977Y157549D01*
X89964Y157534D01*
X89925Y157438D01*
X89882Y157344D01*
X89880Y157324D01*
X89872Y157306D01*
X89854Y157139D01*
X89854Y151604D01*
X89868Y151514D01*
X89876Y151423D01*
X89888Y151393D01*
X89893Y151361D01*
X89936Y151281D01*
X89972Y151197D01*
X89998Y151165D01*
X90009Y151144D01*
X90032Y151122D01*
X90077Y151066D01*
X103885Y137258D01*
X103885Y105395D01*
X97041Y98551D01*
X92797Y98551D01*
X92683Y98532D01*
X92566Y98515D01*
X92561Y98513D01*
X92555Y98512D01*
X92452Y98457D01*
X92347Y98404D01*
X92343Y98399D01*
X92337Y98396D01*
X92257Y98312D01*
X92175Y98228D01*
X92171Y98222D01*
X92168Y98218D01*
X92160Y98201D01*
X92094Y98081D01*
X91425Y96465D01*
X88875Y93915D01*
X85543Y92535D01*
X66857Y92535D01*
G37*
%LPD*%
%LPC*%
G36*
X576918Y89075D02*
X576918Y89075D01*
X576025Y89968D01*
X576025Y101132D01*
X576918Y102025D01*
X577190Y102025D01*
X577210Y102028D01*
X577229Y102026D01*
X577331Y102048D01*
X577433Y102064D01*
X577450Y102074D01*
X577470Y102078D01*
X577559Y102131D01*
X577650Y102180D01*
X577664Y102194D01*
X577681Y102204D01*
X577748Y102283D01*
X577820Y102358D01*
X577828Y102376D01*
X577841Y102391D01*
X577880Y102487D01*
X577923Y102581D01*
X577925Y102601D01*
X577933Y102619D01*
X577951Y102786D01*
X577951Y103222D01*
X577937Y103312D01*
X577929Y103403D01*
X577917Y103433D01*
X577912Y103465D01*
X577869Y103545D01*
X577833Y103629D01*
X577807Y103661D01*
X577796Y103682D01*
X577773Y103704D01*
X577728Y103760D01*
X576810Y104678D01*
X576736Y104731D01*
X576667Y104791D01*
X576637Y104803D01*
X576610Y104822D01*
X576523Y104849D01*
X576439Y104883D01*
X576398Y104887D01*
X576375Y104894D01*
X576343Y104893D01*
X576272Y104901D01*
X560712Y104901D01*
X552576Y113037D01*
X552576Y119348D01*
X553117Y119889D01*
X553170Y119963D01*
X553230Y120032D01*
X553242Y120062D01*
X553261Y120089D01*
X553288Y120176D01*
X553322Y120260D01*
X553326Y120301D01*
X553333Y120324D01*
X553332Y120356D01*
X553340Y120427D01*
X553340Y131957D01*
X554233Y132850D01*
X568497Y132850D01*
X569390Y131957D01*
X569390Y115693D01*
X568497Y114800D01*
X561274Y114800D01*
X561203Y114789D01*
X561132Y114787D01*
X561083Y114769D01*
X561031Y114761D01*
X560968Y114727D01*
X560901Y114702D01*
X560860Y114670D01*
X560814Y114645D01*
X560765Y114593D01*
X560709Y114549D01*
X560680Y114505D01*
X560645Y114467D01*
X560614Y114402D01*
X560576Y114342D01*
X560563Y114291D01*
X560541Y114244D01*
X560533Y114173D01*
X560516Y114103D01*
X560520Y114051D01*
X560514Y114000D01*
X560529Y113929D01*
X560535Y113858D01*
X560555Y113810D01*
X560566Y113759D01*
X560603Y113698D01*
X560631Y113632D01*
X560676Y113576D01*
X560692Y113548D01*
X560710Y113533D01*
X560736Y113501D01*
X563015Y111222D01*
X563089Y111169D01*
X563158Y111109D01*
X563188Y111097D01*
X563215Y111078D01*
X563302Y111051D01*
X563386Y111017D01*
X563427Y111013D01*
X563450Y111006D01*
X563482Y111007D01*
X563553Y110999D01*
X579113Y110999D01*
X581122Y108990D01*
X584049Y106063D01*
X584049Y102786D01*
X584052Y102766D01*
X584050Y102747D01*
X584072Y102645D01*
X584088Y102543D01*
X584098Y102526D01*
X584102Y102506D01*
X584155Y102417D01*
X584204Y102326D01*
X584218Y102312D01*
X584228Y102295D01*
X584307Y102228D01*
X584382Y102156D01*
X584400Y102148D01*
X584415Y102135D01*
X584511Y102096D01*
X584605Y102053D01*
X584625Y102051D01*
X584643Y102043D01*
X584810Y102025D01*
X585082Y102025D01*
X585975Y101132D01*
X585975Y89968D01*
X585082Y89075D01*
X576918Y89075D01*
G37*
%LPD*%
%LPC*%
G36*
X622868Y13525D02*
X622868Y13525D01*
X621975Y14418D01*
X621975Y23682D01*
X622868Y24575D01*
X623690Y24575D01*
X623710Y24578D01*
X623729Y24576D01*
X623831Y24598D01*
X623933Y24614D01*
X623950Y24624D01*
X623970Y24628D01*
X624059Y24681D01*
X624150Y24730D01*
X624164Y24744D01*
X624181Y24754D01*
X624248Y24833D01*
X624320Y24908D01*
X624328Y24926D01*
X624341Y24941D01*
X624380Y25037D01*
X624423Y25131D01*
X624425Y25151D01*
X624433Y25169D01*
X624451Y25336D01*
X624451Y30370D01*
X635421Y41340D01*
X637430Y43349D01*
X664639Y43349D01*
X664659Y43352D01*
X664678Y43350D01*
X664780Y43372D01*
X664882Y43388D01*
X664899Y43398D01*
X664919Y43402D01*
X665008Y43455D01*
X665099Y43504D01*
X665113Y43518D01*
X665130Y43528D01*
X665197Y43607D01*
X665269Y43682D01*
X665277Y43700D01*
X665290Y43715D01*
X665329Y43811D01*
X665372Y43905D01*
X665374Y43925D01*
X665382Y43943D01*
X665400Y44110D01*
X665400Y47182D01*
X666293Y48075D01*
X673557Y48075D01*
X674450Y47182D01*
X674450Y33418D01*
X673557Y32525D01*
X666293Y32525D01*
X665400Y33418D01*
X665400Y36490D01*
X665397Y36510D01*
X665399Y36529D01*
X665377Y36631D01*
X665361Y36733D01*
X665351Y36750D01*
X665347Y36770D01*
X665294Y36859D01*
X665245Y36950D01*
X665231Y36964D01*
X665221Y36981D01*
X665142Y37048D01*
X665067Y37120D01*
X665049Y37128D01*
X665034Y37141D01*
X664938Y37180D01*
X664844Y37223D01*
X664824Y37225D01*
X664806Y37233D01*
X664639Y37251D01*
X640271Y37251D01*
X640181Y37237D01*
X640090Y37229D01*
X640060Y37217D01*
X640028Y37212D01*
X639948Y37169D01*
X639864Y37133D01*
X639832Y37107D01*
X639811Y37096D01*
X639789Y37073D01*
X639733Y37028D01*
X630772Y28067D01*
X630719Y27993D01*
X630659Y27924D01*
X630647Y27894D01*
X630628Y27867D01*
X630601Y27780D01*
X630567Y27696D01*
X630563Y27655D01*
X630556Y27632D01*
X630557Y27600D01*
X630549Y27529D01*
X630549Y25336D01*
X630552Y25316D01*
X630550Y25297D01*
X630572Y25195D01*
X630588Y25093D01*
X630598Y25076D01*
X630602Y25056D01*
X630655Y24967D01*
X630704Y24876D01*
X630718Y24862D01*
X630728Y24845D01*
X630807Y24778D01*
X630882Y24706D01*
X630900Y24698D01*
X630915Y24685D01*
X631011Y24646D01*
X631105Y24603D01*
X631125Y24601D01*
X631143Y24593D01*
X631310Y24575D01*
X632132Y24575D01*
X633025Y23682D01*
X633025Y14418D01*
X632132Y13525D01*
X622868Y13525D01*
G37*
%LPD*%
%LPC*%
G36*
X642722Y104045D02*
X642722Y104045D01*
X639390Y105425D01*
X636840Y107975D01*
X635460Y111307D01*
X635460Y129993D01*
X636840Y133325D01*
X639390Y135875D01*
X642722Y137255D01*
X646328Y137255D01*
X649660Y135875D01*
X652210Y133325D01*
X653590Y129993D01*
X653590Y111307D01*
X652210Y107975D01*
X649660Y105425D01*
X646328Y104045D01*
X642722Y104045D01*
G37*
%LPD*%
%LPC*%
G36*
X683997Y104045D02*
X683997Y104045D01*
X680665Y105425D01*
X678115Y107975D01*
X676735Y111307D01*
X676735Y129993D01*
X678115Y133325D01*
X680665Y135875D01*
X683997Y137255D01*
X687603Y137255D01*
X690935Y135875D01*
X693485Y133325D01*
X694865Y129993D01*
X694865Y111307D01*
X693485Y107975D01*
X690935Y105425D01*
X687603Y104045D01*
X683997Y104045D01*
G37*
%LPD*%
%LPC*%
G36*
X66857Y117935D02*
X66857Y117935D01*
X63525Y119315D01*
X60975Y121865D01*
X59595Y125197D01*
X59595Y128803D01*
X60975Y132135D01*
X63525Y134685D01*
X66857Y136065D01*
X85543Y136065D01*
X88875Y134685D01*
X91425Y132135D01*
X92805Y128803D01*
X92805Y125197D01*
X91425Y121865D01*
X88875Y119315D01*
X85543Y117935D01*
X66857Y117935D01*
G37*
%LPD*%
%LPC*%
G36*
X508568Y13525D02*
X508568Y13525D01*
X507675Y14418D01*
X507675Y15240D01*
X507672Y15260D01*
X507674Y15279D01*
X507652Y15381D01*
X507636Y15483D01*
X507626Y15500D01*
X507622Y15520D01*
X507569Y15609D01*
X507520Y15700D01*
X507506Y15714D01*
X507496Y15731D01*
X507417Y15798D01*
X507342Y15870D01*
X507324Y15878D01*
X507309Y15891D01*
X507213Y15930D01*
X507119Y15973D01*
X507099Y15975D01*
X507081Y15983D01*
X506914Y16001D01*
X504888Y16001D01*
X493681Y27208D01*
X493607Y27261D01*
X493538Y27321D01*
X493508Y27333D01*
X493481Y27352D01*
X493394Y27379D01*
X493310Y27413D01*
X493269Y27417D01*
X493246Y27424D01*
X493214Y27423D01*
X493143Y27431D01*
X490206Y27431D01*
X490186Y27428D01*
X490167Y27430D01*
X490065Y27408D01*
X489963Y27392D01*
X489946Y27382D01*
X489926Y27378D01*
X489837Y27325D01*
X489746Y27276D01*
X489732Y27262D01*
X489715Y27252D01*
X489648Y27173D01*
X489576Y27098D01*
X489568Y27080D01*
X489555Y27065D01*
X489516Y26969D01*
X489474Y26878D01*
X488552Y25955D01*
X474788Y25955D01*
X473895Y26848D01*
X473895Y34112D01*
X474788Y35005D01*
X488552Y35005D01*
X489480Y34077D01*
X489484Y34047D01*
X489494Y34030D01*
X489498Y34010D01*
X489551Y33921D01*
X489600Y33830D01*
X489614Y33816D01*
X489624Y33799D01*
X489703Y33732D01*
X489778Y33660D01*
X489796Y33652D01*
X489811Y33639D01*
X489907Y33600D01*
X490001Y33557D01*
X490021Y33555D01*
X490039Y33547D01*
X490206Y33529D01*
X495984Y33529D01*
X506376Y23137D01*
X506434Y23095D01*
X506486Y23046D01*
X506533Y23024D01*
X506575Y22993D01*
X506644Y22972D01*
X506709Y22942D01*
X506761Y22936D01*
X506811Y22921D01*
X506882Y22923D01*
X506953Y22915D01*
X507004Y22926D01*
X507056Y22927D01*
X507124Y22952D01*
X507194Y22967D01*
X507239Y22994D01*
X507287Y23012D01*
X507343Y23057D01*
X507405Y23093D01*
X507439Y23133D01*
X507479Y23165D01*
X507518Y23226D01*
X507565Y23280D01*
X507584Y23329D01*
X507612Y23372D01*
X507630Y23442D01*
X507657Y23508D01*
X507665Y23580D01*
X507673Y23611D01*
X507671Y23634D01*
X507675Y23675D01*
X507675Y23682D01*
X508568Y24575D01*
X517832Y24575D01*
X518725Y23682D01*
X518725Y14418D01*
X517832Y13525D01*
X508568Y13525D01*
G37*
%LPD*%
%LPC*%
G36*
X577216Y62159D02*
X577216Y62159D01*
X576569Y62332D01*
X575990Y62667D01*
X575705Y62952D01*
X575631Y63005D01*
X575561Y63065D01*
X575531Y63077D01*
X575505Y63096D01*
X575418Y63123D01*
X575333Y63157D01*
X575292Y63161D01*
X575270Y63168D01*
X575238Y63167D01*
X575166Y63175D01*
X567418Y63175D01*
X567288Y63305D01*
X567272Y63317D01*
X567260Y63333D01*
X567172Y63389D01*
X567089Y63449D01*
X567070Y63455D01*
X567053Y63466D01*
X566952Y63491D01*
X566853Y63521D01*
X566833Y63521D01*
X566814Y63526D01*
X566711Y63518D01*
X566608Y63515D01*
X566589Y63508D01*
X566569Y63507D01*
X566474Y63466D01*
X566377Y63431D01*
X566361Y63418D01*
X566343Y63410D01*
X566212Y63305D01*
X566082Y63175D01*
X557918Y63175D01*
X557025Y64068D01*
X557025Y75232D01*
X557918Y76125D01*
X566082Y76125D01*
X566212Y75995D01*
X566228Y75983D01*
X566240Y75967D01*
X566328Y75911D01*
X566411Y75851D01*
X566430Y75845D01*
X566447Y75834D01*
X566548Y75809D01*
X566646Y75779D01*
X566666Y75779D01*
X566686Y75774D01*
X566789Y75782D01*
X566892Y75785D01*
X566911Y75792D01*
X566931Y75793D01*
X567026Y75834D01*
X567123Y75869D01*
X567139Y75882D01*
X567157Y75890D01*
X567288Y75995D01*
X567418Y76125D01*
X567690Y76125D01*
X567710Y76128D01*
X567729Y76126D01*
X567831Y76148D01*
X567933Y76164D01*
X567950Y76174D01*
X567970Y76178D01*
X568059Y76231D01*
X568150Y76280D01*
X568164Y76294D01*
X568181Y76304D01*
X568248Y76383D01*
X568320Y76458D01*
X568328Y76476D01*
X568341Y76491D01*
X568380Y76587D01*
X568423Y76681D01*
X568425Y76701D01*
X568433Y76719D01*
X568451Y76886D01*
X568451Y77987D01*
X568437Y78077D01*
X568429Y78168D01*
X568417Y78197D01*
X568412Y78229D01*
X568369Y78310D01*
X568333Y78394D01*
X568307Y78426D01*
X568296Y78447D01*
X568273Y78469D01*
X568228Y78525D01*
X566193Y80560D01*
X566193Y84956D01*
X569302Y88065D01*
X573698Y88065D01*
X576807Y84956D01*
X576807Y80560D01*
X574772Y78525D01*
X574719Y78451D01*
X574659Y78381D01*
X574647Y78351D01*
X574628Y78325D01*
X574601Y78238D01*
X574567Y78153D01*
X574563Y78112D01*
X574556Y78090D01*
X574557Y78058D01*
X574549Y77987D01*
X574549Y77030D01*
X574560Y76959D01*
X574562Y76887D01*
X574580Y76838D01*
X574588Y76787D01*
X574622Y76724D01*
X574647Y76656D01*
X574679Y76615D01*
X574704Y76570D01*
X574755Y76520D01*
X574800Y76464D01*
X574844Y76436D01*
X574882Y76400D01*
X574947Y76370D01*
X575007Y76331D01*
X575058Y76319D01*
X575105Y76297D01*
X575176Y76289D01*
X575246Y76271D01*
X575298Y76275D01*
X575349Y76269D01*
X575420Y76285D01*
X575491Y76290D01*
X575539Y76311D01*
X575590Y76322D01*
X575651Y76359D01*
X575717Y76387D01*
X575773Y76431D01*
X575801Y76448D01*
X575816Y76466D01*
X575848Y76491D01*
X575990Y76633D01*
X576569Y76968D01*
X577216Y77141D01*
X579477Y77141D01*
X579477Y70412D01*
X579480Y70392D01*
X579478Y70373D01*
X579500Y70271D01*
X579517Y70169D01*
X579526Y70152D01*
X579530Y70132D01*
X579583Y70043D01*
X579632Y69952D01*
X579646Y69938D01*
X579656Y69921D01*
X579735Y69854D01*
X579810Y69783D01*
X579828Y69774D01*
X579843Y69761D01*
X579939Y69722D01*
X580033Y69679D01*
X580053Y69677D01*
X580071Y69669D01*
X580238Y69651D01*
X581001Y69651D01*
X581001Y69649D01*
X580238Y69649D01*
X580218Y69646D01*
X580199Y69648D01*
X580097Y69626D01*
X579995Y69609D01*
X579978Y69600D01*
X579958Y69596D01*
X579869Y69543D01*
X579778Y69494D01*
X579764Y69480D01*
X579747Y69470D01*
X579680Y69391D01*
X579609Y69316D01*
X579600Y69298D01*
X579587Y69283D01*
X579548Y69187D01*
X579505Y69093D01*
X579503Y69073D01*
X579495Y69055D01*
X579477Y68888D01*
X579477Y62159D01*
X577216Y62159D01*
G37*
%LPD*%
%LPC*%
G36*
X302997Y117935D02*
X302997Y117935D01*
X299665Y119315D01*
X297115Y121865D01*
X295735Y125197D01*
X295735Y128803D01*
X297115Y132135D01*
X299665Y134685D01*
X302997Y136065D01*
X306603Y136065D01*
X309935Y134685D01*
X312485Y132135D01*
X313865Y128803D01*
X313865Y125197D01*
X312485Y121865D01*
X309935Y119315D01*
X306603Y117935D01*
X302997Y117935D01*
G37*
%LPD*%
%LPC*%
G36*
X353797Y117935D02*
X353797Y117935D01*
X350465Y119315D01*
X347915Y121865D01*
X346535Y125197D01*
X346535Y128803D01*
X347915Y132135D01*
X350465Y134685D01*
X353797Y136065D01*
X357403Y136065D01*
X360735Y134685D01*
X363285Y132135D01*
X364665Y128803D01*
X364665Y125197D01*
X363285Y121865D01*
X360735Y119315D01*
X357403Y117935D01*
X353797Y117935D01*
G37*
%LPD*%
%LPC*%
G36*
X429997Y117935D02*
X429997Y117935D01*
X426665Y119315D01*
X424115Y121865D01*
X422735Y125197D01*
X422735Y128803D01*
X424115Y132135D01*
X426665Y134685D01*
X429997Y136065D01*
X433603Y136065D01*
X436935Y134685D01*
X439485Y132135D01*
X440865Y128803D01*
X440865Y125197D01*
X439485Y121865D01*
X436935Y119315D01*
X433603Y117935D01*
X429997Y117935D01*
G37*
%LPD*%
%LPC*%
G36*
X77723Y77723D02*
X77723Y77723D01*
X77723Y86281D01*
X84533Y86281D01*
X86101Y86033D01*
X87610Y85542D01*
X89023Y84822D01*
X90307Y83889D01*
X91429Y82767D01*
X92362Y81483D01*
X93082Y80070D01*
X93573Y78561D01*
X93705Y77723D01*
X77723Y77723D01*
G37*
%LPD*%
%LPC*%
G36*
X738123Y122173D02*
X738123Y122173D01*
X738123Y138155D01*
X738961Y138023D01*
X740470Y137532D01*
X741883Y136812D01*
X743167Y135879D01*
X744289Y134757D01*
X745222Y133473D01*
X745942Y132060D01*
X746433Y130551D01*
X746681Y128983D01*
X746681Y122173D01*
X738123Y122173D01*
G37*
%LPD*%
%LPC*%
G36*
X58695Y77723D02*
X58695Y77723D01*
X58827Y78561D01*
X59318Y80070D01*
X60038Y81483D01*
X60971Y82767D01*
X62093Y83889D01*
X63377Y84822D01*
X64790Y85542D01*
X66299Y86033D01*
X67867Y86281D01*
X74677Y86281D01*
X74677Y77723D01*
X58695Y77723D01*
G37*
%LPD*%
%LPC*%
G36*
X738123Y119127D02*
X738123Y119127D01*
X746681Y119127D01*
X746681Y112317D01*
X746433Y110749D01*
X745942Y109240D01*
X745222Y107827D01*
X744289Y106543D01*
X743167Y105421D01*
X741883Y104488D01*
X740470Y103768D01*
X738961Y103277D01*
X738123Y103145D01*
X738123Y119127D01*
G37*
%LPD*%
%LPC*%
G36*
X726519Y122173D02*
X726519Y122173D01*
X726519Y128983D01*
X726767Y130551D01*
X727258Y132060D01*
X727978Y133473D01*
X728911Y134757D01*
X730033Y135879D01*
X731317Y136812D01*
X732730Y137532D01*
X734239Y138023D01*
X735077Y138155D01*
X735077Y122173D01*
X726519Y122173D01*
G37*
%LPD*%
%LPC*%
G36*
X77723Y66119D02*
X77723Y66119D01*
X77723Y74677D01*
X93705Y74677D01*
X93573Y73839D01*
X93082Y72330D01*
X92362Y70917D01*
X91429Y69633D01*
X90307Y68511D01*
X89023Y67578D01*
X87610Y66858D01*
X86101Y66367D01*
X84533Y66119D01*
X77723Y66119D01*
G37*
%LPD*%
%LPC*%
G36*
X67867Y66119D02*
X67867Y66119D01*
X66299Y66367D01*
X64790Y66858D01*
X63377Y67578D01*
X62093Y68511D01*
X60971Y69633D01*
X60038Y70917D01*
X59318Y72330D01*
X58827Y73839D01*
X58695Y74677D01*
X74677Y74677D01*
X74677Y66119D01*
X67867Y66119D01*
G37*
%LPD*%
%LPC*%
G36*
X734239Y103277D02*
X734239Y103277D01*
X732730Y103768D01*
X731317Y104488D01*
X730033Y105421D01*
X728911Y106543D01*
X727978Y107827D01*
X727258Y109240D01*
X726767Y110749D01*
X726519Y112317D01*
X726519Y119127D01*
X735077Y119127D01*
X735077Y103145D01*
X734239Y103277D01*
G37*
%LPD*%
%LPC*%
G36*
X582523Y45973D02*
X582523Y45973D01*
X582523Y54491D01*
X587834Y54491D01*
X588481Y54318D01*
X589060Y53983D01*
X589533Y53510D01*
X589868Y52931D01*
X590041Y52284D01*
X590041Y45973D01*
X582523Y45973D01*
G37*
%LPD*%
%LPC*%
G36*
X582523Y34409D02*
X582523Y34409D01*
X582523Y42927D01*
X590041Y42927D01*
X590041Y36616D01*
X589868Y35969D01*
X589533Y35390D01*
X589060Y34917D01*
X588481Y34582D01*
X587834Y34409D01*
X582523Y34409D01*
G37*
%LPD*%
%LPC*%
G36*
X571959Y45973D02*
X571959Y45973D01*
X571959Y52284D01*
X572132Y52931D01*
X572467Y53510D01*
X572940Y53983D01*
X573519Y54318D01*
X574166Y54491D01*
X579477Y54491D01*
X579477Y45973D01*
X571959Y45973D01*
G37*
%LPD*%
%LPC*%
G36*
X574166Y34409D02*
X574166Y34409D01*
X573519Y34582D01*
X572940Y34917D01*
X572467Y35390D01*
X572132Y35969D01*
X571959Y36616D01*
X571959Y42927D01*
X579477Y42927D01*
X579477Y34409D01*
X574166Y34409D01*
G37*
%LPD*%
%LPC*%
G36*
X50099Y176149D02*
X50099Y176149D01*
X50099Y180191D01*
X55184Y180191D01*
X55831Y180018D01*
X56410Y179683D01*
X56883Y179210D01*
X57218Y178631D01*
X57391Y177984D01*
X57391Y176149D01*
X50099Y176149D01*
G37*
%LPD*%
%LPC*%
G36*
X583499Y166624D02*
X583499Y166624D01*
X583499Y170666D01*
X588584Y170666D01*
X589231Y170493D01*
X589810Y170158D01*
X590283Y169685D01*
X590618Y169106D01*
X590791Y168459D01*
X590791Y166624D01*
X583499Y166624D01*
G37*
%LPD*%
%LPC*%
G36*
X661874Y62799D02*
X661874Y62799D01*
X661874Y70091D01*
X663709Y70091D01*
X664356Y69918D01*
X664935Y69583D01*
X665408Y69110D01*
X665743Y68531D01*
X665916Y67884D01*
X665916Y62799D01*
X661874Y62799D01*
G37*
%LPD*%
%LPC*%
G36*
X462169Y22429D02*
X462169Y22429D01*
X462169Y26471D01*
X467254Y26471D01*
X467901Y26298D01*
X468480Y25963D01*
X468953Y25490D01*
X469288Y24911D01*
X469461Y24264D01*
X469461Y22429D01*
X462169Y22429D01*
G37*
%LPD*%
%LPC*%
G36*
X661874Y59801D02*
X661874Y59801D01*
X665916Y59801D01*
X665916Y54716D01*
X665743Y54069D01*
X665408Y53490D01*
X664935Y53017D01*
X664356Y52682D01*
X663709Y52509D01*
X661874Y52509D01*
X661874Y59801D01*
G37*
%LPD*%
%LPC*%
G36*
X39809Y176149D02*
X39809Y176149D01*
X39809Y177984D01*
X39982Y178631D01*
X40317Y179210D01*
X40790Y179683D01*
X41369Y180018D01*
X42016Y180191D01*
X47101Y180191D01*
X47101Y176149D01*
X39809Y176149D01*
G37*
%LPD*%
%LPC*%
G36*
X573209Y166624D02*
X573209Y166624D01*
X573209Y168459D01*
X573382Y169106D01*
X573717Y169685D01*
X574190Y170158D01*
X574769Y170493D01*
X575416Y170666D01*
X580501Y170666D01*
X580501Y166624D01*
X573209Y166624D01*
G37*
%LPD*%
%LPC*%
G36*
X451879Y22429D02*
X451879Y22429D01*
X451879Y24264D01*
X452052Y24911D01*
X452387Y25490D01*
X452860Y25963D01*
X453439Y26298D01*
X454086Y26471D01*
X459171Y26471D01*
X459171Y22429D01*
X451879Y22429D01*
G37*
%LPD*%
%LPC*%
G36*
X462169Y15389D02*
X462169Y15389D01*
X462169Y19431D01*
X469461Y19431D01*
X469461Y17596D01*
X469288Y16949D01*
X468953Y16370D01*
X468480Y15897D01*
X467901Y15562D01*
X467254Y15389D01*
X462169Y15389D01*
G37*
%LPD*%
%LPC*%
G36*
X654834Y62799D02*
X654834Y62799D01*
X654834Y67884D01*
X655007Y68531D01*
X655342Y69110D01*
X655815Y69583D01*
X656394Y69918D01*
X657041Y70091D01*
X658876Y70091D01*
X658876Y62799D01*
X654834Y62799D01*
G37*
%LPD*%
%LPC*%
G36*
X50099Y169109D02*
X50099Y169109D01*
X50099Y173151D01*
X57391Y173151D01*
X57391Y171316D01*
X57218Y170669D01*
X56883Y170090D01*
X56410Y169617D01*
X55831Y169282D01*
X55184Y169109D01*
X50099Y169109D01*
G37*
%LPD*%
%LPC*%
G36*
X583499Y159584D02*
X583499Y159584D01*
X583499Y163626D01*
X590791Y163626D01*
X590791Y161791D01*
X590618Y161144D01*
X590283Y160565D01*
X589810Y160092D01*
X589231Y159757D01*
X588584Y159584D01*
X583499Y159584D01*
G37*
%LPD*%
%LPC*%
G36*
X42016Y169109D02*
X42016Y169109D01*
X41369Y169282D01*
X40790Y169617D01*
X40317Y170090D01*
X39982Y170669D01*
X39809Y171316D01*
X39809Y173151D01*
X47101Y173151D01*
X47101Y169109D01*
X42016Y169109D01*
G37*
%LPD*%
%LPC*%
G36*
X454086Y15389D02*
X454086Y15389D01*
X453439Y15562D01*
X452860Y15897D01*
X452387Y16370D01*
X452052Y16949D01*
X451879Y17596D01*
X451879Y19431D01*
X459171Y19431D01*
X459171Y15389D01*
X454086Y15389D01*
G37*
%LPD*%
%LPC*%
G36*
X657041Y52509D02*
X657041Y52509D01*
X656394Y52682D01*
X655815Y53017D01*
X655342Y53490D01*
X655007Y54069D01*
X654834Y54716D01*
X654834Y59801D01*
X658876Y59801D01*
X658876Y52509D01*
X657041Y52509D01*
G37*
%LPD*%
%LPC*%
G36*
X575416Y159584D02*
X575416Y159584D01*
X574769Y159757D01*
X574190Y160092D01*
X573717Y160565D01*
X573382Y161144D01*
X573209Y161791D01*
X573209Y163626D01*
X580501Y163626D01*
X580501Y159584D01*
X575416Y159584D01*
G37*
%LPD*%
%LPC*%
G36*
X582523Y71173D02*
X582523Y71173D01*
X582523Y77141D01*
X584784Y77141D01*
X585431Y76968D01*
X586010Y76633D01*
X586483Y76160D01*
X586818Y75581D01*
X586991Y74934D01*
X586991Y71173D01*
X582523Y71173D01*
G37*
%LPD*%
%LPC*%
G36*
X582523Y62159D02*
X582523Y62159D01*
X582523Y68127D01*
X586991Y68127D01*
X586991Y64366D01*
X586818Y63719D01*
X586483Y63140D01*
X586010Y62667D01*
X585431Y62332D01*
X584784Y62159D01*
X582523Y62159D01*
G37*
%LPD*%
%LPC*%
G36*
X76199Y76199D02*
X76199Y76199D01*
X76199Y76201D01*
X76201Y76201D01*
X76201Y76199D01*
X76199Y76199D01*
G37*
%LPD*%
%LPC*%
G36*
X736599Y120649D02*
X736599Y120649D01*
X736599Y120651D01*
X736601Y120651D01*
X736601Y120649D01*
X736599Y120649D01*
G37*
%LPD*%
%LPC*%
G36*
X580999Y44449D02*
X580999Y44449D01*
X580999Y44451D01*
X581001Y44451D01*
X581001Y44449D01*
X580999Y44449D01*
G37*
%LPD*%
D10*
X469900Y110400D03*
X469900Y67400D03*
D11*
X304800Y50800D03*
X431800Y50800D03*
X431800Y127000D03*
X355600Y127000D03*
X304800Y127000D03*
D12*
X25400Y45840D03*
X25400Y60840D03*
D13*
X561365Y123825D03*
X580365Y123825D03*
D14*
X25400Y83210D03*
X25400Y102210D03*
D15*
X68660Y76200D02*
X83740Y76200D01*
X83740Y101600D02*
X68660Y101600D01*
X68660Y127000D02*
X83740Y127000D01*
X619125Y128190D02*
X619125Y113110D01*
X644525Y113110D02*
X644525Y128190D01*
X508000Y128190D02*
X508000Y113110D01*
X533400Y113110D02*
X533400Y128190D01*
X685800Y128190D02*
X685800Y113110D01*
X711200Y113110D02*
X711200Y128190D01*
X736600Y128190D02*
X736600Y113110D01*
D12*
X513200Y19050D03*
X528200Y19050D03*
X627500Y19050D03*
X642500Y19050D03*
D13*
X682600Y19050D03*
X663600Y19050D03*
X568300Y19050D03*
X549300Y19050D03*
D16*
X562000Y69650D03*
X571500Y69650D03*
X581000Y69650D03*
X581000Y95550D03*
X562000Y95550D03*
D13*
X478765Y156210D03*
X459765Y156210D03*
X562000Y44450D03*
X581000Y44450D03*
D17*
X110045Y161925D03*
X86805Y161925D03*
D18*
X460670Y40030D03*
X460670Y20930D03*
X481670Y30480D03*
D19*
X679475Y61300D03*
X660375Y61300D03*
X669925Y40300D03*
D18*
X48600Y155550D03*
X48600Y174650D03*
X27600Y165100D03*
X582000Y146025D03*
X582000Y165125D03*
X561000Y155575D03*
D20*
X568300Y27601D02*
X568300Y19050D01*
X562000Y33901D02*
X562000Y44450D01*
X562000Y33901D02*
X568300Y27601D01*
X711200Y101600D02*
X711200Y120650D01*
X562000Y95550D02*
X558825Y98725D01*
X552326Y98725D01*
X549151Y95550D01*
X45395Y33980D02*
X41275Y38100D01*
X41275Y104775D02*
X38100Y107950D01*
X31140Y107950D01*
X25400Y102210D01*
X41275Y104775D02*
X41275Y38100D01*
X45395Y33980D02*
X330200Y33980D01*
D21*
X330200Y33980D03*
D20*
X682600Y38075D02*
X682600Y19050D01*
X692150Y82550D02*
X711200Y101600D01*
X692150Y47625D02*
X682600Y38075D01*
X692150Y47625D02*
X692150Y82550D01*
X562000Y44450D02*
X555625Y44450D01*
X542925Y57150D01*
D21*
X542925Y57150D03*
D20*
X549151Y63376D01*
X549151Y95550D01*
X571500Y82758D02*
X571500Y69650D01*
D21*
X571500Y82758D03*
X432195Y102357D03*
D20*
X450216Y156210D02*
X454991Y156210D01*
X459765Y156210D01*
X403226Y161925D02*
X110045Y161925D01*
X403226Y161925D02*
X409575Y155576D01*
X409575Y155575D01*
X449581Y155575D01*
X450216Y156210D01*
X403225Y111125D02*
X411993Y102357D01*
X403225Y111125D02*
X403225Y149225D01*
X409575Y155575D01*
X411993Y102357D02*
X432195Y102357D01*
X402999Y50800D02*
X304800Y50800D01*
X402999Y50800D02*
X462599Y110400D01*
X469900Y110400D01*
X25400Y83210D02*
X25400Y60840D01*
X528200Y19050D02*
X549300Y19050D01*
X642500Y19050D02*
X663600Y19050D01*
X86805Y150026D02*
X86805Y161925D01*
X95778Y101600D02*
X76200Y101600D01*
X95778Y101600D02*
X100836Y106658D01*
X100836Y135995D01*
X86805Y150026D01*
X27600Y165100D02*
X24124Y165100D01*
X12310Y153286D01*
X12310Y44428D01*
X25400Y45840D02*
X25400Y39490D01*
X15240Y37465D02*
X12310Y40395D01*
X12310Y44428D01*
X15240Y37465D02*
X23375Y37465D01*
X25400Y39490D01*
X581000Y95550D02*
X581000Y101600D01*
X581000Y104800D01*
X577850Y107950D01*
X561975Y107950D02*
X555625Y114300D01*
X555625Y118085D01*
X561365Y123825D01*
X561975Y107950D02*
X577850Y107950D01*
X679475Y83525D02*
X679475Y61300D01*
X679475Y83525D02*
X672336Y90664D01*
X623075Y90664D01*
X589914Y123825D01*
X580365Y123825D01*
X580365Y138341D01*
X582000Y139976D01*
X582000Y146025D01*
X487050Y150076D02*
X480916Y156210D01*
X478765Y156210D01*
X487050Y150076D02*
X487050Y97388D01*
X478912Y89250D01*
X454998Y89250D01*
X420807Y55059D01*
X420807Y46412D01*
X427189Y40030D01*
X460670Y40030D01*
X55251Y155550D02*
X48600Y155550D01*
X55251Y155550D02*
X76896Y177195D01*
X457780Y177195D01*
X478765Y156210D01*
X506151Y19050D02*
X513200Y19050D01*
X494721Y30480D02*
X481670Y30480D01*
X494721Y30480D02*
X506151Y19050D01*
X627500Y19050D02*
X627500Y29107D01*
X638693Y40300D01*
X669925Y40300D01*
X509274Y67400D02*
X469900Y67400D01*
X545259Y155575D02*
X561000Y155575D01*
X545259Y155575D02*
X520700Y131016D01*
X520700Y78826D01*
X509274Y67400D01*
X469900Y67400D02*
X459101Y67400D01*
X442501Y50800D01*
X431800Y50800D01*
M02*
