G04 EAGLE Gerber RS-274X export*
G75*
%MOMM*%
%FSLAX34Y34*%
%LPD*%
%INTop Solder Mask*%
%IPPOS*%
%AMOC8*
5,1,8,0,0,1.08239X$1,22.5*%
G01*
%ADD10C,5.308600*%
%ADD11R,1.753200X2.553200*%
%ADD12C,1.711200*%
%ADD13R,1.003200X1.003200*%
%ADD14R,1.503200X1.703200*%
%ADD15R,1.703200X1.503200*%
%ADD16C,1.711200*%
%ADD17R,0.893200X1.193200*%
%ADD18R,1.328200X0.703200*%
%ADD19R,1.453200X0.803200*%
%ADD20R,0.803200X1.453200*%
%ADD21C,0.959600*%


D10*
X190500Y98425D03*
X812800Y98425D03*
D11*
X469900Y110400D03*
X469900Y67400D03*
D12*
X304800Y50800D03*
X431800Y50800D03*
X431800Y127000D03*
X355600Y127000D03*
X304800Y127000D03*
D13*
X25400Y45840D03*
X25400Y60840D03*
D14*
X561365Y123825D03*
X580365Y123825D03*
D15*
X25400Y83210D03*
X25400Y102210D03*
D16*
X68660Y76200D02*
X83740Y76200D01*
X83740Y101600D02*
X68660Y101600D01*
X68660Y127000D02*
X83740Y127000D01*
X619125Y128190D02*
X619125Y113110D01*
X644525Y113110D02*
X644525Y128190D01*
X508000Y128190D02*
X508000Y113110D01*
X533400Y113110D02*
X533400Y128190D01*
X685800Y128190D02*
X685800Y113110D01*
X711200Y113110D02*
X711200Y128190D01*
X736600Y128190D02*
X736600Y113110D01*
D13*
X513200Y19050D03*
X528200Y19050D03*
X627500Y19050D03*
X642500Y19050D03*
D14*
X682600Y19050D03*
X663600Y19050D03*
X568300Y19050D03*
X549300Y19050D03*
D17*
X562000Y69650D03*
X571500Y69650D03*
X581000Y69650D03*
X581000Y95550D03*
X562000Y95550D03*
D14*
X478765Y156210D03*
X459765Y156210D03*
X562000Y44450D03*
X581000Y44450D03*
D18*
X110045Y161925D03*
X86805Y161925D03*
D19*
X460670Y40030D03*
X460670Y20930D03*
X481670Y30480D03*
D20*
X679475Y61300D03*
X660375Y61300D03*
X669925Y40300D03*
D19*
X48600Y155550D03*
X48600Y174650D03*
X27600Y165100D03*
X582000Y146025D03*
X582000Y165125D03*
X561000Y155575D03*
D21*
X330200Y33980D03*
X542925Y57150D03*
X571500Y82758D03*
X432195Y102357D03*
M02*
