G04 This is an RS-274x file exported by *
G04 gerbv version 2.7A *
G04 More information is available about gerbv at *
G04 http://gerbv.geda-project.org/ *
G04 --End of header info--*
%MOIN*%
%FSLAX36Y36*%
%IPPOS*%
%INBottom Silkscreen*%
G04 --Define apertures--*
%ADD10C,0.3536*%
%ADD11C,0.0030*%
%ADD12C,0.0040*%
%ADD13C,0.0060*%
%ADD14C,0.0050*%
%ADD15C,0.0000*%
G04 --Start main section--*
G54D10*
G01X3200000Y0387500D03*
G01X0750000Y0387500D03*
G54D11*
G01X1182567Y0342681D02*
G01X1182567Y0313681D01*
G01X1182567Y0342681D02*
G01X1174512Y0342681D01*
G01X1174512Y0342681D02*
G01X1174161Y0342673D01*
G01X1174161Y0342673D02*
G01X1173811Y0342650D01*
G01X1173811Y0342650D02*
G01X1173461Y0342610D01*
G01X1173461Y0342610D02*
G01X1173114Y0342559D01*
G01X1173114Y0342559D02*
G01X1172768Y0342492D01*
G01X1172768Y0342492D02*
G01X1172425Y0342406D01*
G01X1172425Y0342406D02*
G01X1172091Y0342307D01*
G01X1172091Y0342307D02*
G01X1171756Y0342197D01*
G01X1171756Y0342197D02*
G01X1171429Y0342067D01*
G01X1171429Y0342067D02*
G01X1171106Y0341925D01*
G01X1171106Y0341925D02*
G01X1170791Y0341772D01*
G01X1170791Y0341772D02*
G01X1170484Y0341602D01*
G01X1170484Y0341602D02*
G01X1170185Y0341421D01*
G01X1170185Y0341421D02*
G01X1169890Y0341224D01*
G01X1169890Y0341224D02*
G01X1169606Y0341016D01*
G01X1169606Y0341016D02*
G01X1169335Y0340795D01*
G01X1169335Y0340795D02*
G01X1169071Y0340563D01*
G01X1169071Y0340563D02*
G01X1168815Y0340323D01*
G01X1168815Y0340323D02*
G01X1168575Y0340067D01*
G01X1168575Y0340067D02*
G01X1168343Y0339803D01*
G01X1168343Y0339803D02*
G01X1168122Y0339531D01*
G01X1168122Y0339531D02*
G01X1167913Y0339248D01*
G01X1167913Y0339248D02*
G01X1167717Y0338953D01*
G01X1167717Y0338953D02*
G01X1167535Y0338654D01*
G01X1167535Y0338654D02*
G01X1167366Y0338346D01*
G01X1167366Y0338346D02*
G01X1167213Y0338031D01*
G01X1167213Y0338031D02*
G01X1167071Y0337709D01*
G01X1167071Y0337709D02*
G01X1166941Y0337382D01*
G01X1166941Y0337382D02*
G01X1166831Y0337047D01*
G01X1166831Y0337047D02*
G01X1166732Y0336713D01*
G01X1166732Y0336713D02*
G01X1166646Y0336370D01*
G01X1166646Y0336370D02*
G01X1166579Y0336024D01*
G01X1166579Y0336024D02*
G01X1166528Y0335677D01*
G01X1166528Y0335677D02*
G01X1166488Y0335327D01*
G01X1166488Y0335327D02*
G01X1166465Y0334976D01*
G01X1166465Y0334976D02*
G01X1166457Y0334626D01*
G01X1166457Y0334626D02*
G01X1166465Y0334276D01*
G01X1166465Y0334276D02*
G01X1166488Y0333925D01*
G01X1166488Y0333925D02*
G01X1166528Y0333575D01*
G01X1166528Y0333575D02*
G01X1166579Y0333228D01*
G01X1166579Y0333228D02*
G01X1166646Y0332882D01*
G01X1166646Y0332882D02*
G01X1166732Y0332539D01*
G01X1166732Y0332539D02*
G01X1166831Y0332205D01*
G01X1166831Y0332205D02*
G01X1166941Y0331870D01*
G01X1166941Y0331870D02*
G01X1167071Y0331543D01*
G01X1167071Y0331543D02*
G01X1167213Y0331220D01*
G01X1167213Y0331220D02*
G01X1167366Y0330906D01*
G01X1167366Y0330906D02*
G01X1167535Y0330598D01*
G01X1167535Y0330598D02*
G01X1167717Y0330299D01*
G01X1167717Y0330299D02*
G01X1167913Y0330004D01*
G01X1167913Y0330004D02*
G01X1168122Y0329720D01*
G01X1168122Y0329720D02*
G01X1168343Y0329449D01*
G01X1168343Y0329449D02*
G01X1168575Y0329185D01*
G01X1168575Y0329185D02*
G01X1168815Y0328929D01*
G01X1168815Y0328929D02*
G01X1169071Y0328689D01*
G01X1169071Y0328689D02*
G01X1169335Y0328457D01*
G01X1169335Y0328457D02*
G01X1169606Y0328236D01*
G01X1169606Y0328236D02*
G01X1169890Y0328028D01*
G01X1169890Y0328028D02*
G01X1170185Y0327831D01*
G01X1170185Y0327831D02*
G01X1170484Y0327650D01*
G01X1170484Y0327650D02*
G01X1170791Y0327480D01*
G01X1170791Y0327480D02*
G01X1171106Y0327327D01*
G01X1171106Y0327327D02*
G01X1171429Y0327185D01*
G01X1171429Y0327185D02*
G01X1171756Y0327055D01*
G01X1171756Y0327055D02*
G01X1172091Y0326945D01*
G01X1172091Y0326945D02*
G01X1172425Y0326846D01*
G01X1172425Y0326846D02*
G01X1172768Y0326760D01*
G01X1172768Y0326760D02*
G01X1173114Y0326693D01*
G01X1173114Y0326693D02*
G01X1173461Y0326642D01*
G01X1173461Y0326642D02*
G01X1173811Y0326602D01*
G01X1173811Y0326602D02*
G01X1174161Y0326579D01*
G01X1174161Y0326579D02*
G01X1174512Y0326571D01*
G01X1174512Y0326567D02*
G01X1182567Y0326567D01*
G01X1172902Y0326567D02*
G01X1166457Y0313681D01*
G01X1149445Y0313681D02*
G01X1141390Y0313681D01*
G01X1149445Y0313677D02*
G01X1149717Y0313685D01*
G01X1149717Y0313685D02*
G01X1149984Y0313709D01*
G01X1149984Y0313709D02*
G01X1150256Y0313744D01*
G01X1150256Y0313744D02*
G01X1150520Y0313799D01*
G01X1150520Y0313799D02*
G01X1150783Y0313866D01*
G01X1150783Y0313866D02*
G01X1151043Y0313949D01*
G01X1151043Y0313949D02*
G01X1151295Y0314043D01*
G01X1151295Y0314043D02*
G01X1151543Y0314157D01*
G01X1151543Y0314157D02*
G01X1151783Y0314280D01*
G01X1151783Y0314280D02*
G01X1152016Y0314417D01*
G01X1152016Y0314417D02*
G01X1152244Y0314567D01*
G01X1152244Y0314567D02*
G01X1152461Y0314732D01*
G01X1152461Y0314732D02*
G01X1152665Y0314906D01*
G01X1152665Y0314906D02*
G01X1152862Y0315094D01*
G01X1152862Y0315094D02*
G01X1153051Y0315291D01*
G01X1153051Y0315291D02*
G01X1153224Y0315496D01*
G01X1153224Y0315496D02*
G01X1153390Y0315713D01*
G01X1153390Y0315713D02*
G01X1153539Y0315941D01*
G01X1153539Y0315941D02*
G01X1153677Y0316173D01*
G01X1153677Y0316173D02*
G01X1153799Y0316413D01*
G01X1153799Y0316413D02*
G01X1153913Y0316661D01*
G01X1153913Y0316661D02*
G01X1154008Y0316913D01*
G01X1154008Y0316913D02*
G01X1154091Y0317173D01*
G01X1154091Y0317173D02*
G01X1154157Y0317437D01*
G01X1154157Y0317437D02*
G01X1154213Y0317701D01*
G01X1154213Y0317701D02*
G01X1154248Y0317972D01*
G01X1154248Y0317972D02*
G01X1154272Y0318240D01*
G01X1154272Y0318240D02*
G01X1154280Y0318512D01*
G01X1154280Y0318512D02*
G01X1154280Y0326567D01*
G01X1154280Y0326567D02*
G01X1154272Y0326878D01*
G01X1154272Y0326878D02*
G01X1154248Y0327189D01*
G01X1154248Y0327189D02*
G01X1154213Y0327500D01*
G01X1154213Y0327500D02*
G01X1154161Y0327807D01*
G01X1154161Y0327807D02*
G01X1154091Y0328110D01*
G01X1154091Y0328110D02*
G01X1154012Y0328409D01*
G01X1154012Y0328409D02*
G01X1153913Y0328705D01*
G01X1153913Y0328705D02*
G01X1153803Y0328996D01*
G01X1153803Y0328996D02*
G01X1153681Y0329283D01*
G01X1153681Y0329283D02*
G01X1153539Y0329563D01*
G01X1153539Y0329563D02*
G01X1153390Y0329835D01*
G01X1153390Y0329835D02*
G01X1153224Y0330098D01*
G01X1153224Y0330098D02*
G01X1153047Y0330354D01*
G01X1153047Y0330354D02*
G01X1152858Y0330602D01*
G01X1152858Y0330602D02*
G01X1152657Y0330843D01*
G01X1152657Y0330843D02*
G01X1152445Y0331067D01*
G01X1152445Y0331067D02*
G01X1152224Y0331287D01*
G01X1152224Y0331287D02*
G01X1151992Y0331492D01*
G01X1151992Y0331492D02*
G01X1151748Y0331689D01*
G01X1151748Y0331689D02*
G01X1151496Y0331870D01*
G01X1151496Y0331870D02*
G01X1151236Y0332043D01*
G01X1151236Y0332043D02*
G01X1150969Y0332201D01*
G01X1150969Y0332201D02*
G01X1150693Y0332343D01*
G01X1150693Y0332343D02*
G01X1150409Y0332476D01*
G01X1150409Y0332476D02*
G01X1150118Y0332594D01*
G01X1150118Y0332594D02*
G01X1149827Y0332697D01*
G01X1149827Y0332697D02*
G01X1149528Y0332787D01*
G01X1149528Y0332787D02*
G01X1149224Y0332858D01*
G01X1149224Y0332858D02*
G01X1148921Y0332921D01*
G01X1148921Y0332921D02*
G01X1148610Y0332965D01*
G01X1148610Y0332965D02*
G01X1148303Y0332996D01*
G01X1148303Y0332996D02*
G01X1147992Y0333012D01*
G01X1147992Y0333012D02*
G01X1147677Y0333012D01*
G01X1147677Y0333012D02*
G01X1147366Y0332996D01*
G01X1147366Y0332996D02*
G01X1147059Y0332965D01*
G01X1147059Y0332965D02*
G01X1146748Y0332921D01*
G01X1146748Y0332921D02*
G01X1146445Y0332858D01*
G01X1146445Y0332858D02*
G01X1146142Y0332787D01*
G01X1146142Y0332787D02*
G01X1145843Y0332697D01*
G01X1145843Y0332697D02*
G01X1145551Y0332594D01*
G01X1145551Y0332594D02*
G01X1145260Y0332476D01*
G01X1145260Y0332476D02*
G01X1144976Y0332343D01*
G01X1144976Y0332343D02*
G01X1144701Y0332201D01*
G01X1144701Y0332201D02*
G01X1144433Y0332043D01*
G01X1144433Y0332043D02*
G01X1144173Y0331870D01*
G01X1144173Y0331870D02*
G01X1143921Y0331689D01*
G01X1143921Y0331689D02*
G01X1143677Y0331492D01*
G01X1143677Y0331492D02*
G01X1143445Y0331287D01*
G01X1143445Y0331287D02*
G01X1143224Y0331067D01*
G01X1143224Y0331067D02*
G01X1143012Y0330843D01*
G01X1143012Y0330843D02*
G01X1142811Y0330602D01*
G01X1142811Y0330602D02*
G01X1142622Y0330354D01*
G01X1142622Y0330354D02*
G01X1142445Y0330098D01*
G01X1142445Y0330098D02*
G01X1142280Y0329835D01*
G01X1142280Y0329835D02*
G01X1142130Y0329563D01*
G01X1142130Y0329563D02*
G01X1141988Y0329283D01*
G01X1141988Y0329283D02*
G01X1141866Y0328996D01*
G01X1141866Y0328996D02*
G01X1141756Y0328705D01*
G01X1141756Y0328705D02*
G01X1141657Y0328409D01*
G01X1141657Y0328409D02*
G01X1141579Y0328110D01*
G01X1141579Y0328110D02*
G01X1141508Y0327807D01*
G01X1141508Y0327807D02*
G01X1141457Y0327500D01*
G01X1141457Y0327500D02*
G01X1141421Y0327189D01*
G01X1141421Y0327189D02*
G01X1141398Y0326878D01*
G01X1141398Y0326878D02*
G01X1141390Y0326567D01*
G01X1141390Y0326567D02*
G01X1141390Y0323346D01*
G01X1141390Y0323346D02*
G01X1154280Y0323346D01*
G01X1128992Y0318512D02*
G01X1128992Y0342681D01*
G01X1128992Y0318512D02*
G01X1128984Y0318240D01*
G01X1128984Y0318240D02*
G01X1128961Y0317972D01*
G01X1128961Y0317972D02*
G01X1128925Y0317701D01*
G01X1128925Y0317701D02*
G01X1128870Y0317437D01*
G01X1128870Y0317437D02*
G01X1128803Y0317173D01*
G01X1128803Y0317173D02*
G01X1128720Y0316913D01*
G01X1128720Y0316913D02*
G01X1128626Y0316661D01*
G01X1128626Y0316661D02*
G01X1128512Y0316413D01*
G01X1128512Y0316413D02*
G01X1128390Y0316173D01*
G01X1128390Y0316173D02*
G01X1128252Y0315941D01*
G01X1128252Y0315941D02*
G01X1128102Y0315713D01*
G01X1128102Y0315713D02*
G01X1127937Y0315496D01*
G01X1127937Y0315496D02*
G01X1127764Y0315291D01*
G01X1127764Y0315291D02*
G01X1127575Y0315094D01*
G01X1127575Y0315094D02*
G01X1127378Y0314906D01*
G01X1127378Y0314906D02*
G01X1127173Y0314732D01*
G01X1127173Y0314732D02*
G01X1126957Y0314571D01*
G01X1126957Y0314571D02*
G01X1126728Y0314417D01*
G01X1126728Y0314417D02*
G01X1126496Y0314280D01*
G01X1126496Y0314280D02*
G01X1126256Y0314157D01*
G01X1126256Y0314157D02*
G01X1126008Y0314043D01*
G01X1126008Y0314043D02*
G01X1125756Y0313949D01*
G01X1125756Y0313949D02*
G01X1125496Y0313866D01*
G01X1125496Y0313866D02*
G01X1125232Y0313799D01*
G01X1125232Y0313799D02*
G01X1124969Y0313744D01*
G01X1124969Y0313744D02*
G01X1124701Y0313709D01*
G01X1124701Y0313709D02*
G01X1124429Y0313685D01*
G01X1124429Y0313685D02*
G01X1124157Y0313677D01*
G01X1108480Y0324957D02*
G01X1101232Y0324957D01*
G01X1108480Y0324957D02*
G01X1108776Y0324949D01*
G01X1108776Y0324949D02*
G01X1109071Y0324925D01*
G01X1109071Y0324925D02*
G01X1109362Y0324886D01*
G01X1109362Y0324886D02*
G01X1109654Y0324835D01*
G01X1109654Y0324835D02*
G01X1109941Y0324764D01*
G01X1109941Y0324764D02*
G01X1110224Y0324681D01*
G01X1110224Y0324681D02*
G01X1110500Y0324583D01*
G01X1110500Y0324583D02*
G01X1110772Y0324469D01*
G01X1110772Y0324469D02*
G01X1111039Y0324343D01*
G01X1111039Y0324343D02*
G01X1111299Y0324201D01*
G01X1111299Y0324201D02*
G01X1111551Y0324047D01*
G01X1111551Y0324047D02*
G01X1111795Y0323882D01*
G01X1111795Y0323882D02*
G01X1112028Y0323701D01*
G01X1112028Y0323701D02*
G01X1112252Y0323508D01*
G01X1112252Y0323508D02*
G01X1112469Y0323307D01*
G01X1112469Y0323307D02*
G01X1112669Y0323091D01*
G01X1112669Y0323091D02*
G01X1112862Y0322866D01*
G01X1112862Y0322866D02*
G01X1113043Y0322634D01*
G01X1113043Y0322634D02*
G01X1113209Y0322390D01*
G01X1113209Y0322390D02*
G01X1113362Y0322138D01*
G01X1113362Y0322138D02*
G01X1113504Y0321878D01*
G01X1113504Y0321878D02*
G01X1113630Y0321610D01*
G01X1113630Y0321610D02*
G01X1113744Y0321339D01*
G01X1113744Y0321339D02*
G01X1113843Y0321063D01*
G01X1113843Y0321063D02*
G01X1113925Y0320780D01*
G01X1113925Y0320780D02*
G01X1113996Y0320492D01*
G01X1113996Y0320492D02*
G01X1114047Y0320201D01*
G01X1114047Y0320201D02*
G01X1114087Y0319909D01*
G01X1114087Y0319909D02*
G01X1114110Y0319614D01*
G01X1114110Y0319614D02*
G01X1114118Y0319319D01*
G01X1114118Y0319319D02*
G01X1114110Y0319024D01*
G01X1114110Y0319024D02*
G01X1114087Y0318728D01*
G01X1114087Y0318728D02*
G01X1114047Y0318437D01*
G01X1114047Y0318437D02*
G01X1113996Y0318146D01*
G01X1113996Y0318146D02*
G01X1113925Y0317858D01*
G01X1113925Y0317858D02*
G01X1113843Y0317575D01*
G01X1113843Y0317575D02*
G01X1113744Y0317299D01*
G01X1113744Y0317299D02*
G01X1113630Y0317028D01*
G01X1113630Y0317028D02*
G01X1113504Y0316760D01*
G01X1113504Y0316760D02*
G01X1113362Y0316500D01*
G01X1113362Y0316500D02*
G01X1113209Y0316248D01*
G01X1113209Y0316248D02*
G01X1113043Y0316004D01*
G01X1113043Y0316004D02*
G01X1112862Y0315772D01*
G01X1112862Y0315772D02*
G01X1112669Y0315547D01*
G01X1112669Y0315547D02*
G01X1112469Y0315331D01*
G01X1112469Y0315331D02*
G01X1112252Y0315130D01*
G01X1112252Y0315130D02*
G01X1112028Y0314937D01*
G01X1112028Y0314937D02*
G01X1111795Y0314756D01*
G01X1111795Y0314756D02*
G01X1111551Y0314591D01*
G01X1111551Y0314591D02*
G01X1111299Y0314437D01*
G01X1111299Y0314437D02*
G01X1111039Y0314295D01*
G01X1111039Y0314295D02*
G01X1110772Y0314169D01*
G01X1110772Y0314169D02*
G01X1110500Y0314055D01*
G01X1110500Y0314055D02*
G01X1110224Y0313957D01*
G01X1110224Y0313957D02*
G01X1109941Y0313874D01*
G01X1109941Y0313874D02*
G01X1109654Y0313803D01*
G01X1109654Y0313803D02*
G01X1109362Y0313752D01*
G01X1109362Y0313752D02*
G01X1109071Y0313713D01*
G01X1109071Y0313713D02*
G01X1108776Y0313689D01*
G01X1108776Y0313689D02*
G01X1108480Y0313681D01*
G01X1108480Y0313681D02*
G01X1101232Y0313681D01*
G01X1101232Y0313681D02*
G01X1101232Y0328181D01*
G01X1101232Y0328181D02*
G01X1101240Y0328453D01*
G01X1101240Y0328453D02*
G01X1101264Y0328720D01*
G01X1101264Y0328720D02*
G01X1101299Y0328992D01*
G01X1101299Y0328992D02*
G01X1101354Y0329256D01*
G01X1101354Y0329256D02*
G01X1101421Y0329520D01*
G01X1101421Y0329520D02*
G01X1101504Y0329780D01*
G01X1101504Y0329780D02*
G01X1101598Y0330031D01*
G01X1101598Y0330031D02*
G01X1101713Y0330280D01*
G01X1101713Y0330280D02*
G01X1101835Y0330520D01*
G01X1101835Y0330520D02*
G01X1101972Y0330752D01*
G01X1101972Y0330752D02*
G01X1102122Y0330980D01*
G01X1102122Y0330980D02*
G01X1102287Y0331197D01*
G01X1102287Y0331197D02*
G01X1102461Y0331402D01*
G01X1102461Y0331402D02*
G01X1102650Y0331598D01*
G01X1102650Y0331598D02*
G01X1102846Y0331787D01*
G01X1102846Y0331787D02*
G01X1103051Y0331961D01*
G01X1103051Y0331961D02*
G01X1103268Y0332126D01*
G01X1103268Y0332126D02*
G01X1103496Y0332276D01*
G01X1103496Y0332276D02*
G01X1103728Y0332413D01*
G01X1103728Y0332413D02*
G01X1103969Y0332535D01*
G01X1103969Y0332535D02*
G01X1104217Y0332650D01*
G01X1104217Y0332650D02*
G01X1104469Y0332744D01*
G01X1104469Y0332744D02*
G01X1104728Y0332827D01*
G01X1104728Y0332827D02*
G01X1104992Y0332894D01*
G01X1104992Y0332894D02*
G01X1105256Y0332949D01*
G01X1105256Y0332949D02*
G01X1105528Y0332984D01*
G01X1105528Y0332984D02*
G01X1105795Y0333008D01*
G01X1105795Y0333008D02*
G01X1106067Y0333016D01*
G01X1106067Y0333012D02*
G01X1112508Y0333012D01*
G01X1089000Y0304012D02*
G01X1085776Y0304012D01*
G01X1085776Y0304012D02*
G01X1076110Y0333012D01*
G01X1089000Y0333012D02*
G01X1082555Y0313681D01*
G01X1042976Y0313681D02*
G01X1036531Y0313681D01*
G01X1042976Y0313681D02*
G01X1043283Y0313689D01*
G01X1043283Y0313689D02*
G01X1043591Y0313709D01*
G01X1043591Y0313709D02*
G01X1043894Y0313748D01*
G01X1043894Y0313748D02*
G01X1044197Y0313799D01*
G01X1044197Y0313799D02*
G01X1044496Y0313862D01*
G01X1044496Y0313862D02*
G01X1044791Y0313941D01*
G01X1044791Y0313941D02*
G01X1045083Y0314035D01*
G01X1045083Y0314035D02*
G01X1045370Y0314142D01*
G01X1045370Y0314142D02*
G01X1045654Y0314264D01*
G01X1045654Y0314264D02*
G01X1045929Y0314398D01*
G01X1045929Y0314398D02*
G01X1046201Y0314543D01*
G01X1046201Y0314543D02*
G01X1046461Y0314705D01*
G01X1046461Y0314705D02*
G01X1046717Y0314878D01*
G01X1046717Y0314878D02*
G01X1046961Y0315059D01*
G01X1046961Y0315059D02*
G01X1047197Y0315256D01*
G01X1047197Y0315256D02*
G01X1047425Y0315461D01*
G01X1047425Y0315461D02*
G01X1047642Y0315677D01*
G01X1047642Y0315677D02*
G01X1047846Y0315906D01*
G01X1047846Y0315906D02*
G01X1048043Y0316142D01*
G01X1048043Y0316142D02*
G01X1048224Y0316386D01*
G01X1048224Y0316386D02*
G01X1048398Y0316642D01*
G01X1048398Y0316642D02*
G01X1048559Y0316906D01*
G01X1048559Y0316906D02*
G01X1048705Y0317173D01*
G01X1048705Y0317173D02*
G01X1048839Y0317449D01*
G01X1048839Y0317449D02*
G01X1048961Y0317732D01*
G01X1048961Y0317732D02*
G01X1049067Y0318020D01*
G01X1049067Y0318020D02*
G01X1049161Y0318311D01*
G01X1049161Y0318311D02*
G01X1049240Y0318606D01*
G01X1049240Y0318606D02*
G01X1049303Y0318906D01*
G01X1049303Y0318906D02*
G01X1049354Y0319209D01*
G01X1049354Y0319209D02*
G01X1049394Y0319512D01*
G01X1049394Y0319512D02*
G01X1049413Y0319819D01*
G01X1049413Y0319819D02*
G01X1049421Y0320126D01*
G01X1049421Y0320126D02*
G01X1049421Y0336236D01*
G01X1049421Y0336236D02*
G01X1049413Y0336543D01*
G01X1049413Y0336543D02*
G01X1049394Y0336850D01*
G01X1049394Y0336850D02*
G01X1049354Y0337154D01*
G01X1049354Y0337154D02*
G01X1049303Y0337457D01*
G01X1049303Y0337457D02*
G01X1049240Y0337756D01*
G01X1049240Y0337756D02*
G01X1049161Y0338051D01*
G01X1049161Y0338051D02*
G01X1049067Y0338343D01*
G01X1049067Y0338343D02*
G01X1048961Y0338630D01*
G01X1048961Y0338630D02*
G01X1048839Y0338913D01*
G01X1048839Y0338913D02*
G01X1048705Y0339189D01*
G01X1048705Y0339189D02*
G01X1048559Y0339461D01*
G01X1048559Y0339461D02*
G01X1048398Y0339720D01*
G01X1048398Y0339720D02*
G01X1048224Y0339976D01*
G01X1048224Y0339976D02*
G01X1048043Y0340220D01*
G01X1048043Y0340220D02*
G01X1047846Y0340457D01*
G01X1047846Y0340457D02*
G01X1047642Y0340685D01*
G01X1047642Y0340685D02*
G01X1047425Y0340902D01*
G01X1047425Y0340902D02*
G01X1047197Y0341106D01*
G01X1047197Y0341106D02*
G01X1046961Y0341303D01*
G01X1046961Y0341303D02*
G01X1046717Y0341484D01*
G01X1046717Y0341484D02*
G01X1046461Y0341657D01*
G01X1046461Y0341657D02*
G01X1046201Y0341819D01*
G01X1046201Y0341819D02*
G01X1045929Y0341965D01*
G01X1045929Y0341965D02*
G01X1045654Y0342098D01*
G01X1045654Y0342098D02*
G01X1045370Y0342220D01*
G01X1045370Y0342220D02*
G01X1045083Y0342327D01*
G01X1045083Y0342327D02*
G01X1044791Y0342421D01*
G01X1044791Y0342421D02*
G01X1044496Y0342500D01*
G01X1044496Y0342500D02*
G01X1044197Y0342563D01*
G01X1044197Y0342563D02*
G01X1043894Y0342614D01*
G01X1043894Y0342614D02*
G01X1043591Y0342654D01*
G01X1043591Y0342654D02*
G01X1043283Y0342673D01*
G01X1043283Y0342673D02*
G01X1042976Y0342681D01*
G01X1042976Y0342681D02*
G01X1036531Y0342681D01*
G01X1025642Y0326567D02*
G01X1025642Y0320126D01*
G01X1025642Y0326567D02*
G01X1025634Y0326878D01*
G01X1025634Y0326878D02*
G01X1025610Y0327189D01*
G01X1025610Y0327189D02*
G01X1025575Y0327500D01*
G01X1025575Y0327500D02*
G01X1025524Y0327807D01*
G01X1025524Y0327807D02*
G01X1025453Y0328110D01*
G01X1025453Y0328110D02*
G01X1025374Y0328409D01*
G01X1025374Y0328409D02*
G01X1025276Y0328705D01*
G01X1025276Y0328705D02*
G01X1025165Y0328996D01*
G01X1025165Y0328996D02*
G01X1025043Y0329283D01*
G01X1025043Y0329283D02*
G01X1024902Y0329563D01*
G01X1024902Y0329563D02*
G01X1024752Y0329835D01*
G01X1024752Y0329835D02*
G01X1024587Y0330098D01*
G01X1024587Y0330098D02*
G01X1024409Y0330354D01*
G01X1024409Y0330354D02*
G01X1024220Y0330602D01*
G01X1024220Y0330602D02*
G01X1024020Y0330843D01*
G01X1024020Y0330843D02*
G01X1023807Y0331067D01*
G01X1023807Y0331067D02*
G01X1023587Y0331287D01*
G01X1023587Y0331287D02*
G01X1023354Y0331492D01*
G01X1023354Y0331492D02*
G01X1023110Y0331689D01*
G01X1023110Y0331689D02*
G01X1022858Y0331870D01*
G01X1022858Y0331870D02*
G01X1022598Y0332043D01*
G01X1022598Y0332043D02*
G01X1022331Y0332201D01*
G01X1022331Y0332201D02*
G01X1022055Y0332343D01*
G01X1022055Y0332343D02*
G01X1021772Y0332476D01*
G01X1021772Y0332476D02*
G01X1021480Y0332594D01*
G01X1021480Y0332594D02*
G01X1021189Y0332697D01*
G01X1021189Y0332697D02*
G01X1020890Y0332787D01*
G01X1020890Y0332787D02*
G01X1020587Y0332858D01*
G01X1020587Y0332858D02*
G01X1020283Y0332921D01*
G01X1020283Y0332921D02*
G01X1019972Y0332965D01*
G01X1019972Y0332965D02*
G01X1019665Y0332996D01*
G01X1019665Y0332996D02*
G01X1019354Y0333012D01*
G01X1019354Y0333012D02*
G01X1019039Y0333012D01*
G01X1019039Y0333012D02*
G01X1018728Y0332996D01*
G01X1018728Y0332996D02*
G01X1018421Y0332965D01*
G01X1018421Y0332965D02*
G01X1018110Y0332921D01*
G01X1018110Y0332921D02*
G01X1017807Y0332858D01*
G01X1017807Y0332858D02*
G01X1017504Y0332787D01*
G01X1017504Y0332787D02*
G01X1017205Y0332697D01*
G01X1017205Y0332697D02*
G01X1016913Y0332594D01*
G01X1016913Y0332594D02*
G01X1016622Y0332476D01*
G01X1016622Y0332476D02*
G01X1016339Y0332343D01*
G01X1016339Y0332343D02*
G01X1016063Y0332201D01*
G01X1016063Y0332201D02*
G01X1015795Y0332043D01*
G01X1015795Y0332043D02*
G01X1015535Y0331870D01*
G01X1015535Y0331870D02*
G01X1015283Y0331689D01*
G01X1015283Y0331689D02*
G01X1015039Y0331492D01*
G01X1015039Y0331492D02*
G01X1014807Y0331287D01*
G01X1014807Y0331287D02*
G01X1014587Y0331067D01*
G01X1014587Y0331067D02*
G01X1014374Y0330843D01*
G01X1014374Y0330843D02*
G01X1014173Y0330602D01*
G01X1014173Y0330602D02*
G01X1013984Y0330354D01*
G01X1013984Y0330354D02*
G01X1013807Y0330098D01*
G01X1013807Y0330098D02*
G01X1013642Y0329835D01*
G01X1013642Y0329835D02*
G01X1013492Y0329563D01*
G01X1013492Y0329563D02*
G01X1013350Y0329283D01*
G01X1013350Y0329283D02*
G01X1013228Y0328996D01*
G01X1013228Y0328996D02*
G01X1013118Y0328705D01*
G01X1013118Y0328705D02*
G01X1013020Y0328409D01*
G01X1013020Y0328409D02*
G01X1012941Y0328110D01*
G01X1012941Y0328110D02*
G01X1012870Y0327807D01*
G01X1012870Y0327807D02*
G01X1012819Y0327500D01*
G01X1012819Y0327500D02*
G01X1012783Y0327189D01*
G01X1012783Y0327189D02*
G01X1012760Y0326878D01*
G01X1012760Y0326878D02*
G01X1012752Y0326567D01*
G01X1012752Y0326567D02*
G01X1012752Y0320126D01*
G01X1012752Y0320126D02*
G01X1012760Y0319815D01*
G01X1012760Y0319815D02*
G01X1012783Y0319504D01*
G01X1012783Y0319504D02*
G01X1012819Y0319193D01*
G01X1012819Y0319193D02*
G01X1012870Y0318886D01*
G01X1012870Y0318886D02*
G01X1012941Y0318583D01*
G01X1012941Y0318583D02*
G01X1013020Y0318283D01*
G01X1013020Y0318283D02*
G01X1013118Y0317988D01*
G01X1013118Y0317988D02*
G01X1013228Y0317697D01*
G01X1013228Y0317697D02*
G01X1013350Y0317409D01*
G01X1013350Y0317409D02*
G01X1013492Y0317130D01*
G01X1013492Y0317130D02*
G01X1013642Y0316858D01*
G01X1013642Y0316858D02*
G01X1013807Y0316594D01*
G01X1013807Y0316594D02*
G01X1013984Y0316339D01*
G01X1013984Y0316339D02*
G01X1014173Y0316091D01*
G01X1014173Y0316091D02*
G01X1014374Y0315850D01*
G01X1014374Y0315850D02*
G01X1014587Y0315626D01*
G01X1014587Y0315626D02*
G01X1014807Y0315406D01*
G01X1014807Y0315406D02*
G01X1015039Y0315201D01*
G01X1015039Y0315201D02*
G01X1015283Y0315004D01*
G01X1015283Y0315004D02*
G01X1015535Y0314823D01*
G01X1015535Y0314823D02*
G01X1015795Y0314650D01*
G01X1015795Y0314650D02*
G01X1016063Y0314492D01*
G01X1016063Y0314492D02*
G01X1016339Y0314350D01*
G01X1016339Y0314350D02*
G01X1016622Y0314217D01*
G01X1016622Y0314217D02*
G01X1016913Y0314098D01*
G01X1016913Y0314098D02*
G01X1017205Y0313996D01*
G01X1017205Y0313996D02*
G01X1017504Y0313906D01*
G01X1017504Y0313906D02*
G01X1017807Y0313835D01*
G01X1017807Y0313835D02*
G01X1018110Y0313772D01*
G01X1018110Y0313772D02*
G01X1018421Y0313728D01*
G01X1018421Y0313728D02*
G01X1018728Y0313697D01*
G01X1018728Y0313697D02*
G01X1019039Y0313681D01*
G01X1019039Y0313681D02*
G01X1019354Y0313681D01*
G01X1019354Y0313681D02*
G01X1019665Y0313697D01*
G01X1019665Y0313697D02*
G01X1019972Y0313728D01*
G01X1019972Y0313728D02*
G01X1020283Y0313772D01*
G01X1020283Y0313772D02*
G01X1020587Y0313835D01*
G01X1020587Y0313835D02*
G01X1020890Y0313906D01*
G01X1020890Y0313906D02*
G01X1021189Y0313996D01*
G01X1021189Y0313996D02*
G01X1021480Y0314098D01*
G01X1021480Y0314098D02*
G01X1021772Y0314217D01*
G01X1021772Y0314217D02*
G01X1022055Y0314350D01*
G01X1022055Y0314350D02*
G01X1022331Y0314492D01*
G01X1022331Y0314492D02*
G01X1022598Y0314650D01*
G01X1022598Y0314650D02*
G01X1022858Y0314823D01*
G01X1022858Y0314823D02*
G01X1023110Y0315004D01*
G01X1023110Y0315004D02*
G01X1023354Y0315201D01*
G01X1023354Y0315201D02*
G01X1023587Y0315406D01*
G01X1023587Y0315406D02*
G01X1023807Y0315626D01*
G01X1023807Y0315626D02*
G01X1024020Y0315850D01*
G01X1024020Y0315850D02*
G01X1024220Y0316091D01*
G01X1024220Y0316091D02*
G01X1024409Y0316339D01*
G01X1024409Y0316339D02*
G01X1024587Y0316594D01*
G01X1024587Y0316594D02*
G01X1024752Y0316858D01*
G01X1024752Y0316858D02*
G01X1024902Y0317130D01*
G01X1024902Y0317130D02*
G01X1025043Y0317409D01*
G01X1025043Y0317409D02*
G01X1025165Y0317697D01*
G01X1025165Y0317697D02*
G01X1025276Y0317988D01*
G01X1025276Y0317988D02*
G01X1025374Y0318283D01*
G01X1025374Y0318283D02*
G01X1025453Y0318583D01*
G01X1025453Y0318583D02*
G01X1025524Y0318886D01*
G01X1025524Y0318886D02*
G01X1025575Y0319193D01*
G01X1025575Y0319193D02*
G01X1025610Y0319504D01*
G01X1025610Y0319504D02*
G01X1025634Y0319815D01*
G01X1025634Y0319815D02*
G01X1025642Y0320126D01*
G01X1000957Y0313681D02*
G01X1000957Y0333012D01*
G01X1001760Y0341067D02*
G01X1001760Y0342681D01*
G01X1001760Y0342681D02*
G01X1000150Y0342681D01*
G01X1000150Y0342681D02*
G01X1000150Y0341067D01*
G01X1000150Y0341067D02*
G01X1001760Y0341067D01*
G01X0988835Y0342681D02*
G01X0988835Y0318512D01*
G01X0988835Y0318512D02*
G01X0988827Y0318240D01*
G01X0988827Y0318240D02*
G01X0988803Y0317972D01*
G01X0988803Y0317972D02*
G01X0988768Y0317701D01*
G01X0988768Y0317701D02*
G01X0988713Y0317437D01*
G01X0988713Y0317437D02*
G01X0988646Y0317173D01*
G01X0988646Y0317173D02*
G01X0988563Y0316913D01*
G01X0988563Y0316913D02*
G01X0988469Y0316661D01*
G01X0988469Y0316661D02*
G01X0988354Y0316413D01*
G01X0988354Y0316413D02*
G01X0988232Y0316173D01*
G01X0988232Y0316173D02*
G01X0988094Y0315941D01*
G01X0988094Y0315941D02*
G01X0987945Y0315713D01*
G01X0987945Y0315713D02*
G01X0987780Y0315496D01*
G01X0987780Y0315496D02*
G01X0987606Y0315291D01*
G01X0987606Y0315291D02*
G01X0987417Y0315094D01*
G01X0987417Y0315094D02*
G01X0987220Y0314906D01*
G01X0987220Y0314906D02*
G01X0987016Y0314732D01*
G01X0987016Y0314732D02*
G01X0986799Y0314571D01*
G01X0986799Y0314571D02*
G01X0986571Y0314417D01*
G01X0986571Y0314417D02*
G01X0986339Y0314280D01*
G01X0986339Y0314280D02*
G01X0986098Y0314157D01*
G01X0986098Y0314157D02*
G01X0985850Y0314043D01*
G01X0985850Y0314043D02*
G01X0985598Y0313949D01*
G01X0985598Y0313949D02*
G01X0985339Y0313866D01*
G01X0985339Y0313866D02*
G01X0985075Y0313799D01*
G01X0985075Y0313799D02*
G01X0984811Y0313744D01*
G01X0984811Y0313744D02*
G01X0984543Y0313709D01*
G01X0984543Y0313709D02*
G01X0984272Y0313685D01*
G01X0984272Y0313685D02*
G01X0984000Y0313677D01*
G01X1127724Y0274000D02*
G01X1137390Y0303000D01*
G01X1118055Y0303000D02*
G01X1127724Y0274000D01*
G01X1107287Y0280445D02*
G01X1107287Y0286890D01*
G01X1107287Y0286890D02*
G01X1107280Y0287201D01*
G01X1107280Y0287201D02*
G01X1107256Y0287512D01*
G01X1107256Y0287512D02*
G01X1107220Y0287823D01*
G01X1107220Y0287823D02*
G01X1107169Y0288130D01*
G01X1107169Y0288130D02*
G01X1107098Y0288433D01*
G01X1107098Y0288433D02*
G01X1107020Y0288732D01*
G01X1107020Y0288732D02*
G01X1106921Y0289028D01*
G01X1106921Y0289028D02*
G01X1106811Y0289319D01*
G01X1106811Y0289319D02*
G01X1106689Y0289606D01*
G01X1106689Y0289606D02*
G01X1106547Y0289886D01*
G01X1106547Y0289886D02*
G01X1106398Y0290157D01*
G01X1106398Y0290157D02*
G01X1106232Y0290421D01*
G01X1106232Y0290421D02*
G01X1106055Y0290677D01*
G01X1106055Y0290677D02*
G01X1105866Y0290925D01*
G01X1105866Y0290925D02*
G01X1105665Y0291165D01*
G01X1105665Y0291165D02*
G01X1105453Y0291390D01*
G01X1105453Y0291390D02*
G01X1105232Y0291610D01*
G01X1105232Y0291610D02*
G01X1105000Y0291815D01*
G01X1105000Y0291815D02*
G01X1104756Y0292012D01*
G01X1104756Y0292012D02*
G01X1104504Y0292193D01*
G01X1104504Y0292193D02*
G01X1104244Y0292366D01*
G01X1104244Y0292366D02*
G01X1103976Y0292524D01*
G01X1103976Y0292524D02*
G01X1103701Y0292665D01*
G01X1103701Y0292665D02*
G01X1103417Y0292799D01*
G01X1103417Y0292799D02*
G01X1103126Y0292917D01*
G01X1103126Y0292917D02*
G01X1102835Y0293020D01*
G01X1102835Y0293020D02*
G01X1102535Y0293110D01*
G01X1102535Y0293110D02*
G01X1102232Y0293181D01*
G01X1102232Y0293181D02*
G01X1101929Y0293244D01*
G01X1101929Y0293244D02*
G01X1101618Y0293287D01*
G01X1101618Y0293287D02*
G01X1101311Y0293319D01*
G01X1101311Y0293319D02*
G01X1101000Y0293335D01*
G01X1101000Y0293335D02*
G01X1100685Y0293335D01*
G01X1100685Y0293335D02*
G01X1100374Y0293319D01*
G01X1100374Y0293319D02*
G01X1100067Y0293287D01*
G01X1100067Y0293287D02*
G01X1099756Y0293244D01*
G01X1099756Y0293244D02*
G01X1099453Y0293181D01*
G01X1099453Y0293181D02*
G01X1099150Y0293110D01*
G01X1099150Y0293110D02*
G01X1098850Y0293020D01*
G01X1098850Y0293020D02*
G01X1098559Y0292917D01*
G01X1098559Y0292917D02*
G01X1098268Y0292799D01*
G01X1098268Y0292799D02*
G01X1097984Y0292665D01*
G01X1097984Y0292665D02*
G01X1097709Y0292524D01*
G01X1097709Y0292524D02*
G01X1097441Y0292366D01*
G01X1097441Y0292366D02*
G01X1097181Y0292193D01*
G01X1097181Y0292193D02*
G01X1096929Y0292012D01*
G01X1096929Y0292012D02*
G01X1096685Y0291815D01*
G01X1096685Y0291815D02*
G01X1096453Y0291610D01*
G01X1096453Y0291610D02*
G01X1096232Y0291390D01*
G01X1096232Y0291390D02*
G01X1096020Y0291165D01*
G01X1096020Y0291165D02*
G01X1095819Y0290925D01*
G01X1095819Y0290925D02*
G01X1095630Y0290677D01*
G01X1095630Y0290677D02*
G01X1095453Y0290421D01*
G01X1095453Y0290421D02*
G01X1095287Y0290157D01*
G01X1095287Y0290157D02*
G01X1095138Y0289886D01*
G01X1095138Y0289886D02*
G01X1094996Y0289606D01*
G01X1094996Y0289606D02*
G01X1094874Y0289319D01*
G01X1094874Y0289319D02*
G01X1094764Y0289028D01*
G01X1094764Y0289028D02*
G01X1094665Y0288732D01*
G01X1094665Y0288732D02*
G01X1094587Y0288433D01*
G01X1094587Y0288433D02*
G01X1094516Y0288130D01*
G01X1094516Y0288130D02*
G01X1094465Y0287823D01*
G01X1094465Y0287823D02*
G01X1094429Y0287512D01*
G01X1094429Y0287512D02*
G01X1094406Y0287201D01*
G01X1094406Y0287201D02*
G01X1094398Y0286890D01*
G01X1094398Y0286890D02*
G01X1094398Y0280445D01*
G01X1094398Y0280445D02*
G01X1094406Y0280134D01*
G01X1094406Y0280134D02*
G01X1094429Y0279823D01*
G01X1094429Y0279823D02*
G01X1094465Y0279512D01*
G01X1094465Y0279512D02*
G01X1094516Y0279205D01*
G01X1094516Y0279205D02*
G01X1094587Y0278902D01*
G01X1094587Y0278902D02*
G01X1094665Y0278602D01*
G01X1094665Y0278602D02*
G01X1094764Y0278307D01*
G01X1094764Y0278307D02*
G01X1094874Y0278016D01*
G01X1094874Y0278016D02*
G01X1094996Y0277728D01*
G01X1094996Y0277728D02*
G01X1095138Y0277449D01*
G01X1095138Y0277449D02*
G01X1095287Y0277177D01*
G01X1095287Y0277177D02*
G01X1095453Y0276913D01*
G01X1095453Y0276913D02*
G01X1095630Y0276657D01*
G01X1095630Y0276657D02*
G01X1095819Y0276409D01*
G01X1095819Y0276409D02*
G01X1096020Y0276169D01*
G01X1096020Y0276169D02*
G01X1096232Y0275945D01*
G01X1096232Y0275945D02*
G01X1096453Y0275724D01*
G01X1096453Y0275724D02*
G01X1096685Y0275520D01*
G01X1096685Y0275520D02*
G01X1096929Y0275323D01*
G01X1096929Y0275323D02*
G01X1097181Y0275142D01*
G01X1097181Y0275142D02*
G01X1097441Y0274969D01*
G01X1097441Y0274969D02*
G01X1097709Y0274811D01*
G01X1097709Y0274811D02*
G01X1097984Y0274669D01*
G01X1097984Y0274669D02*
G01X1098268Y0274535D01*
G01X1098268Y0274535D02*
G01X1098559Y0274417D01*
G01X1098559Y0274417D02*
G01X1098850Y0274315D01*
G01X1098850Y0274315D02*
G01X1099150Y0274224D01*
G01X1099150Y0274224D02*
G01X1099453Y0274154D01*
G01X1099453Y0274154D02*
G01X1099756Y0274091D01*
G01X1099756Y0274091D02*
G01X1100067Y0274047D01*
G01X1100067Y0274047D02*
G01X1100374Y0274016D01*
G01X1100374Y0274016D02*
G01X1100685Y0274000D01*
G01X1100685Y0274000D02*
G01X1101000Y0274000D01*
G01X1101000Y0274000D02*
G01X1101311Y0274016D01*
G01X1101311Y0274016D02*
G01X1101618Y0274047D01*
G01X1101618Y0274047D02*
G01X1101929Y0274091D01*
G01X1101929Y0274091D02*
G01X1102232Y0274154D01*
G01X1102232Y0274154D02*
G01X1102535Y0274224D01*
G01X1102535Y0274224D02*
G01X1102835Y0274315D01*
G01X1102835Y0274315D02*
G01X1103126Y0274417D01*
G01X1103126Y0274417D02*
G01X1103417Y0274535D01*
G01X1103417Y0274535D02*
G01X1103701Y0274669D01*
G01X1103701Y0274669D02*
G01X1103976Y0274811D01*
G01X1103976Y0274811D02*
G01X1104244Y0274969D01*
G01X1104244Y0274969D02*
G01X1104504Y0275142D01*
G01X1104504Y0275142D02*
G01X1104756Y0275323D01*
G01X1104756Y0275323D02*
G01X1105000Y0275520D01*
G01X1105000Y0275520D02*
G01X1105232Y0275724D01*
G01X1105232Y0275724D02*
G01X1105453Y0275945D01*
G01X1105453Y0275945D02*
G01X1105665Y0276169D01*
G01X1105665Y0276169D02*
G01X1105866Y0276409D01*
G01X1105866Y0276409D02*
G01X1106055Y0276657D01*
G01X1106055Y0276657D02*
G01X1106232Y0276913D01*
G01X1106232Y0276913D02*
G01X1106398Y0277177D01*
G01X1106398Y0277177D02*
G01X1106547Y0277449D01*
G01X1106547Y0277449D02*
G01X1106689Y0277728D01*
G01X1106689Y0277728D02*
G01X1106811Y0278016D01*
G01X1106811Y0278016D02*
G01X1106921Y0278307D01*
G01X1106921Y0278307D02*
G01X1107020Y0278602D01*
G01X1107020Y0278602D02*
G01X1107098Y0278902D01*
G01X1107098Y0278902D02*
G01X1107169Y0279205D01*
G01X1107169Y0279205D02*
G01X1107220Y0279512D01*
G01X1107220Y0279512D02*
G01X1107256Y0279823D01*
G01X1107256Y0279823D02*
G01X1107280Y0280134D01*
G01X1107280Y0280134D02*
G01X1107287Y0280445D01*
G01X1082000Y0278835D02*
G01X1082000Y0303000D01*
G01X1082004Y0278835D02*
G01X1081996Y0278563D01*
G01X1081996Y0278563D02*
G01X1081972Y0278295D01*
G01X1081972Y0278295D02*
G01X1081937Y0278024D01*
G01X1081937Y0278024D02*
G01X1081882Y0277760D01*
G01X1081882Y0277760D02*
G01X1081815Y0277496D01*
G01X1081815Y0277496D02*
G01X1081732Y0277236D01*
G01X1081732Y0277236D02*
G01X1081638Y0276984D01*
G01X1081638Y0276984D02*
G01X1081524Y0276736D01*
G01X1081524Y0276736D02*
G01X1081402Y0276496D01*
G01X1081402Y0276496D02*
G01X1081264Y0276264D01*
G01X1081264Y0276264D02*
G01X1081114Y0276035D01*
G01X1081114Y0276035D02*
G01X1080949Y0275819D01*
G01X1080949Y0275819D02*
G01X1080776Y0275614D01*
G01X1080776Y0275614D02*
G01X1080587Y0275417D01*
G01X1080587Y0275417D02*
G01X1080390Y0275228D01*
G01X1080390Y0275228D02*
G01X1080185Y0275055D01*
G01X1080185Y0275055D02*
G01X1079969Y0274894D01*
G01X1079969Y0274894D02*
G01X1079740Y0274740D01*
G01X1079740Y0274740D02*
G01X1079508Y0274602D01*
G01X1079508Y0274602D02*
G01X1079268Y0274480D01*
G01X1079268Y0274480D02*
G01X1079020Y0274366D01*
G01X1079020Y0274366D02*
G01X1078768Y0274272D01*
G01X1078768Y0274272D02*
G01X1078508Y0274189D01*
G01X1078508Y0274189D02*
G01X1078244Y0274122D01*
G01X1078244Y0274122D02*
G01X1077980Y0274067D01*
G01X1077980Y0274067D02*
G01X1077713Y0274031D01*
G01X1077713Y0274031D02*
G01X1077441Y0274008D01*
G01X1077441Y0274008D02*
G01X1077169Y0274000D01*
G01X1069449Y0293335D02*
G01X1059783Y0293335D01*
G01X1066228Y0303000D02*
G01X1066228Y0278835D01*
G01X1066228Y0278835D02*
G01X1066220Y0278563D01*
G01X1066220Y0278563D02*
G01X1066197Y0278295D01*
G01X1066197Y0278295D02*
G01X1066161Y0278024D01*
G01X1066161Y0278024D02*
G01X1066106Y0277760D01*
G01X1066106Y0277760D02*
G01X1066039Y0277496D01*
G01X1066039Y0277496D02*
G01X1065957Y0277236D01*
G01X1065957Y0277236D02*
G01X1065862Y0276984D01*
G01X1065862Y0276984D02*
G01X1065748Y0276736D01*
G01X1065748Y0276736D02*
G01X1065626Y0276496D01*
G01X1065626Y0276496D02*
G01X1065488Y0276264D01*
G01X1065488Y0276264D02*
G01X1065339Y0276035D01*
G01X1065339Y0276035D02*
G01X1065173Y0275819D01*
G01X1065173Y0275819D02*
G01X1065000Y0275614D01*
G01X1065000Y0275614D02*
G01X1064811Y0275417D01*
G01X1064811Y0275417D02*
G01X1064614Y0275228D01*
G01X1064614Y0275228D02*
G01X1064409Y0275055D01*
G01X1064409Y0275055D02*
G01X1064193Y0274894D01*
G01X1064193Y0274894D02*
G01X1063965Y0274740D01*
G01X1063965Y0274740D02*
G01X1063732Y0274602D01*
G01X1063732Y0274602D02*
G01X1063492Y0274480D01*
G01X1063492Y0274480D02*
G01X1063244Y0274366D01*
G01X1063244Y0274366D02*
G01X1062992Y0274272D01*
G01X1062992Y0274272D02*
G01X1062732Y0274189D01*
G01X1062732Y0274189D02*
G01X1062469Y0274122D01*
G01X1062469Y0274122D02*
G01X1062205Y0274067D01*
G01X1062205Y0274067D02*
G01X1061937Y0274031D01*
G01X1061937Y0274031D02*
G01X1061665Y0274008D01*
G01X1061665Y0274008D02*
G01X1061394Y0274000D01*
G01X1061394Y0274000D02*
G01X1059783Y0274000D01*
G01X1043252Y0285280D02*
G01X1036000Y0285280D01*
G01X1043252Y0285276D02*
G01X1043547Y0285268D01*
G01X1043547Y0285268D02*
G01X1043843Y0285244D01*
G01X1043843Y0285244D02*
G01X1044134Y0285205D01*
G01X1044134Y0285205D02*
G01X1044425Y0285154D01*
G01X1044425Y0285154D02*
G01X1044713Y0285083D01*
G01X1044713Y0285083D02*
G01X1044996Y0285000D01*
G01X1044996Y0285000D02*
G01X1045272Y0284902D01*
G01X1045272Y0284902D02*
G01X1045543Y0284787D01*
G01X1045543Y0284787D02*
G01X1045811Y0284661D01*
G01X1045811Y0284661D02*
G01X1046071Y0284520D01*
G01X1046071Y0284520D02*
G01X1046323Y0284366D01*
G01X1046323Y0284366D02*
G01X1046567Y0284201D01*
G01X1046567Y0284201D02*
G01X1046799Y0284020D01*
G01X1046799Y0284020D02*
G01X1047024Y0283827D01*
G01X1047024Y0283827D02*
G01X1047240Y0283626D01*
G01X1047240Y0283626D02*
G01X1047441Y0283409D01*
G01X1047441Y0283409D02*
G01X1047634Y0283185D01*
G01X1047634Y0283185D02*
G01X1047815Y0282953D01*
G01X1047815Y0282953D02*
G01X1047980Y0282709D01*
G01X1047980Y0282709D02*
G01X1048134Y0282457D01*
G01X1048134Y0282457D02*
G01X1048276Y0282197D01*
G01X1048276Y0282197D02*
G01X1048402Y0281929D01*
G01X1048402Y0281929D02*
G01X1048516Y0281657D01*
G01X1048516Y0281657D02*
G01X1048614Y0281382D01*
G01X1048614Y0281382D02*
G01X1048697Y0281098D01*
G01X1048697Y0281098D02*
G01X1048768Y0280811D01*
G01X1048768Y0280811D02*
G01X1048819Y0280520D01*
G01X1048819Y0280520D02*
G01X1048858Y0280228D01*
G01X1048858Y0280228D02*
G01X1048882Y0279933D01*
G01X1048882Y0279933D02*
G01X1048890Y0279638D01*
G01X1048890Y0279638D02*
G01X1048882Y0279343D01*
G01X1048882Y0279343D02*
G01X1048858Y0279047D01*
G01X1048858Y0279047D02*
G01X1048819Y0278756D01*
G01X1048819Y0278756D02*
G01X1048768Y0278465D01*
G01X1048768Y0278465D02*
G01X1048697Y0278177D01*
G01X1048697Y0278177D02*
G01X1048614Y0277894D01*
G01X1048614Y0277894D02*
G01X1048516Y0277618D01*
G01X1048516Y0277618D02*
G01X1048402Y0277346D01*
G01X1048402Y0277346D02*
G01X1048276Y0277079D01*
G01X1048276Y0277079D02*
G01X1048134Y0276819D01*
G01X1048134Y0276819D02*
G01X1047980Y0276567D01*
G01X1047980Y0276567D02*
G01X1047815Y0276323D01*
G01X1047815Y0276323D02*
G01X1047634Y0276091D01*
G01X1047634Y0276091D02*
G01X1047441Y0275866D01*
G01X1047441Y0275866D02*
G01X1047240Y0275650D01*
G01X1047240Y0275650D02*
G01X1047024Y0275449D01*
G01X1047024Y0275449D02*
G01X1046799Y0275256D01*
G01X1046799Y0275256D02*
G01X1046567Y0275075D01*
G01X1046567Y0275075D02*
G01X1046323Y0274909D01*
G01X1046323Y0274909D02*
G01X1046071Y0274756D01*
G01X1046071Y0274756D02*
G01X1045811Y0274614D01*
G01X1045811Y0274614D02*
G01X1045543Y0274488D01*
G01X1045543Y0274488D02*
G01X1045272Y0274374D01*
G01X1045272Y0274374D02*
G01X1044996Y0274276D01*
G01X1044996Y0274276D02*
G01X1044713Y0274193D01*
G01X1044713Y0274193D02*
G01X1044425Y0274122D01*
G01X1044425Y0274122D02*
G01X1044134Y0274071D01*
G01X1044134Y0274071D02*
G01X1043843Y0274031D01*
G01X1043843Y0274031D02*
G01X1043547Y0274008D01*
G01X1043547Y0274008D02*
G01X1043252Y0274000D01*
G01X1043252Y0274000D02*
G01X1036000Y0274000D01*
G01X1036000Y0274000D02*
G01X1036000Y0288500D01*
G01X1036000Y0288500D02*
G01X1036008Y0288772D01*
G01X1036008Y0288772D02*
G01X1036031Y0289039D01*
G01X1036031Y0289039D02*
G01X1036067Y0289311D01*
G01X1036067Y0289311D02*
G01X1036122Y0289575D01*
G01X1036122Y0289575D02*
G01X1036189Y0289839D01*
G01X1036189Y0289839D02*
G01X1036272Y0290098D01*
G01X1036272Y0290098D02*
G01X1036366Y0290350D01*
G01X1036366Y0290350D02*
G01X1036480Y0290598D01*
G01X1036480Y0290598D02*
G01X1036602Y0290839D01*
G01X1036602Y0290839D02*
G01X1036740Y0291071D01*
G01X1036740Y0291071D02*
G01X1036890Y0291299D01*
G01X1036890Y0291299D02*
G01X1037055Y0291516D01*
G01X1037055Y0291516D02*
G01X1037228Y0291720D01*
G01X1037228Y0291720D02*
G01X1037417Y0291917D01*
G01X1037417Y0291917D02*
G01X1037614Y0292106D01*
G01X1037614Y0292106D02*
G01X1037819Y0292280D01*
G01X1037819Y0292280D02*
G01X1038035Y0292445D01*
G01X1038035Y0292445D02*
G01X1038264Y0292594D01*
G01X1038264Y0292594D02*
G01X1038496Y0292732D01*
G01X1038496Y0292732D02*
G01X1038736Y0292854D01*
G01X1038736Y0292854D02*
G01X1038984Y0292969D01*
G01X1038984Y0292969D02*
G01X1039236Y0293063D01*
G01X1039236Y0293063D02*
G01X1039496Y0293146D01*
G01X1039496Y0293146D02*
G01X1039760Y0293213D01*
G01X1039760Y0293213D02*
G01X1040024Y0293268D01*
G01X1040024Y0293268D02*
G01X1040295Y0293303D01*
G01X1040295Y0293303D02*
G01X1040563Y0293327D01*
G01X1040563Y0293327D02*
G01X1040835Y0293335D01*
G01X1040835Y0293335D02*
G01X1047280Y0293335D01*
G01X1018138Y0274000D02*
G01X1010083Y0274000D01*
G01X1018138Y0274000D02*
G01X1018409Y0274008D01*
G01X1018409Y0274008D02*
G01X1018677Y0274031D01*
G01X1018677Y0274031D02*
G01X1018949Y0274067D01*
G01X1018949Y0274067D02*
G01X1019213Y0274122D01*
G01X1019213Y0274122D02*
G01X1019476Y0274189D01*
G01X1019476Y0274189D02*
G01X1019736Y0274272D01*
G01X1019736Y0274272D02*
G01X1019988Y0274366D01*
G01X1019988Y0274366D02*
G01X1020236Y0274480D01*
G01X1020236Y0274480D02*
G01X1020476Y0274602D01*
G01X1020476Y0274602D02*
G01X1020709Y0274740D01*
G01X1020709Y0274740D02*
G01X1020937Y0274890D01*
G01X1020937Y0274890D02*
G01X1021154Y0275055D01*
G01X1021154Y0275055D02*
G01X1021358Y0275228D01*
G01X1021358Y0275228D02*
G01X1021555Y0275417D01*
G01X1021555Y0275417D02*
G01X1021744Y0275614D01*
G01X1021744Y0275614D02*
G01X1021917Y0275819D01*
G01X1021917Y0275819D02*
G01X1022083Y0276035D01*
G01X1022083Y0276035D02*
G01X1022232Y0276264D01*
G01X1022232Y0276264D02*
G01X1022370Y0276496D01*
G01X1022370Y0276496D02*
G01X1022492Y0276736D01*
G01X1022492Y0276736D02*
G01X1022606Y0276984D01*
G01X1022606Y0276984D02*
G01X1022701Y0277236D01*
G01X1022701Y0277236D02*
G01X1022783Y0277496D01*
G01X1022783Y0277496D02*
G01X1022850Y0277760D01*
G01X1022850Y0277760D02*
G01X1022906Y0278024D01*
G01X1022906Y0278024D02*
G01X1022941Y0278295D01*
G01X1022941Y0278295D02*
G01X1022965Y0278563D01*
G01X1022965Y0278563D02*
G01X1022972Y0278835D01*
G01X1022969Y0278835D02*
G01X1022969Y0288500D01*
G01X1022972Y0288500D02*
G01X1022965Y0288772D01*
G01X1022965Y0288772D02*
G01X1022941Y0289039D01*
G01X1022941Y0289039D02*
G01X1022906Y0289311D01*
G01X1022906Y0289311D02*
G01X1022850Y0289575D01*
G01X1022850Y0289575D02*
G01X1022783Y0289839D01*
G01X1022783Y0289839D02*
G01X1022701Y0290098D01*
G01X1022701Y0290098D02*
G01X1022606Y0290350D01*
G01X1022606Y0290350D02*
G01X1022492Y0290598D01*
G01X1022492Y0290598D02*
G01X1022370Y0290839D01*
G01X1022370Y0290839D02*
G01X1022232Y0291071D01*
G01X1022232Y0291071D02*
G01X1022083Y0291299D01*
G01X1022083Y0291299D02*
G01X1021917Y0291516D01*
G01X1021917Y0291516D02*
G01X1021744Y0291720D01*
G01X1021744Y0291720D02*
G01X1021555Y0291917D01*
G01X1021555Y0291917D02*
G01X1021358Y0292106D01*
G01X1021358Y0292106D02*
G01X1021154Y0292280D01*
G01X1021154Y0292280D02*
G01X1020937Y0292445D01*
G01X1020937Y0292445D02*
G01X1020709Y0292594D01*
G01X1020709Y0292594D02*
G01X1020476Y0292732D01*
G01X1020476Y0292732D02*
G01X1020236Y0292854D01*
G01X1020236Y0292854D02*
G01X1019988Y0292969D01*
G01X1019988Y0292969D02*
G01X1019736Y0293063D01*
G01X1019736Y0293063D02*
G01X1019476Y0293146D01*
G01X1019476Y0293146D02*
G01X1019213Y0293213D01*
G01X1019213Y0293213D02*
G01X1018949Y0293268D01*
G01X1018949Y0293268D02*
G01X1018677Y0293303D01*
G01X1018677Y0293303D02*
G01X1018409Y0293327D01*
G01X1018409Y0293327D02*
G01X1018138Y0293335D01*
G01X1018138Y0293335D02*
G01X1010083Y0293335D01*
G01X1010083Y0293335D02*
G01X1010083Y0269165D01*
G01X1010079Y0269165D02*
G01X1010087Y0268894D01*
G01X1010087Y0268894D02*
G01X1010110Y0268626D01*
G01X1010110Y0268626D02*
G01X1010146Y0268354D01*
G01X1010146Y0268354D02*
G01X1010201Y0268091D01*
G01X1010201Y0268091D02*
G01X1010268Y0267827D01*
G01X1010268Y0267827D02*
G01X1010350Y0267567D01*
G01X1010350Y0267567D02*
G01X1010445Y0267315D01*
G01X1010445Y0267315D02*
G01X1010559Y0267067D01*
G01X1010559Y0267067D02*
G01X1010681Y0266827D01*
G01X1010681Y0266827D02*
G01X1010819Y0266594D01*
G01X1010819Y0266594D02*
G01X1010969Y0266366D01*
G01X1010969Y0266366D02*
G01X1011134Y0266150D01*
G01X1011134Y0266150D02*
G01X1011307Y0265945D01*
G01X1011307Y0265945D02*
G01X1011496Y0265748D01*
G01X1011496Y0265748D02*
G01X1011693Y0265559D01*
G01X1011693Y0265559D02*
G01X1011898Y0265386D01*
G01X1011898Y0265386D02*
G01X1012114Y0265220D01*
G01X1012114Y0265220D02*
G01X1012343Y0265071D01*
G01X1012343Y0265071D02*
G01X1012575Y0264933D01*
G01X1012575Y0264933D02*
G01X1012815Y0264811D01*
G01X1012815Y0264811D02*
G01X1013063Y0264697D01*
G01X1013063Y0264697D02*
G01X1013315Y0264602D01*
G01X1013315Y0264602D02*
G01X1013575Y0264520D01*
G01X1013575Y0264520D02*
G01X1013839Y0264453D01*
G01X1013839Y0264453D02*
G01X1014102Y0264398D01*
G01X1014102Y0264398D02*
G01X1014374Y0264362D01*
G01X1014374Y0264362D02*
G01X1014642Y0264339D01*
G01X1014642Y0264339D02*
G01X1014913Y0264331D01*
G01X1014913Y0264335D02*
G01X1021358Y0264335D01*
G01X0992055Y0274000D02*
G01X0984000Y0274000D01*
G01X0992055Y0274000D02*
G01X0992327Y0274008D01*
G01X0992327Y0274008D02*
G01X0992594Y0274031D01*
G01X0992594Y0274031D02*
G01X0992866Y0274067D01*
G01X0992866Y0274067D02*
G01X0993130Y0274122D01*
G01X0993130Y0274122D02*
G01X0993394Y0274189D01*
G01X0993394Y0274189D02*
G01X0993654Y0274272D01*
G01X0993654Y0274272D02*
G01X0993906Y0274366D01*
G01X0993906Y0274366D02*
G01X0994154Y0274480D01*
G01X0994154Y0274480D02*
G01X0994394Y0274602D01*
G01X0994394Y0274602D02*
G01X0994626Y0274740D01*
G01X0994626Y0274740D02*
G01X0994854Y0274890D01*
G01X0994854Y0274890D02*
G01X0995071Y0275055D01*
G01X0995071Y0275055D02*
G01X0995276Y0275228D01*
G01X0995276Y0275228D02*
G01X0995472Y0275417D01*
G01X0995472Y0275417D02*
G01X0995661Y0275614D01*
G01X0995661Y0275614D02*
G01X0995835Y0275819D01*
G01X0995835Y0275819D02*
G01X0996000Y0276035D01*
G01X0996000Y0276035D02*
G01X0996150Y0276264D01*
G01X0996150Y0276264D02*
G01X0996287Y0276496D01*
G01X0996287Y0276496D02*
G01X0996409Y0276736D01*
G01X0996409Y0276736D02*
G01X0996524Y0276984D01*
G01X0996524Y0276984D02*
G01X0996618Y0277236D01*
G01X0996618Y0277236D02*
G01X0996701Y0277496D01*
G01X0996701Y0277496D02*
G01X0996768Y0277760D01*
G01X0996768Y0277760D02*
G01X0996823Y0278024D01*
G01X0996823Y0278024D02*
G01X0996858Y0278295D01*
G01X0996858Y0278295D02*
G01X0996882Y0278563D01*
G01X0996882Y0278563D02*
G01X0996890Y0278835D01*
G01X0996890Y0278835D02*
G01X0996890Y0286890D01*
G01X0996890Y0286890D02*
G01X0996882Y0287201D01*
G01X0996882Y0287201D02*
G01X0996858Y0287512D01*
G01X0996858Y0287512D02*
G01X0996823Y0287823D01*
G01X0996823Y0287823D02*
G01X0996772Y0288130D01*
G01X0996772Y0288130D02*
G01X0996701Y0288433D01*
G01X0996701Y0288433D02*
G01X0996622Y0288732D01*
G01X0996622Y0288732D02*
G01X0996524Y0289028D01*
G01X0996524Y0289028D02*
G01X0996413Y0289319D01*
G01X0996413Y0289319D02*
G01X0996291Y0289606D01*
G01X0996291Y0289606D02*
G01X0996150Y0289886D01*
G01X0996150Y0289886D02*
G01X0996000Y0290157D01*
G01X0996000Y0290157D02*
G01X0995835Y0290421D01*
G01X0995835Y0290421D02*
G01X0995657Y0290677D01*
G01X0995657Y0290677D02*
G01X0995469Y0290925D01*
G01X0995469Y0290925D02*
G01X0995268Y0291165D01*
G01X0995268Y0291165D02*
G01X0995055Y0291390D01*
G01X0995055Y0291390D02*
G01X0994835Y0291610D01*
G01X0994835Y0291610D02*
G01X0994602Y0291815D01*
G01X0994602Y0291815D02*
G01X0994358Y0292012D01*
G01X0994358Y0292012D02*
G01X0994106Y0292193D01*
G01X0994106Y0292193D02*
G01X0993846Y0292366D01*
G01X0993846Y0292366D02*
G01X0993579Y0292524D01*
G01X0993579Y0292524D02*
G01X0993303Y0292665D01*
G01X0993303Y0292665D02*
G01X0993020Y0292799D01*
G01X0993020Y0292799D02*
G01X0992728Y0292917D01*
G01X0992728Y0292917D02*
G01X0992437Y0293020D01*
G01X0992437Y0293020D02*
G01X0992138Y0293110D01*
G01X0992138Y0293110D02*
G01X0991835Y0293181D01*
G01X0991835Y0293181D02*
G01X0991531Y0293244D01*
G01X0991531Y0293244D02*
G01X0991220Y0293287D01*
G01X0991220Y0293287D02*
G01X0990913Y0293319D01*
G01X0990913Y0293319D02*
G01X0990602Y0293335D01*
G01X0990602Y0293335D02*
G01X0990287Y0293335D01*
G01X0990287Y0293335D02*
G01X0989976Y0293319D01*
G01X0989976Y0293319D02*
G01X0989669Y0293287D01*
G01X0989669Y0293287D02*
G01X0989358Y0293244D01*
G01X0989358Y0293244D02*
G01X0989055Y0293181D01*
G01X0989055Y0293181D02*
G01X0988752Y0293110D01*
G01X0988752Y0293110D02*
G01X0988453Y0293020D01*
G01X0988453Y0293020D02*
G01X0988161Y0292917D01*
G01X0988161Y0292917D02*
G01X0987870Y0292799D01*
G01X0987870Y0292799D02*
G01X0987587Y0292665D01*
G01X0987587Y0292665D02*
G01X0987311Y0292524D01*
G01X0987311Y0292524D02*
G01X0987043Y0292366D01*
G01X0987043Y0292366D02*
G01X0986783Y0292193D01*
G01X0986783Y0292193D02*
G01X0986531Y0292012D01*
G01X0986531Y0292012D02*
G01X0986287Y0291815D01*
G01X0986287Y0291815D02*
G01X0986055Y0291610D01*
G01X0986055Y0291610D02*
G01X0985835Y0291390D01*
G01X0985835Y0291390D02*
G01X0985622Y0291165D01*
G01X0985622Y0291165D02*
G01X0985421Y0290925D01*
G01X0985421Y0290925D02*
G01X0985232Y0290677D01*
G01X0985232Y0290677D02*
G01X0985055Y0290421D01*
G01X0985055Y0290421D02*
G01X0984890Y0290157D01*
G01X0984890Y0290157D02*
G01X0984740Y0289886D01*
G01X0984740Y0289886D02*
G01X0984598Y0289606D01*
G01X0984598Y0289606D02*
G01X0984476Y0289319D01*
G01X0984476Y0289319D02*
G01X0984366Y0289028D01*
G01X0984366Y0289028D02*
G01X0984268Y0288732D01*
G01X0984268Y0288732D02*
G01X0984189Y0288433D01*
G01X0984189Y0288433D02*
G01X0984118Y0288130D01*
G01X0984118Y0288130D02*
G01X0984067Y0287823D01*
G01X0984067Y0287823D02*
G01X0984031Y0287512D01*
G01X0984031Y0287512D02*
G01X0984008Y0287201D01*
G01X0984008Y0287201D02*
G01X0984000Y0286890D01*
G01X0984000Y0286890D02*
G01X0984000Y0283665D01*
G01X0984000Y0283665D02*
G01X0996890Y0283665D01*
G54D12*
G01X1419583Y0266945D02*
G01X1440917Y0266945D01*
G01X1430248Y0256280D02*
G01X1430248Y0277610D01*
G01X1404579Y0254500D02*
G01X1395689Y0254500D01*
G01X1395689Y0254500D02*
G01X1395323Y0254508D01*
G01X1395323Y0254508D02*
G01X1394957Y0254531D01*
G01X1394957Y0254531D02*
G01X1394591Y0254567D01*
G01X1394591Y0254567D02*
G01X1394224Y0254622D01*
G01X1394224Y0254622D02*
G01X1393866Y0254689D01*
G01X1393866Y0254689D02*
G01X1393508Y0254772D01*
G01X1393508Y0254772D02*
G01X1393154Y0254870D01*
G01X1393154Y0254870D02*
G01X1392803Y0254980D01*
G01X1392803Y0254980D02*
G01X1392457Y0255106D01*
G01X1392457Y0255106D02*
G01X1392118Y0255248D01*
G01X1392118Y0255248D02*
G01X1391783Y0255402D01*
G01X1391783Y0255402D02*
G01X1391457Y0255571D01*
G01X1391457Y0255571D02*
G01X1391138Y0255752D01*
G01X1391138Y0255752D02*
G01X1390827Y0255949D01*
G01X1390827Y0255949D02*
G01X1390524Y0256154D01*
G01X1390524Y0256154D02*
G01X1390228Y0256374D01*
G01X1390228Y0256374D02*
G01X1389945Y0256606D01*
G01X1389945Y0256606D02*
G01X1389669Y0256850D01*
G01X1389669Y0256850D02*
G01X1389402Y0257102D01*
G01X1389402Y0257102D02*
G01X1389150Y0257370D01*
G01X1389150Y0257370D02*
G01X1388906Y0257646D01*
G01X1388906Y0257646D02*
G01X1388673Y0257929D01*
G01X1388673Y0257929D02*
G01X1388453Y0258224D01*
G01X1388453Y0258224D02*
G01X1388248Y0258528D01*
G01X1388248Y0258528D02*
G01X1388051Y0258839D01*
G01X1388051Y0258839D02*
G01X1387870Y0259157D01*
G01X1387870Y0259157D02*
G01X1387701Y0259484D01*
G01X1387701Y0259484D02*
G01X1387547Y0259819D01*
G01X1387547Y0259819D02*
G01X1387406Y0260157D01*
G01X1387406Y0260157D02*
G01X1387280Y0260504D01*
G01X1387280Y0260504D02*
G01X1387169Y0260854D01*
G01X1387169Y0260854D02*
G01X1387071Y0261209D01*
G01X1387071Y0261209D02*
G01X1386988Y0261567D01*
G01X1386988Y0261567D02*
G01X1386921Y0261925D01*
G01X1386921Y0261925D02*
G01X1386866Y0262291D01*
G01X1386866Y0262291D02*
G01X1386831Y0262657D01*
G01X1386831Y0262657D02*
G01X1386807Y0263024D01*
G01X1386807Y0263024D02*
G01X1386799Y0263390D01*
G01X1386799Y0263390D02*
G01X1386807Y0263756D01*
G01X1386807Y0263756D02*
G01X1386831Y0264122D01*
G01X1386831Y0264122D02*
G01X1386866Y0264488D01*
G01X1386866Y0264488D02*
G01X1386921Y0264854D01*
G01X1386921Y0264854D02*
G01X1386988Y0265213D01*
G01X1386988Y0265213D02*
G01X1387071Y0265571D01*
G01X1387071Y0265571D02*
G01X1387169Y0265925D01*
G01X1387169Y0265925D02*
G01X1387280Y0266276D01*
G01X1387280Y0266276D02*
G01X1387406Y0266622D01*
G01X1387406Y0266622D02*
G01X1387547Y0266961D01*
G01X1387547Y0266961D02*
G01X1387701Y0267295D01*
G01X1387701Y0267295D02*
G01X1387870Y0267622D01*
G01X1387870Y0267622D02*
G01X1388051Y0267941D01*
G01X1388051Y0267941D02*
G01X1388248Y0268252D01*
G01X1388248Y0268252D02*
G01X1388453Y0268555D01*
G01X1388453Y0268555D02*
G01X1388673Y0268850D01*
G01X1388673Y0268850D02*
G01X1388906Y0269134D01*
G01X1388906Y0269134D02*
G01X1389150Y0269409D01*
G01X1389150Y0269409D02*
G01X1389402Y0269677D01*
G01X1389402Y0269677D02*
G01X1389669Y0269929D01*
G01X1389669Y0269929D02*
G01X1389945Y0270173D01*
G01X1389945Y0270173D02*
G01X1390228Y0270406D01*
G01X1390228Y0270406D02*
G01X1390524Y0270626D01*
G01X1390524Y0270626D02*
G01X1390827Y0270831D01*
G01X1390827Y0270831D02*
G01X1391138Y0271028D01*
G01X1391138Y0271028D02*
G01X1391457Y0271209D01*
G01X1391457Y0271209D02*
G01X1391783Y0271378D01*
G01X1391783Y0271378D02*
G01X1392118Y0271531D01*
G01X1392118Y0271531D02*
G01X1392457Y0271673D01*
G01X1392457Y0271673D02*
G01X1392803Y0271799D01*
G01X1392803Y0271799D02*
G01X1393154Y0271909D01*
G01X1393154Y0271909D02*
G01X1393508Y0272008D01*
G01X1393508Y0272008D02*
G01X1393866Y0272091D01*
G01X1393866Y0272091D02*
G01X1394224Y0272157D01*
G01X1394224Y0272157D02*
G01X1394591Y0272213D01*
G01X1394591Y0272213D02*
G01X1394957Y0272248D01*
G01X1394957Y0272248D02*
G01X1395323Y0272272D01*
G01X1395323Y0272272D02*
G01X1395689Y0272280D01*
G01X1393909Y0286500D02*
G01X1404579Y0286500D01*
G01X1393909Y0286500D02*
G01X1393583Y0286492D01*
G01X1393583Y0286492D02*
G01X1393252Y0286469D01*
G01X1393252Y0286469D02*
G01X1392925Y0286433D01*
G01X1392925Y0286433D02*
G01X1392602Y0286378D01*
G01X1392602Y0286378D02*
G01X1392283Y0286311D01*
G01X1392283Y0286311D02*
G01X1391965Y0286228D01*
G01X1391965Y0286228D02*
G01X1391650Y0286130D01*
G01X1391650Y0286130D02*
G01X1391343Y0286020D01*
G01X1391343Y0286020D02*
G01X1391039Y0285894D01*
G01X1391039Y0285894D02*
G01X1390740Y0285756D01*
G01X1390740Y0285756D02*
G01X1390449Y0285602D01*
G01X1390449Y0285602D02*
G01X1390165Y0285433D01*
G01X1390165Y0285433D02*
G01X1389890Y0285256D01*
G01X1389890Y0285256D02*
G01X1389626Y0285063D01*
G01X1389626Y0285063D02*
G01X1389366Y0284858D01*
G01X1389366Y0284858D02*
G01X1389118Y0284646D01*
G01X1389118Y0284646D02*
G01X1388882Y0284417D01*
G01X1388882Y0284417D02*
G01X1388654Y0284181D01*
G01X1388654Y0284181D02*
G01X1388441Y0283933D01*
G01X1388441Y0283933D02*
G01X1388236Y0283673D01*
G01X1388236Y0283673D02*
G01X1388043Y0283409D01*
G01X1388043Y0283409D02*
G01X1387866Y0283134D01*
G01X1387866Y0283134D02*
G01X1387697Y0282850D01*
G01X1387697Y0282850D02*
G01X1387543Y0282559D01*
G01X1387543Y0282559D02*
G01X1387406Y0282260D01*
G01X1387406Y0282260D02*
G01X1387280Y0281957D01*
G01X1387280Y0281957D02*
G01X1387169Y0281650D01*
G01X1387169Y0281650D02*
G01X1387071Y0281335D01*
G01X1387071Y0281335D02*
G01X1386988Y0281016D01*
G01X1386988Y0281016D02*
G01X1386921Y0280697D01*
G01X1386921Y0280697D02*
G01X1386866Y0280374D01*
G01X1386866Y0280374D02*
G01X1386831Y0280047D01*
G01X1386831Y0280047D02*
G01X1386807Y0279717D01*
G01X1386807Y0279717D02*
G01X1386799Y0279390D01*
G01X1386799Y0279390D02*
G01X1386807Y0279063D01*
G01X1386807Y0279063D02*
G01X1386831Y0278732D01*
G01X1386831Y0278732D02*
G01X1386866Y0278406D01*
G01X1386866Y0278406D02*
G01X1386921Y0278083D01*
G01X1386921Y0278083D02*
G01X1386988Y0277764D01*
G01X1386988Y0277764D02*
G01X1387071Y0277445D01*
G01X1387071Y0277445D02*
G01X1387169Y0277130D01*
G01X1387169Y0277130D02*
G01X1387280Y0276823D01*
G01X1387280Y0276823D02*
G01X1387406Y0276520D01*
G01X1387406Y0276520D02*
G01X1387543Y0276220D01*
G01X1387543Y0276220D02*
G01X1387697Y0275929D01*
G01X1387697Y0275929D02*
G01X1387866Y0275646D01*
G01X1387866Y0275646D02*
G01X1388043Y0275370D01*
G01X1388043Y0275370D02*
G01X1388236Y0275106D01*
G01X1388236Y0275106D02*
G01X1388441Y0274846D01*
G01X1388441Y0274846D02*
G01X1388654Y0274598D01*
G01X1388654Y0274598D02*
G01X1388882Y0274362D01*
G01X1388882Y0274362D02*
G01X1389118Y0274134D01*
G01X1389118Y0274134D02*
G01X1389366Y0273921D01*
G01X1389366Y0273921D02*
G01X1389626Y0273717D01*
G01X1389626Y0273717D02*
G01X1389890Y0273524D01*
G01X1389890Y0273524D02*
G01X1390165Y0273346D01*
G01X1390165Y0273346D02*
G01X1390449Y0273177D01*
G01X1390449Y0273177D02*
G01X1390740Y0273024D01*
G01X1390740Y0273024D02*
G01X1391039Y0272886D01*
G01X1391039Y0272886D02*
G01X1391343Y0272760D01*
G01X1391343Y0272760D02*
G01X1391650Y0272650D01*
G01X1391650Y0272650D02*
G01X1391965Y0272551D01*
G01X1391965Y0272551D02*
G01X1392283Y0272469D01*
G01X1392283Y0272469D02*
G01X1392602Y0272402D01*
G01X1392602Y0272402D02*
G01X1392925Y0272346D01*
G01X1392925Y0272346D02*
G01X1393252Y0272311D01*
G01X1393252Y0272311D02*
G01X1393583Y0272287D01*
G01X1393583Y0272287D02*
G01X1393909Y0272280D01*
G01X1393909Y0272280D02*
G01X1401024Y0272280D01*
G01X1373957Y0286500D02*
G01X1363287Y0254500D01*
G01X1363287Y0254500D02*
G01X1352622Y0286500D01*
G01X1339780Y0254500D02*
G01X1330890Y0254500D01*
G01X1330890Y0254500D02*
G01X1330524Y0254508D01*
G01X1330524Y0254508D02*
G01X1330157Y0254531D01*
G01X1330157Y0254531D02*
G01X1329791Y0254567D01*
G01X1329791Y0254567D02*
G01X1329425Y0254622D01*
G01X1329425Y0254622D02*
G01X1329067Y0254689D01*
G01X1329067Y0254689D02*
G01X1328709Y0254772D01*
G01X1328709Y0254772D02*
G01X1328354Y0254870D01*
G01X1328354Y0254870D02*
G01X1328004Y0254980D01*
G01X1328004Y0254980D02*
G01X1327657Y0255106D01*
G01X1327657Y0255106D02*
G01X1327319Y0255248D01*
G01X1327319Y0255248D02*
G01X1326984Y0255402D01*
G01X1326984Y0255402D02*
G01X1326657Y0255571D01*
G01X1326657Y0255571D02*
G01X1326339Y0255752D01*
G01X1326339Y0255752D02*
G01X1326028Y0255949D01*
G01X1326028Y0255949D02*
G01X1325724Y0256154D01*
G01X1325724Y0256154D02*
G01X1325429Y0256374D01*
G01X1325429Y0256374D02*
G01X1325146Y0256606D01*
G01X1325146Y0256606D02*
G01X1324870Y0256850D01*
G01X1324870Y0256850D02*
G01X1324602Y0257102D01*
G01X1324602Y0257102D02*
G01X1324350Y0257370D01*
G01X1324350Y0257370D02*
G01X1324106Y0257646D01*
G01X1324106Y0257646D02*
G01X1323874Y0257929D01*
G01X1323874Y0257929D02*
G01X1323654Y0258224D01*
G01X1323654Y0258224D02*
G01X1323449Y0258528D01*
G01X1323449Y0258528D02*
G01X1323252Y0258839D01*
G01X1323252Y0258839D02*
G01X1323071Y0259157D01*
G01X1323071Y0259157D02*
G01X1322902Y0259484D01*
G01X1322902Y0259484D02*
G01X1322748Y0259819D01*
G01X1322748Y0259819D02*
G01X1322606Y0260157D01*
G01X1322606Y0260157D02*
G01X1322480Y0260504D01*
G01X1322480Y0260504D02*
G01X1322370Y0260854D01*
G01X1322370Y0260854D02*
G01X1322272Y0261209D01*
G01X1322272Y0261209D02*
G01X1322189Y0261567D01*
G01X1322189Y0261567D02*
G01X1322122Y0261925D01*
G01X1322122Y0261925D02*
G01X1322067Y0262291D01*
G01X1322067Y0262291D02*
G01X1322031Y0262657D01*
G01X1322031Y0262657D02*
G01X1322008Y0263024D01*
G01X1322008Y0263024D02*
G01X1322000Y0263390D01*
G01X1322000Y0263390D02*
G01X1322008Y0263756D01*
G01X1322008Y0263756D02*
G01X1322031Y0264122D01*
G01X1322031Y0264122D02*
G01X1322067Y0264488D01*
G01X1322067Y0264488D02*
G01X1322122Y0264854D01*
G01X1322122Y0264854D02*
G01X1322189Y0265213D01*
G01X1322189Y0265213D02*
G01X1322272Y0265571D01*
G01X1322272Y0265571D02*
G01X1322370Y0265925D01*
G01X1322370Y0265925D02*
G01X1322480Y0266276D01*
G01X1322480Y0266276D02*
G01X1322606Y0266622D01*
G01X1322606Y0266622D02*
G01X1322748Y0266961D01*
G01X1322748Y0266961D02*
G01X1322902Y0267295D01*
G01X1322902Y0267295D02*
G01X1323071Y0267622D01*
G01X1323071Y0267622D02*
G01X1323252Y0267941D01*
G01X1323252Y0267941D02*
G01X1323449Y0268252D01*
G01X1323449Y0268252D02*
G01X1323654Y0268555D01*
G01X1323654Y0268555D02*
G01X1323874Y0268850D01*
G01X1323874Y0268850D02*
G01X1324106Y0269134D01*
G01X1324106Y0269134D02*
G01X1324350Y0269409D01*
G01X1324350Y0269409D02*
G01X1324602Y0269677D01*
G01X1324602Y0269677D02*
G01X1324870Y0269929D01*
G01X1324870Y0269929D02*
G01X1325146Y0270173D01*
G01X1325146Y0270173D02*
G01X1325429Y0270406D01*
G01X1325429Y0270406D02*
G01X1325724Y0270626D01*
G01X1325724Y0270626D02*
G01X1326028Y0270831D01*
G01X1326028Y0270831D02*
G01X1326339Y0271028D01*
G01X1326339Y0271028D02*
G01X1326657Y0271209D01*
G01X1326657Y0271209D02*
G01X1326984Y0271378D01*
G01X1326984Y0271378D02*
G01X1327319Y0271531D01*
G01X1327319Y0271531D02*
G01X1327657Y0271673D01*
G01X1327657Y0271673D02*
G01X1328004Y0271799D01*
G01X1328004Y0271799D02*
G01X1328354Y0271909D01*
G01X1328354Y0271909D02*
G01X1328709Y0272008D01*
G01X1328709Y0272008D02*
G01X1329067Y0272091D01*
G01X1329067Y0272091D02*
G01X1329425Y0272157D01*
G01X1329425Y0272157D02*
G01X1329791Y0272213D01*
G01X1329791Y0272213D02*
G01X1330157Y0272248D01*
G01X1330157Y0272248D02*
G01X1330524Y0272272D01*
G01X1330524Y0272272D02*
G01X1330890Y0272280D01*
G01X1329110Y0286500D02*
G01X1339780Y0286500D01*
G01X1329110Y0286500D02*
G01X1328783Y0286492D01*
G01X1328783Y0286492D02*
G01X1328453Y0286469D01*
G01X1328453Y0286469D02*
G01X1328126Y0286433D01*
G01X1328126Y0286433D02*
G01X1327803Y0286378D01*
G01X1327803Y0286378D02*
G01X1327484Y0286311D01*
G01X1327484Y0286311D02*
G01X1327165Y0286228D01*
G01X1327165Y0286228D02*
G01X1326850Y0286130D01*
G01X1326850Y0286130D02*
G01X1326543Y0286020D01*
G01X1326543Y0286020D02*
G01X1326240Y0285894D01*
G01X1326240Y0285894D02*
G01X1325941Y0285756D01*
G01X1325941Y0285756D02*
G01X1325650Y0285602D01*
G01X1325650Y0285602D02*
G01X1325366Y0285433D01*
G01X1325366Y0285433D02*
G01X1325091Y0285256D01*
G01X1325091Y0285256D02*
G01X1324827Y0285063D01*
G01X1324827Y0285063D02*
G01X1324567Y0284858D01*
G01X1324567Y0284858D02*
G01X1324319Y0284646D01*
G01X1324319Y0284646D02*
G01X1324083Y0284417D01*
G01X1324083Y0284417D02*
G01X1323854Y0284181D01*
G01X1323854Y0284181D02*
G01X1323642Y0283933D01*
G01X1323642Y0283933D02*
G01X1323437Y0283673D01*
G01X1323437Y0283673D02*
G01X1323244Y0283409D01*
G01X1323244Y0283409D02*
G01X1323067Y0283134D01*
G01X1323067Y0283134D02*
G01X1322898Y0282850D01*
G01X1322898Y0282850D02*
G01X1322744Y0282559D01*
G01X1322744Y0282559D02*
G01X1322606Y0282260D01*
G01X1322606Y0282260D02*
G01X1322480Y0281957D01*
G01X1322480Y0281957D02*
G01X1322370Y0281650D01*
G01X1322370Y0281650D02*
G01X1322272Y0281335D01*
G01X1322272Y0281335D02*
G01X1322189Y0281016D01*
G01X1322189Y0281016D02*
G01X1322122Y0280697D01*
G01X1322122Y0280697D02*
G01X1322067Y0280374D01*
G01X1322067Y0280374D02*
G01X1322031Y0280047D01*
G01X1322031Y0280047D02*
G01X1322008Y0279717D01*
G01X1322008Y0279717D02*
G01X1322000Y0279390D01*
G01X1322000Y0279390D02*
G01X1322008Y0279063D01*
G01X1322008Y0279063D02*
G01X1322031Y0278732D01*
G01X1322031Y0278732D02*
G01X1322067Y0278406D01*
G01X1322067Y0278406D02*
G01X1322122Y0278083D01*
G01X1322122Y0278083D02*
G01X1322189Y0277764D01*
G01X1322189Y0277764D02*
G01X1322272Y0277445D01*
G01X1322272Y0277445D02*
G01X1322370Y0277130D01*
G01X1322370Y0277130D02*
G01X1322480Y0276823D01*
G01X1322480Y0276823D02*
G01X1322606Y0276520D01*
G01X1322606Y0276520D02*
G01X1322744Y0276220D01*
G01X1322744Y0276220D02*
G01X1322898Y0275929D01*
G01X1322898Y0275929D02*
G01X1323067Y0275646D01*
G01X1323067Y0275646D02*
G01X1323244Y0275370D01*
G01X1323244Y0275370D02*
G01X1323437Y0275106D01*
G01X1323437Y0275106D02*
G01X1323642Y0274846D01*
G01X1323642Y0274846D02*
G01X1323854Y0274598D01*
G01X1323854Y0274598D02*
G01X1324083Y0274362D01*
G01X1324083Y0274362D02*
G01X1324319Y0274134D01*
G01X1324319Y0274134D02*
G01X1324567Y0273921D01*
G01X1324567Y0273921D02*
G01X1324827Y0273717D01*
G01X1324827Y0273717D02*
G01X1325091Y0273524D01*
G01X1325091Y0273524D02*
G01X1325366Y0273346D01*
G01X1325366Y0273346D02*
G01X1325650Y0273177D01*
G01X1325650Y0273177D02*
G01X1325941Y0273024D01*
G01X1325941Y0273024D02*
G01X1326240Y0272886D01*
G01X1326240Y0272886D02*
G01X1326543Y0272760D01*
G01X1326543Y0272760D02*
G01X1326850Y0272650D01*
G01X1326850Y0272650D02*
G01X1327165Y0272551D01*
G01X1327165Y0272551D02*
G01X1327484Y0272469D01*
G01X1327484Y0272469D02*
G01X1327803Y0272402D01*
G01X1327803Y0272402D02*
G01X1328126Y0272346D01*
G01X1328126Y0272346D02*
G01X1328453Y0272311D01*
G01X1328453Y0272311D02*
G01X1328783Y0272287D01*
G01X1328783Y0272287D02*
G01X1329110Y0272280D01*
G01X1329110Y0272280D02*
G01X1336220Y0272280D01*
G01X1272791Y0264445D02*
G01X1251461Y0264445D01*
G01X1262126Y0253780D02*
G01X1262126Y0275110D01*
G01X1236457Y0252000D02*
G01X1225787Y0252000D01*
G01X1225787Y0252000D02*
G01X1225461Y0252008D01*
G01X1225461Y0252008D02*
G01X1225130Y0252031D01*
G01X1225130Y0252031D02*
G01X1224803Y0252067D01*
G01X1224803Y0252067D02*
G01X1224480Y0252122D01*
G01X1224480Y0252122D02*
G01X1224161Y0252189D01*
G01X1224161Y0252189D02*
G01X1223843Y0252272D01*
G01X1223843Y0252272D02*
G01X1223528Y0252370D01*
G01X1223528Y0252370D02*
G01X1223220Y0252480D01*
G01X1223220Y0252480D02*
G01X1222917Y0252606D01*
G01X1222917Y0252606D02*
G01X1222618Y0252744D01*
G01X1222618Y0252744D02*
G01X1222327Y0252898D01*
G01X1222327Y0252898D02*
G01X1222043Y0253067D01*
G01X1222043Y0253067D02*
G01X1221768Y0253244D01*
G01X1221768Y0253244D02*
G01X1221504Y0253437D01*
G01X1221504Y0253437D02*
G01X1221244Y0253642D01*
G01X1221244Y0253642D02*
G01X1220996Y0253854D01*
G01X1220996Y0253854D02*
G01X1220760Y0254083D01*
G01X1220760Y0254083D02*
G01X1220531Y0254319D01*
G01X1220531Y0254319D02*
G01X1220319Y0254567D01*
G01X1220319Y0254567D02*
G01X1220114Y0254827D01*
G01X1220114Y0254827D02*
G01X1219921Y0255091D01*
G01X1219921Y0255091D02*
G01X1219744Y0255366D01*
G01X1219744Y0255366D02*
G01X1219575Y0255650D01*
G01X1219575Y0255650D02*
G01X1219421Y0255941D01*
G01X1219421Y0255941D02*
G01X1219283Y0256240D01*
G01X1219283Y0256240D02*
G01X1219157Y0256543D01*
G01X1219157Y0256543D02*
G01X1219047Y0256850D01*
G01X1219047Y0256850D02*
G01X1218949Y0257165D01*
G01X1218949Y0257165D02*
G01X1218866Y0257484D01*
G01X1218866Y0257484D02*
G01X1218799Y0257803D01*
G01X1218799Y0257803D02*
G01X1218744Y0258126D01*
G01X1218744Y0258126D02*
G01X1218709Y0258453D01*
G01X1218709Y0258453D02*
G01X1218685Y0258783D01*
G01X1218685Y0258783D02*
G01X1218677Y0259110D01*
G01X1218677Y0259110D02*
G01X1218677Y0262665D01*
G01X1218677Y0262665D02*
G01X1218685Y0262992D01*
G01X1218685Y0262992D02*
G01X1218709Y0263323D01*
G01X1218709Y0263323D02*
G01X1218744Y0263650D01*
G01X1218744Y0263650D02*
G01X1218799Y0263972D01*
G01X1218799Y0263972D02*
G01X1218866Y0264291D01*
G01X1218866Y0264291D02*
G01X1218949Y0264610D01*
G01X1218949Y0264610D02*
G01X1219047Y0264925D01*
G01X1219047Y0264925D02*
G01X1219157Y0265232D01*
G01X1219157Y0265232D02*
G01X1219283Y0265535D01*
G01X1219283Y0265535D02*
G01X1219421Y0265835D01*
G01X1219421Y0265835D02*
G01X1219575Y0266126D01*
G01X1219575Y0266126D02*
G01X1219744Y0266409D01*
G01X1219744Y0266409D02*
G01X1219921Y0266685D01*
G01X1219921Y0266685D02*
G01X1220114Y0266949D01*
G01X1220114Y0266949D02*
G01X1220319Y0267209D01*
G01X1220319Y0267209D02*
G01X1220531Y0267457D01*
G01X1220531Y0267457D02*
G01X1220760Y0267693D01*
G01X1220760Y0267693D02*
G01X1220996Y0267921D01*
G01X1220996Y0267921D02*
G01X1221244Y0268134D01*
G01X1221244Y0268134D02*
G01X1221504Y0268339D01*
G01X1221504Y0268339D02*
G01X1221768Y0268531D01*
G01X1221768Y0268531D02*
G01X1222043Y0268713D01*
G01X1222043Y0268713D02*
G01X1222327Y0268878D01*
G01X1222327Y0268878D02*
G01X1222618Y0269031D01*
G01X1222618Y0269031D02*
G01X1222917Y0269169D01*
G01X1222917Y0269169D02*
G01X1223220Y0269295D01*
G01X1223220Y0269295D02*
G01X1223528Y0269406D01*
G01X1223528Y0269406D02*
G01X1223843Y0269504D01*
G01X1223843Y0269504D02*
G01X1224161Y0269587D01*
G01X1224161Y0269587D02*
G01X1224480Y0269654D01*
G01X1224480Y0269654D02*
G01X1224807Y0269709D01*
G01X1224807Y0269709D02*
G01X1225130Y0269744D01*
G01X1225130Y0269744D02*
G01X1225461Y0269768D01*
G01X1225461Y0269768D02*
G01X1225787Y0269776D01*
G01X1225787Y0269780D02*
G01X1236457Y0269780D01*
G01X1236457Y0269780D02*
G01X1236457Y0284000D01*
G01X1236457Y0284000D02*
G01X1218677Y0284000D01*
G01X1205835Y0284000D02*
G01X1195165Y0252000D01*
G01X1195165Y0252000D02*
G01X1184500Y0284000D01*
G54D13*
G01X1215000Y0310000D02*
G01X1385000Y0310000D01*
G01X1215000Y0390000D02*
G01X1214606Y0389992D01*
G01X1214606Y0389992D02*
G01X1214217Y0389969D01*
G01X1214217Y0389969D02*
G01X1213823Y0389929D01*
G01X1213823Y0389929D02*
G01X1213437Y0389878D01*
G01X1213437Y0389878D02*
G01X1213047Y0389807D01*
G01X1213047Y0389807D02*
G01X1212665Y0389724D01*
G01X1212665Y0389724D02*
G01X1212287Y0389626D01*
G01X1212287Y0389626D02*
G01X1211909Y0389512D01*
G01X1211909Y0389512D02*
G01X1211539Y0389382D01*
G01X1211539Y0389382D02*
G01X1211173Y0389240D01*
G01X1211173Y0389240D02*
G01X1210815Y0389083D01*
G01X1210815Y0389083D02*
G01X1210461Y0388909D01*
G01X1210461Y0388909D02*
G01X1210114Y0388724D01*
G01X1210114Y0388724D02*
G01X1209776Y0388528D01*
G01X1209776Y0388528D02*
G01X1209445Y0388315D01*
G01X1209445Y0388315D02*
G01X1209122Y0388091D01*
G01X1209122Y0388091D02*
G01X1208811Y0387854D01*
G01X1208811Y0387854D02*
G01X1208504Y0387602D01*
G01X1208504Y0387602D02*
G01X1208213Y0387343D01*
G01X1208213Y0387343D02*
G01X1207929Y0387071D01*
G01X1207929Y0387071D02*
G01X1207657Y0386787D01*
G01X1207657Y0386787D02*
G01X1207398Y0386496D01*
G01X1207398Y0386496D02*
G01X1207146Y0386189D01*
G01X1207146Y0386189D02*
G01X1206909Y0385878D01*
G01X1206909Y0385878D02*
G01X1206685Y0385555D01*
G01X1206685Y0385555D02*
G01X1206472Y0385224D01*
G01X1206472Y0385224D02*
G01X1206276Y0384886D01*
G01X1206276Y0384886D02*
G01X1206091Y0384539D01*
G01X1206091Y0384539D02*
G01X1205917Y0384185D01*
G01X1205917Y0384185D02*
G01X1205760Y0383827D01*
G01X1205760Y0383827D02*
G01X1205618Y0383461D01*
G01X1205618Y0383461D02*
G01X1205488Y0383091D01*
G01X1205488Y0383091D02*
G01X1205374Y0382713D01*
G01X1205374Y0382713D02*
G01X1205276Y0382335D01*
G01X1205276Y0382335D02*
G01X1205193Y0381953D01*
G01X1205193Y0381953D02*
G01X1205122Y0381563D01*
G01X1205122Y0381563D02*
G01X1205071Y0381177D01*
G01X1205071Y0381177D02*
G01X1205031Y0380783D01*
G01X1205031Y0380783D02*
G01X1205008Y0380394D01*
G01X1205008Y0380394D02*
G01X1205000Y0380000D01*
G01X1385000Y0390000D02*
G01X1385394Y0389992D01*
G01X1385394Y0389992D02*
G01X1385783Y0389969D01*
G01X1385783Y0389969D02*
G01X1386177Y0389929D01*
G01X1386177Y0389929D02*
G01X1386563Y0389878D01*
G01X1386563Y0389878D02*
G01X1386953Y0389807D01*
G01X1386953Y0389807D02*
G01X1387335Y0389724D01*
G01X1387335Y0389724D02*
G01X1387713Y0389626D01*
G01X1387713Y0389626D02*
G01X1388091Y0389512D01*
G01X1388091Y0389512D02*
G01X1388461Y0389382D01*
G01X1388461Y0389382D02*
G01X1388827Y0389240D01*
G01X1388827Y0389240D02*
G01X1389185Y0389083D01*
G01X1389185Y0389083D02*
G01X1389539Y0388909D01*
G01X1389539Y0388909D02*
G01X1389886Y0388724D01*
G01X1389886Y0388724D02*
G01X1390224Y0388528D01*
G01X1390224Y0388528D02*
G01X1390555Y0388315D01*
G01X1390555Y0388315D02*
G01X1390878Y0388091D01*
G01X1390878Y0388091D02*
G01X1391189Y0387854D01*
G01X1391189Y0387854D02*
G01X1391496Y0387602D01*
G01X1391496Y0387602D02*
G01X1391787Y0387343D01*
G01X1391787Y0387343D02*
G01X1392071Y0387071D01*
G01X1392071Y0387071D02*
G01X1392343Y0386787D01*
G01X1392343Y0386787D02*
G01X1392602Y0386496D01*
G01X1392602Y0386496D02*
G01X1392854Y0386189D01*
G01X1392854Y0386189D02*
G01X1393091Y0385878D01*
G01X1393091Y0385878D02*
G01X1393315Y0385555D01*
G01X1393315Y0385555D02*
G01X1393528Y0385224D01*
G01X1393528Y0385224D02*
G01X1393724Y0384886D01*
G01X1393724Y0384886D02*
G01X1393909Y0384539D01*
G01X1393909Y0384539D02*
G01X1394083Y0384185D01*
G01X1394083Y0384185D02*
G01X1394240Y0383827D01*
G01X1394240Y0383827D02*
G01X1394382Y0383461D01*
G01X1394382Y0383461D02*
G01X1394512Y0383091D01*
G01X1394512Y0383091D02*
G01X1394626Y0382713D01*
G01X1394626Y0382713D02*
G01X1394724Y0382335D01*
G01X1394724Y0382335D02*
G01X1394807Y0381953D01*
G01X1394807Y0381953D02*
G01X1394878Y0381563D01*
G01X1394878Y0381563D02*
G01X1394929Y0381177D01*
G01X1394929Y0381177D02*
G01X1394969Y0380783D01*
G01X1394969Y0380783D02*
G01X1394992Y0380394D01*
G01X1394992Y0380394D02*
G01X1395000Y0380000D01*
G01X1395000Y0320000D02*
G01X1394992Y0319606D01*
G01X1394992Y0319606D02*
G01X1394969Y0319217D01*
G01X1394969Y0319217D02*
G01X1394929Y0318823D01*
G01X1394929Y0318823D02*
G01X1394878Y0318437D01*
G01X1394878Y0318437D02*
G01X1394807Y0318047D01*
G01X1394807Y0318047D02*
G01X1394724Y0317665D01*
G01X1394724Y0317665D02*
G01X1394626Y0317287D01*
G01X1394626Y0317287D02*
G01X1394512Y0316909D01*
G01X1394512Y0316909D02*
G01X1394382Y0316539D01*
G01X1394382Y0316539D02*
G01X1394240Y0316173D01*
G01X1394240Y0316173D02*
G01X1394083Y0315815D01*
G01X1394083Y0315815D02*
G01X1393909Y0315461D01*
G01X1393909Y0315461D02*
G01X1393724Y0315114D01*
G01X1393724Y0315114D02*
G01X1393528Y0314776D01*
G01X1393528Y0314776D02*
G01X1393315Y0314445D01*
G01X1393315Y0314445D02*
G01X1393091Y0314122D01*
G01X1393091Y0314122D02*
G01X1392854Y0313811D01*
G01X1392854Y0313811D02*
G01X1392602Y0313504D01*
G01X1392602Y0313504D02*
G01X1392343Y0313213D01*
G01X1392343Y0313213D02*
G01X1392071Y0312929D01*
G01X1392071Y0312929D02*
G01X1391787Y0312657D01*
G01X1391787Y0312657D02*
G01X1391496Y0312398D01*
G01X1391496Y0312398D02*
G01X1391189Y0312146D01*
G01X1391189Y0312146D02*
G01X1390878Y0311909D01*
G01X1390878Y0311909D02*
G01X1390555Y0311685D01*
G01X1390555Y0311685D02*
G01X1390224Y0311472D01*
G01X1390224Y0311472D02*
G01X1389886Y0311276D01*
G01X1389886Y0311276D02*
G01X1389539Y0311091D01*
G01X1389539Y0311091D02*
G01X1389185Y0310917D01*
G01X1389185Y0310917D02*
G01X1388827Y0310760D01*
G01X1388827Y0310760D02*
G01X1388461Y0310618D01*
G01X1388461Y0310618D02*
G01X1388091Y0310488D01*
G01X1388091Y0310488D02*
G01X1387713Y0310374D01*
G01X1387713Y0310374D02*
G01X1387335Y0310276D01*
G01X1387335Y0310276D02*
G01X1386953Y0310193D01*
G01X1386953Y0310193D02*
G01X1386563Y0310122D01*
G01X1386563Y0310122D02*
G01X1386177Y0310071D01*
G01X1386177Y0310071D02*
G01X1385783Y0310031D01*
G01X1385783Y0310031D02*
G01X1385394Y0310008D01*
G01X1385394Y0310008D02*
G01X1385000Y0310000D01*
G01X1215000Y0310000D02*
G01X1214606Y0310008D01*
G01X1214606Y0310008D02*
G01X1214217Y0310031D01*
G01X1214217Y0310031D02*
G01X1213823Y0310071D01*
G01X1213823Y0310071D02*
G01X1213437Y0310122D01*
G01X1213437Y0310122D02*
G01X1213047Y0310193D01*
G01X1213047Y0310193D02*
G01X1212665Y0310276D01*
G01X1212665Y0310276D02*
G01X1212287Y0310374D01*
G01X1212287Y0310374D02*
G01X1211909Y0310488D01*
G01X1211909Y0310488D02*
G01X1211539Y0310618D01*
G01X1211539Y0310618D02*
G01X1211173Y0310760D01*
G01X1211173Y0310760D02*
G01X1210815Y0310917D01*
G01X1210815Y0310917D02*
G01X1210461Y0311091D01*
G01X1210461Y0311091D02*
G01X1210114Y0311276D01*
G01X1210114Y0311276D02*
G01X1209776Y0311472D01*
G01X1209776Y0311472D02*
G01X1209445Y0311685D01*
G01X1209445Y0311685D02*
G01X1209122Y0311909D01*
G01X1209122Y0311909D02*
G01X1208811Y0312146D01*
G01X1208811Y0312146D02*
G01X1208504Y0312398D01*
G01X1208504Y0312398D02*
G01X1208213Y0312657D01*
G01X1208213Y0312657D02*
G01X1207929Y0312929D01*
G01X1207929Y0312929D02*
G01X1207657Y0313213D01*
G01X1207657Y0313213D02*
G01X1207398Y0313504D01*
G01X1207398Y0313504D02*
G01X1207146Y0313811D01*
G01X1207146Y0313811D02*
G01X1206909Y0314122D01*
G01X1206909Y0314122D02*
G01X1206685Y0314445D01*
G01X1206685Y0314445D02*
G01X1206472Y0314776D01*
G01X1206472Y0314776D02*
G01X1206276Y0315114D01*
G01X1206276Y0315114D02*
G01X1206091Y0315461D01*
G01X1206091Y0315461D02*
G01X1205917Y0315815D01*
G01X1205917Y0315815D02*
G01X1205760Y0316173D01*
G01X1205760Y0316173D02*
G01X1205618Y0316539D01*
G01X1205618Y0316539D02*
G01X1205488Y0316909D01*
G01X1205488Y0316909D02*
G01X1205374Y0317287D01*
G01X1205374Y0317287D02*
G01X1205276Y0317665D01*
G01X1205276Y0317665D02*
G01X1205193Y0318047D01*
G01X1205193Y0318047D02*
G01X1205122Y0318437D01*
G01X1205122Y0318437D02*
G01X1205071Y0318823D01*
G01X1205071Y0318823D02*
G01X1205031Y0319217D01*
G01X1205031Y0319217D02*
G01X1205008Y0319606D01*
G01X1205008Y0319606D02*
G01X1205000Y0320000D01*
G01X1205000Y0320000D02*
G01X1205000Y0380000D01*
G01X1395000Y0380000D02*
G01X1395000Y0320000D01*
G01X1385000Y0390000D02*
G01X1215000Y0390000D01*
G54D14*
G01X1395000Y0407500D02*
G01X1395008Y0407106D01*
G01X1395008Y0407106D02*
G01X1395031Y0406717D01*
G01X1395031Y0406717D02*
G01X1395071Y0406323D01*
G01X1395071Y0406323D02*
G01X1395122Y0405937D01*
G01X1395122Y0405937D02*
G01X1395193Y0405547D01*
G01X1395193Y0405547D02*
G01X1395276Y0405165D01*
G01X1395276Y0405165D02*
G01X1395374Y0404787D01*
G01X1395374Y0404787D02*
G01X1395488Y0404409D01*
G01X1395488Y0404409D02*
G01X1395618Y0404039D01*
G01X1395618Y0404039D02*
G01X1395760Y0403673D01*
G01X1395760Y0403673D02*
G01X1395917Y0403315D01*
G01X1395917Y0403315D02*
G01X1396091Y0402961D01*
G01X1396091Y0402961D02*
G01X1396276Y0402614D01*
G01X1396276Y0402614D02*
G01X1396472Y0402276D01*
G01X1396472Y0402276D02*
G01X1396685Y0401945D01*
G01X1396685Y0401945D02*
G01X1396909Y0401622D01*
G01X1396909Y0401622D02*
G01X1397146Y0401311D01*
G01X1397146Y0401311D02*
G01X1397398Y0401004D01*
G01X1397398Y0401004D02*
G01X1397657Y0400713D01*
G01X1397657Y0400713D02*
G01X1397929Y0400429D01*
G01X1397929Y0400429D02*
G01X1398213Y0400157D01*
G01X1398213Y0400157D02*
G01X1398504Y0399898D01*
G01X1398504Y0399898D02*
G01X1398811Y0399646D01*
G01X1398811Y0399646D02*
G01X1399122Y0399409D01*
G01X1399122Y0399409D02*
G01X1399445Y0399185D01*
G01X1399445Y0399185D02*
G01X1399776Y0398972D01*
G01X1399776Y0398972D02*
G01X1400114Y0398776D01*
G01X1400114Y0398776D02*
G01X1400461Y0398591D01*
G01X1400461Y0398591D02*
G01X1400815Y0398417D01*
G01X1400815Y0398417D02*
G01X1401173Y0398260D01*
G01X1401173Y0398260D02*
G01X1401539Y0398118D01*
G01X1401539Y0398118D02*
G01X1401909Y0397988D01*
G01X1401909Y0397988D02*
G01X1402287Y0397874D01*
G01X1402287Y0397874D02*
G01X1402665Y0397776D01*
G01X1402665Y0397776D02*
G01X1403047Y0397693D01*
G01X1403047Y0397693D02*
G01X1403437Y0397622D01*
G01X1403437Y0397622D02*
G01X1403823Y0397571D01*
G01X1403823Y0397571D02*
G01X1404217Y0397531D01*
G01X1404217Y0397531D02*
G01X1404606Y0397508D01*
G01X1404606Y0397508D02*
G01X1405000Y0397500D01*
G01X1405000Y0397500D02*
G01X1405555Y0397508D01*
G01X1405555Y0397508D02*
G01X1406110Y0397528D01*
G01X1406110Y0397528D02*
G01X1406665Y0397567D01*
G01X1406665Y0397567D02*
G01X1407220Y0397618D01*
G01X1407220Y0397618D02*
G01X1407772Y0397681D01*
G01X1407772Y0397681D02*
G01X1408323Y0397764D01*
G01X1408323Y0397764D02*
G01X1408870Y0397858D01*
G01X1408870Y0397858D02*
G01X1409417Y0397969D01*
G01X1409417Y0397969D02*
G01X1409957Y0398091D01*
G01X1409957Y0398091D02*
G01X1410496Y0398228D01*
G01X1410496Y0398228D02*
G01X1411031Y0398378D01*
G01X1411031Y0398378D02*
G01X1411563Y0398543D01*
G01X1411563Y0398543D02*
G01X1412087Y0398724D01*
G01X1412087Y0398724D02*
G01X1412610Y0398917D01*
G01X1412610Y0398917D02*
G01X1413126Y0399126D01*
G01X1413126Y0399126D02*
G01X1413634Y0399346D01*
G01X1413634Y0399346D02*
G01X1414142Y0399579D01*
G01X1414142Y0399579D02*
G01X1414638Y0399827D01*
G01X1414638Y0399827D02*
G01X1415130Y0400087D01*
G01X1415130Y0400087D02*
G01X1415614Y0400358D01*
G01X1415614Y0400358D02*
G01X1416091Y0400646D01*
G01X1416091Y0400646D02*
G01X1416559Y0400945D01*
G01X1416559Y0400945D02*
G01X1417024Y0401256D01*
G01X1417024Y0401256D02*
G01X1417476Y0401575D01*
G01X1417476Y0401575D02*
G01X1417917Y0401909D01*
G01X1417917Y0401909D02*
G01X1418354Y0402256D01*
G01X1418354Y0402256D02*
G01X1418780Y0402614D01*
G01X1418780Y0402614D02*
G01X1419197Y0402980D01*
G01X1419197Y0402980D02*
G01X1419602Y0403362D01*
G01X1419602Y0403362D02*
G01X1420000Y0403752D01*
G01X1418752Y0432500D02*
G01X1418744Y0432894D01*
G01X1418744Y0432894D02*
G01X1418720Y0433283D01*
G01X1418720Y0433283D02*
G01X1418681Y0433677D01*
G01X1418681Y0433677D02*
G01X1418630Y0434063D01*
G01X1418630Y0434063D02*
G01X1418559Y0434453D01*
G01X1418559Y0434453D02*
G01X1418476Y0434835D01*
G01X1418476Y0434835D02*
G01X1418378Y0435213D01*
G01X1418378Y0435213D02*
G01X1418264Y0435591D01*
G01X1418264Y0435591D02*
G01X1418134Y0435961D01*
G01X1418134Y0435961D02*
G01X1417992Y0436327D01*
G01X1417992Y0436327D02*
G01X1417835Y0436685D01*
G01X1417835Y0436685D02*
G01X1417661Y0437039D01*
G01X1417661Y0437039D02*
G01X1417476Y0437386D01*
G01X1417476Y0437386D02*
G01X1417280Y0437724D01*
G01X1417280Y0437724D02*
G01X1417067Y0438055D01*
G01X1417067Y0438055D02*
G01X1416843Y0438378D01*
G01X1416843Y0438378D02*
G01X1416606Y0438689D01*
G01X1416606Y0438689D02*
G01X1416354Y0438996D01*
G01X1416354Y0438996D02*
G01X1416094Y0439287D01*
G01X1416094Y0439287D02*
G01X1415823Y0439571D01*
G01X1415823Y0439571D02*
G01X1415539Y0439843D01*
G01X1415539Y0439843D02*
G01X1415248Y0440102D01*
G01X1415248Y0440102D02*
G01X1414941Y0440354D01*
G01X1414941Y0440354D02*
G01X1414630Y0440591D01*
G01X1414630Y0440591D02*
G01X1414307Y0440815D01*
G01X1414307Y0440815D02*
G01X1413976Y0441028D01*
G01X1413976Y0441028D02*
G01X1413638Y0441224D01*
G01X1413638Y0441224D02*
G01X1413291Y0441409D01*
G01X1413291Y0441409D02*
G01X1412937Y0441583D01*
G01X1412937Y0441583D02*
G01X1412579Y0441740D01*
G01X1412579Y0441740D02*
G01X1412213Y0441882D01*
G01X1412213Y0441882D02*
G01X1411843Y0442012D01*
G01X1411843Y0442012D02*
G01X1411465Y0442126D01*
G01X1411465Y0442126D02*
G01X1411087Y0442224D01*
G01X1411087Y0442224D02*
G01X1410705Y0442307D01*
G01X1410705Y0442307D02*
G01X1410315Y0442378D01*
G01X1410315Y0442378D02*
G01X1409929Y0442429D01*
G01X1409929Y0442429D02*
G01X1409535Y0442469D01*
G01X1409535Y0442469D02*
G01X1409146Y0442492D01*
G01X1409146Y0442492D02*
G01X1408752Y0442500D01*
G01X1408752Y0442504D02*
G01X1408228Y0442496D01*
G01X1408228Y0442496D02*
G01X1407705Y0442476D01*
G01X1407705Y0442476D02*
G01X1407181Y0442437D01*
G01X1407181Y0442437D02*
G01X1406657Y0442386D01*
G01X1406657Y0442386D02*
G01X1406138Y0442319D01*
G01X1406138Y0442319D02*
G01X1405618Y0442240D01*
G01X1405618Y0442240D02*
G01X1405102Y0442146D01*
G01X1405102Y0442146D02*
G01X1404591Y0442035D01*
G01X1404591Y0442035D02*
G01X1404079Y0441913D01*
G01X1404079Y0441913D02*
G01X1403575Y0441776D01*
G01X1403575Y0441776D02*
G01X1403071Y0441622D01*
G01X1403071Y0441622D02*
G01X1402575Y0441457D01*
G01X1402575Y0441457D02*
G01X1402083Y0441276D01*
G01X1402083Y0441276D02*
G01X1401594Y0441083D01*
G01X1401594Y0441083D02*
G01X1401110Y0440878D01*
G01X1401110Y0440878D02*
G01X1400634Y0440657D01*
G01X1400634Y0440657D02*
G01X1400165Y0440421D01*
G01X1400165Y0440421D02*
G01X1399701Y0440177D01*
G01X1399701Y0440177D02*
G01X1399248Y0439917D01*
G01X1399248Y0439917D02*
G01X1398799Y0439646D01*
G01X1398799Y0439646D02*
G01X1398358Y0439358D01*
G01X1398358Y0439358D02*
G01X1397925Y0439063D01*
G01X1397925Y0439063D02*
G01X1397500Y0438752D01*
G01X1413752Y0423748D02*
G01X1414083Y0423953D01*
G01X1414083Y0423953D02*
G01X1414409Y0424169D01*
G01X1414409Y0424169D02*
G01X1414724Y0424402D01*
G01X1414724Y0424402D02*
G01X1415031Y0424642D01*
G01X1415031Y0424642D02*
G01X1415327Y0424894D01*
G01X1415327Y0424894D02*
G01X1415614Y0425161D01*
G01X1415614Y0425161D02*
G01X1415894Y0425437D01*
G01X1415894Y0425437D02*
G01X1416157Y0425720D01*
G01X1416157Y0425720D02*
G01X1416413Y0426016D01*
G01X1416413Y0426016D02*
G01X1416657Y0426323D01*
G01X1416657Y0426323D02*
G01X1416890Y0426638D01*
G01X1416890Y0426638D02*
G01X1417110Y0426961D01*
G01X1417110Y0426961D02*
G01X1417315Y0427291D01*
G01X1417315Y0427291D02*
G01X1417508Y0427630D01*
G01X1417508Y0427630D02*
G01X1417689Y0427976D01*
G01X1417689Y0427976D02*
G01X1417858Y0428331D01*
G01X1417858Y0428331D02*
G01X1418012Y0428689D01*
G01X1418012Y0428689D02*
G01X1418150Y0429055D01*
G01X1418150Y0429055D02*
G01X1418276Y0429425D01*
G01X1418276Y0429425D02*
G01X1418386Y0429799D01*
G01X1418386Y0429799D02*
G01X1418484Y0430177D01*
G01X1418484Y0430177D02*
G01X1418563Y0430559D01*
G01X1418563Y0430559D02*
G01X1418634Y0430945D01*
G01X1418634Y0430945D02*
G01X1418685Y0431331D01*
G01X1418685Y0431331D02*
G01X1418720Y0431720D01*
G01X1418720Y0431720D02*
G01X1418744Y0432110D01*
G01X1418744Y0432110D02*
G01X1418752Y0432500D01*
G01X1400000Y0416252D02*
G01X1399669Y0416047D01*
G01X1399669Y0416047D02*
G01X1399343Y0415831D01*
G01X1399343Y0415831D02*
G01X1399028Y0415598D01*
G01X1399028Y0415598D02*
G01X1398720Y0415358D01*
G01X1398720Y0415358D02*
G01X1398425Y0415106D01*
G01X1398425Y0415106D02*
G01X1398138Y0414839D01*
G01X1398138Y0414839D02*
G01X1397858Y0414563D01*
G01X1397858Y0414563D02*
G01X1397594Y0414280D01*
G01X1397594Y0414280D02*
G01X1397339Y0413984D01*
G01X1397339Y0413984D02*
G01X1397094Y0413677D01*
G01X1397094Y0413677D02*
G01X1396862Y0413362D01*
G01X1396862Y0413362D02*
G01X1396642Y0413039D01*
G01X1396642Y0413039D02*
G01X1396437Y0412709D01*
G01X1396437Y0412709D02*
G01X1396244Y0412370D01*
G01X1396244Y0412370D02*
G01X1396063Y0412024D01*
G01X1396063Y0412024D02*
G01X1395894Y0411669D01*
G01X1395894Y0411669D02*
G01X1395740Y0411311D01*
G01X1395740Y0411311D02*
G01X1395602Y0410945D01*
G01X1395602Y0410945D02*
G01X1395476Y0410575D01*
G01X1395476Y0410575D02*
G01X1395366Y0410201D01*
G01X1395366Y0410201D02*
G01X1395268Y0409823D01*
G01X1395268Y0409823D02*
G01X1395189Y0409441D01*
G01X1395189Y0409441D02*
G01X1395118Y0409055D01*
G01X1395118Y0409055D02*
G01X1395067Y0408669D01*
G01X1395067Y0408669D02*
G01X1395031Y0408280D01*
G01X1395031Y0408280D02*
G01X1395008Y0407890D01*
G01X1395008Y0407890D02*
G01X1395000Y0407500D01*
G01X1400000Y0416252D02*
G01X1413752Y0423752D01*
G01X1366295Y0407500D02*
G01X1366295Y0442500D01*
G01X1366295Y0407500D02*
G01X1366303Y0407106D01*
G01X1366303Y0407106D02*
G01X1366327Y0406717D01*
G01X1366327Y0406717D02*
G01X1366366Y0406323D01*
G01X1366366Y0406323D02*
G01X1366417Y0405937D01*
G01X1366417Y0405937D02*
G01X1366488Y0405547D01*
G01X1366488Y0405547D02*
G01X1366571Y0405165D01*
G01X1366571Y0405165D02*
G01X1366669Y0404787D01*
G01X1366669Y0404787D02*
G01X1366783Y0404409D01*
G01X1366783Y0404409D02*
G01X1366913Y0404039D01*
G01X1366913Y0404039D02*
G01X1367055Y0403673D01*
G01X1367055Y0403673D02*
G01X1367213Y0403315D01*
G01X1367213Y0403315D02*
G01X1367386Y0402961D01*
G01X1367386Y0402961D02*
G01X1367571Y0402614D01*
G01X1367571Y0402614D02*
G01X1367768Y0402276D01*
G01X1367768Y0402276D02*
G01X1367980Y0401945D01*
G01X1367980Y0401945D02*
G01X1368205Y0401622D01*
G01X1368205Y0401622D02*
G01X1368441Y0401311D01*
G01X1368441Y0401311D02*
G01X1368693Y0401004D01*
G01X1368693Y0401004D02*
G01X1368953Y0400713D01*
G01X1368953Y0400713D02*
G01X1369224Y0400429D01*
G01X1369224Y0400429D02*
G01X1369508Y0400157D01*
G01X1369508Y0400157D02*
G01X1369799Y0399898D01*
G01X1369799Y0399898D02*
G01X1370106Y0399646D01*
G01X1370106Y0399646D02*
G01X1370417Y0399409D01*
G01X1370417Y0399409D02*
G01X1370740Y0399185D01*
G01X1370740Y0399185D02*
G01X1371071Y0398972D01*
G01X1371071Y0398972D02*
G01X1371409Y0398776D01*
G01X1371409Y0398776D02*
G01X1371756Y0398591D01*
G01X1371756Y0398591D02*
G01X1372110Y0398417D01*
G01X1372110Y0398417D02*
G01X1372469Y0398260D01*
G01X1372469Y0398260D02*
G01X1372835Y0398118D01*
G01X1372835Y0398118D02*
G01X1373205Y0397988D01*
G01X1373205Y0397988D02*
G01X1373583Y0397874D01*
G01X1373583Y0397874D02*
G01X1373961Y0397776D01*
G01X1373961Y0397776D02*
G01X1374343Y0397693D01*
G01X1374343Y0397693D02*
G01X1374732Y0397622D01*
G01X1374732Y0397622D02*
G01X1375118Y0397571D01*
G01X1375118Y0397571D02*
G01X1375512Y0397531D01*
G01X1375512Y0397531D02*
G01X1375902Y0397508D01*
G01X1375902Y0397508D02*
G01X1376295Y0397500D01*
G01X1376295Y0397500D02*
G01X1381295Y0397500D01*
G01X1345000Y0432500D02*
G01X1332500Y0442500D01*
G01X1332500Y0442500D02*
G01X1332500Y0397500D01*
G01X1345000Y0397500D02*
G01X1320000Y0397500D01*
M02*
